G04 #@! TF.GenerationSoftware,KiCad,Pcbnew,(5.1.6)-1*
G04 #@! TF.CreationDate,2020-12-31T21:45:04+08:00*
G04 #@! TF.ProjectId,vs1053-waveblaster-se,76733130-3533-42d7-9761-7665626c6173,C*
G04 #@! TF.SameCoordinates,Original*
G04 #@! TF.FileFunction,Legend,Bot*
G04 #@! TF.FilePolarity,Positive*
%FSLAX46Y46*%
G04 Gerber Fmt 4.6, Leading zero omitted, Abs format (unit mm)*
G04 Created by KiCad (PCBNEW (5.1.6)-1) date 2020-12-31 21:45:04*
%MOMM*%
%LPD*%
G01*
G04 APERTURE LIST*
%ADD10C,0.150000*%
%ADD11C,0.125000*%
%ADD12C,0.437500*%
%ADD13C,0.200000*%
%ADD14C,0.010000*%
%ADD15C,0.120000*%
G04 APERTURE END LIST*
D10*
X169588571Y-95322380D02*
X168088571Y-95322380D01*
X169160000Y-95655714D01*
X168088571Y-95989047D01*
X169588571Y-95989047D01*
X169588571Y-96893809D02*
X168802857Y-96893809D01*
X168660000Y-96846190D01*
X168588571Y-96750952D01*
X168588571Y-96560476D01*
X168660000Y-96465238D01*
X169517142Y-96893809D02*
X169588571Y-96798571D01*
X169588571Y-96560476D01*
X169517142Y-96465238D01*
X169374285Y-96417619D01*
X169231428Y-96417619D01*
X169088571Y-96465238D01*
X169017142Y-96560476D01*
X169017142Y-96798571D01*
X168945714Y-96893809D01*
X169588571Y-97274761D02*
X168588571Y-97798571D01*
X168588571Y-97274761D02*
X169588571Y-97798571D01*
X169445714Y-98179523D02*
X169517142Y-98227142D01*
X169588571Y-98179523D01*
X169517142Y-98131904D01*
X169445714Y-98179523D01*
X169588571Y-98179523D01*
X169588571Y-98655714D02*
X168088571Y-98655714D01*
X168088571Y-99036666D01*
X168160000Y-99131904D01*
X168231428Y-99179523D01*
X168374285Y-99227142D01*
X168588571Y-99227142D01*
X168731428Y-99179523D01*
X168802857Y-99131904D01*
X168874285Y-99036666D01*
X168874285Y-98655714D01*
X169588571Y-99798571D02*
X169517142Y-99703333D01*
X169445714Y-99655714D01*
X169302857Y-99608095D01*
X168874285Y-99608095D01*
X168731428Y-99655714D01*
X168660000Y-99703333D01*
X168588571Y-99798571D01*
X168588571Y-99941428D01*
X168660000Y-100036666D01*
X168731428Y-100084285D01*
X168874285Y-100131904D01*
X169302857Y-100131904D01*
X169445714Y-100084285D01*
X169517142Y-100036666D01*
X169588571Y-99941428D01*
X169588571Y-99798571D01*
X169588571Y-100703333D02*
X169517142Y-100608095D01*
X169374285Y-100560476D01*
X168088571Y-100560476D01*
X168588571Y-100989047D02*
X169588571Y-101227142D01*
X168588571Y-101465238D02*
X169588571Y-101227142D01*
X169945714Y-101131904D01*
X170017142Y-101084285D01*
X170088571Y-100989047D01*
X168588571Y-101846190D02*
X170088571Y-101846190D01*
X168660000Y-101846190D02*
X168588571Y-101941428D01*
X168588571Y-102131904D01*
X168660000Y-102227142D01*
X168731428Y-102274761D01*
X168874285Y-102322380D01*
X169302857Y-102322380D01*
X169445714Y-102274761D01*
X169517142Y-102227142D01*
X169588571Y-102131904D01*
X169588571Y-101941428D01*
X169517142Y-101846190D01*
X169588571Y-102750952D02*
X168088571Y-102750952D01*
X169588571Y-103179523D02*
X168802857Y-103179523D01*
X168660000Y-103131904D01*
X168588571Y-103036666D01*
X168588571Y-102893809D01*
X168660000Y-102798571D01*
X168731428Y-102750952D01*
X169588571Y-103798571D02*
X169517142Y-103703333D01*
X169445714Y-103655714D01*
X169302857Y-103608095D01*
X168874285Y-103608095D01*
X168731428Y-103655714D01*
X168660000Y-103703333D01*
X168588571Y-103798571D01*
X168588571Y-103941428D01*
X168660000Y-104036666D01*
X168731428Y-104084285D01*
X168874285Y-104131904D01*
X169302857Y-104131904D01*
X169445714Y-104084285D01*
X169517142Y-104036666D01*
X169588571Y-103941428D01*
X169588571Y-103798571D01*
X168588571Y-104560476D02*
X169588571Y-104560476D01*
X168731428Y-104560476D02*
X168660000Y-104608095D01*
X168588571Y-104703333D01*
X168588571Y-104846190D01*
X168660000Y-104941428D01*
X168802857Y-104989047D01*
X169588571Y-104989047D01*
X168588571Y-105370000D02*
X169588571Y-105608095D01*
X168588571Y-105846190D02*
X169588571Y-105608095D01*
X169945714Y-105512857D01*
X170017142Y-105465238D01*
X170088571Y-105370000D01*
X168802857Y-106989047D02*
X168802857Y-107750952D01*
X169231428Y-107750952D02*
X169231428Y-106989047D01*
X168088571Y-109417619D02*
X168088571Y-109227142D01*
X168160000Y-109131904D01*
X168231428Y-109084285D01*
X168445714Y-108989047D01*
X168731428Y-108941428D01*
X169302857Y-108941428D01*
X169445714Y-108989047D01*
X169517142Y-109036666D01*
X169588571Y-109131904D01*
X169588571Y-109322380D01*
X169517142Y-109417619D01*
X169445714Y-109465238D01*
X169302857Y-109512857D01*
X168945714Y-109512857D01*
X168802857Y-109465238D01*
X168731428Y-109417619D01*
X168660000Y-109322380D01*
X168660000Y-109131904D01*
X168731428Y-109036666D01*
X168802857Y-108989047D01*
X168945714Y-108941428D01*
X168588571Y-110370000D02*
X169588571Y-110370000D01*
X168017142Y-110131904D02*
X169088571Y-109893809D01*
X169088571Y-110512857D01*
D11*
X160265238Y-88688690D02*
X160265238Y-88188690D01*
X160074761Y-88188690D01*
X160027142Y-88212500D01*
X160003333Y-88236309D01*
X159979523Y-88283928D01*
X159979523Y-88355357D01*
X160003333Y-88402976D01*
X160027142Y-88426785D01*
X160074761Y-88450595D01*
X160265238Y-88450595D01*
X159550952Y-88688690D02*
X159550952Y-88426785D01*
X159574761Y-88379166D01*
X159622380Y-88355357D01*
X159717619Y-88355357D01*
X159765238Y-88379166D01*
X159550952Y-88664880D02*
X159598571Y-88688690D01*
X159717619Y-88688690D01*
X159765238Y-88664880D01*
X159789047Y-88617261D01*
X159789047Y-88569642D01*
X159765238Y-88522023D01*
X159717619Y-88498214D01*
X159598571Y-88498214D01*
X159550952Y-88474404D01*
X159312857Y-88688690D02*
X159312857Y-88355357D01*
X159312857Y-88450595D02*
X159289047Y-88402976D01*
X159265238Y-88379166D01*
X159217619Y-88355357D01*
X159170000Y-88355357D01*
X159074761Y-88355357D02*
X158884285Y-88355357D01*
X159003333Y-88188690D02*
X159003333Y-88617261D01*
X158979523Y-88664880D01*
X158931904Y-88688690D01*
X158884285Y-88688690D01*
X158717619Y-88688690D02*
X158717619Y-88355357D01*
X158717619Y-88188690D02*
X158741428Y-88212500D01*
X158717619Y-88236309D01*
X158693809Y-88212500D01*
X158717619Y-88188690D01*
X158717619Y-88236309D01*
X158265238Y-88688690D02*
X158265238Y-88426785D01*
X158289047Y-88379166D01*
X158336666Y-88355357D01*
X158431904Y-88355357D01*
X158479523Y-88379166D01*
X158265238Y-88664880D02*
X158312857Y-88688690D01*
X158431904Y-88688690D01*
X158479523Y-88664880D01*
X158503333Y-88617261D01*
X158503333Y-88569642D01*
X158479523Y-88522023D01*
X158431904Y-88498214D01*
X158312857Y-88498214D01*
X158265238Y-88474404D01*
X157955714Y-88688690D02*
X158003333Y-88664880D01*
X158027142Y-88617261D01*
X158027142Y-88188690D01*
X157693809Y-88688690D02*
X157741428Y-88664880D01*
X157765238Y-88617261D01*
X157765238Y-88188690D01*
X157550952Y-88355357D02*
X157431904Y-88688690D01*
X157312857Y-88355357D02*
X157431904Y-88688690D01*
X157479523Y-88807738D01*
X157503333Y-88831547D01*
X157550952Y-88855357D01*
X156765238Y-88664880D02*
X156693809Y-88688690D01*
X156574761Y-88688690D01*
X156527142Y-88664880D01*
X156503333Y-88641071D01*
X156479523Y-88593452D01*
X156479523Y-88545833D01*
X156503333Y-88498214D01*
X156527142Y-88474404D01*
X156574761Y-88450595D01*
X156670000Y-88426785D01*
X156717619Y-88402976D01*
X156741428Y-88379166D01*
X156765238Y-88331547D01*
X156765238Y-88283928D01*
X156741428Y-88236309D01*
X156717619Y-88212500D01*
X156670000Y-88188690D01*
X156550952Y-88188690D01*
X156479523Y-88212500D01*
X156050952Y-88355357D02*
X156050952Y-88688690D01*
X156265238Y-88355357D02*
X156265238Y-88617261D01*
X156241428Y-88664880D01*
X156193809Y-88688690D01*
X156122380Y-88688690D01*
X156074761Y-88664880D01*
X156050952Y-88641071D01*
X155812857Y-88355357D02*
X155812857Y-88855357D01*
X155812857Y-88379166D02*
X155765238Y-88355357D01*
X155670000Y-88355357D01*
X155622380Y-88379166D01*
X155598571Y-88402976D01*
X155574761Y-88450595D01*
X155574761Y-88593452D01*
X155598571Y-88641071D01*
X155622380Y-88664880D01*
X155670000Y-88688690D01*
X155765238Y-88688690D01*
X155812857Y-88664880D01*
X155360476Y-88355357D02*
X155360476Y-88855357D01*
X155360476Y-88379166D02*
X155312857Y-88355357D01*
X155217619Y-88355357D01*
X155170000Y-88379166D01*
X155146190Y-88402976D01*
X155122380Y-88450595D01*
X155122380Y-88593452D01*
X155146190Y-88641071D01*
X155170000Y-88664880D01*
X155217619Y-88688690D01*
X155312857Y-88688690D01*
X155360476Y-88664880D01*
X154836666Y-88688690D02*
X154884285Y-88664880D01*
X154908095Y-88641071D01*
X154931904Y-88593452D01*
X154931904Y-88450595D01*
X154908095Y-88402976D01*
X154884285Y-88379166D01*
X154836666Y-88355357D01*
X154765238Y-88355357D01*
X154717619Y-88379166D01*
X154693809Y-88402976D01*
X154670000Y-88450595D01*
X154670000Y-88593452D01*
X154693809Y-88641071D01*
X154717619Y-88664880D01*
X154765238Y-88688690D01*
X154836666Y-88688690D01*
X154455714Y-88688690D02*
X154455714Y-88355357D01*
X154455714Y-88450595D02*
X154431904Y-88402976D01*
X154408095Y-88379166D01*
X154360476Y-88355357D01*
X154312857Y-88355357D01*
X154217619Y-88355357D02*
X154027142Y-88355357D01*
X154146190Y-88188690D02*
X154146190Y-88617261D01*
X154122380Y-88664880D01*
X154074761Y-88688690D01*
X154027142Y-88688690D01*
X153217619Y-88212500D02*
X153265238Y-88188690D01*
X153336666Y-88188690D01*
X153408095Y-88212500D01*
X153455714Y-88260119D01*
X153479523Y-88307738D01*
X153503333Y-88402976D01*
X153503333Y-88474404D01*
X153479523Y-88569642D01*
X153455714Y-88617261D01*
X153408095Y-88664880D01*
X153336666Y-88688690D01*
X153289047Y-88688690D01*
X153217619Y-88664880D01*
X153193809Y-88641071D01*
X153193809Y-88474404D01*
X153289047Y-88474404D01*
X152979523Y-88688690D02*
X152979523Y-88188690D01*
X152812857Y-88545833D01*
X152646190Y-88188690D01*
X152646190Y-88688690D01*
X152431904Y-88236309D02*
X152408095Y-88212500D01*
X152360476Y-88188690D01*
X152241428Y-88188690D01*
X152193809Y-88212500D01*
X152170000Y-88236309D01*
X152146190Y-88283928D01*
X152146190Y-88331547D01*
X152170000Y-88402976D01*
X152455714Y-88688690D01*
X152146190Y-88688690D01*
X151550952Y-88688690D02*
X151550952Y-88188690D01*
X151360476Y-88188690D01*
X151312857Y-88212500D01*
X151289047Y-88236309D01*
X151265238Y-88283928D01*
X151265238Y-88355357D01*
X151289047Y-88402976D01*
X151312857Y-88426785D01*
X151360476Y-88450595D01*
X151550952Y-88450595D01*
X151050952Y-88688690D02*
X151050952Y-88355357D01*
X151050952Y-88450595D02*
X151027142Y-88402976D01*
X151003333Y-88379166D01*
X150955714Y-88355357D01*
X150908095Y-88355357D01*
X150550952Y-88664880D02*
X150598571Y-88688690D01*
X150693809Y-88688690D01*
X150741428Y-88664880D01*
X150765238Y-88617261D01*
X150765238Y-88426785D01*
X150741428Y-88379166D01*
X150693809Y-88355357D01*
X150598571Y-88355357D01*
X150550952Y-88379166D01*
X150527142Y-88426785D01*
X150527142Y-88474404D01*
X150765238Y-88522023D01*
X150098571Y-88664880D02*
X150146190Y-88688690D01*
X150241428Y-88688690D01*
X150289047Y-88664880D01*
X150312857Y-88641071D01*
X150336666Y-88593452D01*
X150336666Y-88450595D01*
X150312857Y-88402976D01*
X150289047Y-88379166D01*
X150241428Y-88355357D01*
X150146190Y-88355357D01*
X150098571Y-88379166D01*
X149670000Y-88355357D02*
X149670000Y-88688690D01*
X149884285Y-88355357D02*
X149884285Y-88617261D01*
X149860476Y-88664880D01*
X149812857Y-88688690D01*
X149741428Y-88688690D01*
X149693809Y-88664880D01*
X149670000Y-88641071D01*
X149455714Y-88664880D02*
X149408095Y-88688690D01*
X149312857Y-88688690D01*
X149265238Y-88664880D01*
X149241428Y-88617261D01*
X149241428Y-88593452D01*
X149265238Y-88545833D01*
X149312857Y-88522023D01*
X149384285Y-88522023D01*
X149431904Y-88498214D01*
X149455714Y-88450595D01*
X149455714Y-88426785D01*
X149431904Y-88379166D01*
X149384285Y-88355357D01*
X149312857Y-88355357D01*
X149265238Y-88379166D01*
X149050952Y-88664880D02*
X149003333Y-88688690D01*
X148908095Y-88688690D01*
X148860476Y-88664880D01*
X148836666Y-88617261D01*
X148836666Y-88593452D01*
X148860476Y-88545833D01*
X148908095Y-88522023D01*
X148979523Y-88522023D01*
X149027142Y-88498214D01*
X149050952Y-88450595D01*
X149050952Y-88426785D01*
X149027142Y-88379166D01*
X148979523Y-88355357D01*
X148908095Y-88355357D01*
X148860476Y-88379166D01*
X148622380Y-88688690D02*
X148622380Y-88355357D01*
X148622380Y-88188690D02*
X148646190Y-88212500D01*
X148622380Y-88236309D01*
X148598571Y-88212500D01*
X148622380Y-88188690D01*
X148622380Y-88236309D01*
X148312857Y-88688690D02*
X148360476Y-88664880D01*
X148384285Y-88641071D01*
X148408095Y-88593452D01*
X148408095Y-88450595D01*
X148384285Y-88402976D01*
X148360476Y-88379166D01*
X148312857Y-88355357D01*
X148241428Y-88355357D01*
X148193809Y-88379166D01*
X148170000Y-88402976D01*
X148146190Y-88450595D01*
X148146190Y-88593452D01*
X148170000Y-88641071D01*
X148193809Y-88664880D01*
X148241428Y-88688690D01*
X148312857Y-88688690D01*
X147931904Y-88355357D02*
X147931904Y-88688690D01*
X147931904Y-88402976D02*
X147908095Y-88379166D01*
X147860476Y-88355357D01*
X147789047Y-88355357D01*
X147741428Y-88379166D01*
X147717619Y-88426785D01*
X147717619Y-88688690D01*
X147503333Y-88664880D02*
X147455714Y-88688690D01*
X147360476Y-88688690D01*
X147312857Y-88664880D01*
X147289047Y-88617261D01*
X147289047Y-88593452D01*
X147312857Y-88545833D01*
X147360476Y-88522023D01*
X147431904Y-88522023D01*
X147479523Y-88498214D01*
X147503333Y-88450595D01*
X147503333Y-88426785D01*
X147479523Y-88379166D01*
X147431904Y-88355357D01*
X147360476Y-88355357D01*
X147312857Y-88379166D01*
X147074761Y-88641071D02*
X147050952Y-88664880D01*
X147074761Y-88688690D01*
X147098571Y-88664880D01*
X147074761Y-88641071D01*
X147074761Y-88688690D01*
X159812857Y-89539880D02*
X159741428Y-89563690D01*
X159622380Y-89563690D01*
X159574761Y-89539880D01*
X159550952Y-89516071D01*
X159527142Y-89468452D01*
X159527142Y-89420833D01*
X159550952Y-89373214D01*
X159574761Y-89349404D01*
X159622380Y-89325595D01*
X159717619Y-89301785D01*
X159765238Y-89277976D01*
X159789047Y-89254166D01*
X159812857Y-89206547D01*
X159812857Y-89158928D01*
X159789047Y-89111309D01*
X159765238Y-89087500D01*
X159717619Y-89063690D01*
X159598571Y-89063690D01*
X159527142Y-89087500D01*
X159098571Y-89230357D02*
X159098571Y-89563690D01*
X159312857Y-89230357D02*
X159312857Y-89492261D01*
X159289047Y-89539880D01*
X159241428Y-89563690D01*
X159170000Y-89563690D01*
X159122380Y-89539880D01*
X159098571Y-89516071D01*
X158860476Y-89230357D02*
X158860476Y-89730357D01*
X158860476Y-89254166D02*
X158812857Y-89230357D01*
X158717619Y-89230357D01*
X158670000Y-89254166D01*
X158646190Y-89277976D01*
X158622380Y-89325595D01*
X158622380Y-89468452D01*
X158646190Y-89516071D01*
X158670000Y-89539880D01*
X158717619Y-89563690D01*
X158812857Y-89563690D01*
X158860476Y-89539880D01*
X158408095Y-89230357D02*
X158408095Y-89730357D01*
X158408095Y-89254166D02*
X158360476Y-89230357D01*
X158265238Y-89230357D01*
X158217619Y-89254166D01*
X158193809Y-89277976D01*
X158170000Y-89325595D01*
X158170000Y-89468452D01*
X158193809Y-89516071D01*
X158217619Y-89539880D01*
X158265238Y-89563690D01*
X158360476Y-89563690D01*
X158408095Y-89539880D01*
X157884285Y-89563690D02*
X157931904Y-89539880D01*
X157955714Y-89516071D01*
X157979523Y-89468452D01*
X157979523Y-89325595D01*
X157955714Y-89277976D01*
X157931904Y-89254166D01*
X157884285Y-89230357D01*
X157812857Y-89230357D01*
X157765238Y-89254166D01*
X157741428Y-89277976D01*
X157717619Y-89325595D01*
X157717619Y-89468452D01*
X157741428Y-89516071D01*
X157765238Y-89539880D01*
X157812857Y-89563690D01*
X157884285Y-89563690D01*
X157503333Y-89563690D02*
X157503333Y-89230357D01*
X157503333Y-89325595D02*
X157479523Y-89277976D01*
X157455714Y-89254166D01*
X157408095Y-89230357D01*
X157360476Y-89230357D01*
X157265238Y-89230357D02*
X157074761Y-89230357D01*
X157193809Y-89063690D02*
X157193809Y-89492261D01*
X157170000Y-89539880D01*
X157122380Y-89563690D01*
X157074761Y-89563690D01*
X156550952Y-89539880D02*
X156479523Y-89563690D01*
X156360476Y-89563690D01*
X156312857Y-89539880D01*
X156289047Y-89516071D01*
X156265238Y-89468452D01*
X156265238Y-89420833D01*
X156289047Y-89373214D01*
X156312857Y-89349404D01*
X156360476Y-89325595D01*
X156455714Y-89301785D01*
X156503333Y-89277976D01*
X156527142Y-89254166D01*
X156550952Y-89206547D01*
X156550952Y-89158928D01*
X156527142Y-89111309D01*
X156503333Y-89087500D01*
X156455714Y-89063690D01*
X156336666Y-89063690D01*
X156265238Y-89087500D01*
X156050952Y-89563690D02*
X156050952Y-89063690D01*
X155860476Y-89063690D01*
X155812857Y-89087500D01*
X155789047Y-89111309D01*
X155765238Y-89158928D01*
X155765238Y-89230357D01*
X155789047Y-89277976D01*
X155812857Y-89301785D01*
X155860476Y-89325595D01*
X156050952Y-89325595D01*
X155550952Y-89373214D02*
X155170000Y-89373214D01*
X154931904Y-89563690D02*
X154931904Y-89063690D01*
X154765238Y-89420833D01*
X154598571Y-89063690D01*
X154598571Y-89563690D01*
X154360476Y-89563690D02*
X154360476Y-89063690D01*
X154122380Y-89563690D02*
X154122380Y-89063690D01*
X154003333Y-89063690D01*
X153931904Y-89087500D01*
X153884285Y-89135119D01*
X153860476Y-89182738D01*
X153836666Y-89277976D01*
X153836666Y-89349404D01*
X153860476Y-89444642D01*
X153884285Y-89492261D01*
X153931904Y-89539880D01*
X154003333Y-89563690D01*
X154122380Y-89563690D01*
X153622380Y-89563690D02*
X153622380Y-89063690D01*
X152836666Y-89301785D02*
X153003333Y-89301785D01*
X153003333Y-89563690D02*
X153003333Y-89063690D01*
X152765238Y-89063690D01*
X152503333Y-89563690D02*
X152550952Y-89539880D01*
X152574761Y-89516071D01*
X152598571Y-89468452D01*
X152598571Y-89325595D01*
X152574761Y-89277976D01*
X152550952Y-89254166D01*
X152503333Y-89230357D01*
X152431904Y-89230357D01*
X152384285Y-89254166D01*
X152360476Y-89277976D01*
X152336666Y-89325595D01*
X152336666Y-89468452D01*
X152360476Y-89516071D01*
X152384285Y-89539880D01*
X152431904Y-89563690D01*
X152503333Y-89563690D01*
X152122380Y-89563690D02*
X152122380Y-89230357D01*
X152122380Y-89325595D02*
X152098571Y-89277976D01*
X152074761Y-89254166D01*
X152027142Y-89230357D01*
X151979523Y-89230357D01*
X151812857Y-89563690D02*
X151812857Y-89230357D01*
X151812857Y-89277976D02*
X151789047Y-89254166D01*
X151741428Y-89230357D01*
X151670000Y-89230357D01*
X151622380Y-89254166D01*
X151598571Y-89301785D01*
X151598571Y-89563690D01*
X151598571Y-89301785D02*
X151574761Y-89254166D01*
X151527142Y-89230357D01*
X151455714Y-89230357D01*
X151408095Y-89254166D01*
X151384285Y-89301785D01*
X151384285Y-89563690D01*
X150931904Y-89563690D02*
X150931904Y-89301785D01*
X150955714Y-89254166D01*
X151003333Y-89230357D01*
X151098571Y-89230357D01*
X151146190Y-89254166D01*
X150931904Y-89539880D02*
X150979523Y-89563690D01*
X151098571Y-89563690D01*
X151146190Y-89539880D01*
X151170000Y-89492261D01*
X151170000Y-89444642D01*
X151146190Y-89397023D01*
X151098571Y-89373214D01*
X150979523Y-89373214D01*
X150931904Y-89349404D01*
X150765238Y-89230357D02*
X150574761Y-89230357D01*
X150693809Y-89063690D02*
X150693809Y-89492261D01*
X150670000Y-89539880D01*
X150622380Y-89563690D01*
X150574761Y-89563690D01*
X149931904Y-89063690D02*
X149884285Y-89063690D01*
X149836666Y-89087500D01*
X149812857Y-89111309D01*
X149789047Y-89158928D01*
X149765238Y-89254166D01*
X149765238Y-89373214D01*
X149789047Y-89468452D01*
X149812857Y-89516071D01*
X149836666Y-89539880D01*
X149884285Y-89563690D01*
X149931904Y-89563690D01*
X149979523Y-89539880D01*
X150003333Y-89516071D01*
X150027142Y-89468452D01*
X150050952Y-89373214D01*
X150050952Y-89254166D01*
X150027142Y-89158928D01*
X150003333Y-89111309D01*
X149979523Y-89087500D01*
X149931904Y-89063690D01*
X149074761Y-89063690D02*
X148979523Y-89063690D01*
X148931904Y-89087500D01*
X148884285Y-89135119D01*
X148860476Y-89230357D01*
X148860476Y-89397023D01*
X148884285Y-89492261D01*
X148931904Y-89539880D01*
X148979523Y-89563690D01*
X149074761Y-89563690D01*
X149122380Y-89539880D01*
X149170000Y-89492261D01*
X149193809Y-89397023D01*
X149193809Y-89230357D01*
X149170000Y-89135119D01*
X149122380Y-89087500D01*
X149074761Y-89063690D01*
X148646190Y-89230357D02*
X148646190Y-89563690D01*
X148646190Y-89277976D02*
X148622380Y-89254166D01*
X148574761Y-89230357D01*
X148503333Y-89230357D01*
X148455714Y-89254166D01*
X148431904Y-89301785D01*
X148431904Y-89563690D01*
X148122380Y-89563690D02*
X148170000Y-89539880D01*
X148193809Y-89492261D01*
X148193809Y-89063690D01*
X147979523Y-89230357D02*
X147860476Y-89563690D01*
X147741428Y-89230357D02*
X147860476Y-89563690D01*
X147908095Y-89682738D01*
X147931904Y-89706547D01*
X147979523Y-89730357D01*
X147550952Y-89516071D02*
X147527142Y-89539880D01*
X147550952Y-89563690D01*
X147574761Y-89539880D01*
X147550952Y-89516071D01*
X147550952Y-89563690D01*
X134075619Y-110321285D02*
X134075619Y-109571285D01*
X133885142Y-109571285D01*
X133837523Y-109607000D01*
X133813714Y-109642714D01*
X133789904Y-109714142D01*
X133789904Y-109821285D01*
X133813714Y-109892714D01*
X133837523Y-109928428D01*
X133885142Y-109964142D01*
X134075619Y-109964142D01*
X133504190Y-110321285D02*
X133551809Y-110285571D01*
X133575619Y-110249857D01*
X133599428Y-110178428D01*
X133599428Y-109964142D01*
X133575619Y-109892714D01*
X133551809Y-109857000D01*
X133504190Y-109821285D01*
X133432761Y-109821285D01*
X133385142Y-109857000D01*
X133361333Y-109892714D01*
X133337523Y-109964142D01*
X133337523Y-110178428D01*
X133361333Y-110249857D01*
X133385142Y-110285571D01*
X133432761Y-110321285D01*
X133504190Y-110321285D01*
X133170857Y-109821285D02*
X133075619Y-110321285D01*
X132980380Y-109964142D01*
X132885142Y-110321285D01*
X132789904Y-109821285D01*
X132408952Y-110285571D02*
X132456571Y-110321285D01*
X132551809Y-110321285D01*
X132599428Y-110285571D01*
X132623238Y-110214142D01*
X132623238Y-109928428D01*
X132599428Y-109857000D01*
X132551809Y-109821285D01*
X132456571Y-109821285D01*
X132408952Y-109857000D01*
X132385142Y-109928428D01*
X132385142Y-109999857D01*
X132623238Y-110071285D01*
X132170857Y-110321285D02*
X132170857Y-109821285D01*
X132170857Y-109964142D02*
X132147047Y-109892714D01*
X132123238Y-109857000D01*
X132075619Y-109821285D01*
X132028000Y-109821285D01*
X131670857Y-110285571D02*
X131718476Y-110321285D01*
X131813714Y-110321285D01*
X131861333Y-110285571D01*
X131885142Y-110214142D01*
X131885142Y-109928428D01*
X131861333Y-109857000D01*
X131813714Y-109821285D01*
X131718476Y-109821285D01*
X131670857Y-109857000D01*
X131647047Y-109928428D01*
X131647047Y-109999857D01*
X131885142Y-110071285D01*
X131218476Y-110321285D02*
X131218476Y-109571285D01*
X131218476Y-110285571D02*
X131266095Y-110321285D01*
X131361333Y-110321285D01*
X131408952Y-110285571D01*
X131432761Y-110249857D01*
X131456571Y-110178428D01*
X131456571Y-109964142D01*
X131432761Y-109892714D01*
X131408952Y-109857000D01*
X131361333Y-109821285D01*
X131266095Y-109821285D01*
X131218476Y-109857000D01*
X130599428Y-110321285D02*
X130599428Y-109571285D01*
X130599428Y-109857000D02*
X130551809Y-109821285D01*
X130456571Y-109821285D01*
X130408952Y-109857000D01*
X130385142Y-109892714D01*
X130361333Y-109964142D01*
X130361333Y-110178428D01*
X130385142Y-110249857D01*
X130408952Y-110285571D01*
X130456571Y-110321285D01*
X130551809Y-110321285D01*
X130599428Y-110285571D01*
X130194666Y-109821285D02*
X130075619Y-110321285D01*
X129956571Y-109821285D02*
X130075619Y-110321285D01*
X130123238Y-110499857D01*
X130147047Y-110535571D01*
X130194666Y-110571285D01*
X129456571Y-109571285D02*
X129289904Y-110321285D01*
X129123238Y-109571285D01*
X128980380Y-110285571D02*
X128908952Y-110321285D01*
X128789904Y-110321285D01*
X128742285Y-110285571D01*
X128718476Y-110249857D01*
X128694666Y-110178428D01*
X128694666Y-110107000D01*
X128718476Y-110035571D01*
X128742285Y-109999857D01*
X128789904Y-109964142D01*
X128885142Y-109928428D01*
X128932761Y-109892714D01*
X128956571Y-109857000D01*
X128980380Y-109785571D01*
X128980380Y-109714142D01*
X128956571Y-109642714D01*
X128932761Y-109607000D01*
X128885142Y-109571285D01*
X128766095Y-109571285D01*
X128694666Y-109607000D01*
X128218476Y-110321285D02*
X128504190Y-110321285D01*
X128361333Y-110321285D02*
X128361333Y-109571285D01*
X128408952Y-109678428D01*
X128456571Y-109749857D01*
X128504190Y-109785571D01*
X127908952Y-109571285D02*
X127861333Y-109571285D01*
X127813714Y-109607000D01*
X127789904Y-109642714D01*
X127766095Y-109714142D01*
X127742285Y-109857000D01*
X127742285Y-110035571D01*
X127766095Y-110178428D01*
X127789904Y-110249857D01*
X127813714Y-110285571D01*
X127861333Y-110321285D01*
X127908952Y-110321285D01*
X127956571Y-110285571D01*
X127980380Y-110249857D01*
X128004190Y-110178428D01*
X128028000Y-110035571D01*
X128028000Y-109857000D01*
X128004190Y-109714142D01*
X127980380Y-109642714D01*
X127956571Y-109607000D01*
X127908952Y-109571285D01*
X127289904Y-109571285D02*
X127528000Y-109571285D01*
X127551809Y-109928428D01*
X127528000Y-109892714D01*
X127480380Y-109857000D01*
X127361333Y-109857000D01*
X127313714Y-109892714D01*
X127289904Y-109928428D01*
X127266095Y-109999857D01*
X127266095Y-110178428D01*
X127289904Y-110249857D01*
X127313714Y-110285571D01*
X127361333Y-110321285D01*
X127480380Y-110321285D01*
X127528000Y-110285571D01*
X127551809Y-110249857D01*
X127099428Y-109571285D02*
X126789904Y-109571285D01*
X126956571Y-109857000D01*
X126885142Y-109857000D01*
X126837523Y-109892714D01*
X126813714Y-109928428D01*
X126789904Y-109999857D01*
X126789904Y-110178428D01*
X126813714Y-110249857D01*
X126837523Y-110285571D01*
X126885142Y-110321285D01*
X127028000Y-110321285D01*
X127075619Y-110285571D01*
X127099428Y-110249857D01*
X126218476Y-109535571D02*
X126647047Y-110499857D01*
X126123238Y-109571285D02*
X125956571Y-110321285D01*
X125789904Y-109571285D01*
X125647047Y-110285571D02*
X125575619Y-110321285D01*
X125456571Y-110321285D01*
X125408952Y-110285571D01*
X125385142Y-110249857D01*
X125361333Y-110178428D01*
X125361333Y-110107000D01*
X125385142Y-110035571D01*
X125408952Y-109999857D01*
X125456571Y-109964142D01*
X125551809Y-109928428D01*
X125599428Y-109892714D01*
X125623238Y-109857000D01*
X125647047Y-109785571D01*
X125647047Y-109714142D01*
X125623238Y-109642714D01*
X125599428Y-109607000D01*
X125551809Y-109571285D01*
X125432761Y-109571285D01*
X125361333Y-109607000D01*
X125075619Y-109892714D02*
X125123238Y-109857000D01*
X125147047Y-109821285D01*
X125170857Y-109749857D01*
X125170857Y-109714142D01*
X125147047Y-109642714D01*
X125123238Y-109607000D01*
X125075619Y-109571285D01*
X124980380Y-109571285D01*
X124932761Y-109607000D01*
X124908952Y-109642714D01*
X124885142Y-109714142D01*
X124885142Y-109749857D01*
X124908952Y-109821285D01*
X124932761Y-109857000D01*
X124980380Y-109892714D01*
X125075619Y-109892714D01*
X125123238Y-109928428D01*
X125147047Y-109964142D01*
X125170857Y-110035571D01*
X125170857Y-110178428D01*
X125147047Y-110249857D01*
X125123238Y-110285571D01*
X125075619Y-110321285D01*
X124980380Y-110321285D01*
X124932761Y-110285571D01*
X124908952Y-110249857D01*
X124885142Y-110178428D01*
X124885142Y-110035571D01*
X124908952Y-109964142D01*
X124932761Y-109928428D01*
X124980380Y-109892714D01*
X124575619Y-109571285D02*
X124528000Y-109571285D01*
X124480380Y-109607000D01*
X124456571Y-109642714D01*
X124432761Y-109714142D01*
X124408952Y-109857000D01*
X124408952Y-110035571D01*
X124432761Y-110178428D01*
X124456571Y-110249857D01*
X124480380Y-110285571D01*
X124528000Y-110321285D01*
X124575619Y-110321285D01*
X124623238Y-110285571D01*
X124647047Y-110249857D01*
X124670857Y-110178428D01*
X124694666Y-110035571D01*
X124694666Y-109857000D01*
X124670857Y-109714142D01*
X124647047Y-109642714D01*
X124623238Y-109607000D01*
X124575619Y-109571285D01*
X123956571Y-109571285D02*
X124194666Y-109571285D01*
X124218476Y-109928428D01*
X124194666Y-109892714D01*
X124147047Y-109857000D01*
X124028000Y-109857000D01*
X123980380Y-109892714D01*
X123956571Y-109928428D01*
X123932761Y-109999857D01*
X123932761Y-110178428D01*
X123956571Y-110249857D01*
X123980380Y-110285571D01*
X124028000Y-110321285D01*
X124147047Y-110321285D01*
X124194666Y-110285571D01*
X124218476Y-110249857D01*
X123766095Y-109571285D02*
X123456571Y-109571285D01*
X123623238Y-109857000D01*
X123551809Y-109857000D01*
X123504190Y-109892714D01*
X123480380Y-109928428D01*
X123456571Y-109999857D01*
X123456571Y-110178428D01*
X123480380Y-110249857D01*
X123504190Y-110285571D01*
X123551809Y-110321285D01*
X123694666Y-110321285D01*
X123742285Y-110285571D01*
X123766095Y-110249857D01*
D10*
X150191761Y-105322666D02*
X149715571Y-105322666D01*
X150287000Y-105608380D02*
X149953666Y-104608380D01*
X149620333Y-105608380D01*
X148620333Y-104608380D02*
X148382238Y-105608380D01*
X148191761Y-104894095D01*
X148001285Y-105608380D01*
X147763190Y-104608380D01*
X146953666Y-105608380D02*
X146953666Y-105084571D01*
X147001285Y-104989333D01*
X147096523Y-104941714D01*
X147287000Y-104941714D01*
X147382238Y-104989333D01*
X146953666Y-105560761D02*
X147048904Y-105608380D01*
X147287000Y-105608380D01*
X147382238Y-105560761D01*
X147429857Y-105465523D01*
X147429857Y-105370285D01*
X147382238Y-105275047D01*
X147287000Y-105227428D01*
X147048904Y-105227428D01*
X146953666Y-105179809D01*
X146572714Y-104941714D02*
X146334619Y-105608380D01*
X146096523Y-104941714D01*
X145334619Y-105560761D02*
X145429857Y-105608380D01*
X145620333Y-105608380D01*
X145715571Y-105560761D01*
X145763190Y-105465523D01*
X145763190Y-105084571D01*
X145715571Y-104989333D01*
X145620333Y-104941714D01*
X145429857Y-104941714D01*
X145334619Y-104989333D01*
X145287000Y-105084571D01*
X145287000Y-105179809D01*
X145763190Y-105275047D01*
X144525095Y-105084571D02*
X144382238Y-105132190D01*
X144334619Y-105179809D01*
X144287000Y-105275047D01*
X144287000Y-105417904D01*
X144334619Y-105513142D01*
X144382238Y-105560761D01*
X144477476Y-105608380D01*
X144858428Y-105608380D01*
X144858428Y-104608380D01*
X144525095Y-104608380D01*
X144429857Y-104656000D01*
X144382238Y-104703619D01*
X144334619Y-104798857D01*
X144334619Y-104894095D01*
X144382238Y-104989333D01*
X144429857Y-105036952D01*
X144525095Y-105084571D01*
X144858428Y-105084571D01*
X143715571Y-105608380D02*
X143810809Y-105560761D01*
X143858428Y-105465523D01*
X143858428Y-104608380D01*
X142906047Y-105608380D02*
X142906047Y-105084571D01*
X142953666Y-104989333D01*
X143048904Y-104941714D01*
X143239380Y-104941714D01*
X143334619Y-104989333D01*
X142906047Y-105560761D02*
X143001285Y-105608380D01*
X143239380Y-105608380D01*
X143334619Y-105560761D01*
X143382238Y-105465523D01*
X143382238Y-105370285D01*
X143334619Y-105275047D01*
X143239380Y-105227428D01*
X143001285Y-105227428D01*
X142906047Y-105179809D01*
X142477476Y-105560761D02*
X142382238Y-105608380D01*
X142191761Y-105608380D01*
X142096523Y-105560761D01*
X142048904Y-105465523D01*
X142048904Y-105417904D01*
X142096523Y-105322666D01*
X142191761Y-105275047D01*
X142334619Y-105275047D01*
X142429857Y-105227428D01*
X142477476Y-105132190D01*
X142477476Y-105084571D01*
X142429857Y-104989333D01*
X142334619Y-104941714D01*
X142191761Y-104941714D01*
X142096523Y-104989333D01*
X141763190Y-104941714D02*
X141382238Y-104941714D01*
X141620333Y-104608380D02*
X141620333Y-105465523D01*
X141572714Y-105560761D01*
X141477476Y-105608380D01*
X141382238Y-105608380D01*
X140667952Y-105560761D02*
X140763190Y-105608380D01*
X140953666Y-105608380D01*
X141048904Y-105560761D01*
X141096523Y-105465523D01*
X141096523Y-105084571D01*
X141048904Y-104989333D01*
X140953666Y-104941714D01*
X140763190Y-104941714D01*
X140667952Y-104989333D01*
X140620333Y-105084571D01*
X140620333Y-105179809D01*
X141096523Y-105275047D01*
X140191761Y-105608380D02*
X140191761Y-104941714D01*
X140191761Y-105132190D02*
X140144142Y-105036952D01*
X140096523Y-104989333D01*
X140001285Y-104941714D01*
X139906047Y-104941714D01*
X138239380Y-105513142D02*
X138287000Y-105560761D01*
X138429857Y-105608380D01*
X138525095Y-105608380D01*
X138667952Y-105560761D01*
X138763190Y-105465523D01*
X138810809Y-105370285D01*
X138858428Y-105179809D01*
X138858428Y-105036952D01*
X138810809Y-104846476D01*
X138763190Y-104751238D01*
X138667952Y-104656000D01*
X138525095Y-104608380D01*
X138429857Y-104608380D01*
X138287000Y-104656000D01*
X138239380Y-104703619D01*
X137667952Y-105608380D02*
X137763190Y-105560761D01*
X137810809Y-105513142D01*
X137858428Y-105417904D01*
X137858428Y-105132190D01*
X137810809Y-105036952D01*
X137763190Y-104989333D01*
X137667952Y-104941714D01*
X137525095Y-104941714D01*
X137429857Y-104989333D01*
X137382238Y-105036952D01*
X137334619Y-105132190D01*
X137334619Y-105417904D01*
X137382238Y-105513142D01*
X137429857Y-105560761D01*
X137525095Y-105608380D01*
X137667952Y-105608380D01*
X136906047Y-105608380D02*
X136906047Y-104941714D01*
X136906047Y-105036952D02*
X136858428Y-104989333D01*
X136763190Y-104941714D01*
X136620333Y-104941714D01*
X136525095Y-104989333D01*
X136477476Y-105084571D01*
X136477476Y-105608380D01*
X136477476Y-105084571D02*
X136429857Y-104989333D01*
X136334619Y-104941714D01*
X136191761Y-104941714D01*
X136096523Y-104989333D01*
X136048904Y-105084571D01*
X136048904Y-105608380D01*
X135572714Y-104941714D02*
X135572714Y-105941714D01*
X135572714Y-104989333D02*
X135477476Y-104941714D01*
X135287000Y-104941714D01*
X135191761Y-104989333D01*
X135144142Y-105036952D01*
X135096523Y-105132190D01*
X135096523Y-105417904D01*
X135144142Y-105513142D01*
X135191761Y-105560761D01*
X135287000Y-105608380D01*
X135477476Y-105608380D01*
X135572714Y-105560761D01*
X134239380Y-105608380D02*
X134239380Y-105084571D01*
X134287000Y-104989333D01*
X134382238Y-104941714D01*
X134572714Y-104941714D01*
X134667952Y-104989333D01*
X134239380Y-105560761D02*
X134334619Y-105608380D01*
X134572714Y-105608380D01*
X134667952Y-105560761D01*
X134715571Y-105465523D01*
X134715571Y-105370285D01*
X134667952Y-105275047D01*
X134572714Y-105227428D01*
X134334619Y-105227428D01*
X134239380Y-105179809D01*
X133906047Y-104941714D02*
X133525095Y-104941714D01*
X133763190Y-104608380D02*
X133763190Y-105465523D01*
X133715571Y-105560761D01*
X133620333Y-105608380D01*
X133525095Y-105608380D01*
X133191761Y-105608380D02*
X133191761Y-104941714D01*
X133191761Y-104608380D02*
X133239380Y-104656000D01*
X133191761Y-104703619D01*
X133144142Y-104656000D01*
X133191761Y-104608380D01*
X133191761Y-104703619D01*
X132715571Y-105608380D02*
X132715571Y-104608380D01*
X132715571Y-104989333D02*
X132620333Y-104941714D01*
X132429857Y-104941714D01*
X132334619Y-104989333D01*
X132287000Y-105036952D01*
X132239380Y-105132190D01*
X132239380Y-105417904D01*
X132287000Y-105513142D01*
X132334619Y-105560761D01*
X132429857Y-105608380D01*
X132620333Y-105608380D01*
X132715571Y-105560761D01*
X131667952Y-105608380D02*
X131763190Y-105560761D01*
X131810809Y-105465523D01*
X131810809Y-104608380D01*
X130906047Y-105560761D02*
X131001285Y-105608380D01*
X131191761Y-105608380D01*
X131287000Y-105560761D01*
X131334619Y-105465523D01*
X131334619Y-105084571D01*
X131287000Y-104989333D01*
X131191761Y-104941714D01*
X131001285Y-104941714D01*
X130906047Y-104989333D01*
X130858428Y-105084571D01*
X130858428Y-105179809D01*
X131334619Y-105275047D01*
X129667952Y-105608380D02*
X129667952Y-104608380D01*
X129334619Y-105322666D01*
X129001285Y-104608380D01*
X129001285Y-105608380D01*
X128382238Y-105608380D02*
X128477476Y-105560761D01*
X128525095Y-105513142D01*
X128572714Y-105417904D01*
X128572714Y-105132190D01*
X128525095Y-105036952D01*
X128477476Y-104989333D01*
X128382238Y-104941714D01*
X128239380Y-104941714D01*
X128144142Y-104989333D01*
X128096523Y-105036952D01*
X128048904Y-105132190D01*
X128048904Y-105417904D01*
X128096523Y-105513142D01*
X128144142Y-105560761D01*
X128239380Y-105608380D01*
X128382238Y-105608380D01*
X127191761Y-105608380D02*
X127191761Y-104608380D01*
X127191761Y-105560761D02*
X127287000Y-105608380D01*
X127477476Y-105608380D01*
X127572714Y-105560761D01*
X127620333Y-105513142D01*
X127667952Y-105417904D01*
X127667952Y-105132190D01*
X127620333Y-105036952D01*
X127572714Y-104989333D01*
X127477476Y-104941714D01*
X127287000Y-104941714D01*
X127191761Y-104989333D01*
X126287000Y-104941714D02*
X126287000Y-105608380D01*
X126715571Y-104941714D02*
X126715571Y-105465523D01*
X126667952Y-105560761D01*
X126572714Y-105608380D01*
X126429857Y-105608380D01*
X126334619Y-105560761D01*
X126287000Y-105513142D01*
X125667952Y-105608380D02*
X125763190Y-105560761D01*
X125810809Y-105465523D01*
X125810809Y-104608380D01*
X124906047Y-105560761D02*
X125001285Y-105608380D01*
X125191761Y-105608380D01*
X125287000Y-105560761D01*
X125334619Y-105465523D01*
X125334619Y-105084571D01*
X125287000Y-104989333D01*
X125191761Y-104941714D01*
X125001285Y-104941714D01*
X124906047Y-104989333D01*
X124858428Y-105084571D01*
X124858428Y-105179809D01*
X125334619Y-105275047D01*
X124429857Y-105513142D02*
X124382238Y-105560761D01*
X124429857Y-105608380D01*
X124477476Y-105560761D01*
X124429857Y-105513142D01*
X124429857Y-105608380D01*
D12*
X159165333Y-99957142D02*
X158582000Y-102957142D01*
X157998666Y-99957142D01*
X156582000Y-102957142D02*
X157415333Y-102957142D01*
X157415333Y-99957142D01*
X156082000Y-102814285D02*
X155832000Y-102957142D01*
X155415333Y-102957142D01*
X155248666Y-102814285D01*
X155165333Y-102671428D01*
X155082000Y-102385714D01*
X155082000Y-102100000D01*
X155165333Y-101814285D01*
X155248666Y-101671428D01*
X155415333Y-101528571D01*
X155748666Y-101385714D01*
X155915333Y-101242857D01*
X155998666Y-101100000D01*
X156082000Y-100814285D01*
X156082000Y-100528571D01*
X155998666Y-100242857D01*
X155915333Y-100100000D01*
X155748666Y-99957142D01*
X155332000Y-99957142D01*
X155082000Y-100100000D01*
X154332000Y-102957142D02*
X154332000Y-99957142D01*
X152248666Y-102814285D02*
X151998666Y-102957142D01*
X151582000Y-102957142D01*
X151415333Y-102814285D01*
X151332000Y-102671428D01*
X151248666Y-102385714D01*
X151248666Y-102100000D01*
X151332000Y-101814285D01*
X151415333Y-101671428D01*
X151582000Y-101528571D01*
X151915333Y-101385714D01*
X152082000Y-101242857D01*
X152165333Y-101100000D01*
X152248666Y-100814285D01*
X152248666Y-100528571D01*
X152165333Y-100242857D01*
X152082000Y-100100000D01*
X151915333Y-99957142D01*
X151498666Y-99957142D01*
X151248666Y-100100000D01*
X150665333Y-100957142D02*
X150248666Y-102957142D01*
X149832000Y-100957142D02*
X150248666Y-102957142D01*
X150415333Y-103671428D01*
X150498666Y-103814285D01*
X150665333Y-103957142D01*
X149165333Y-100957142D02*
X149165333Y-102957142D01*
X149165333Y-101242857D02*
X149082000Y-101100000D01*
X148915333Y-100957142D01*
X148665333Y-100957142D01*
X148498666Y-101100000D01*
X148415333Y-101385714D01*
X148415333Y-102957142D01*
X147832000Y-100957142D02*
X147165333Y-100957142D01*
X147582000Y-99957142D02*
X147582000Y-102528571D01*
X147498666Y-102814285D01*
X147332000Y-102957142D01*
X147165333Y-102957142D01*
X146582000Y-102957142D02*
X146582000Y-99957142D01*
X145832000Y-102957142D02*
X145832000Y-101385714D01*
X145915333Y-101100000D01*
X146082000Y-100957142D01*
X146332000Y-100957142D01*
X146498666Y-101100000D01*
X146582000Y-101242857D01*
X143998666Y-102957142D02*
X144582000Y-101528571D01*
X144998666Y-102957142D02*
X144998666Y-99957142D01*
X144332000Y-99957142D01*
X144165333Y-100100000D01*
X144082000Y-100242857D01*
X143998666Y-100528571D01*
X143998666Y-100957142D01*
X144082000Y-101242857D01*
X144165333Y-101385714D01*
X144332000Y-101528571D01*
X144998666Y-101528571D01*
X142998666Y-102957142D02*
X143165333Y-102814285D01*
X143248666Y-102671428D01*
X143332000Y-102385714D01*
X143332000Y-101528571D01*
X143248666Y-101242857D01*
X143165333Y-101100000D01*
X142998666Y-100957142D01*
X142748666Y-100957142D01*
X142582000Y-101100000D01*
X142498666Y-101242857D01*
X142415333Y-101528571D01*
X142415333Y-102385714D01*
X142498666Y-102671428D01*
X142582000Y-102814285D01*
X142748666Y-102957142D01*
X142998666Y-102957142D01*
X140915333Y-102957142D02*
X140915333Y-101385714D01*
X140998666Y-101100000D01*
X141165333Y-100957142D01*
X141498666Y-100957142D01*
X141665333Y-101100000D01*
X140915333Y-102814285D02*
X141082000Y-102957142D01*
X141498666Y-102957142D01*
X141665333Y-102814285D01*
X141748666Y-102528571D01*
X141748666Y-102242857D01*
X141665333Y-101957142D01*
X141498666Y-101814285D01*
X141082000Y-101814285D01*
X140915333Y-101671428D01*
X140082000Y-102957142D02*
X140082000Y-100957142D01*
X140082000Y-101528571D02*
X139998666Y-101242857D01*
X139915333Y-101100000D01*
X139748666Y-100957142D01*
X139582000Y-100957142D01*
X138332000Y-102814285D02*
X138498666Y-102957142D01*
X138832000Y-102957142D01*
X138998666Y-102814285D01*
X139082000Y-102528571D01*
X139082000Y-101385714D01*
X138998666Y-101100000D01*
X138832000Y-100957142D01*
X138498666Y-100957142D01*
X138332000Y-101100000D01*
X138248666Y-101385714D01*
X138248666Y-101671428D01*
X139082000Y-101957142D01*
X137498666Y-102957142D02*
X137498666Y-100957142D01*
X137498666Y-101528571D02*
X137415333Y-101242857D01*
X137332000Y-101100000D01*
X137165333Y-100957142D01*
X136998666Y-100957142D01*
D10*
X173172476Y-87862047D02*
X173124857Y-87766809D01*
X173124857Y-87576333D01*
X173172476Y-87481095D01*
X173267714Y-87385857D01*
X173362952Y-87338238D01*
X173553428Y-87338238D01*
X173648666Y-87385857D01*
X173743904Y-87481095D01*
X173791523Y-87576333D01*
X173791523Y-87766809D01*
X173743904Y-87862047D01*
X172791523Y-87671571D02*
X172839142Y-87433476D01*
X172982000Y-87195380D01*
X173220095Y-87052523D01*
X173458190Y-87004904D01*
X173696285Y-87052523D01*
X173934380Y-87195380D01*
X174077238Y-87433476D01*
X174124857Y-87671571D01*
X174077238Y-87909666D01*
X173934380Y-88147761D01*
X173696285Y-88290619D01*
X173458190Y-88338238D01*
X173220095Y-88290619D01*
X172982000Y-88147761D01*
X172839142Y-87909666D01*
X172791523Y-87671571D01*
X173839142Y-89338238D02*
X173886761Y-89290619D01*
X173934380Y-89147761D01*
X173934380Y-89052523D01*
X173886761Y-88909666D01*
X173791523Y-88814428D01*
X173696285Y-88766809D01*
X173505809Y-88719190D01*
X173362952Y-88719190D01*
X173172476Y-88766809D01*
X173077238Y-88814428D01*
X172982000Y-88909666D01*
X172934380Y-89052523D01*
X172934380Y-89147761D01*
X172982000Y-89290619D01*
X173029619Y-89338238D01*
X173839142Y-90338238D02*
X173886761Y-90290619D01*
X173934380Y-90147761D01*
X173934380Y-90052523D01*
X173886761Y-89909666D01*
X173791523Y-89814428D01*
X173696285Y-89766809D01*
X173505809Y-89719190D01*
X173362952Y-89719190D01*
X173172476Y-89766809D01*
X173077238Y-89814428D01*
X172982000Y-89909666D01*
X172934380Y-90052523D01*
X172934380Y-90147761D01*
X172982000Y-90290619D01*
X173029619Y-90338238D01*
X173553428Y-90766809D02*
X173553428Y-91528714D01*
X173410571Y-92338238D02*
X173458190Y-92481095D01*
X173505809Y-92528714D01*
X173601047Y-92576333D01*
X173743904Y-92576333D01*
X173839142Y-92528714D01*
X173886761Y-92481095D01*
X173934380Y-92385857D01*
X173934380Y-92004904D01*
X172934380Y-92004904D01*
X172934380Y-92338238D01*
X172982000Y-92433476D01*
X173029619Y-92481095D01*
X173124857Y-92528714D01*
X173220095Y-92528714D01*
X173315333Y-92481095D01*
X173362952Y-92433476D01*
X173410571Y-92338238D01*
X173410571Y-92004904D01*
X173458190Y-93195380D02*
X173934380Y-93195380D01*
X172934380Y-92862047D02*
X173458190Y-93195380D01*
X172934380Y-93528714D01*
X173553428Y-93862047D02*
X173553428Y-94623952D01*
X173886761Y-95052523D02*
X173934380Y-95195380D01*
X173934380Y-95433476D01*
X173886761Y-95528714D01*
X173839142Y-95576333D01*
X173743904Y-95623952D01*
X173648666Y-95623952D01*
X173553428Y-95576333D01*
X173505809Y-95528714D01*
X173458190Y-95433476D01*
X173410571Y-95243000D01*
X173362952Y-95147761D01*
X173315333Y-95100142D01*
X173220095Y-95052523D01*
X173124857Y-95052523D01*
X173029619Y-95100142D01*
X172982000Y-95147761D01*
X172934380Y-95243000D01*
X172934380Y-95481095D01*
X172982000Y-95623952D01*
X173648666Y-96004904D02*
X173648666Y-96481095D01*
X173934380Y-95909666D02*
X172934380Y-96243000D01*
X173934380Y-96576333D01*
X173267714Y-98100142D02*
X173934380Y-98100142D01*
X172886761Y-97862047D02*
X173601047Y-97623952D01*
X173601047Y-98243000D01*
X173839142Y-98623952D02*
X173886761Y-98671571D01*
X173934380Y-98623952D01*
X173886761Y-98576333D01*
X173839142Y-98623952D01*
X173934380Y-98623952D01*
X172934380Y-99290619D02*
X172934380Y-99385857D01*
X172982000Y-99481095D01*
X173029619Y-99528714D01*
X173124857Y-99576333D01*
X173315333Y-99623952D01*
X173553428Y-99623952D01*
X173743904Y-99576333D01*
X173839142Y-99528714D01*
X173886761Y-99481095D01*
X173934380Y-99385857D01*
X173934380Y-99290619D01*
X173886761Y-99195380D01*
X173839142Y-99147761D01*
X173743904Y-99100142D01*
X173553428Y-99052523D01*
X173315333Y-99052523D01*
X173124857Y-99100142D01*
X173029619Y-99147761D01*
X172982000Y-99195380D01*
X172934380Y-99290619D01*
X174315333Y-101100142D02*
X174267714Y-101052523D01*
X174124857Y-100957285D01*
X174029619Y-100909666D01*
X173886761Y-100862047D01*
X173648666Y-100814428D01*
X173458190Y-100814428D01*
X173220095Y-100862047D01*
X173077238Y-100909666D01*
X172982000Y-100957285D01*
X172839142Y-101052523D01*
X172791523Y-101100142D01*
X173648666Y-101433476D02*
X173648666Y-101909666D01*
X173934380Y-101338238D02*
X172934380Y-101671571D01*
X173934380Y-102004904D01*
X173267714Y-102195380D02*
X173267714Y-102576333D01*
X172934380Y-102338238D02*
X173791523Y-102338238D01*
X173886761Y-102385857D01*
X173934380Y-102481095D01*
X173934380Y-102576333D01*
X173267714Y-102766809D02*
X173267714Y-103147761D01*
X172934380Y-102909666D02*
X173791523Y-102909666D01*
X173886761Y-102957285D01*
X173934380Y-103052523D01*
X173934380Y-103147761D01*
X173934380Y-103481095D02*
X173267714Y-103481095D01*
X173458190Y-103481095D02*
X173362952Y-103528714D01*
X173315333Y-103576333D01*
X173267714Y-103671571D01*
X173267714Y-103766809D01*
X173934380Y-104100142D02*
X173267714Y-104100142D01*
X172934380Y-104100142D02*
X172982000Y-104052523D01*
X173029619Y-104100142D01*
X172982000Y-104147761D01*
X172934380Y-104100142D01*
X173029619Y-104100142D01*
X173934380Y-104576333D02*
X172934380Y-104576333D01*
X173315333Y-104576333D02*
X173267714Y-104671571D01*
X173267714Y-104862047D01*
X173315333Y-104957285D01*
X173362952Y-105004904D01*
X173458190Y-105052523D01*
X173743904Y-105052523D01*
X173839142Y-105004904D01*
X173886761Y-104957285D01*
X173934380Y-104862047D01*
X173934380Y-104671571D01*
X173886761Y-104576333D01*
X173267714Y-105909666D02*
X173934380Y-105909666D01*
X173267714Y-105481095D02*
X173791523Y-105481095D01*
X173886761Y-105528714D01*
X173934380Y-105623952D01*
X173934380Y-105766809D01*
X173886761Y-105862047D01*
X173839142Y-105909666D01*
X173267714Y-106243000D02*
X173267714Y-106623952D01*
X172934380Y-106385857D02*
X173791523Y-106385857D01*
X173886761Y-106433476D01*
X173934380Y-106528714D01*
X173934380Y-106623952D01*
X173934380Y-106957285D02*
X173267714Y-106957285D01*
X172934380Y-106957285D02*
X172982000Y-106909666D01*
X173029619Y-106957285D01*
X172982000Y-107004904D01*
X172934380Y-106957285D01*
X173029619Y-106957285D01*
X173934380Y-107576333D02*
X173886761Y-107481095D01*
X173839142Y-107433476D01*
X173743904Y-107385857D01*
X173458190Y-107385857D01*
X173362952Y-107433476D01*
X173315333Y-107481095D01*
X173267714Y-107576333D01*
X173267714Y-107719190D01*
X173315333Y-107814428D01*
X173362952Y-107862047D01*
X173458190Y-107909666D01*
X173743904Y-107909666D01*
X173839142Y-107862047D01*
X173886761Y-107814428D01*
X173934380Y-107719190D01*
X173934380Y-107576333D01*
X173267714Y-108338238D02*
X173934380Y-108338238D01*
X173362952Y-108338238D02*
X173315333Y-108385857D01*
X173267714Y-108481095D01*
X173267714Y-108623952D01*
X173315333Y-108719190D01*
X173410571Y-108766809D01*
X173934380Y-108766809D01*
X173553428Y-109243000D02*
X173553428Y-110004904D01*
X173886761Y-110433476D02*
X173934380Y-110576333D01*
X173934380Y-110814428D01*
X173886761Y-110909666D01*
X173839142Y-110957285D01*
X173743904Y-111004904D01*
X173648666Y-111004904D01*
X173553428Y-110957285D01*
X173505809Y-110909666D01*
X173458190Y-110814428D01*
X173410571Y-110623952D01*
X173362952Y-110528714D01*
X173315333Y-110481095D01*
X173220095Y-110433476D01*
X173124857Y-110433476D01*
X173029619Y-110481095D01*
X172982000Y-110528714D01*
X172934380Y-110623952D01*
X172934380Y-110862047D01*
X172982000Y-111004904D01*
X173934380Y-111433476D02*
X172934380Y-111433476D01*
X173934380Y-111862047D02*
X173410571Y-111862047D01*
X173315333Y-111814428D01*
X173267714Y-111719190D01*
X173267714Y-111576333D01*
X173315333Y-111481095D01*
X173362952Y-111433476D01*
X173934380Y-112766809D02*
X173410571Y-112766809D01*
X173315333Y-112719190D01*
X173267714Y-112623952D01*
X173267714Y-112433476D01*
X173315333Y-112338238D01*
X173886761Y-112766809D02*
X173934380Y-112671571D01*
X173934380Y-112433476D01*
X173886761Y-112338238D01*
X173791523Y-112290619D01*
X173696285Y-112290619D01*
X173601047Y-112338238D01*
X173553428Y-112433476D01*
X173553428Y-112671571D01*
X173505809Y-112766809D01*
X173934380Y-113243000D02*
X173267714Y-113243000D01*
X173458190Y-113243000D02*
X173362952Y-113290619D01*
X173315333Y-113338238D01*
X173267714Y-113433476D01*
X173267714Y-113528714D01*
X173886761Y-114243000D02*
X173934380Y-114147761D01*
X173934380Y-113957285D01*
X173886761Y-113862047D01*
X173791523Y-113814428D01*
X173410571Y-113814428D01*
X173315333Y-113862047D01*
X173267714Y-113957285D01*
X173267714Y-114147761D01*
X173315333Y-114243000D01*
X173410571Y-114290619D01*
X173505809Y-114290619D01*
X173601047Y-113814428D01*
X173648666Y-114671571D02*
X173648666Y-115147761D01*
X173934380Y-114576333D02*
X172934380Y-114909666D01*
X173934380Y-115243000D01*
X173934380Y-115719190D02*
X173886761Y-115623952D01*
X173791523Y-115576333D01*
X172934380Y-115576333D01*
X173934380Y-116100142D02*
X173267714Y-116100142D01*
X172934380Y-116100142D02*
X172982000Y-116052523D01*
X173029619Y-116100142D01*
X172982000Y-116147761D01*
X172934380Y-116100142D01*
X173029619Y-116100142D01*
X173934380Y-116576333D02*
X172934380Y-116576333D01*
X173553428Y-116671571D02*
X173934380Y-116957285D01*
X173267714Y-116957285D02*
X173648666Y-116576333D01*
X173886761Y-117766809D02*
X173934380Y-117671571D01*
X173934380Y-117481095D01*
X173886761Y-117385857D01*
X173791523Y-117338238D01*
X173410571Y-117338238D01*
X173315333Y-117385857D01*
X173267714Y-117481095D01*
X173267714Y-117671571D01*
X173315333Y-117766809D01*
X173410571Y-117814428D01*
X173505809Y-117814428D01*
X173601047Y-117338238D01*
X174315333Y-118147761D02*
X174267714Y-118195380D01*
X174124857Y-118290619D01*
X174029619Y-118338238D01*
X173886761Y-118385857D01*
X173648666Y-118433476D01*
X173458190Y-118433476D01*
X173220095Y-118385857D01*
X173077238Y-118338238D01*
X172982000Y-118290619D01*
X172839142Y-118195380D01*
X172791523Y-118147761D01*
X171687142Y-81065714D02*
X172449047Y-81351428D01*
X171687142Y-81637142D01*
X170782380Y-81065714D02*
X170782380Y-81875238D01*
X170830000Y-81970476D01*
X170877619Y-82018095D01*
X170972857Y-82065714D01*
X171115714Y-82065714D01*
X171210952Y-82018095D01*
X170782380Y-81684761D02*
X170877619Y-81732380D01*
X171068095Y-81732380D01*
X171163333Y-81684761D01*
X171210952Y-81637142D01*
X171258571Y-81541904D01*
X171258571Y-81256190D01*
X171210952Y-81160952D01*
X171163333Y-81113333D01*
X171068095Y-81065714D01*
X170877619Y-81065714D01*
X170782380Y-81113333D01*
X170449047Y-81065714D02*
X170068095Y-81065714D01*
X170306190Y-80732380D02*
X170306190Y-81589523D01*
X170258571Y-81684761D01*
X170163333Y-81732380D01*
X170068095Y-81732380D01*
X169734761Y-81732380D02*
X169734761Y-81065714D01*
X169734761Y-81256190D02*
X169687142Y-81160952D01*
X169639523Y-81113333D01*
X169544285Y-81065714D01*
X169449047Y-81065714D01*
X169210952Y-80732380D02*
X168591904Y-80732380D01*
X168925238Y-81113333D01*
X168782380Y-81113333D01*
X168687142Y-81160952D01*
X168639523Y-81208571D01*
X168591904Y-81303809D01*
X168591904Y-81541904D01*
X168639523Y-81637142D01*
X168687142Y-81684761D01*
X168782380Y-81732380D01*
X169068095Y-81732380D01*
X169163333Y-81684761D01*
X169210952Y-81637142D01*
X167734761Y-81065714D02*
X167734761Y-82065714D01*
X167734761Y-81684761D02*
X167830000Y-81732380D01*
X168020476Y-81732380D01*
X168115714Y-81684761D01*
X168163333Y-81637142D01*
X168210952Y-81541904D01*
X168210952Y-81256190D01*
X168163333Y-81160952D01*
X168115714Y-81113333D01*
X168020476Y-81065714D01*
X167830000Y-81065714D01*
X167734761Y-81113333D01*
X166830000Y-81065714D02*
X166830000Y-82065714D01*
X166830000Y-81684761D02*
X166925238Y-81732380D01*
X167115714Y-81732380D01*
X167210952Y-81684761D01*
X167258571Y-81637142D01*
X167306190Y-81541904D01*
X167306190Y-81256190D01*
X167258571Y-81160952D01*
X167210952Y-81113333D01*
X167115714Y-81065714D01*
X166925238Y-81065714D01*
X166830000Y-81113333D01*
X165734761Y-81256190D02*
X165782380Y-81208571D01*
X165877619Y-81160952D01*
X165972857Y-81160952D01*
X166068095Y-81208571D01*
X166115714Y-81256190D01*
X166163333Y-81351428D01*
X166163333Y-81446666D01*
X166115714Y-81541904D01*
X166068095Y-81589523D01*
X165972857Y-81637142D01*
X165877619Y-81637142D01*
X165782380Y-81589523D01*
X165734761Y-81541904D01*
X165734761Y-81160952D02*
X165734761Y-81541904D01*
X165687142Y-81589523D01*
X165639523Y-81589523D01*
X165544285Y-81541904D01*
X165496666Y-81446666D01*
X165496666Y-81208571D01*
X165591904Y-81065714D01*
X165734761Y-80970476D01*
X165925238Y-80922857D01*
X166115714Y-80970476D01*
X166258571Y-81065714D01*
X166353809Y-81208571D01*
X166401428Y-81399047D01*
X166353809Y-81589523D01*
X166258571Y-81732380D01*
X166115714Y-81827619D01*
X165925238Y-81875238D01*
X165734761Y-81827619D01*
X165591904Y-81732380D01*
X164925238Y-81732380D02*
X165020476Y-81684761D01*
X165068095Y-81637142D01*
X165115714Y-81541904D01*
X165115714Y-81256190D01*
X165068095Y-81160952D01*
X165020476Y-81113333D01*
X164925238Y-81065714D01*
X164782380Y-81065714D01*
X164687142Y-81113333D01*
X164639523Y-81160952D01*
X164591904Y-81256190D01*
X164591904Y-81541904D01*
X164639523Y-81637142D01*
X164687142Y-81684761D01*
X164782380Y-81732380D01*
X164925238Y-81732380D01*
X163734761Y-81065714D02*
X163734761Y-81732380D01*
X164163333Y-81065714D02*
X164163333Y-81589523D01*
X164115714Y-81684761D01*
X164020476Y-81732380D01*
X163877619Y-81732380D01*
X163782380Y-81684761D01*
X163734761Y-81637142D01*
X163401428Y-81065714D02*
X163020476Y-81065714D01*
X163258571Y-80732380D02*
X163258571Y-81589523D01*
X163210952Y-81684761D01*
X163115714Y-81732380D01*
X163020476Y-81732380D01*
X162544285Y-81732380D02*
X162639523Y-81684761D01*
X162687142Y-81589523D01*
X162687142Y-80732380D01*
X162020476Y-81732380D02*
X162115714Y-81684761D01*
X162163333Y-81637142D01*
X162210952Y-81541904D01*
X162210952Y-81256190D01*
X162163333Y-81160952D01*
X162115714Y-81113333D01*
X162020476Y-81065714D01*
X161877619Y-81065714D01*
X161782380Y-81113333D01*
X161734761Y-81160952D01*
X161687142Y-81256190D01*
X161687142Y-81541904D01*
X161734761Y-81637142D01*
X161782380Y-81684761D01*
X161877619Y-81732380D01*
X162020476Y-81732380D01*
X161115714Y-81732380D02*
X161210952Y-81684761D01*
X161258571Y-81637142D01*
X161306190Y-81541904D01*
X161306190Y-81256190D01*
X161258571Y-81160952D01*
X161210952Y-81113333D01*
X161115714Y-81065714D01*
X160972857Y-81065714D01*
X160877619Y-81113333D01*
X160830000Y-81160952D01*
X160782380Y-81256190D01*
X160782380Y-81541904D01*
X160830000Y-81637142D01*
X160877619Y-81684761D01*
X160972857Y-81732380D01*
X161115714Y-81732380D01*
X160353809Y-81732380D02*
X160353809Y-80732380D01*
X160258571Y-81351428D02*
X159972857Y-81732380D01*
X159972857Y-81065714D02*
X160353809Y-81446666D01*
X159544285Y-81637142D02*
X159496666Y-81684761D01*
X159544285Y-81732380D01*
X159591904Y-81684761D01*
X159544285Y-81637142D01*
X159544285Y-81732380D01*
X158639523Y-81684761D02*
X158734761Y-81732380D01*
X158925238Y-81732380D01*
X159020476Y-81684761D01*
X159068095Y-81637142D01*
X159115714Y-81541904D01*
X159115714Y-81256190D01*
X159068095Y-81160952D01*
X159020476Y-81113333D01*
X158925238Y-81065714D01*
X158734761Y-81065714D01*
X158639523Y-81113333D01*
X158068095Y-81732380D02*
X158163333Y-81684761D01*
X158210952Y-81637142D01*
X158258571Y-81541904D01*
X158258571Y-81256190D01*
X158210952Y-81160952D01*
X158163333Y-81113333D01*
X158068095Y-81065714D01*
X157925238Y-81065714D01*
X157830000Y-81113333D01*
X157782380Y-81160952D01*
X157734761Y-81256190D01*
X157734761Y-81541904D01*
X157782380Y-81637142D01*
X157830000Y-81684761D01*
X157925238Y-81732380D01*
X158068095Y-81732380D01*
X157306190Y-81732380D02*
X157306190Y-81065714D01*
X157306190Y-81160952D02*
X157258571Y-81113333D01*
X157163333Y-81065714D01*
X157020476Y-81065714D01*
X156925238Y-81113333D01*
X156877619Y-81208571D01*
X156877619Y-81732380D01*
X156877619Y-81208571D02*
X156830000Y-81113333D01*
X156734761Y-81065714D01*
X156591904Y-81065714D01*
X156496666Y-81113333D01*
X156449047Y-81208571D01*
X156449047Y-81732380D01*
X155972857Y-81065714D02*
X155210952Y-81351428D01*
X155972857Y-81637142D01*
X134095238Y-81065714D02*
X134857142Y-81351428D01*
X134095238Y-81637142D01*
X133619047Y-81732380D02*
X133619047Y-81065714D01*
X133619047Y-80732380D02*
X133666666Y-80780000D01*
X133619047Y-80827619D01*
X133571428Y-80780000D01*
X133619047Y-80732380D01*
X133619047Y-80827619D01*
X133238095Y-81065714D02*
X133000000Y-81732380D01*
X132761904Y-81065714D01*
X132238095Y-81732380D02*
X132333333Y-81684761D01*
X132380952Y-81637142D01*
X132428571Y-81541904D01*
X132428571Y-81256190D01*
X132380952Y-81160952D01*
X132333333Y-81113333D01*
X132238095Y-81065714D01*
X132095238Y-81065714D01*
X132000000Y-81113333D01*
X131952380Y-81160952D01*
X131904761Y-81256190D01*
X131904761Y-81541904D01*
X131952380Y-81637142D01*
X132000000Y-81684761D01*
X132095238Y-81732380D01*
X132238095Y-81732380D01*
X131476190Y-81065714D02*
X131476190Y-82065714D01*
X131476190Y-81113333D02*
X131380952Y-81065714D01*
X131190476Y-81065714D01*
X131095238Y-81113333D01*
X131047619Y-81160952D01*
X131000000Y-81256190D01*
X131000000Y-81541904D01*
X131047619Y-81637142D01*
X131095238Y-81684761D01*
X131190476Y-81732380D01*
X131380952Y-81732380D01*
X131476190Y-81684761D01*
X130666666Y-81065714D02*
X130428571Y-81732380D01*
X130190476Y-81065714D01*
X129809523Y-81065714D02*
X129809523Y-82065714D01*
X129809523Y-81113333D02*
X129714285Y-81065714D01*
X129523809Y-81065714D01*
X129428571Y-81113333D01*
X129380952Y-81160952D01*
X129333333Y-81256190D01*
X129333333Y-81541904D01*
X129380952Y-81637142D01*
X129428571Y-81684761D01*
X129523809Y-81732380D01*
X129714285Y-81732380D01*
X129809523Y-81684761D01*
X128285714Y-81256190D02*
X128333333Y-81208571D01*
X128428571Y-81160952D01*
X128523809Y-81160952D01*
X128619047Y-81208571D01*
X128666666Y-81256190D01*
X128714285Y-81351428D01*
X128714285Y-81446666D01*
X128666666Y-81541904D01*
X128619047Y-81589523D01*
X128523809Y-81637142D01*
X128428571Y-81637142D01*
X128333333Y-81589523D01*
X128285714Y-81541904D01*
X128285714Y-81160952D02*
X128285714Y-81541904D01*
X128238095Y-81589523D01*
X128190476Y-81589523D01*
X128095238Y-81541904D01*
X128047619Y-81446666D01*
X128047619Y-81208571D01*
X128142857Y-81065714D01*
X128285714Y-80970476D01*
X128476190Y-80922857D01*
X128666666Y-80970476D01*
X128809523Y-81065714D01*
X128904761Y-81208571D01*
X128952380Y-81399047D01*
X128904761Y-81589523D01*
X128809523Y-81732380D01*
X128666666Y-81827619D01*
X128476190Y-81875238D01*
X128285714Y-81827619D01*
X128142857Y-81732380D01*
X127190476Y-81065714D02*
X127190476Y-81875238D01*
X127238095Y-81970476D01*
X127285714Y-82018095D01*
X127380952Y-82065714D01*
X127523809Y-82065714D01*
X127619047Y-82018095D01*
X127190476Y-81684761D02*
X127285714Y-81732380D01*
X127476190Y-81732380D01*
X127571428Y-81684761D01*
X127619047Y-81637142D01*
X127666666Y-81541904D01*
X127666666Y-81256190D01*
X127619047Y-81160952D01*
X127571428Y-81113333D01*
X127476190Y-81065714D01*
X127285714Y-81065714D01*
X127190476Y-81113333D01*
X126714285Y-81732380D02*
X126714285Y-81065714D01*
X126714285Y-81160952D02*
X126666666Y-81113333D01*
X126571428Y-81065714D01*
X126428571Y-81065714D01*
X126333333Y-81113333D01*
X126285714Y-81208571D01*
X126285714Y-81732380D01*
X126285714Y-81208571D02*
X126238095Y-81113333D01*
X126142857Y-81065714D01*
X126000000Y-81065714D01*
X125904761Y-81113333D01*
X125857142Y-81208571D01*
X125857142Y-81732380D01*
X124952380Y-81732380D02*
X124952380Y-81208571D01*
X125000000Y-81113333D01*
X125095238Y-81065714D01*
X125285714Y-81065714D01*
X125380952Y-81113333D01*
X124952380Y-81684761D02*
X125047619Y-81732380D01*
X125285714Y-81732380D01*
X125380952Y-81684761D01*
X125428571Y-81589523D01*
X125428571Y-81494285D01*
X125380952Y-81399047D01*
X125285714Y-81351428D01*
X125047619Y-81351428D01*
X124952380Y-81303809D01*
X124476190Y-81732380D02*
X124476190Y-81065714D01*
X124476190Y-80732380D02*
X124523809Y-80780000D01*
X124476190Y-80827619D01*
X124428571Y-80780000D01*
X124476190Y-80732380D01*
X124476190Y-80827619D01*
X123857142Y-81732380D02*
X123952380Y-81684761D01*
X124000000Y-81589523D01*
X124000000Y-80732380D01*
X123476190Y-81637142D02*
X123428571Y-81684761D01*
X123476190Y-81732380D01*
X123523809Y-81684761D01*
X123476190Y-81637142D01*
X123476190Y-81732380D01*
X122571428Y-81684761D02*
X122666666Y-81732380D01*
X122857142Y-81732380D01*
X122952380Y-81684761D01*
X123000000Y-81637142D01*
X123047619Y-81541904D01*
X123047619Y-81256190D01*
X123000000Y-81160952D01*
X122952380Y-81113333D01*
X122857142Y-81065714D01*
X122666666Y-81065714D01*
X122571428Y-81113333D01*
X122000000Y-81732380D02*
X122095238Y-81684761D01*
X122142857Y-81637142D01*
X122190476Y-81541904D01*
X122190476Y-81256190D01*
X122142857Y-81160952D01*
X122095238Y-81113333D01*
X122000000Y-81065714D01*
X121857142Y-81065714D01*
X121761904Y-81113333D01*
X121714285Y-81160952D01*
X121666666Y-81256190D01*
X121666666Y-81541904D01*
X121714285Y-81637142D01*
X121761904Y-81684761D01*
X121857142Y-81732380D01*
X122000000Y-81732380D01*
X121238095Y-81732380D02*
X121238095Y-81065714D01*
X121238095Y-81160952D02*
X121190476Y-81113333D01*
X121095238Y-81065714D01*
X120952380Y-81065714D01*
X120857142Y-81113333D01*
X120809523Y-81208571D01*
X120809523Y-81732380D01*
X120809523Y-81208571D02*
X120761904Y-81113333D01*
X120666666Y-81065714D01*
X120523809Y-81065714D01*
X120428571Y-81113333D01*
X120380952Y-81208571D01*
X120380952Y-81732380D01*
X119904761Y-81065714D02*
X119142857Y-81351428D01*
X119904761Y-81637142D01*
X141058095Y-81827619D02*
X141629523Y-81827619D01*
X141343809Y-80827619D02*
X141343809Y-81827619D01*
X142153333Y-81827619D02*
X142343809Y-81827619D01*
X142439047Y-81780000D01*
X142534285Y-81684761D01*
X142581904Y-81494285D01*
X142581904Y-81160952D01*
X142534285Y-80970476D01*
X142439047Y-80875238D01*
X142343809Y-80827619D01*
X142153333Y-80827619D01*
X142058095Y-80875238D01*
X141962857Y-80970476D01*
X141915238Y-81160952D01*
X141915238Y-81494285D01*
X141962857Y-81684761D01*
X142058095Y-81780000D01*
X142153333Y-81827619D01*
X143772380Y-81827619D02*
X143772380Y-81018095D01*
X143820000Y-80922857D01*
X143867619Y-80875238D01*
X143962857Y-80827619D01*
X144153333Y-80827619D01*
X144248571Y-80875238D01*
X144296190Y-80922857D01*
X144343809Y-81018095D01*
X144343809Y-81827619D01*
X144772380Y-80875238D02*
X144915238Y-80827619D01*
X145153333Y-80827619D01*
X145248571Y-80875238D01*
X145296190Y-80922857D01*
X145343809Y-81018095D01*
X145343809Y-81113333D01*
X145296190Y-81208571D01*
X145248571Y-81256190D01*
X145153333Y-81303809D01*
X144962857Y-81351428D01*
X144867619Y-81399047D01*
X144820000Y-81446666D01*
X144772380Y-81541904D01*
X144772380Y-81637142D01*
X144820000Y-81732380D01*
X144867619Y-81780000D01*
X144962857Y-81827619D01*
X145200952Y-81827619D01*
X145343809Y-81780000D01*
X145772380Y-81351428D02*
X146105714Y-81351428D01*
X146248571Y-80827619D02*
X145772380Y-80827619D01*
X145772380Y-81827619D01*
X146248571Y-81827619D01*
X146724761Y-80875238D02*
X146724761Y-80827619D01*
X146677142Y-80732380D01*
X146629523Y-80684761D01*
X147724761Y-80922857D02*
X147677142Y-80875238D01*
X147534285Y-80827619D01*
X147439047Y-80827619D01*
X147296190Y-80875238D01*
X147200952Y-80970476D01*
X147153333Y-81065714D01*
X147105714Y-81256190D01*
X147105714Y-81399047D01*
X147153333Y-81589523D01*
X147200952Y-81684761D01*
X147296190Y-81780000D01*
X147439047Y-81827619D01*
X147534285Y-81827619D01*
X147677142Y-81780000D01*
X147724761Y-81732380D01*
X148153333Y-81827619D02*
X148153333Y-81018095D01*
X148200952Y-80922857D01*
X148248571Y-80875238D01*
X148343809Y-80827619D01*
X148534285Y-80827619D01*
X148629523Y-80875238D01*
X148677142Y-80922857D01*
X148724761Y-81018095D01*
X148724761Y-81827619D01*
X149058095Y-81827619D02*
X149629523Y-81827619D01*
X149343809Y-80827619D02*
X149343809Y-81827619D01*
X151010476Y-81827619D02*
X151010476Y-81113333D01*
X150962857Y-80970476D01*
X150867619Y-80875238D01*
X150724761Y-80827619D01*
X150629523Y-80827619D01*
X151486666Y-80827619D02*
X151486666Y-81827619D01*
X151867619Y-81827619D01*
X151962857Y-81780000D01*
X152010476Y-81732380D01*
X152058095Y-81637142D01*
X152058095Y-81494285D01*
X152010476Y-81399047D01*
X151962857Y-81351428D01*
X151867619Y-81303809D01*
X151486666Y-81303809D01*
X153010476Y-80827619D02*
X152439047Y-80827619D01*
X152724761Y-80827619D02*
X152724761Y-81827619D01*
X152629523Y-81684761D01*
X152534285Y-81589523D01*
X152439047Y-81541904D01*
X153439047Y-80922857D02*
X153486666Y-80875238D01*
X153439047Y-80827619D01*
X153391428Y-80875238D01*
X153439047Y-80922857D01*
X153439047Y-80827619D01*
X141835238Y-84843809D02*
X141787619Y-84700952D01*
X141787619Y-84462857D01*
X141835238Y-84367619D01*
X141882857Y-84320000D01*
X141978095Y-84272380D01*
X142073333Y-84272380D01*
X142168571Y-84320000D01*
X142216190Y-84367619D01*
X142263809Y-84462857D01*
X142311428Y-84653333D01*
X142359047Y-84748571D01*
X142406666Y-84796190D01*
X142501904Y-84843809D01*
X142597142Y-84843809D01*
X142692380Y-84796190D01*
X142740000Y-84748571D01*
X142787619Y-84653333D01*
X142787619Y-84415238D01*
X142740000Y-84272380D01*
X141787619Y-83843809D02*
X142787619Y-83843809D01*
X142787619Y-83605714D01*
X142740000Y-83462857D01*
X142644761Y-83367619D01*
X142549523Y-83320000D01*
X142359047Y-83272380D01*
X142216190Y-83272380D01*
X142025714Y-83320000D01*
X141930476Y-83367619D01*
X141835238Y-83462857D01*
X141787619Y-83605714D01*
X141787619Y-83843809D01*
X141787619Y-82843809D02*
X142787619Y-82843809D01*
X149455238Y-85510476D02*
X149407619Y-85367619D01*
X149407619Y-85129523D01*
X149455238Y-85034285D01*
X149502857Y-84986666D01*
X149598095Y-84939047D01*
X149693333Y-84939047D01*
X149788571Y-84986666D01*
X149836190Y-85034285D01*
X149883809Y-85129523D01*
X149931428Y-85320000D01*
X149979047Y-85415238D01*
X150026666Y-85462857D01*
X150121904Y-85510476D01*
X150217142Y-85510476D01*
X150312380Y-85462857D01*
X150360000Y-85415238D01*
X150407619Y-85320000D01*
X150407619Y-85081904D01*
X150360000Y-84939047D01*
X149502857Y-83939047D02*
X149455238Y-83986666D01*
X149407619Y-84129523D01*
X149407619Y-84224761D01*
X149455238Y-84367619D01*
X149550476Y-84462857D01*
X149645714Y-84510476D01*
X149836190Y-84558095D01*
X149979047Y-84558095D01*
X150169523Y-84510476D01*
X150264761Y-84462857D01*
X150360000Y-84367619D01*
X150407619Y-84224761D01*
X150407619Y-84129523D01*
X150360000Y-83986666D01*
X150312380Y-83939047D01*
X149407619Y-83034285D02*
X149407619Y-83510476D01*
X150407619Y-83510476D01*
X149407619Y-82700952D02*
X150407619Y-82700952D01*
X149407619Y-82129523D02*
X149979047Y-82558095D01*
X150407619Y-82129523D02*
X149836190Y-82700952D01*
D13*
X168528571Y-121102380D02*
X168528571Y-120102380D01*
X168028571Y-120102380D02*
X167171428Y-120102380D01*
X167600000Y-121102380D02*
X167600000Y-120102380D01*
X166385714Y-120102380D02*
X166242857Y-120102380D01*
X166100000Y-120150000D01*
X166028571Y-120197619D01*
X165957142Y-120292857D01*
X165885714Y-120483333D01*
X165885714Y-120721428D01*
X165957142Y-120911904D01*
X166028571Y-121007142D01*
X166100000Y-121054761D01*
X166242857Y-121102380D01*
X166385714Y-121102380D01*
X166528571Y-121054761D01*
X166600000Y-121007142D01*
X166671428Y-120911904D01*
X166742857Y-120721428D01*
X166742857Y-120483333D01*
X166671428Y-120292857D01*
X166600000Y-120197619D01*
X166528571Y-120150000D01*
X166385714Y-120102380D01*
X164457142Y-121102380D02*
X165314285Y-121102380D01*
X164885714Y-121102380D02*
X164885714Y-120102380D01*
X165028571Y-120245238D01*
X165171428Y-120340476D01*
X165314285Y-120388095D01*
X163957142Y-120102380D02*
X163028571Y-120102380D01*
X163528571Y-120483333D01*
X163314285Y-120483333D01*
X163171428Y-120530952D01*
X163100000Y-120578571D01*
X163028571Y-120673809D01*
X163028571Y-120911904D01*
X163100000Y-121007142D01*
X163171428Y-121054761D01*
X163314285Y-121102380D01*
X163742857Y-121102380D01*
X163885714Y-121054761D01*
X163957142Y-121007142D01*
X162314285Y-121102380D02*
X162028571Y-121102380D01*
X161885714Y-121054761D01*
X161814285Y-121007142D01*
X161671428Y-120864285D01*
X161600000Y-120673809D01*
X161600000Y-120292857D01*
X161671428Y-120197619D01*
X161742857Y-120150000D01*
X161885714Y-120102380D01*
X162171428Y-120102380D01*
X162314285Y-120150000D01*
X162385714Y-120197619D01*
X162457142Y-120292857D01*
X162457142Y-120530952D01*
X162385714Y-120626190D01*
X162314285Y-120673809D01*
X162171428Y-120721428D01*
X161885714Y-120721428D01*
X161742857Y-120673809D01*
X161671428Y-120626190D01*
X161600000Y-120530952D01*
D14*
G04 #@! TO.C,G1*
G36*
X129809394Y-93202607D02*
G01*
X131856788Y-93202607D01*
X131856788Y-92694607D01*
X129809394Y-92694607D01*
X129809394Y-93202607D01*
G37*
X129809394Y-93202607D02*
X131856788Y-93202607D01*
X131856788Y-92694607D01*
X129809394Y-92694607D01*
X129809394Y-93202607D01*
G36*
X129621441Y-89712518D02*
G01*
X129600858Y-89731296D01*
X129586225Y-89746594D01*
X129580305Y-89755480D01*
X129580338Y-89756074D01*
X129585894Y-89762791D01*
X129600975Y-89779541D01*
X129624520Y-89805183D01*
X129655467Y-89838574D01*
X129692754Y-89878573D01*
X129735321Y-89924036D01*
X129782106Y-89973823D01*
X129823867Y-90018125D01*
X130065307Y-90273910D01*
X130064110Y-90468258D01*
X130062914Y-90662607D01*
X130278212Y-90662607D01*
X130282215Y-90687622D01*
X130284084Y-90703833D01*
X130286606Y-90732098D01*
X130289515Y-90769103D01*
X130292544Y-90811536D01*
X130294151Y-90835788D01*
X130296677Y-90873773D01*
X130300149Y-90924198D01*
X130304362Y-90984156D01*
X130309107Y-91050735D01*
X130314179Y-91121028D01*
X130319370Y-91192123D01*
X130322449Y-91233865D01*
X130342815Y-91508791D01*
X130284915Y-91572532D01*
X130267189Y-91592013D01*
X130240513Y-91621284D01*
X130206322Y-91658774D01*
X130166051Y-91702909D01*
X130121135Y-91752117D01*
X130073009Y-91804825D01*
X130023109Y-91859462D01*
X129998962Y-91885894D01*
X129951367Y-91938109D01*
X129907138Y-91986859D01*
X129867329Y-92030968D01*
X129832991Y-92069258D01*
X129805177Y-92100553D01*
X129784941Y-92123675D01*
X129773335Y-92137447D01*
X129770909Y-92140883D01*
X129776352Y-92148129D01*
X129790721Y-92162310D01*
X129811079Y-92180555D01*
X129814274Y-92183299D01*
X129857639Y-92220347D01*
X129881110Y-92193856D01*
X129892585Y-92181061D01*
X129912771Y-92158723D01*
X129940005Y-92128673D01*
X129972626Y-92092742D01*
X130008972Y-92052763D01*
X130043399Y-92014941D01*
X130182217Y-91862518D01*
X130191019Y-91899486D01*
X130209380Y-91957185D01*
X130235037Y-92002988D01*
X130269918Y-92039428D01*
X130315946Y-92069038D01*
X130322517Y-92072353D01*
X130354695Y-92086734D01*
X130381652Y-92094376D01*
X130410942Y-92097131D01*
X130424300Y-92097281D01*
X130481165Y-92090163D01*
X130534312Y-92070269D01*
X130581108Y-92039342D01*
X130618920Y-91999121D01*
X130645115Y-91951349D01*
X130645168Y-91951212D01*
X130658152Y-91917213D01*
X131094788Y-91917213D01*
X131094788Y-91952355D01*
X131096350Y-91983420D01*
X131102943Y-92002713D01*
X131117427Y-92012949D01*
X131142662Y-92016847D01*
X131163139Y-92017273D01*
X131198968Y-92015250D01*
X131222201Y-92007887D01*
X131235252Y-91993243D01*
X131240540Y-91969376D01*
X131241031Y-91954707D01*
X131242478Y-91932177D01*
X131246117Y-91916148D01*
X131246915Y-91914766D01*
X130573055Y-91914766D01*
X130561411Y-91937156D01*
X130534960Y-91972472D01*
X130499438Y-91997748D01*
X130458030Y-92012249D01*
X130413927Y-92015245D01*
X130370314Y-92006002D01*
X130337057Y-91988707D01*
X130304563Y-91957619D01*
X130283109Y-91919184D01*
X130272798Y-91876531D01*
X130273734Y-91832787D01*
X130286020Y-91791081D01*
X130309761Y-91754541D01*
X130328722Y-91737022D01*
X130354669Y-91717231D01*
X130359926Y-91766319D01*
X130361927Y-91796442D01*
X130361704Y-91823966D01*
X130359962Y-91839175D01*
X130358925Y-91864783D01*
X130365022Y-91890365D01*
X130376332Y-91910685D01*
X130389712Y-91920239D01*
X130403644Y-91921505D01*
X130428992Y-91921706D01*
X130461816Y-91920869D01*
X130489253Y-91919560D01*
X130573055Y-91914766D01*
X131246915Y-91914766D01*
X131247949Y-91912979D01*
X131250543Y-91903476D01*
X131253970Y-91880921D01*
X131257965Y-91847614D01*
X131262261Y-91805858D01*
X131266594Y-91757955D01*
X131268533Y-91734410D01*
X131272664Y-91685036D01*
X131276691Y-91641293D01*
X131280383Y-91605346D01*
X131283511Y-91579359D01*
X131285845Y-91565498D01*
X131286630Y-91563788D01*
X131292660Y-91569349D01*
X131308138Y-91585006D01*
X131331983Y-91609627D01*
X131363112Y-91642082D01*
X131400442Y-91681238D01*
X131442890Y-91725965D01*
X131489375Y-91775130D01*
X131525819Y-91813793D01*
X131578632Y-91869869D01*
X131631566Y-91926030D01*
X131682960Y-91980515D01*
X131731152Y-92031565D01*
X131774480Y-92077420D01*
X131811284Y-92116320D01*
X131839901Y-92146506D01*
X131849091Y-92156175D01*
X131937606Y-92249189D01*
X131978400Y-92213116D01*
X131998283Y-92193950D01*
X132012069Y-92177595D01*
X132016939Y-92167422D01*
X132016885Y-92167078D01*
X132011306Y-92159824D01*
X131996050Y-92142430D01*
X131972053Y-92115908D01*
X131940251Y-92081268D01*
X131901580Y-92039522D01*
X131856976Y-91991681D01*
X131807376Y-91938755D01*
X131753716Y-91881756D01*
X131702849Y-91827942D01*
X131644691Y-91766514D01*
X131588393Y-91707021D01*
X131535079Y-91650652D01*
X131485874Y-91598599D01*
X131441902Y-91552053D01*
X131404290Y-91512203D01*
X131374160Y-91480240D01*
X131352639Y-91457355D01*
X131342728Y-91446762D01*
X131340858Y-91444752D01*
X131170888Y-91444752D01*
X131156212Y-91617482D01*
X131151979Y-91667245D01*
X131148199Y-91711565D01*
X131145060Y-91748249D01*
X131142751Y-91775099D01*
X131141459Y-91789919D01*
X131141253Y-91792137D01*
X131133791Y-91792608D01*
X131112776Y-91793038D01*
X131080047Y-91793411D01*
X131037445Y-91793713D01*
X130986810Y-91793929D01*
X130929982Y-91794045D01*
X130898876Y-91794061D01*
X130656781Y-91794061D01*
X130653638Y-91786955D01*
X130563697Y-91786955D01*
X130556783Y-91791046D01*
X130539140Y-91793615D01*
X130526036Y-91794061D01*
X130500253Y-91792295D01*
X130486712Y-91786461D01*
X130483703Y-91781886D01*
X130480656Y-91766497D01*
X130479087Y-91744018D01*
X130479031Y-91739118D01*
X130479031Y-91708524D01*
X130502907Y-91722429D01*
X130522313Y-91736407D01*
X130541492Y-91754360D01*
X130556546Y-91772150D01*
X130563576Y-91785638D01*
X130563697Y-91786955D01*
X130653638Y-91786955D01*
X130641643Y-91759838D01*
X130616973Y-91719660D01*
X130581553Y-91682370D01*
X130539955Y-91652317D01*
X130516152Y-91640471D01*
X130492250Y-91629994D01*
X130478972Y-91621031D01*
X130472633Y-91609429D01*
X130469543Y-91591036D01*
X130469144Y-91587538D01*
X130465189Y-91552449D01*
X130616428Y-91387047D01*
X130657825Y-91341727D01*
X130698278Y-91297356D01*
X130735915Y-91255993D01*
X130768862Y-91219699D01*
X130795249Y-91190534D01*
X130813204Y-91170556D01*
X130813849Y-91169833D01*
X130834641Y-91146964D01*
X130851496Y-91129283D01*
X130861911Y-91119374D01*
X130863879Y-91118138D01*
X130870005Y-91123508D01*
X130884953Y-91138370D01*
X130907049Y-91160959D01*
X130934615Y-91189508D01*
X130965976Y-91222254D01*
X130999456Y-91257430D01*
X131033378Y-91293270D01*
X131066066Y-91328009D01*
X131095844Y-91359882D01*
X131121035Y-91387123D01*
X131139964Y-91407967D01*
X131150156Y-91419670D01*
X131170888Y-91444752D01*
X131340858Y-91444752D01*
X131294335Y-91394755D01*
X131313643Y-91157605D01*
X131323308Y-91038368D01*
X131331776Y-90932787D01*
X131339030Y-90841094D01*
X131345052Y-90763525D01*
X131346979Y-90737987D01*
X131224028Y-90737987D01*
X131223960Y-90748872D01*
X131222683Y-90773068D01*
X131220341Y-90808553D01*
X131217078Y-90853305D01*
X131213036Y-90905300D01*
X131208359Y-90962515D01*
X131206710Y-90982094D01*
X131201739Y-91041757D01*
X131197233Y-91097917D01*
X131193360Y-91148326D01*
X131190285Y-91190740D01*
X131188176Y-91222912D01*
X131187200Y-91242598D01*
X131187152Y-91245466D01*
X131186631Y-91265521D01*
X131185321Y-91277173D01*
X131184656Y-91278364D01*
X131178883Y-91273026D01*
X131164099Y-91258075D01*
X131141847Y-91235108D01*
X131113667Y-91205719D01*
X131081100Y-91171505D01*
X131064960Y-91154468D01*
X131031073Y-91118286D01*
X131001237Y-91085741D01*
X130976934Y-91058508D01*
X130959647Y-91038260D01*
X130954401Y-91031343D01*
X130779798Y-91031343D01*
X130620636Y-91205086D01*
X130581031Y-91248061D01*
X130544768Y-91286915D01*
X130513136Y-91320307D01*
X130487422Y-91346895D01*
X130468917Y-91365337D01*
X130458908Y-91374292D01*
X130457538Y-91374892D01*
X130455906Y-91366434D01*
X130453415Y-91344762D01*
X130450262Y-91312019D01*
X130446646Y-91270350D01*
X130442764Y-91221897D01*
X130439928Y-91184190D01*
X130435089Y-91118175D01*
X130429668Y-91044390D01*
X130424080Y-90968457D01*
X130418738Y-90895996D01*
X130414057Y-90832626D01*
X130413583Y-90826225D01*
X130410007Y-90775945D01*
X130407048Y-90730432D01*
X130404837Y-90692066D01*
X130403507Y-90663227D01*
X130403190Y-90646294D01*
X130403410Y-90643207D01*
X130408956Y-90646077D01*
X130423577Y-90658734D01*
X130445842Y-90679715D01*
X130474320Y-90707556D01*
X130507579Y-90740794D01*
X130544187Y-90777965D01*
X130582713Y-90817605D01*
X130621726Y-90858251D01*
X130659795Y-90898439D01*
X130695487Y-90936705D01*
X130727371Y-90971587D01*
X130754016Y-91001620D01*
X130754490Y-91002166D01*
X130779798Y-91031343D01*
X130954401Y-91031343D01*
X130950858Y-91026672D01*
X130950077Y-91024711D01*
X130955701Y-91017666D01*
X130970341Y-91000857D01*
X130992593Y-90975852D01*
X131021054Y-90944219D01*
X131054321Y-90907526D01*
X131087091Y-90871602D01*
X131132465Y-90822487D01*
X131168303Y-90784797D01*
X131194972Y-90758173D01*
X131212843Y-90742256D01*
X131222282Y-90736686D01*
X131224028Y-90737987D01*
X131346979Y-90737987D01*
X131349824Y-90700311D01*
X131353328Y-90651688D01*
X131355546Y-90617889D01*
X131356460Y-90599147D01*
X131356485Y-90597277D01*
X131357590Y-90591250D01*
X131361410Y-90582985D01*
X131368700Y-90571601D01*
X131380219Y-90556216D01*
X131396721Y-90535949D01*
X131418965Y-90509919D01*
X131447706Y-90477243D01*
X131483701Y-90437041D01*
X131527707Y-90388432D01*
X131580481Y-90330533D01*
X131642778Y-90262465D01*
X131660516Y-90243115D01*
X131735987Y-90160763D01*
X131801603Y-90089059D01*
X131857956Y-90027345D01*
X131905637Y-89974963D01*
X131945238Y-89931253D01*
X131977351Y-89895557D01*
X132002567Y-89867217D01*
X132021478Y-89845574D01*
X132034676Y-89829969D01*
X132042751Y-89819745D01*
X132046296Y-89814242D01*
X132046567Y-89813393D01*
X132041828Y-89804130D01*
X132028223Y-89788206D01*
X132008613Y-89768939D01*
X132006964Y-89767438D01*
X131966157Y-89730481D01*
X131383425Y-90369375D01*
X131381001Y-90333208D01*
X131380525Y-90304991D01*
X131382286Y-90278514D01*
X131382400Y-90277758D01*
X131263827Y-90277758D01*
X131259980Y-90310470D01*
X131257808Y-90331429D01*
X131254872Y-90363148D01*
X131251583Y-90401041D01*
X131248844Y-90434364D01*
X131241555Y-90525545D01*
X131169876Y-90603697D01*
X131142201Y-90633872D01*
X131107038Y-90672212D01*
X131067303Y-90715536D01*
X131025914Y-90760664D01*
X130985788Y-90804417D01*
X130980006Y-90810721D01*
X130861814Y-90939593D01*
X130780104Y-90853810D01*
X130750938Y-90822958D01*
X130724997Y-90795085D01*
X130704418Y-90772520D01*
X130691339Y-90757592D01*
X130688337Y-90753802D01*
X130685501Y-90748873D01*
X130686227Y-90745236D01*
X130692398Y-90742697D01*
X130705897Y-90741057D01*
X130728609Y-90740122D01*
X130762417Y-90739695D01*
X130809206Y-90739579D01*
X130824958Y-90739576D01*
X130971637Y-90739576D01*
X130971637Y-90593094D01*
X130754351Y-90595138D01*
X130537066Y-90597182D01*
X130462292Y-90517265D01*
X130454841Y-90509311D01*
X130255819Y-90509311D01*
X130255819Y-90545236D01*
X130186579Y-90543304D01*
X130186562Y-90474352D01*
X130186546Y-90405401D01*
X130221182Y-90439394D01*
X130240586Y-90459646D01*
X130251009Y-90475379D01*
X130255171Y-90492081D01*
X130255819Y-90509311D01*
X130454841Y-90509311D01*
X130433271Y-90486286D01*
X130412501Y-90462894D01*
X130398415Y-90443450D01*
X130389444Y-90424315D01*
X130384020Y-90401850D01*
X130380577Y-90372416D01*
X130377546Y-90332374D01*
X130376513Y-90318167D01*
X130373533Y-90277758D01*
X131263827Y-90277758D01*
X131382400Y-90277758D01*
X131383274Y-90272006D01*
X131383842Y-90270061D01*
X130255819Y-90270061D01*
X130253091Y-90282576D01*
X130249315Y-90285455D01*
X130239814Y-90280308D01*
X130228879Y-90270061D01*
X130219846Y-90258917D01*
X130222998Y-90255089D01*
X130235383Y-90254667D01*
X130251058Y-90257836D01*
X130255806Y-90269081D01*
X130255819Y-90270061D01*
X131383842Y-90270061D01*
X131388257Y-90254956D01*
X131398081Y-90248118D01*
X131414561Y-90246970D01*
X131441152Y-90246970D01*
X131441152Y-90131516D01*
X131410364Y-90131516D01*
X131388235Y-90129309D01*
X131379746Y-90122422D01*
X131379576Y-90120803D01*
X131374330Y-90108821D01*
X131368621Y-90101024D01*
X131110182Y-90101024D01*
X131110182Y-90131516D01*
X130775364Y-90131516D01*
X130693875Y-90131461D01*
X130626491Y-90131268D01*
X130571924Y-90130893D01*
X130528885Y-90130293D01*
X130496086Y-90129422D01*
X130472240Y-90128238D01*
X130456056Y-90126697D01*
X130446248Y-90124754D01*
X130441527Y-90122366D01*
X130440546Y-90120127D01*
X130447690Y-90108608D01*
X130467442Y-90095523D01*
X130497280Y-90082148D01*
X130534684Y-90069762D01*
X130546028Y-90066681D01*
X130574536Y-90059396D01*
X130591270Y-90055849D01*
X130599367Y-90055948D01*
X130601961Y-90059602D01*
X130602182Y-90065053D01*
X130606650Y-90078007D01*
X130617469Y-90094986D01*
X130618135Y-90095841D01*
X130634087Y-90116122D01*
X130962823Y-90116122D01*
X130978775Y-90095841D01*
X130989960Y-90077231D01*
X130994726Y-90060586D01*
X130994728Y-90060348D01*
X130996621Y-90050731D01*
X131005109Y-90047922D01*
X131023591Y-90050311D01*
X131052096Y-90056097D01*
X131080770Y-90062867D01*
X131081319Y-90063010D01*
X131099985Y-90069129D01*
X131108165Y-90078045D01*
X131110151Y-90095409D01*
X131110182Y-90101024D01*
X131368621Y-90101024D01*
X131360765Y-90090295D01*
X131342139Y-90068823D01*
X131321712Y-90048004D01*
X131302743Y-90031440D01*
X131292329Y-90024437D01*
X131278378Y-90013104D01*
X131271761Y-89995207D01*
X131270284Y-89982257D01*
X131267970Y-89950637D01*
X131175606Y-89946180D01*
X131109742Y-89941563D01*
X131057822Y-89934591D01*
X131018535Y-89924982D01*
X130990570Y-89912453D01*
X130978913Y-89903633D01*
X130971984Y-89897523D01*
X130964584Y-89892939D01*
X130954539Y-89889663D01*
X130939679Y-89887475D01*
X130917832Y-89886156D01*
X130886827Y-89885485D01*
X130844491Y-89885244D01*
X130796667Y-89885213D01*
X130634086Y-89885213D01*
X130616210Y-89906984D01*
X130602724Y-89919588D01*
X130583273Y-89929989D01*
X130554213Y-89939879D01*
X130532909Y-89945689D01*
X130475044Y-89963599D01*
X130418266Y-89986493D01*
X130367042Y-90012314D01*
X130325842Y-90039004D01*
X130319705Y-90043849D01*
X130300354Y-90059023D01*
X130288149Y-90065430D01*
X130278625Y-90064405D01*
X130269552Y-90058867D01*
X130240565Y-90047245D01*
X130209214Y-90048914D01*
X130179919Y-90063347D01*
X130171741Y-90070535D01*
X130155171Y-90089719D01*
X130145474Y-90109642D01*
X130140104Y-90136424D01*
X130138626Y-90150107D01*
X130137472Y-90155168D01*
X130134539Y-90157187D01*
X130128847Y-90155247D01*
X130119418Y-90148433D01*
X130105274Y-90135826D01*
X130085436Y-90116511D01*
X130058925Y-90089570D01*
X130024762Y-90054087D01*
X129981970Y-90009145D01*
X129933216Y-89957683D01*
X129886372Y-89908193D01*
X129841604Y-89860930D01*
X129800310Y-89817369D01*
X129763891Y-89778985D01*
X129733745Y-89747253D01*
X129711272Y-89723648D01*
X129697872Y-89709643D01*
X129697274Y-89709024D01*
X129664632Y-89675229D01*
X129621441Y-89712518D01*
G37*
X129621441Y-89712518D02*
X129600858Y-89731296D01*
X129586225Y-89746594D01*
X129580305Y-89755480D01*
X129580338Y-89756074D01*
X129585894Y-89762791D01*
X129600975Y-89779541D01*
X129624520Y-89805183D01*
X129655467Y-89838574D01*
X129692754Y-89878573D01*
X129735321Y-89924036D01*
X129782106Y-89973823D01*
X129823867Y-90018125D01*
X130065307Y-90273910D01*
X130064110Y-90468258D01*
X130062914Y-90662607D01*
X130278212Y-90662607D01*
X130282215Y-90687622D01*
X130284084Y-90703833D01*
X130286606Y-90732098D01*
X130289515Y-90769103D01*
X130292544Y-90811536D01*
X130294151Y-90835788D01*
X130296677Y-90873773D01*
X130300149Y-90924198D01*
X130304362Y-90984156D01*
X130309107Y-91050735D01*
X130314179Y-91121028D01*
X130319370Y-91192123D01*
X130322449Y-91233865D01*
X130342815Y-91508791D01*
X130284915Y-91572532D01*
X130267189Y-91592013D01*
X130240513Y-91621284D01*
X130206322Y-91658774D01*
X130166051Y-91702909D01*
X130121135Y-91752117D01*
X130073009Y-91804825D01*
X130023109Y-91859462D01*
X129998962Y-91885894D01*
X129951367Y-91938109D01*
X129907138Y-91986859D01*
X129867329Y-92030968D01*
X129832991Y-92069258D01*
X129805177Y-92100553D01*
X129784941Y-92123675D01*
X129773335Y-92137447D01*
X129770909Y-92140883D01*
X129776352Y-92148129D01*
X129790721Y-92162310D01*
X129811079Y-92180555D01*
X129814274Y-92183299D01*
X129857639Y-92220347D01*
X129881110Y-92193856D01*
X129892585Y-92181061D01*
X129912771Y-92158723D01*
X129940005Y-92128673D01*
X129972626Y-92092742D01*
X130008972Y-92052763D01*
X130043399Y-92014941D01*
X130182217Y-91862518D01*
X130191019Y-91899486D01*
X130209380Y-91957185D01*
X130235037Y-92002988D01*
X130269918Y-92039428D01*
X130315946Y-92069038D01*
X130322517Y-92072353D01*
X130354695Y-92086734D01*
X130381652Y-92094376D01*
X130410942Y-92097131D01*
X130424300Y-92097281D01*
X130481165Y-92090163D01*
X130534312Y-92070269D01*
X130581108Y-92039342D01*
X130618920Y-91999121D01*
X130645115Y-91951349D01*
X130645168Y-91951212D01*
X130658152Y-91917213D01*
X131094788Y-91917213D01*
X131094788Y-91952355D01*
X131096350Y-91983420D01*
X131102943Y-92002713D01*
X131117427Y-92012949D01*
X131142662Y-92016847D01*
X131163139Y-92017273D01*
X131198968Y-92015250D01*
X131222201Y-92007887D01*
X131235252Y-91993243D01*
X131240540Y-91969376D01*
X131241031Y-91954707D01*
X131242478Y-91932177D01*
X131246117Y-91916148D01*
X131246915Y-91914766D01*
X130573055Y-91914766D01*
X130561411Y-91937156D01*
X130534960Y-91972472D01*
X130499438Y-91997748D01*
X130458030Y-92012249D01*
X130413927Y-92015245D01*
X130370314Y-92006002D01*
X130337057Y-91988707D01*
X130304563Y-91957619D01*
X130283109Y-91919184D01*
X130272798Y-91876531D01*
X130273734Y-91832787D01*
X130286020Y-91791081D01*
X130309761Y-91754541D01*
X130328722Y-91737022D01*
X130354669Y-91717231D01*
X130359926Y-91766319D01*
X130361927Y-91796442D01*
X130361704Y-91823966D01*
X130359962Y-91839175D01*
X130358925Y-91864783D01*
X130365022Y-91890365D01*
X130376332Y-91910685D01*
X130389712Y-91920239D01*
X130403644Y-91921505D01*
X130428992Y-91921706D01*
X130461816Y-91920869D01*
X130489253Y-91919560D01*
X130573055Y-91914766D01*
X131246915Y-91914766D01*
X131247949Y-91912979D01*
X131250543Y-91903476D01*
X131253970Y-91880921D01*
X131257965Y-91847614D01*
X131262261Y-91805858D01*
X131266594Y-91757955D01*
X131268533Y-91734410D01*
X131272664Y-91685036D01*
X131276691Y-91641293D01*
X131280383Y-91605346D01*
X131283511Y-91579359D01*
X131285845Y-91565498D01*
X131286630Y-91563788D01*
X131292660Y-91569349D01*
X131308138Y-91585006D01*
X131331983Y-91609627D01*
X131363112Y-91642082D01*
X131400442Y-91681238D01*
X131442890Y-91725965D01*
X131489375Y-91775130D01*
X131525819Y-91813793D01*
X131578632Y-91869869D01*
X131631566Y-91926030D01*
X131682960Y-91980515D01*
X131731152Y-92031565D01*
X131774480Y-92077420D01*
X131811284Y-92116320D01*
X131839901Y-92146506D01*
X131849091Y-92156175D01*
X131937606Y-92249189D01*
X131978400Y-92213116D01*
X131998283Y-92193950D01*
X132012069Y-92177595D01*
X132016939Y-92167422D01*
X132016885Y-92167078D01*
X132011306Y-92159824D01*
X131996050Y-92142430D01*
X131972053Y-92115908D01*
X131940251Y-92081268D01*
X131901580Y-92039522D01*
X131856976Y-91991681D01*
X131807376Y-91938755D01*
X131753716Y-91881756D01*
X131702849Y-91827942D01*
X131644691Y-91766514D01*
X131588393Y-91707021D01*
X131535079Y-91650652D01*
X131485874Y-91598599D01*
X131441902Y-91552053D01*
X131404290Y-91512203D01*
X131374160Y-91480240D01*
X131352639Y-91457355D01*
X131342728Y-91446762D01*
X131340858Y-91444752D01*
X131170888Y-91444752D01*
X131156212Y-91617482D01*
X131151979Y-91667245D01*
X131148199Y-91711565D01*
X131145060Y-91748249D01*
X131142751Y-91775099D01*
X131141459Y-91789919D01*
X131141253Y-91792137D01*
X131133791Y-91792608D01*
X131112776Y-91793038D01*
X131080047Y-91793411D01*
X131037445Y-91793713D01*
X130986810Y-91793929D01*
X130929982Y-91794045D01*
X130898876Y-91794061D01*
X130656781Y-91794061D01*
X130653638Y-91786955D01*
X130563697Y-91786955D01*
X130556783Y-91791046D01*
X130539140Y-91793615D01*
X130526036Y-91794061D01*
X130500253Y-91792295D01*
X130486712Y-91786461D01*
X130483703Y-91781886D01*
X130480656Y-91766497D01*
X130479087Y-91744018D01*
X130479031Y-91739118D01*
X130479031Y-91708524D01*
X130502907Y-91722429D01*
X130522313Y-91736407D01*
X130541492Y-91754360D01*
X130556546Y-91772150D01*
X130563576Y-91785638D01*
X130563697Y-91786955D01*
X130653638Y-91786955D01*
X130641643Y-91759838D01*
X130616973Y-91719660D01*
X130581553Y-91682370D01*
X130539955Y-91652317D01*
X130516152Y-91640471D01*
X130492250Y-91629994D01*
X130478972Y-91621031D01*
X130472633Y-91609429D01*
X130469543Y-91591036D01*
X130469144Y-91587538D01*
X130465189Y-91552449D01*
X130616428Y-91387047D01*
X130657825Y-91341727D01*
X130698278Y-91297356D01*
X130735915Y-91255993D01*
X130768862Y-91219699D01*
X130795249Y-91190534D01*
X130813204Y-91170556D01*
X130813849Y-91169833D01*
X130834641Y-91146964D01*
X130851496Y-91129283D01*
X130861911Y-91119374D01*
X130863879Y-91118138D01*
X130870005Y-91123508D01*
X130884953Y-91138370D01*
X130907049Y-91160959D01*
X130934615Y-91189508D01*
X130965976Y-91222254D01*
X130999456Y-91257430D01*
X131033378Y-91293270D01*
X131066066Y-91328009D01*
X131095844Y-91359882D01*
X131121035Y-91387123D01*
X131139964Y-91407967D01*
X131150156Y-91419670D01*
X131170888Y-91444752D01*
X131340858Y-91444752D01*
X131294335Y-91394755D01*
X131313643Y-91157605D01*
X131323308Y-91038368D01*
X131331776Y-90932787D01*
X131339030Y-90841094D01*
X131345052Y-90763525D01*
X131346979Y-90737987D01*
X131224028Y-90737987D01*
X131223960Y-90748872D01*
X131222683Y-90773068D01*
X131220341Y-90808553D01*
X131217078Y-90853305D01*
X131213036Y-90905300D01*
X131208359Y-90962515D01*
X131206710Y-90982094D01*
X131201739Y-91041757D01*
X131197233Y-91097917D01*
X131193360Y-91148326D01*
X131190285Y-91190740D01*
X131188176Y-91222912D01*
X131187200Y-91242598D01*
X131187152Y-91245466D01*
X131186631Y-91265521D01*
X131185321Y-91277173D01*
X131184656Y-91278364D01*
X131178883Y-91273026D01*
X131164099Y-91258075D01*
X131141847Y-91235108D01*
X131113667Y-91205719D01*
X131081100Y-91171505D01*
X131064960Y-91154468D01*
X131031073Y-91118286D01*
X131001237Y-91085741D01*
X130976934Y-91058508D01*
X130959647Y-91038260D01*
X130954401Y-91031343D01*
X130779798Y-91031343D01*
X130620636Y-91205086D01*
X130581031Y-91248061D01*
X130544768Y-91286915D01*
X130513136Y-91320307D01*
X130487422Y-91346895D01*
X130468917Y-91365337D01*
X130458908Y-91374292D01*
X130457538Y-91374892D01*
X130455906Y-91366434D01*
X130453415Y-91344762D01*
X130450262Y-91312019D01*
X130446646Y-91270350D01*
X130442764Y-91221897D01*
X130439928Y-91184190D01*
X130435089Y-91118175D01*
X130429668Y-91044390D01*
X130424080Y-90968457D01*
X130418738Y-90895996D01*
X130414057Y-90832626D01*
X130413583Y-90826225D01*
X130410007Y-90775945D01*
X130407048Y-90730432D01*
X130404837Y-90692066D01*
X130403507Y-90663227D01*
X130403190Y-90646294D01*
X130403410Y-90643207D01*
X130408956Y-90646077D01*
X130423577Y-90658734D01*
X130445842Y-90679715D01*
X130474320Y-90707556D01*
X130507579Y-90740794D01*
X130544187Y-90777965D01*
X130582713Y-90817605D01*
X130621726Y-90858251D01*
X130659795Y-90898439D01*
X130695487Y-90936705D01*
X130727371Y-90971587D01*
X130754016Y-91001620D01*
X130754490Y-91002166D01*
X130779798Y-91031343D01*
X130954401Y-91031343D01*
X130950858Y-91026672D01*
X130950077Y-91024711D01*
X130955701Y-91017666D01*
X130970341Y-91000857D01*
X130992593Y-90975852D01*
X131021054Y-90944219D01*
X131054321Y-90907526D01*
X131087091Y-90871602D01*
X131132465Y-90822487D01*
X131168303Y-90784797D01*
X131194972Y-90758173D01*
X131212843Y-90742256D01*
X131222282Y-90736686D01*
X131224028Y-90737987D01*
X131346979Y-90737987D01*
X131349824Y-90700311D01*
X131353328Y-90651688D01*
X131355546Y-90617889D01*
X131356460Y-90599147D01*
X131356485Y-90597277D01*
X131357590Y-90591250D01*
X131361410Y-90582985D01*
X131368700Y-90571601D01*
X131380219Y-90556216D01*
X131396721Y-90535949D01*
X131418965Y-90509919D01*
X131447706Y-90477243D01*
X131483701Y-90437041D01*
X131527707Y-90388432D01*
X131580481Y-90330533D01*
X131642778Y-90262465D01*
X131660516Y-90243115D01*
X131735987Y-90160763D01*
X131801603Y-90089059D01*
X131857956Y-90027345D01*
X131905637Y-89974963D01*
X131945238Y-89931253D01*
X131977351Y-89895557D01*
X132002567Y-89867217D01*
X132021478Y-89845574D01*
X132034676Y-89829969D01*
X132042751Y-89819745D01*
X132046296Y-89814242D01*
X132046567Y-89813393D01*
X132041828Y-89804130D01*
X132028223Y-89788206D01*
X132008613Y-89768939D01*
X132006964Y-89767438D01*
X131966157Y-89730481D01*
X131383425Y-90369375D01*
X131381001Y-90333208D01*
X131380525Y-90304991D01*
X131382286Y-90278514D01*
X131382400Y-90277758D01*
X131263827Y-90277758D01*
X131259980Y-90310470D01*
X131257808Y-90331429D01*
X131254872Y-90363148D01*
X131251583Y-90401041D01*
X131248844Y-90434364D01*
X131241555Y-90525545D01*
X131169876Y-90603697D01*
X131142201Y-90633872D01*
X131107038Y-90672212D01*
X131067303Y-90715536D01*
X131025914Y-90760664D01*
X130985788Y-90804417D01*
X130980006Y-90810721D01*
X130861814Y-90939593D01*
X130780104Y-90853810D01*
X130750938Y-90822958D01*
X130724997Y-90795085D01*
X130704418Y-90772520D01*
X130691339Y-90757592D01*
X130688337Y-90753802D01*
X130685501Y-90748873D01*
X130686227Y-90745236D01*
X130692398Y-90742697D01*
X130705897Y-90741057D01*
X130728609Y-90740122D01*
X130762417Y-90739695D01*
X130809206Y-90739579D01*
X130824958Y-90739576D01*
X130971637Y-90739576D01*
X130971637Y-90593094D01*
X130754351Y-90595138D01*
X130537066Y-90597182D01*
X130462292Y-90517265D01*
X130454841Y-90509311D01*
X130255819Y-90509311D01*
X130255819Y-90545236D01*
X130186579Y-90543304D01*
X130186562Y-90474352D01*
X130186546Y-90405401D01*
X130221182Y-90439394D01*
X130240586Y-90459646D01*
X130251009Y-90475379D01*
X130255171Y-90492081D01*
X130255819Y-90509311D01*
X130454841Y-90509311D01*
X130433271Y-90486286D01*
X130412501Y-90462894D01*
X130398415Y-90443450D01*
X130389444Y-90424315D01*
X130384020Y-90401850D01*
X130380577Y-90372416D01*
X130377546Y-90332374D01*
X130376513Y-90318167D01*
X130373533Y-90277758D01*
X131263827Y-90277758D01*
X131382400Y-90277758D01*
X131383274Y-90272006D01*
X131383842Y-90270061D01*
X130255819Y-90270061D01*
X130253091Y-90282576D01*
X130249315Y-90285455D01*
X130239814Y-90280308D01*
X130228879Y-90270061D01*
X130219846Y-90258917D01*
X130222998Y-90255089D01*
X130235383Y-90254667D01*
X130251058Y-90257836D01*
X130255806Y-90269081D01*
X130255819Y-90270061D01*
X131383842Y-90270061D01*
X131388257Y-90254956D01*
X131398081Y-90248118D01*
X131414561Y-90246970D01*
X131441152Y-90246970D01*
X131441152Y-90131516D01*
X131410364Y-90131516D01*
X131388235Y-90129309D01*
X131379746Y-90122422D01*
X131379576Y-90120803D01*
X131374330Y-90108821D01*
X131368621Y-90101024D01*
X131110182Y-90101024D01*
X131110182Y-90131516D01*
X130775364Y-90131516D01*
X130693875Y-90131461D01*
X130626491Y-90131268D01*
X130571924Y-90130893D01*
X130528885Y-90130293D01*
X130496086Y-90129422D01*
X130472240Y-90128238D01*
X130456056Y-90126697D01*
X130446248Y-90124754D01*
X130441527Y-90122366D01*
X130440546Y-90120127D01*
X130447690Y-90108608D01*
X130467442Y-90095523D01*
X130497280Y-90082148D01*
X130534684Y-90069762D01*
X130546028Y-90066681D01*
X130574536Y-90059396D01*
X130591270Y-90055849D01*
X130599367Y-90055948D01*
X130601961Y-90059602D01*
X130602182Y-90065053D01*
X130606650Y-90078007D01*
X130617469Y-90094986D01*
X130618135Y-90095841D01*
X130634087Y-90116122D01*
X130962823Y-90116122D01*
X130978775Y-90095841D01*
X130989960Y-90077231D01*
X130994726Y-90060586D01*
X130994728Y-90060348D01*
X130996621Y-90050731D01*
X131005109Y-90047922D01*
X131023591Y-90050311D01*
X131052096Y-90056097D01*
X131080770Y-90062867D01*
X131081319Y-90063010D01*
X131099985Y-90069129D01*
X131108165Y-90078045D01*
X131110151Y-90095409D01*
X131110182Y-90101024D01*
X131368621Y-90101024D01*
X131360765Y-90090295D01*
X131342139Y-90068823D01*
X131321712Y-90048004D01*
X131302743Y-90031440D01*
X131292329Y-90024437D01*
X131278378Y-90013104D01*
X131271761Y-89995207D01*
X131270284Y-89982257D01*
X131267970Y-89950637D01*
X131175606Y-89946180D01*
X131109742Y-89941563D01*
X131057822Y-89934591D01*
X131018535Y-89924982D01*
X130990570Y-89912453D01*
X130978913Y-89903633D01*
X130971984Y-89897523D01*
X130964584Y-89892939D01*
X130954539Y-89889663D01*
X130939679Y-89887475D01*
X130917832Y-89886156D01*
X130886827Y-89885485D01*
X130844491Y-89885244D01*
X130796667Y-89885213D01*
X130634086Y-89885213D01*
X130616210Y-89906984D01*
X130602724Y-89919588D01*
X130583273Y-89929989D01*
X130554213Y-89939879D01*
X130532909Y-89945689D01*
X130475044Y-89963599D01*
X130418266Y-89986493D01*
X130367042Y-90012314D01*
X130325842Y-90039004D01*
X130319705Y-90043849D01*
X130300354Y-90059023D01*
X130288149Y-90065430D01*
X130278625Y-90064405D01*
X130269552Y-90058867D01*
X130240565Y-90047245D01*
X130209214Y-90048914D01*
X130179919Y-90063347D01*
X130171741Y-90070535D01*
X130155171Y-90089719D01*
X130145474Y-90109642D01*
X130140104Y-90136424D01*
X130138626Y-90150107D01*
X130137472Y-90155168D01*
X130134539Y-90157187D01*
X130128847Y-90155247D01*
X130119418Y-90148433D01*
X130105274Y-90135826D01*
X130085436Y-90116511D01*
X130058925Y-90089570D01*
X130024762Y-90054087D01*
X129981970Y-90009145D01*
X129933216Y-89957683D01*
X129886372Y-89908193D01*
X129841604Y-89860930D01*
X129800310Y-89817369D01*
X129763891Y-89778985D01*
X129733745Y-89747253D01*
X129711272Y-89723648D01*
X129697872Y-89709643D01*
X129697274Y-89709024D01*
X129664632Y-89675229D01*
X129621441Y-89712518D01*
G04 #@! TO.C,G2*
G36*
X161346444Y-89893422D02*
G01*
X171337111Y-89893422D01*
X171337111Y-88651644D01*
X161346444Y-88651644D01*
X161346444Y-89893422D01*
G37*
X161346444Y-89893422D02*
X171337111Y-89893422D01*
X171337111Y-88651644D01*
X161346444Y-88651644D01*
X161346444Y-89893422D01*
G36*
X167950444Y-84672311D02*
G01*
X167948614Y-84689061D01*
X167939275Y-84697417D01*
X167916652Y-84700266D01*
X167894000Y-84700533D01*
X167860501Y-84701448D01*
X167843789Y-84706118D01*
X167838090Y-84717429D01*
X167837555Y-84728755D01*
X167832893Y-84750238D01*
X167814534Y-84756858D01*
X167809333Y-84756978D01*
X167787850Y-84761640D01*
X167781230Y-84779999D01*
X167781111Y-84785200D01*
X167776448Y-84806683D01*
X167758090Y-84813303D01*
X167752889Y-84813422D01*
X167731406Y-84818085D01*
X167724786Y-84836443D01*
X167724667Y-84841644D01*
X167720004Y-84863127D01*
X167701645Y-84869747D01*
X167696444Y-84869867D01*
X167668222Y-84869867D01*
X167668222Y-88369422D01*
X168571333Y-88369422D01*
X168571333Y-85547200D01*
X169022889Y-85547200D01*
X169022889Y-88369422D01*
X169982444Y-88369422D01*
X169982444Y-85547200D01*
X170434000Y-85547200D01*
X170434000Y-88369422D01*
X171337111Y-88369422D01*
X171337111Y-84644089D01*
X167950444Y-84644089D01*
X167950444Y-84672311D01*
G37*
X167950444Y-84672311D02*
X167948614Y-84689061D01*
X167939275Y-84697417D01*
X167916652Y-84700266D01*
X167894000Y-84700533D01*
X167860501Y-84701448D01*
X167843789Y-84706118D01*
X167838090Y-84717429D01*
X167837555Y-84728755D01*
X167832893Y-84750238D01*
X167814534Y-84756858D01*
X167809333Y-84756978D01*
X167787850Y-84761640D01*
X167781230Y-84779999D01*
X167781111Y-84785200D01*
X167776448Y-84806683D01*
X167758090Y-84813303D01*
X167752889Y-84813422D01*
X167731406Y-84818085D01*
X167724786Y-84836443D01*
X167724667Y-84841644D01*
X167720004Y-84863127D01*
X167701645Y-84869747D01*
X167696444Y-84869867D01*
X167668222Y-84869867D01*
X167668222Y-88369422D01*
X168571333Y-88369422D01*
X168571333Y-85547200D01*
X169022889Y-85547200D01*
X169022889Y-88369422D01*
X169982444Y-88369422D01*
X169982444Y-85547200D01*
X170434000Y-85547200D01*
X170434000Y-88369422D01*
X171337111Y-88369422D01*
X171337111Y-84644089D01*
X167950444Y-84644089D01*
X167950444Y-84672311D01*
G36*
X166257111Y-88369422D02*
G01*
X167216667Y-88369422D01*
X167216667Y-84644089D01*
X166257111Y-84644089D01*
X166257111Y-88369422D01*
G37*
X166257111Y-88369422D02*
X167216667Y-88369422D01*
X167216667Y-84644089D01*
X166257111Y-84644089D01*
X166257111Y-88369422D01*
G36*
X162983333Y-84672311D02*
G01*
X162978671Y-84693794D01*
X162960312Y-84700414D01*
X162955111Y-84700533D01*
X162933628Y-84705196D01*
X162927008Y-84723554D01*
X162926889Y-84728755D01*
X162922226Y-84750238D01*
X162903868Y-84756858D01*
X162898667Y-84756978D01*
X162877184Y-84761640D01*
X162870564Y-84779999D01*
X162870444Y-84785200D01*
X162865782Y-84806683D01*
X162847423Y-84813303D01*
X162842222Y-84813422D01*
X162820739Y-84818085D01*
X162814119Y-84836443D01*
X162814000Y-84841644D01*
X162809337Y-84863127D01*
X162790979Y-84869747D01*
X162785778Y-84869867D01*
X162757555Y-84869867D01*
X162757555Y-88087200D01*
X162785778Y-88087200D01*
X162802527Y-88089030D01*
X162810883Y-88098369D01*
X162813733Y-88120992D01*
X162814000Y-88143644D01*
X162814915Y-88177143D01*
X162819585Y-88193855D01*
X162830896Y-88199554D01*
X162842222Y-88200089D01*
X162863705Y-88204751D01*
X162870325Y-88223110D01*
X162870444Y-88228311D01*
X162875107Y-88249794D01*
X162893466Y-88256414D01*
X162898667Y-88256533D01*
X162920150Y-88261196D01*
X162926770Y-88279554D01*
X162926889Y-88284755D01*
X162928719Y-88301505D01*
X162938058Y-88309861D01*
X162960681Y-88312710D01*
X162983333Y-88312978D01*
X163016832Y-88313893D01*
X163033544Y-88318562D01*
X163039243Y-88329874D01*
X163039778Y-88341200D01*
X163039778Y-88369422D01*
X165862000Y-88369422D01*
X165862000Y-86055200D01*
X164958889Y-86055200D01*
X164958889Y-87409867D01*
X163660667Y-87409867D01*
X163660667Y-85603644D01*
X165862000Y-85603644D01*
X165862000Y-84644089D01*
X162983333Y-84644089D01*
X162983333Y-84672311D01*
G37*
X162983333Y-84672311D02*
X162978671Y-84693794D01*
X162960312Y-84700414D01*
X162955111Y-84700533D01*
X162933628Y-84705196D01*
X162927008Y-84723554D01*
X162926889Y-84728755D01*
X162922226Y-84750238D01*
X162903868Y-84756858D01*
X162898667Y-84756978D01*
X162877184Y-84761640D01*
X162870564Y-84779999D01*
X162870444Y-84785200D01*
X162865782Y-84806683D01*
X162847423Y-84813303D01*
X162842222Y-84813422D01*
X162820739Y-84818085D01*
X162814119Y-84836443D01*
X162814000Y-84841644D01*
X162809337Y-84863127D01*
X162790979Y-84869747D01*
X162785778Y-84869867D01*
X162757555Y-84869867D01*
X162757555Y-88087200D01*
X162785778Y-88087200D01*
X162802527Y-88089030D01*
X162810883Y-88098369D01*
X162813733Y-88120992D01*
X162814000Y-88143644D01*
X162814915Y-88177143D01*
X162819585Y-88193855D01*
X162830896Y-88199554D01*
X162842222Y-88200089D01*
X162863705Y-88204751D01*
X162870325Y-88223110D01*
X162870444Y-88228311D01*
X162875107Y-88249794D01*
X162893466Y-88256414D01*
X162898667Y-88256533D01*
X162920150Y-88261196D01*
X162926770Y-88279554D01*
X162926889Y-88284755D01*
X162928719Y-88301505D01*
X162938058Y-88309861D01*
X162960681Y-88312710D01*
X162983333Y-88312978D01*
X163016832Y-88313893D01*
X163033544Y-88318562D01*
X163039243Y-88329874D01*
X163039778Y-88341200D01*
X163039778Y-88369422D01*
X165862000Y-88369422D01*
X165862000Y-86055200D01*
X164958889Y-86055200D01*
X164958889Y-87409867D01*
X163660667Y-87409867D01*
X163660667Y-85603644D01*
X165862000Y-85603644D01*
X165862000Y-84644089D01*
X162983333Y-84644089D01*
X162983333Y-84672311D01*
G36*
X161346444Y-88369422D02*
G01*
X162306000Y-88369422D01*
X162306000Y-84644089D01*
X161346444Y-84644089D01*
X161346444Y-88369422D01*
G37*
X161346444Y-88369422D02*
X162306000Y-88369422D01*
X162306000Y-84644089D01*
X161346444Y-84644089D01*
X161346444Y-88369422D01*
G36*
X170644935Y-82838218D02*
G01*
X170619691Y-82840330D01*
X170607513Y-82845788D01*
X170603645Y-82856176D01*
X170603333Y-82866089D01*
X170603333Y-82894311D01*
X170377555Y-82894311D01*
X170377555Y-82922533D01*
X170375725Y-82939283D01*
X170366386Y-82947639D01*
X170343764Y-82950488D01*
X170321111Y-82950755D01*
X170287612Y-82951670D01*
X170270900Y-82956340D01*
X170265201Y-82967651D01*
X170264667Y-82978978D01*
X170260004Y-83000461D01*
X170241645Y-83007081D01*
X170236444Y-83007200D01*
X170214961Y-83011862D01*
X170208341Y-83030221D01*
X170208222Y-83035422D01*
X170203560Y-83056905D01*
X170185201Y-83063525D01*
X170180000Y-83063644D01*
X170158517Y-83068307D01*
X170151897Y-83086666D01*
X170151778Y-83091867D01*
X170147115Y-83113349D01*
X170128756Y-83119970D01*
X170123555Y-83120089D01*
X170106806Y-83121919D01*
X170098450Y-83131258D01*
X170095601Y-83153881D01*
X170095333Y-83176533D01*
X170094418Y-83210032D01*
X170089749Y-83226744D01*
X170078437Y-83232443D01*
X170067111Y-83232978D01*
X170050361Y-83234808D01*
X170042005Y-83244147D01*
X170039156Y-83266770D01*
X170038889Y-83289422D01*
X170037974Y-83322921D01*
X170033304Y-83339633D01*
X170021993Y-83345332D01*
X170010667Y-83345867D01*
X169989184Y-83350529D01*
X169982564Y-83368888D01*
X169982444Y-83374089D01*
X169982444Y-83402311D01*
X170321111Y-83402311D01*
X170321111Y-83374089D01*
X170325774Y-83352606D01*
X170344132Y-83345986D01*
X170349333Y-83345867D01*
X170366083Y-83344036D01*
X170374439Y-83334697D01*
X170377288Y-83312075D01*
X170377555Y-83289422D01*
X170378471Y-83255923D01*
X170383140Y-83239211D01*
X170394451Y-83233512D01*
X170405778Y-83232978D01*
X170427261Y-83228315D01*
X170433881Y-83209956D01*
X170434000Y-83204755D01*
X170435830Y-83188006D01*
X170445169Y-83179650D01*
X170467792Y-83176801D01*
X170490444Y-83176533D01*
X170523944Y-83175618D01*
X170540656Y-83170948D01*
X170546354Y-83159637D01*
X170546889Y-83148311D01*
X170546889Y-83120089D01*
X170829111Y-83120089D01*
X170829111Y-83148311D01*
X170830941Y-83165061D01*
X170840280Y-83173417D01*
X170862903Y-83176266D01*
X170885555Y-83176533D01*
X170919055Y-83177448D01*
X170935767Y-83182118D01*
X170941465Y-83193429D01*
X170942000Y-83204755D01*
X170946663Y-83226238D01*
X170965021Y-83232858D01*
X170970222Y-83232978D01*
X170986972Y-83234808D01*
X170995328Y-83244147D01*
X170998177Y-83266770D01*
X170998444Y-83289422D01*
X170999359Y-83322921D01*
X171004029Y-83339633D01*
X171015340Y-83345332D01*
X171026667Y-83345867D01*
X171043416Y-83347697D01*
X171051772Y-83357036D01*
X171054621Y-83379658D01*
X171054889Y-83402311D01*
X171055804Y-83435810D01*
X171060474Y-83452522D01*
X171071785Y-83458221D01*
X171083111Y-83458755D01*
X171111333Y-83458755D01*
X171111333Y-83797422D01*
X171083111Y-83797422D01*
X171066361Y-83799252D01*
X171058005Y-83808591D01*
X171055156Y-83831214D01*
X171054889Y-83853867D01*
X171053974Y-83887366D01*
X171049304Y-83904078D01*
X171037993Y-83909776D01*
X171026667Y-83910311D01*
X171009917Y-83912141D01*
X171001561Y-83921480D01*
X170998712Y-83944103D01*
X170998444Y-83966755D01*
X170998444Y-84023200D01*
X170942000Y-84023200D01*
X170908501Y-84024115D01*
X170891789Y-84028785D01*
X170886090Y-84040096D01*
X170885555Y-84051422D01*
X170883725Y-84068172D01*
X170874386Y-84076528D01*
X170851764Y-84079377D01*
X170829111Y-84079644D01*
X170795612Y-84080559D01*
X170778900Y-84085229D01*
X170773201Y-84096540D01*
X170772667Y-84107867D01*
X170771611Y-84122222D01*
X170765275Y-84130636D01*
X170748903Y-84134695D01*
X170717738Y-84135985D01*
X170688000Y-84136089D01*
X170644935Y-84135737D01*
X170619691Y-84133625D01*
X170607513Y-84128167D01*
X170603645Y-84117779D01*
X170603333Y-84107867D01*
X170601503Y-84091117D01*
X170592164Y-84082761D01*
X170569541Y-84079912D01*
X170546889Y-84079644D01*
X170513390Y-84078729D01*
X170496678Y-84074060D01*
X170490979Y-84062748D01*
X170490444Y-84051422D01*
X170485782Y-84029939D01*
X170467423Y-84023319D01*
X170462222Y-84023200D01*
X170440739Y-84018537D01*
X170434119Y-84000179D01*
X170434000Y-83994978D01*
X170429337Y-83973495D01*
X170410979Y-83966875D01*
X170405778Y-83966755D01*
X170389028Y-83964925D01*
X170380672Y-83955586D01*
X170377823Y-83932963D01*
X170377555Y-83910311D01*
X170376640Y-83876812D01*
X170371971Y-83860100D01*
X170360660Y-83854401D01*
X170349333Y-83853867D01*
X170327850Y-83849204D01*
X170321230Y-83830845D01*
X170321111Y-83825644D01*
X170321111Y-83797422D01*
X170772667Y-83797422D01*
X170772667Y-83515200D01*
X169982444Y-83515200D01*
X169982444Y-84361867D01*
X170264667Y-84361867D01*
X170264667Y-84248978D01*
X170321111Y-84248978D01*
X170354610Y-84249893D01*
X170371322Y-84254562D01*
X170377021Y-84265874D01*
X170377555Y-84277200D01*
X170379386Y-84293949D01*
X170388725Y-84302305D01*
X170411347Y-84305155D01*
X170434000Y-84305422D01*
X170467499Y-84306337D01*
X170484211Y-84311007D01*
X170489910Y-84322318D01*
X170490444Y-84333644D01*
X170490444Y-84361867D01*
X170998444Y-84361867D01*
X170998444Y-84333644D01*
X171000274Y-84316895D01*
X171009614Y-84308539D01*
X171032236Y-84305689D01*
X171054889Y-84305422D01*
X171088388Y-84304507D01*
X171105100Y-84299837D01*
X171110799Y-84288526D01*
X171111333Y-84277200D01*
X171115996Y-84255717D01*
X171134355Y-84249097D01*
X171139555Y-84248978D01*
X171161038Y-84244315D01*
X171167659Y-84225956D01*
X171167778Y-84220755D01*
X171172440Y-84199272D01*
X171190799Y-84192652D01*
X171196000Y-84192533D01*
X171217483Y-84187871D01*
X171224103Y-84169512D01*
X171224222Y-84164311D01*
X171228885Y-84142828D01*
X171247243Y-84136208D01*
X171252444Y-84136089D01*
X171273927Y-84131426D01*
X171280547Y-84113067D01*
X171280667Y-84107867D01*
X171285329Y-84086384D01*
X171303688Y-84079763D01*
X171308889Y-84079644D01*
X171325638Y-84077814D01*
X171333994Y-84068475D01*
X171336844Y-84045852D01*
X171337111Y-84023200D01*
X171338026Y-83989701D01*
X171342696Y-83972989D01*
X171354007Y-83967290D01*
X171365333Y-83966755D01*
X171393555Y-83966755D01*
X171393555Y-83345867D01*
X171365333Y-83345867D01*
X171350978Y-83344811D01*
X171342564Y-83338475D01*
X171338504Y-83322103D01*
X171337215Y-83290938D01*
X171337111Y-83261200D01*
X171336759Y-83218135D01*
X171334647Y-83192891D01*
X171329190Y-83180713D01*
X171318801Y-83176844D01*
X171308889Y-83176533D01*
X171287406Y-83171871D01*
X171280786Y-83153512D01*
X171280667Y-83148311D01*
X171276004Y-83126828D01*
X171257645Y-83120208D01*
X171252444Y-83120089D01*
X171230961Y-83115426D01*
X171224341Y-83097067D01*
X171224222Y-83091867D01*
X171219560Y-83070384D01*
X171201201Y-83063763D01*
X171196000Y-83063644D01*
X171174517Y-83058982D01*
X171167897Y-83040623D01*
X171167778Y-83035422D01*
X171163115Y-83013939D01*
X171144756Y-83007319D01*
X171139555Y-83007200D01*
X171118073Y-83002537D01*
X171111452Y-82984179D01*
X171111333Y-82978978D01*
X171109503Y-82962228D01*
X171100164Y-82953872D01*
X171077541Y-82951023D01*
X171054889Y-82950755D01*
X171021390Y-82949840D01*
X171004678Y-82945171D01*
X170998979Y-82933859D01*
X170998444Y-82922533D01*
X170998444Y-82894311D01*
X170772667Y-82894311D01*
X170772667Y-82866089D01*
X170771611Y-82851734D01*
X170765275Y-82843319D01*
X170748903Y-82839260D01*
X170717738Y-82837970D01*
X170688000Y-82837867D01*
X170644935Y-82838218D01*
G37*
X170644935Y-82838218D02*
X170619691Y-82840330D01*
X170607513Y-82845788D01*
X170603645Y-82856176D01*
X170603333Y-82866089D01*
X170603333Y-82894311D01*
X170377555Y-82894311D01*
X170377555Y-82922533D01*
X170375725Y-82939283D01*
X170366386Y-82947639D01*
X170343764Y-82950488D01*
X170321111Y-82950755D01*
X170287612Y-82951670D01*
X170270900Y-82956340D01*
X170265201Y-82967651D01*
X170264667Y-82978978D01*
X170260004Y-83000461D01*
X170241645Y-83007081D01*
X170236444Y-83007200D01*
X170214961Y-83011862D01*
X170208341Y-83030221D01*
X170208222Y-83035422D01*
X170203560Y-83056905D01*
X170185201Y-83063525D01*
X170180000Y-83063644D01*
X170158517Y-83068307D01*
X170151897Y-83086666D01*
X170151778Y-83091867D01*
X170147115Y-83113349D01*
X170128756Y-83119970D01*
X170123555Y-83120089D01*
X170106806Y-83121919D01*
X170098450Y-83131258D01*
X170095601Y-83153881D01*
X170095333Y-83176533D01*
X170094418Y-83210032D01*
X170089749Y-83226744D01*
X170078437Y-83232443D01*
X170067111Y-83232978D01*
X170050361Y-83234808D01*
X170042005Y-83244147D01*
X170039156Y-83266770D01*
X170038889Y-83289422D01*
X170037974Y-83322921D01*
X170033304Y-83339633D01*
X170021993Y-83345332D01*
X170010667Y-83345867D01*
X169989184Y-83350529D01*
X169982564Y-83368888D01*
X169982444Y-83374089D01*
X169982444Y-83402311D01*
X170321111Y-83402311D01*
X170321111Y-83374089D01*
X170325774Y-83352606D01*
X170344132Y-83345986D01*
X170349333Y-83345867D01*
X170366083Y-83344036D01*
X170374439Y-83334697D01*
X170377288Y-83312075D01*
X170377555Y-83289422D01*
X170378471Y-83255923D01*
X170383140Y-83239211D01*
X170394451Y-83233512D01*
X170405778Y-83232978D01*
X170427261Y-83228315D01*
X170433881Y-83209956D01*
X170434000Y-83204755D01*
X170435830Y-83188006D01*
X170445169Y-83179650D01*
X170467792Y-83176801D01*
X170490444Y-83176533D01*
X170523944Y-83175618D01*
X170540656Y-83170948D01*
X170546354Y-83159637D01*
X170546889Y-83148311D01*
X170546889Y-83120089D01*
X170829111Y-83120089D01*
X170829111Y-83148311D01*
X170830941Y-83165061D01*
X170840280Y-83173417D01*
X170862903Y-83176266D01*
X170885555Y-83176533D01*
X170919055Y-83177448D01*
X170935767Y-83182118D01*
X170941465Y-83193429D01*
X170942000Y-83204755D01*
X170946663Y-83226238D01*
X170965021Y-83232858D01*
X170970222Y-83232978D01*
X170986972Y-83234808D01*
X170995328Y-83244147D01*
X170998177Y-83266770D01*
X170998444Y-83289422D01*
X170999359Y-83322921D01*
X171004029Y-83339633D01*
X171015340Y-83345332D01*
X171026667Y-83345867D01*
X171043416Y-83347697D01*
X171051772Y-83357036D01*
X171054621Y-83379658D01*
X171054889Y-83402311D01*
X171055804Y-83435810D01*
X171060474Y-83452522D01*
X171071785Y-83458221D01*
X171083111Y-83458755D01*
X171111333Y-83458755D01*
X171111333Y-83797422D01*
X171083111Y-83797422D01*
X171066361Y-83799252D01*
X171058005Y-83808591D01*
X171055156Y-83831214D01*
X171054889Y-83853867D01*
X171053974Y-83887366D01*
X171049304Y-83904078D01*
X171037993Y-83909776D01*
X171026667Y-83910311D01*
X171009917Y-83912141D01*
X171001561Y-83921480D01*
X170998712Y-83944103D01*
X170998444Y-83966755D01*
X170998444Y-84023200D01*
X170942000Y-84023200D01*
X170908501Y-84024115D01*
X170891789Y-84028785D01*
X170886090Y-84040096D01*
X170885555Y-84051422D01*
X170883725Y-84068172D01*
X170874386Y-84076528D01*
X170851764Y-84079377D01*
X170829111Y-84079644D01*
X170795612Y-84080559D01*
X170778900Y-84085229D01*
X170773201Y-84096540D01*
X170772667Y-84107867D01*
X170771611Y-84122222D01*
X170765275Y-84130636D01*
X170748903Y-84134695D01*
X170717738Y-84135985D01*
X170688000Y-84136089D01*
X170644935Y-84135737D01*
X170619691Y-84133625D01*
X170607513Y-84128167D01*
X170603645Y-84117779D01*
X170603333Y-84107867D01*
X170601503Y-84091117D01*
X170592164Y-84082761D01*
X170569541Y-84079912D01*
X170546889Y-84079644D01*
X170513390Y-84078729D01*
X170496678Y-84074060D01*
X170490979Y-84062748D01*
X170490444Y-84051422D01*
X170485782Y-84029939D01*
X170467423Y-84023319D01*
X170462222Y-84023200D01*
X170440739Y-84018537D01*
X170434119Y-84000179D01*
X170434000Y-83994978D01*
X170429337Y-83973495D01*
X170410979Y-83966875D01*
X170405778Y-83966755D01*
X170389028Y-83964925D01*
X170380672Y-83955586D01*
X170377823Y-83932963D01*
X170377555Y-83910311D01*
X170376640Y-83876812D01*
X170371971Y-83860100D01*
X170360660Y-83854401D01*
X170349333Y-83853867D01*
X170327850Y-83849204D01*
X170321230Y-83830845D01*
X170321111Y-83825644D01*
X170321111Y-83797422D01*
X170772667Y-83797422D01*
X170772667Y-83515200D01*
X169982444Y-83515200D01*
X169982444Y-84361867D01*
X170264667Y-84361867D01*
X170264667Y-84248978D01*
X170321111Y-84248978D01*
X170354610Y-84249893D01*
X170371322Y-84254562D01*
X170377021Y-84265874D01*
X170377555Y-84277200D01*
X170379386Y-84293949D01*
X170388725Y-84302305D01*
X170411347Y-84305155D01*
X170434000Y-84305422D01*
X170467499Y-84306337D01*
X170484211Y-84311007D01*
X170489910Y-84322318D01*
X170490444Y-84333644D01*
X170490444Y-84361867D01*
X170998444Y-84361867D01*
X170998444Y-84333644D01*
X171000274Y-84316895D01*
X171009614Y-84308539D01*
X171032236Y-84305689D01*
X171054889Y-84305422D01*
X171088388Y-84304507D01*
X171105100Y-84299837D01*
X171110799Y-84288526D01*
X171111333Y-84277200D01*
X171115996Y-84255717D01*
X171134355Y-84249097D01*
X171139555Y-84248978D01*
X171161038Y-84244315D01*
X171167659Y-84225956D01*
X171167778Y-84220755D01*
X171172440Y-84199272D01*
X171190799Y-84192652D01*
X171196000Y-84192533D01*
X171217483Y-84187871D01*
X171224103Y-84169512D01*
X171224222Y-84164311D01*
X171228885Y-84142828D01*
X171247243Y-84136208D01*
X171252444Y-84136089D01*
X171273927Y-84131426D01*
X171280547Y-84113067D01*
X171280667Y-84107867D01*
X171285329Y-84086384D01*
X171303688Y-84079763D01*
X171308889Y-84079644D01*
X171325638Y-84077814D01*
X171333994Y-84068475D01*
X171336844Y-84045852D01*
X171337111Y-84023200D01*
X171338026Y-83989701D01*
X171342696Y-83972989D01*
X171354007Y-83967290D01*
X171365333Y-83966755D01*
X171393555Y-83966755D01*
X171393555Y-83345867D01*
X171365333Y-83345867D01*
X171350978Y-83344811D01*
X171342564Y-83338475D01*
X171338504Y-83322103D01*
X171337215Y-83290938D01*
X171337111Y-83261200D01*
X171336759Y-83218135D01*
X171334647Y-83192891D01*
X171329190Y-83180713D01*
X171318801Y-83176844D01*
X171308889Y-83176533D01*
X171287406Y-83171871D01*
X171280786Y-83153512D01*
X171280667Y-83148311D01*
X171276004Y-83126828D01*
X171257645Y-83120208D01*
X171252444Y-83120089D01*
X171230961Y-83115426D01*
X171224341Y-83097067D01*
X171224222Y-83091867D01*
X171219560Y-83070384D01*
X171201201Y-83063763D01*
X171196000Y-83063644D01*
X171174517Y-83058982D01*
X171167897Y-83040623D01*
X171167778Y-83035422D01*
X171163115Y-83013939D01*
X171144756Y-83007319D01*
X171139555Y-83007200D01*
X171118073Y-83002537D01*
X171111452Y-82984179D01*
X171111333Y-82978978D01*
X171109503Y-82962228D01*
X171100164Y-82953872D01*
X171077541Y-82951023D01*
X171054889Y-82950755D01*
X171021390Y-82949840D01*
X171004678Y-82945171D01*
X170998979Y-82933859D01*
X170998444Y-82922533D01*
X170998444Y-82894311D01*
X170772667Y-82894311D01*
X170772667Y-82866089D01*
X170771611Y-82851734D01*
X170765275Y-82843319D01*
X170748903Y-82839260D01*
X170717738Y-82837970D01*
X170688000Y-82837867D01*
X170644935Y-82838218D01*
G36*
X168627778Y-83176533D02*
G01*
X169418000Y-83176533D01*
X169418000Y-83458755D01*
X168684222Y-83458755D01*
X168684222Y-83740978D01*
X169418000Y-83740978D01*
X169418000Y-84079644D01*
X168571333Y-84079644D01*
X168571333Y-84361867D01*
X169700222Y-84361867D01*
X169700222Y-82894311D01*
X168627778Y-82894311D01*
X168627778Y-83176533D01*
G37*
X168627778Y-83176533D02*
X169418000Y-83176533D01*
X169418000Y-83458755D01*
X168684222Y-83458755D01*
X168684222Y-83740978D01*
X169418000Y-83740978D01*
X169418000Y-84079644D01*
X168571333Y-84079644D01*
X168571333Y-84361867D01*
X169700222Y-84361867D01*
X169700222Y-82894311D01*
X168627778Y-82894311D01*
X168627778Y-83176533D01*
G36*
X167950444Y-82922533D02*
G01*
X167945782Y-82944016D01*
X167927423Y-82950636D01*
X167922222Y-82950755D01*
X167905473Y-82952585D01*
X167897117Y-82961925D01*
X167894267Y-82984547D01*
X167894000Y-83007200D01*
X167893085Y-83040699D01*
X167888415Y-83057411D01*
X167877104Y-83063110D01*
X167865778Y-83063644D01*
X167849028Y-83065474D01*
X167840672Y-83074814D01*
X167837823Y-83097436D01*
X167837555Y-83120089D01*
X167836640Y-83153588D01*
X167831971Y-83170300D01*
X167820660Y-83175998D01*
X167809333Y-83176533D01*
X167787850Y-83181196D01*
X167781230Y-83199554D01*
X167781111Y-83204755D01*
X167776448Y-83226238D01*
X167758090Y-83232858D01*
X167752889Y-83232978D01*
X167736139Y-83234808D01*
X167727783Y-83244147D01*
X167724934Y-83266770D01*
X167724667Y-83289422D01*
X167723752Y-83322921D01*
X167719082Y-83339633D01*
X167707771Y-83345332D01*
X167696444Y-83345867D01*
X167674961Y-83350529D01*
X167668341Y-83368888D01*
X167668222Y-83374089D01*
X167663560Y-83395572D01*
X167645201Y-83402192D01*
X167640000Y-83402311D01*
X167623250Y-83404141D01*
X167614894Y-83413480D01*
X167612045Y-83436103D01*
X167611778Y-83458755D01*
X167610863Y-83492255D01*
X167606193Y-83508967D01*
X167594882Y-83514665D01*
X167583555Y-83515200D01*
X167562073Y-83519862D01*
X167555452Y-83538221D01*
X167555333Y-83543422D01*
X167550671Y-83564905D01*
X167532312Y-83571525D01*
X167527111Y-83571644D01*
X167510361Y-83573474D01*
X167502005Y-83582814D01*
X167499156Y-83605436D01*
X167498889Y-83628089D01*
X167497974Y-83661588D01*
X167493304Y-83678300D01*
X167481993Y-83683998D01*
X167470667Y-83684533D01*
X167449184Y-83689196D01*
X167442564Y-83707554D01*
X167442444Y-83712755D01*
X167437782Y-83734238D01*
X167419423Y-83740858D01*
X167414222Y-83740978D01*
X167386000Y-83740978D01*
X167386000Y-82894311D01*
X167103778Y-82894311D01*
X167103778Y-84361867D01*
X167442444Y-84361867D01*
X167442444Y-84305422D01*
X167443359Y-84271923D01*
X167448029Y-84255211D01*
X167459340Y-84249512D01*
X167470667Y-84248978D01*
X167487416Y-84247148D01*
X167495772Y-84237808D01*
X167498621Y-84215186D01*
X167498889Y-84192533D01*
X167499804Y-84159034D01*
X167504474Y-84142322D01*
X167515785Y-84136623D01*
X167527111Y-84136089D01*
X167548594Y-84131426D01*
X167555214Y-84113067D01*
X167555333Y-84107867D01*
X167559996Y-84086384D01*
X167578355Y-84079763D01*
X167583555Y-84079644D01*
X167600305Y-84077814D01*
X167608661Y-84068475D01*
X167611510Y-84045852D01*
X167611778Y-84023200D01*
X167612693Y-83989701D01*
X167617362Y-83972989D01*
X167628674Y-83967290D01*
X167640000Y-83966755D01*
X167661483Y-83962093D01*
X167668103Y-83943734D01*
X167668222Y-83938533D01*
X167672885Y-83917050D01*
X167691243Y-83910430D01*
X167696444Y-83910311D01*
X167713194Y-83908481D01*
X167721550Y-83899142D01*
X167724399Y-83876519D01*
X167724667Y-83853867D01*
X167725582Y-83820367D01*
X167730251Y-83803655D01*
X167741563Y-83797957D01*
X167752889Y-83797422D01*
X167774372Y-83792759D01*
X167780992Y-83774401D01*
X167781111Y-83769200D01*
X167785774Y-83747717D01*
X167804132Y-83741097D01*
X167809333Y-83740978D01*
X167826083Y-83739148D01*
X167834439Y-83729808D01*
X167837288Y-83707186D01*
X167837555Y-83684533D01*
X167838471Y-83651034D01*
X167843140Y-83634322D01*
X167854451Y-83628623D01*
X167865778Y-83628089D01*
X167887261Y-83623426D01*
X167893881Y-83605067D01*
X167894000Y-83599867D01*
X167898663Y-83578384D01*
X167917021Y-83571763D01*
X167922222Y-83571644D01*
X167938972Y-83569814D01*
X167947328Y-83560475D01*
X167950177Y-83537852D01*
X167950444Y-83515200D01*
X167951359Y-83481701D01*
X167956029Y-83464989D01*
X167967340Y-83459290D01*
X167978667Y-83458755D01*
X168006889Y-83458755D01*
X168006889Y-84361867D01*
X168289111Y-84361867D01*
X168289111Y-82894311D01*
X167950444Y-82894311D01*
X167950444Y-82922533D01*
G37*
X167950444Y-82922533D02*
X167945782Y-82944016D01*
X167927423Y-82950636D01*
X167922222Y-82950755D01*
X167905473Y-82952585D01*
X167897117Y-82961925D01*
X167894267Y-82984547D01*
X167894000Y-83007200D01*
X167893085Y-83040699D01*
X167888415Y-83057411D01*
X167877104Y-83063110D01*
X167865778Y-83063644D01*
X167849028Y-83065474D01*
X167840672Y-83074814D01*
X167837823Y-83097436D01*
X167837555Y-83120089D01*
X167836640Y-83153588D01*
X167831971Y-83170300D01*
X167820660Y-83175998D01*
X167809333Y-83176533D01*
X167787850Y-83181196D01*
X167781230Y-83199554D01*
X167781111Y-83204755D01*
X167776448Y-83226238D01*
X167758090Y-83232858D01*
X167752889Y-83232978D01*
X167736139Y-83234808D01*
X167727783Y-83244147D01*
X167724934Y-83266770D01*
X167724667Y-83289422D01*
X167723752Y-83322921D01*
X167719082Y-83339633D01*
X167707771Y-83345332D01*
X167696444Y-83345867D01*
X167674961Y-83350529D01*
X167668341Y-83368888D01*
X167668222Y-83374089D01*
X167663560Y-83395572D01*
X167645201Y-83402192D01*
X167640000Y-83402311D01*
X167623250Y-83404141D01*
X167614894Y-83413480D01*
X167612045Y-83436103D01*
X167611778Y-83458755D01*
X167610863Y-83492255D01*
X167606193Y-83508967D01*
X167594882Y-83514665D01*
X167583555Y-83515200D01*
X167562073Y-83519862D01*
X167555452Y-83538221D01*
X167555333Y-83543422D01*
X167550671Y-83564905D01*
X167532312Y-83571525D01*
X167527111Y-83571644D01*
X167510361Y-83573474D01*
X167502005Y-83582814D01*
X167499156Y-83605436D01*
X167498889Y-83628089D01*
X167497974Y-83661588D01*
X167493304Y-83678300D01*
X167481993Y-83683998D01*
X167470667Y-83684533D01*
X167449184Y-83689196D01*
X167442564Y-83707554D01*
X167442444Y-83712755D01*
X167437782Y-83734238D01*
X167419423Y-83740858D01*
X167414222Y-83740978D01*
X167386000Y-83740978D01*
X167386000Y-82894311D01*
X167103778Y-82894311D01*
X167103778Y-84361867D01*
X167442444Y-84361867D01*
X167442444Y-84305422D01*
X167443359Y-84271923D01*
X167448029Y-84255211D01*
X167459340Y-84249512D01*
X167470667Y-84248978D01*
X167487416Y-84247148D01*
X167495772Y-84237808D01*
X167498621Y-84215186D01*
X167498889Y-84192533D01*
X167499804Y-84159034D01*
X167504474Y-84142322D01*
X167515785Y-84136623D01*
X167527111Y-84136089D01*
X167548594Y-84131426D01*
X167555214Y-84113067D01*
X167555333Y-84107867D01*
X167559996Y-84086384D01*
X167578355Y-84079763D01*
X167583555Y-84079644D01*
X167600305Y-84077814D01*
X167608661Y-84068475D01*
X167611510Y-84045852D01*
X167611778Y-84023200D01*
X167612693Y-83989701D01*
X167617362Y-83972989D01*
X167628674Y-83967290D01*
X167640000Y-83966755D01*
X167661483Y-83962093D01*
X167668103Y-83943734D01*
X167668222Y-83938533D01*
X167672885Y-83917050D01*
X167691243Y-83910430D01*
X167696444Y-83910311D01*
X167713194Y-83908481D01*
X167721550Y-83899142D01*
X167724399Y-83876519D01*
X167724667Y-83853867D01*
X167725582Y-83820367D01*
X167730251Y-83803655D01*
X167741563Y-83797957D01*
X167752889Y-83797422D01*
X167774372Y-83792759D01*
X167780992Y-83774401D01*
X167781111Y-83769200D01*
X167785774Y-83747717D01*
X167804132Y-83741097D01*
X167809333Y-83740978D01*
X167826083Y-83739148D01*
X167834439Y-83729808D01*
X167837288Y-83707186D01*
X167837555Y-83684533D01*
X167838471Y-83651034D01*
X167843140Y-83634322D01*
X167854451Y-83628623D01*
X167865778Y-83628089D01*
X167887261Y-83623426D01*
X167893881Y-83605067D01*
X167894000Y-83599867D01*
X167898663Y-83578384D01*
X167917021Y-83571763D01*
X167922222Y-83571644D01*
X167938972Y-83569814D01*
X167947328Y-83560475D01*
X167950177Y-83537852D01*
X167950444Y-83515200D01*
X167951359Y-83481701D01*
X167956029Y-83464989D01*
X167967340Y-83459290D01*
X167978667Y-83458755D01*
X168006889Y-83458755D01*
X168006889Y-84361867D01*
X168289111Y-84361867D01*
X168289111Y-82894311D01*
X167950444Y-82894311D01*
X167950444Y-82922533D01*
G36*
X165692667Y-83176533D02*
G01*
X166482889Y-83176533D01*
X166482889Y-83458755D01*
X165749111Y-83458755D01*
X165749111Y-83740978D01*
X166482889Y-83740978D01*
X166482889Y-84079644D01*
X165636222Y-84079644D01*
X165636222Y-84361867D01*
X166821555Y-84361867D01*
X166821555Y-82894311D01*
X165692667Y-82894311D01*
X165692667Y-83176533D01*
G37*
X165692667Y-83176533D02*
X166482889Y-83176533D01*
X166482889Y-83458755D01*
X165749111Y-83458755D01*
X165749111Y-83740978D01*
X166482889Y-83740978D01*
X166482889Y-84079644D01*
X165636222Y-84079644D01*
X165636222Y-84361867D01*
X166821555Y-84361867D01*
X166821555Y-82894311D01*
X165692667Y-82894311D01*
X165692667Y-83176533D01*
G36*
X164563778Y-82922533D02*
G01*
X164561948Y-82939283D01*
X164552608Y-82947639D01*
X164529986Y-82950488D01*
X164507333Y-82950755D01*
X164473834Y-82951670D01*
X164457122Y-82956340D01*
X164451424Y-82967651D01*
X164450889Y-82978978D01*
X164449059Y-82995727D01*
X164439719Y-83004083D01*
X164417097Y-83006932D01*
X164394444Y-83007200D01*
X164360945Y-83008115D01*
X164344233Y-83012785D01*
X164338535Y-83024096D01*
X164338000Y-83035422D01*
X164333337Y-83056905D01*
X164314979Y-83063525D01*
X164309778Y-83063644D01*
X164293028Y-83065474D01*
X164284672Y-83074814D01*
X164281823Y-83097436D01*
X164281555Y-83120089D01*
X164280640Y-83153588D01*
X164275971Y-83170300D01*
X164264660Y-83175998D01*
X164253333Y-83176533D01*
X164225111Y-83176533D01*
X164225111Y-83515200D01*
X164253333Y-83515200D01*
X164270083Y-83517030D01*
X164278439Y-83526369D01*
X164281288Y-83548992D01*
X164281555Y-83571644D01*
X164282471Y-83605143D01*
X164287140Y-83621855D01*
X164298451Y-83627554D01*
X164309778Y-83628089D01*
X164331261Y-83632751D01*
X164337881Y-83651110D01*
X164338000Y-83656311D01*
X164333337Y-83677794D01*
X164314979Y-83684414D01*
X164309778Y-83684533D01*
X164288295Y-83689196D01*
X164281675Y-83707554D01*
X164281555Y-83712755D01*
X164276893Y-83734238D01*
X164258534Y-83740858D01*
X164253333Y-83740978D01*
X164225111Y-83740978D01*
X164225111Y-84248978D01*
X164196889Y-84248978D01*
X164180139Y-84250808D01*
X164171783Y-84260147D01*
X164168934Y-84282770D01*
X164168667Y-84305422D01*
X164168667Y-84361867D01*
X164507333Y-84361867D01*
X164507333Y-84305422D01*
X164508248Y-84271923D01*
X164512918Y-84255211D01*
X164524229Y-84249512D01*
X164535555Y-84248978D01*
X164563778Y-84248978D01*
X164563778Y-83853867D01*
X164592000Y-83853867D01*
X164613483Y-83849204D01*
X164620103Y-83830845D01*
X164620222Y-83825644D01*
X164622052Y-83808895D01*
X164631392Y-83800539D01*
X164654014Y-83797689D01*
X164676667Y-83797422D01*
X164710166Y-83796507D01*
X164726878Y-83791837D01*
X164732576Y-83780526D01*
X164733111Y-83769200D01*
X164733111Y-83740978D01*
X165128222Y-83740978D01*
X165128222Y-84305422D01*
X165410444Y-84305422D01*
X165410444Y-83176533D01*
X165071778Y-83176533D01*
X165071778Y-83515200D01*
X164620222Y-83515200D01*
X164620222Y-83486978D01*
X164615560Y-83465495D01*
X164597201Y-83458875D01*
X164592000Y-83458755D01*
X164575250Y-83456925D01*
X164566894Y-83447586D01*
X164564045Y-83424963D01*
X164563778Y-83402311D01*
X164562863Y-83368812D01*
X164558193Y-83352100D01*
X164546882Y-83346401D01*
X164535555Y-83345867D01*
X164514073Y-83341204D01*
X164507452Y-83322845D01*
X164507333Y-83317644D01*
X164511996Y-83296161D01*
X164530355Y-83289541D01*
X164535555Y-83289422D01*
X164557038Y-83284759D01*
X164563659Y-83266401D01*
X164563778Y-83261200D01*
X164568440Y-83239717D01*
X164586799Y-83233097D01*
X164592000Y-83232978D01*
X164613483Y-83228315D01*
X164620103Y-83209956D01*
X164620222Y-83204755D01*
X164620222Y-83176533D01*
X165071778Y-83176533D01*
X165410444Y-83176533D01*
X165410444Y-82894311D01*
X164563778Y-82894311D01*
X164563778Y-82922533D01*
G37*
X164563778Y-82922533D02*
X164561948Y-82939283D01*
X164552608Y-82947639D01*
X164529986Y-82950488D01*
X164507333Y-82950755D01*
X164473834Y-82951670D01*
X164457122Y-82956340D01*
X164451424Y-82967651D01*
X164450889Y-82978978D01*
X164449059Y-82995727D01*
X164439719Y-83004083D01*
X164417097Y-83006932D01*
X164394444Y-83007200D01*
X164360945Y-83008115D01*
X164344233Y-83012785D01*
X164338535Y-83024096D01*
X164338000Y-83035422D01*
X164333337Y-83056905D01*
X164314979Y-83063525D01*
X164309778Y-83063644D01*
X164293028Y-83065474D01*
X164284672Y-83074814D01*
X164281823Y-83097436D01*
X164281555Y-83120089D01*
X164280640Y-83153588D01*
X164275971Y-83170300D01*
X164264660Y-83175998D01*
X164253333Y-83176533D01*
X164225111Y-83176533D01*
X164225111Y-83515200D01*
X164253333Y-83515200D01*
X164270083Y-83517030D01*
X164278439Y-83526369D01*
X164281288Y-83548992D01*
X164281555Y-83571644D01*
X164282471Y-83605143D01*
X164287140Y-83621855D01*
X164298451Y-83627554D01*
X164309778Y-83628089D01*
X164331261Y-83632751D01*
X164337881Y-83651110D01*
X164338000Y-83656311D01*
X164333337Y-83677794D01*
X164314979Y-83684414D01*
X164309778Y-83684533D01*
X164288295Y-83689196D01*
X164281675Y-83707554D01*
X164281555Y-83712755D01*
X164276893Y-83734238D01*
X164258534Y-83740858D01*
X164253333Y-83740978D01*
X164225111Y-83740978D01*
X164225111Y-84248978D01*
X164196889Y-84248978D01*
X164180139Y-84250808D01*
X164171783Y-84260147D01*
X164168934Y-84282770D01*
X164168667Y-84305422D01*
X164168667Y-84361867D01*
X164507333Y-84361867D01*
X164507333Y-84305422D01*
X164508248Y-84271923D01*
X164512918Y-84255211D01*
X164524229Y-84249512D01*
X164535555Y-84248978D01*
X164563778Y-84248978D01*
X164563778Y-83853867D01*
X164592000Y-83853867D01*
X164613483Y-83849204D01*
X164620103Y-83830845D01*
X164620222Y-83825644D01*
X164622052Y-83808895D01*
X164631392Y-83800539D01*
X164654014Y-83797689D01*
X164676667Y-83797422D01*
X164710166Y-83796507D01*
X164726878Y-83791837D01*
X164732576Y-83780526D01*
X164733111Y-83769200D01*
X164733111Y-83740978D01*
X165128222Y-83740978D01*
X165128222Y-84305422D01*
X165410444Y-84305422D01*
X165410444Y-83176533D01*
X165071778Y-83176533D01*
X165071778Y-83515200D01*
X164620222Y-83515200D01*
X164620222Y-83486978D01*
X164615560Y-83465495D01*
X164597201Y-83458875D01*
X164592000Y-83458755D01*
X164575250Y-83456925D01*
X164566894Y-83447586D01*
X164564045Y-83424963D01*
X164563778Y-83402311D01*
X164562863Y-83368812D01*
X164558193Y-83352100D01*
X164546882Y-83346401D01*
X164535555Y-83345867D01*
X164514073Y-83341204D01*
X164507452Y-83322845D01*
X164507333Y-83317644D01*
X164511996Y-83296161D01*
X164530355Y-83289541D01*
X164535555Y-83289422D01*
X164557038Y-83284759D01*
X164563659Y-83266401D01*
X164563778Y-83261200D01*
X164568440Y-83239717D01*
X164586799Y-83233097D01*
X164592000Y-83232978D01*
X164613483Y-83228315D01*
X164620103Y-83209956D01*
X164620222Y-83204755D01*
X164620222Y-83176533D01*
X165071778Y-83176533D01*
X165410444Y-83176533D01*
X165410444Y-82894311D01*
X164563778Y-82894311D01*
X164563778Y-82922533D01*
G36*
X163096222Y-82978978D02*
G01*
X163095870Y-83022043D01*
X163093758Y-83047286D01*
X163088301Y-83059465D01*
X163077913Y-83063333D01*
X163068000Y-83063644D01*
X163051250Y-83065474D01*
X163042894Y-83074814D01*
X163040045Y-83097436D01*
X163039778Y-83120089D01*
X163038863Y-83153588D01*
X163034193Y-83170300D01*
X163022882Y-83175998D01*
X163011555Y-83176533D01*
X162997200Y-83177588D01*
X162988786Y-83183924D01*
X162984727Y-83200297D01*
X162983437Y-83231462D01*
X162983333Y-83261200D01*
X162982982Y-83304265D01*
X162980870Y-83329509D01*
X162975412Y-83341687D01*
X162965024Y-83345555D01*
X162955111Y-83345867D01*
X162938361Y-83347697D01*
X162930005Y-83357036D01*
X162927156Y-83379658D01*
X162926889Y-83402311D01*
X162925974Y-83435810D01*
X162921304Y-83452522D01*
X162909993Y-83458221D01*
X162898667Y-83458755D01*
X162884312Y-83459811D01*
X162875897Y-83466147D01*
X162871838Y-83482519D01*
X162870548Y-83513684D01*
X162870444Y-83543422D01*
X162870093Y-83586487D01*
X162867981Y-83611731D01*
X162862523Y-83623909D01*
X162852135Y-83627777D01*
X162842222Y-83628089D01*
X162825473Y-83629919D01*
X162817117Y-83639258D01*
X162814267Y-83661881D01*
X162814000Y-83684533D01*
X162813085Y-83718032D01*
X162808415Y-83734744D01*
X162797104Y-83740443D01*
X162785778Y-83740978D01*
X162771423Y-83742033D01*
X162763008Y-83748369D01*
X162758949Y-83764741D01*
X162757659Y-83795906D01*
X162757555Y-83825644D01*
X162757204Y-83868709D01*
X162755092Y-83893953D01*
X162749634Y-83906131D01*
X162739246Y-83910000D01*
X162729333Y-83910311D01*
X162712584Y-83912141D01*
X162704228Y-83921480D01*
X162701378Y-83944103D01*
X162701111Y-83966755D01*
X162700196Y-84000255D01*
X162695526Y-84016967D01*
X162684215Y-84022665D01*
X162672889Y-84023200D01*
X162658534Y-84024255D01*
X162650119Y-84030591D01*
X162646060Y-84046964D01*
X162644770Y-84078129D01*
X162644667Y-84107867D01*
X162644315Y-84150932D01*
X162642203Y-84176175D01*
X162636745Y-84188353D01*
X162626357Y-84192222D01*
X162616444Y-84192533D01*
X162602089Y-84193588D01*
X162593675Y-84199924D01*
X162589615Y-84216297D01*
X162588326Y-84247462D01*
X162588222Y-84277200D01*
X162588222Y-84361867D01*
X162870444Y-84361867D01*
X162870444Y-84333644D01*
X162875107Y-84312161D01*
X162893466Y-84305541D01*
X162898667Y-84305422D01*
X162913022Y-84304367D01*
X162921436Y-84298031D01*
X162925496Y-84281658D01*
X162926785Y-84250493D01*
X162926889Y-84220755D01*
X162927241Y-84177690D01*
X162929353Y-84152447D01*
X162934810Y-84140268D01*
X162945198Y-84136400D01*
X162955111Y-84136089D01*
X162971861Y-84134259D01*
X162980217Y-84124919D01*
X162983066Y-84102297D01*
X162983333Y-84079644D01*
X162984248Y-84046145D01*
X162988918Y-84029433D01*
X163000229Y-84023735D01*
X163011555Y-84023200D01*
X163033038Y-84018537D01*
X163039659Y-84000179D01*
X163039778Y-83994978D01*
X163039778Y-83966755D01*
X163547778Y-83966755D01*
X163547778Y-84023200D01*
X163548693Y-84056699D01*
X163553362Y-84073411D01*
X163564674Y-84079110D01*
X163576000Y-84079644D01*
X163592750Y-84081474D01*
X163601106Y-84090814D01*
X163603955Y-84113436D01*
X163604222Y-84136089D01*
X163605137Y-84169588D01*
X163609807Y-84186300D01*
X163621118Y-84191998D01*
X163632444Y-84192533D01*
X163646799Y-84193588D01*
X163655214Y-84199924D01*
X163659273Y-84216297D01*
X163660563Y-84247462D01*
X163660667Y-84277200D01*
X163660667Y-84361867D01*
X163999333Y-84361867D01*
X163999333Y-84277200D01*
X163998982Y-84234135D01*
X163996870Y-84208891D01*
X163991412Y-84196713D01*
X163981024Y-84192844D01*
X163971111Y-84192533D01*
X163954361Y-84190703D01*
X163946005Y-84181364D01*
X163943156Y-84158741D01*
X163942889Y-84136089D01*
X163941974Y-84102590D01*
X163937304Y-84085878D01*
X163925993Y-84080179D01*
X163914667Y-84079644D01*
X163900312Y-84078589D01*
X163891897Y-84072253D01*
X163887838Y-84055880D01*
X163886548Y-84024715D01*
X163886444Y-83994978D01*
X163886093Y-83951913D01*
X163883981Y-83926669D01*
X163878523Y-83914491D01*
X163868135Y-83910622D01*
X163858222Y-83910311D01*
X163841473Y-83908481D01*
X163833117Y-83899142D01*
X163830267Y-83876519D01*
X163830000Y-83853867D01*
X163829085Y-83820367D01*
X163824415Y-83803655D01*
X163813104Y-83797957D01*
X163801778Y-83797422D01*
X163787423Y-83796367D01*
X163779008Y-83790031D01*
X163774949Y-83773658D01*
X163773659Y-83742493D01*
X163773555Y-83712755D01*
X163773204Y-83669690D01*
X163772085Y-83656311D01*
X163434889Y-83656311D01*
X163434889Y-83684533D01*
X163152667Y-83684533D01*
X163152667Y-83628089D01*
X163153582Y-83594590D01*
X163158251Y-83577878D01*
X163169563Y-83572179D01*
X163180889Y-83571644D01*
X163197638Y-83569814D01*
X163205994Y-83560475D01*
X163208844Y-83537852D01*
X163209111Y-83515200D01*
X163210026Y-83481701D01*
X163214696Y-83464989D01*
X163226007Y-83459290D01*
X163237333Y-83458755D01*
X163254083Y-83456925D01*
X163262439Y-83447586D01*
X163265288Y-83424963D01*
X163265555Y-83402311D01*
X163266471Y-83368812D01*
X163271140Y-83352100D01*
X163282451Y-83346401D01*
X163293778Y-83345867D01*
X163310527Y-83347697D01*
X163318883Y-83357036D01*
X163321733Y-83379658D01*
X163322000Y-83402311D01*
X163322915Y-83435810D01*
X163327585Y-83452522D01*
X163338896Y-83458221D01*
X163350222Y-83458755D01*
X163364577Y-83459811D01*
X163372992Y-83466147D01*
X163377051Y-83482519D01*
X163378341Y-83513684D01*
X163378444Y-83543422D01*
X163378796Y-83586487D01*
X163380908Y-83611731D01*
X163386366Y-83623909D01*
X163396754Y-83627777D01*
X163406667Y-83628089D01*
X163428150Y-83632751D01*
X163434770Y-83651110D01*
X163434889Y-83656311D01*
X163772085Y-83656311D01*
X163771092Y-83644447D01*
X163765634Y-83632268D01*
X163755246Y-83628400D01*
X163745333Y-83628089D01*
X163728584Y-83626259D01*
X163720228Y-83616919D01*
X163717378Y-83594297D01*
X163717111Y-83571644D01*
X163716196Y-83538145D01*
X163711526Y-83521433D01*
X163700215Y-83515735D01*
X163688889Y-83515200D01*
X163674534Y-83514145D01*
X163666119Y-83507809D01*
X163662060Y-83491436D01*
X163660770Y-83460271D01*
X163660667Y-83430533D01*
X163660315Y-83387468D01*
X163658203Y-83362224D01*
X163652745Y-83350046D01*
X163642357Y-83346178D01*
X163632444Y-83345867D01*
X163615695Y-83344036D01*
X163607339Y-83334697D01*
X163604490Y-83312075D01*
X163604222Y-83289422D01*
X163603307Y-83255923D01*
X163598637Y-83239211D01*
X163587326Y-83233512D01*
X163576000Y-83232978D01*
X163561645Y-83231922D01*
X163553230Y-83225586D01*
X163549171Y-83209214D01*
X163547881Y-83178049D01*
X163547778Y-83148311D01*
X163547426Y-83105246D01*
X163545314Y-83080002D01*
X163539856Y-83067824D01*
X163529468Y-83063956D01*
X163519555Y-83063644D01*
X163502806Y-83061814D01*
X163494450Y-83052475D01*
X163491601Y-83029852D01*
X163491333Y-83007200D01*
X163490418Y-82973701D01*
X163485749Y-82956989D01*
X163474437Y-82951290D01*
X163463111Y-82950755D01*
X163441628Y-82946093D01*
X163435008Y-82927734D01*
X163434889Y-82922533D01*
X163434889Y-82894311D01*
X163096222Y-82894311D01*
X163096222Y-82978978D01*
G37*
X163096222Y-82978978D02*
X163095870Y-83022043D01*
X163093758Y-83047286D01*
X163088301Y-83059465D01*
X163077913Y-83063333D01*
X163068000Y-83063644D01*
X163051250Y-83065474D01*
X163042894Y-83074814D01*
X163040045Y-83097436D01*
X163039778Y-83120089D01*
X163038863Y-83153588D01*
X163034193Y-83170300D01*
X163022882Y-83175998D01*
X163011555Y-83176533D01*
X162997200Y-83177588D01*
X162988786Y-83183924D01*
X162984727Y-83200297D01*
X162983437Y-83231462D01*
X162983333Y-83261200D01*
X162982982Y-83304265D01*
X162980870Y-83329509D01*
X162975412Y-83341687D01*
X162965024Y-83345555D01*
X162955111Y-83345867D01*
X162938361Y-83347697D01*
X162930005Y-83357036D01*
X162927156Y-83379658D01*
X162926889Y-83402311D01*
X162925974Y-83435810D01*
X162921304Y-83452522D01*
X162909993Y-83458221D01*
X162898667Y-83458755D01*
X162884312Y-83459811D01*
X162875897Y-83466147D01*
X162871838Y-83482519D01*
X162870548Y-83513684D01*
X162870444Y-83543422D01*
X162870093Y-83586487D01*
X162867981Y-83611731D01*
X162862523Y-83623909D01*
X162852135Y-83627777D01*
X162842222Y-83628089D01*
X162825473Y-83629919D01*
X162817117Y-83639258D01*
X162814267Y-83661881D01*
X162814000Y-83684533D01*
X162813085Y-83718032D01*
X162808415Y-83734744D01*
X162797104Y-83740443D01*
X162785778Y-83740978D01*
X162771423Y-83742033D01*
X162763008Y-83748369D01*
X162758949Y-83764741D01*
X162757659Y-83795906D01*
X162757555Y-83825644D01*
X162757204Y-83868709D01*
X162755092Y-83893953D01*
X162749634Y-83906131D01*
X162739246Y-83910000D01*
X162729333Y-83910311D01*
X162712584Y-83912141D01*
X162704228Y-83921480D01*
X162701378Y-83944103D01*
X162701111Y-83966755D01*
X162700196Y-84000255D01*
X162695526Y-84016967D01*
X162684215Y-84022665D01*
X162672889Y-84023200D01*
X162658534Y-84024255D01*
X162650119Y-84030591D01*
X162646060Y-84046964D01*
X162644770Y-84078129D01*
X162644667Y-84107867D01*
X162644315Y-84150932D01*
X162642203Y-84176175D01*
X162636745Y-84188353D01*
X162626357Y-84192222D01*
X162616444Y-84192533D01*
X162602089Y-84193588D01*
X162593675Y-84199924D01*
X162589615Y-84216297D01*
X162588326Y-84247462D01*
X162588222Y-84277200D01*
X162588222Y-84361867D01*
X162870444Y-84361867D01*
X162870444Y-84333644D01*
X162875107Y-84312161D01*
X162893466Y-84305541D01*
X162898667Y-84305422D01*
X162913022Y-84304367D01*
X162921436Y-84298031D01*
X162925496Y-84281658D01*
X162926785Y-84250493D01*
X162926889Y-84220755D01*
X162927241Y-84177690D01*
X162929353Y-84152447D01*
X162934810Y-84140268D01*
X162945198Y-84136400D01*
X162955111Y-84136089D01*
X162971861Y-84134259D01*
X162980217Y-84124919D01*
X162983066Y-84102297D01*
X162983333Y-84079644D01*
X162984248Y-84046145D01*
X162988918Y-84029433D01*
X163000229Y-84023735D01*
X163011555Y-84023200D01*
X163033038Y-84018537D01*
X163039659Y-84000179D01*
X163039778Y-83994978D01*
X163039778Y-83966755D01*
X163547778Y-83966755D01*
X163547778Y-84023200D01*
X163548693Y-84056699D01*
X163553362Y-84073411D01*
X163564674Y-84079110D01*
X163576000Y-84079644D01*
X163592750Y-84081474D01*
X163601106Y-84090814D01*
X163603955Y-84113436D01*
X163604222Y-84136089D01*
X163605137Y-84169588D01*
X163609807Y-84186300D01*
X163621118Y-84191998D01*
X163632444Y-84192533D01*
X163646799Y-84193588D01*
X163655214Y-84199924D01*
X163659273Y-84216297D01*
X163660563Y-84247462D01*
X163660667Y-84277200D01*
X163660667Y-84361867D01*
X163999333Y-84361867D01*
X163999333Y-84277200D01*
X163998982Y-84234135D01*
X163996870Y-84208891D01*
X163991412Y-84196713D01*
X163981024Y-84192844D01*
X163971111Y-84192533D01*
X163954361Y-84190703D01*
X163946005Y-84181364D01*
X163943156Y-84158741D01*
X163942889Y-84136089D01*
X163941974Y-84102590D01*
X163937304Y-84085878D01*
X163925993Y-84080179D01*
X163914667Y-84079644D01*
X163900312Y-84078589D01*
X163891897Y-84072253D01*
X163887838Y-84055880D01*
X163886548Y-84024715D01*
X163886444Y-83994978D01*
X163886093Y-83951913D01*
X163883981Y-83926669D01*
X163878523Y-83914491D01*
X163868135Y-83910622D01*
X163858222Y-83910311D01*
X163841473Y-83908481D01*
X163833117Y-83899142D01*
X163830267Y-83876519D01*
X163830000Y-83853867D01*
X163829085Y-83820367D01*
X163824415Y-83803655D01*
X163813104Y-83797957D01*
X163801778Y-83797422D01*
X163787423Y-83796367D01*
X163779008Y-83790031D01*
X163774949Y-83773658D01*
X163773659Y-83742493D01*
X163773555Y-83712755D01*
X163773204Y-83669690D01*
X163772085Y-83656311D01*
X163434889Y-83656311D01*
X163434889Y-83684533D01*
X163152667Y-83684533D01*
X163152667Y-83628089D01*
X163153582Y-83594590D01*
X163158251Y-83577878D01*
X163169563Y-83572179D01*
X163180889Y-83571644D01*
X163197638Y-83569814D01*
X163205994Y-83560475D01*
X163208844Y-83537852D01*
X163209111Y-83515200D01*
X163210026Y-83481701D01*
X163214696Y-83464989D01*
X163226007Y-83459290D01*
X163237333Y-83458755D01*
X163254083Y-83456925D01*
X163262439Y-83447586D01*
X163265288Y-83424963D01*
X163265555Y-83402311D01*
X163266471Y-83368812D01*
X163271140Y-83352100D01*
X163282451Y-83346401D01*
X163293778Y-83345867D01*
X163310527Y-83347697D01*
X163318883Y-83357036D01*
X163321733Y-83379658D01*
X163322000Y-83402311D01*
X163322915Y-83435810D01*
X163327585Y-83452522D01*
X163338896Y-83458221D01*
X163350222Y-83458755D01*
X163364577Y-83459811D01*
X163372992Y-83466147D01*
X163377051Y-83482519D01*
X163378341Y-83513684D01*
X163378444Y-83543422D01*
X163378796Y-83586487D01*
X163380908Y-83611731D01*
X163386366Y-83623909D01*
X163396754Y-83627777D01*
X163406667Y-83628089D01*
X163428150Y-83632751D01*
X163434770Y-83651110D01*
X163434889Y-83656311D01*
X163772085Y-83656311D01*
X163771092Y-83644447D01*
X163765634Y-83632268D01*
X163755246Y-83628400D01*
X163745333Y-83628089D01*
X163728584Y-83626259D01*
X163720228Y-83616919D01*
X163717378Y-83594297D01*
X163717111Y-83571644D01*
X163716196Y-83538145D01*
X163711526Y-83521433D01*
X163700215Y-83515735D01*
X163688889Y-83515200D01*
X163674534Y-83514145D01*
X163666119Y-83507809D01*
X163662060Y-83491436D01*
X163660770Y-83460271D01*
X163660667Y-83430533D01*
X163660315Y-83387468D01*
X163658203Y-83362224D01*
X163652745Y-83350046D01*
X163642357Y-83346178D01*
X163632444Y-83345867D01*
X163615695Y-83344036D01*
X163607339Y-83334697D01*
X163604490Y-83312075D01*
X163604222Y-83289422D01*
X163603307Y-83255923D01*
X163598637Y-83239211D01*
X163587326Y-83233512D01*
X163576000Y-83232978D01*
X163561645Y-83231922D01*
X163553230Y-83225586D01*
X163549171Y-83209214D01*
X163547881Y-83178049D01*
X163547778Y-83148311D01*
X163547426Y-83105246D01*
X163545314Y-83080002D01*
X163539856Y-83067824D01*
X163529468Y-83063956D01*
X163519555Y-83063644D01*
X163502806Y-83061814D01*
X163494450Y-83052475D01*
X163491601Y-83029852D01*
X163491333Y-83007200D01*
X163490418Y-82973701D01*
X163485749Y-82956989D01*
X163474437Y-82951290D01*
X163463111Y-82950755D01*
X163441628Y-82946093D01*
X163435008Y-82927734D01*
X163434889Y-82922533D01*
X163434889Y-82894311D01*
X163096222Y-82894311D01*
X163096222Y-82978978D01*
G36*
X162080222Y-84079644D02*
G01*
X161346444Y-84079644D01*
X161346444Y-84361867D01*
X162362444Y-84361867D01*
X162362444Y-82894311D01*
X162080222Y-82894311D01*
X162080222Y-84079644D01*
G37*
X162080222Y-84079644D02*
X161346444Y-84079644D01*
X161346444Y-84361867D01*
X162362444Y-84361867D01*
X162362444Y-82894311D01*
X162080222Y-82894311D01*
X162080222Y-84079644D01*
D15*
G04 #@! TO.C,CON1*
X121980000Y-83760000D02*
X119380000Y-83760000D01*
X121980000Y-83760000D02*
X121980000Y-116900000D01*
X121980000Y-116900000D02*
X116780000Y-116900000D01*
X116780000Y-86360000D02*
X116780000Y-116900000D01*
X119380000Y-86360000D02*
X116780000Y-86360000D01*
X119380000Y-83760000D02*
X119380000Y-86360000D01*
X116780000Y-83760000D02*
X116780000Y-85090000D01*
X118110000Y-83760000D02*
X116780000Y-83760000D01*
D10*
X120594285Y-82907142D02*
X120641904Y-82954761D01*
X120784761Y-83002380D01*
X120880000Y-83002380D01*
X121022857Y-82954761D01*
X121118095Y-82859523D01*
X121165714Y-82764285D01*
X121213333Y-82573809D01*
X121213333Y-82430952D01*
X121165714Y-82240476D01*
X121118095Y-82145238D01*
X121022857Y-82050000D01*
X120880000Y-82002380D01*
X120784761Y-82002380D01*
X120641904Y-82050000D01*
X120594285Y-82097619D01*
X119975238Y-82002380D02*
X119784761Y-82002380D01*
X119689523Y-82050000D01*
X119594285Y-82145238D01*
X119546666Y-82335714D01*
X119546666Y-82669047D01*
X119594285Y-82859523D01*
X119689523Y-82954761D01*
X119784761Y-83002380D01*
X119975238Y-83002380D01*
X120070476Y-82954761D01*
X120165714Y-82859523D01*
X120213333Y-82669047D01*
X120213333Y-82335714D01*
X120165714Y-82145238D01*
X120070476Y-82050000D01*
X119975238Y-82002380D01*
X119118095Y-83002380D02*
X119118095Y-82002380D01*
X118546666Y-83002380D01*
X118546666Y-82002380D01*
X117546666Y-83002380D02*
X118118095Y-83002380D01*
X117832380Y-83002380D02*
X117832380Y-82002380D01*
X117927619Y-82145238D01*
X118022857Y-82240476D01*
X118118095Y-82288095D01*
G04 #@! TD*
M02*
