G04 #@! TF.GenerationSoftware,KiCad,Pcbnew,(5.1.6)-1*
G04 #@! TF.CreationDate,2020-12-31T21:45:04+08:00*
G04 #@! TF.ProjectId,vs1053-waveblaster-se,76733130-3533-42d7-9761-7665626c6173,C*
G04 #@! TF.SameCoordinates,Original*
G04 #@! TF.FileFunction,Soldermask,Bot*
G04 #@! TF.FilePolarity,Negative*
%FSLAX46Y46*%
G04 Gerber Fmt 4.6, Leading zero omitted, Abs format (unit mm)*
G04 Created by KiCad (PCBNEW (5.1.6)-1) date 2020-12-31 21:45:04*
%MOMM*%
%LPD*%
G01*
G04 APERTURE LIST*
%ADD10O,1.700000X1.700000*%
%ADD11R,1.700000X1.700000*%
%ADD12O,1.600000X1.600000*%
%ADD13C,1.600000*%
%ADD14R,1.600000X1.600000*%
%ADD15C,1.500000*%
G04 APERTURE END LIST*
D10*
G04 #@! TO.C,CON1*
X120650000Y-115570000D03*
X118110000Y-115570000D03*
X120650000Y-113030000D03*
X118110000Y-113030000D03*
X120650000Y-110490000D03*
X118110000Y-110490000D03*
X120650000Y-107950000D03*
X118110000Y-107950000D03*
X120650000Y-105410000D03*
X118110000Y-105410000D03*
X120650000Y-102870000D03*
X118110000Y-102870000D03*
X120650000Y-100330000D03*
X118110000Y-100330000D03*
X120650000Y-97790000D03*
X118110000Y-97790000D03*
X120650000Y-95250000D03*
X118110000Y-95250000D03*
X120650000Y-92710000D03*
X118110000Y-92710000D03*
X120650000Y-90170000D03*
X118110000Y-90170000D03*
X120650000Y-87630000D03*
X118110000Y-87630000D03*
X120650000Y-85090000D03*
D11*
X118110000Y-85090000D03*
G04 #@! TD*
D12*
G04 #@! TO.C,R7*
X123952000Y-102870000D03*
D13*
X123952000Y-113030000D03*
G04 #@! TD*
G04 #@! TO.C,C1*
X166370000Y-95210000D03*
D14*
X166370000Y-92710000D03*
G04 #@! TD*
G04 #@! TO.C,C2*
X166116000Y-98846000D03*
D13*
X166116000Y-101346000D03*
G04 #@! TD*
G04 #@! TO.C,C3*
X151170000Y-86360000D03*
D14*
X153670000Y-86360000D03*
G04 #@! TD*
G04 #@! TO.C,C4*
X171958000Y-92710000D03*
D13*
X171958000Y-95210000D03*
G04 #@! TD*
G04 #@! TO.C,C5*
X160147000Y-99441000D03*
X160147000Y-101941000D03*
G04 #@! TD*
G04 #@! TO.C,C6*
X142962000Y-109728000D03*
X140462000Y-109728000D03*
G04 #@! TD*
G04 #@! TO.C,C7*
X142962000Y-106553000D03*
X140462000Y-106553000D03*
G04 #@! TD*
G04 #@! TO.C,C8*
X138303000Y-108799000D03*
X138303000Y-106299000D03*
G04 #@! TD*
G04 #@! TO.C,C9*
X135763000Y-106299000D03*
X135763000Y-108799000D03*
G04 #@! TD*
G04 #@! TO.C,C10*
X152400000Y-92710000D03*
X154900000Y-92710000D03*
G04 #@! TD*
G04 #@! TO.C,C11*
X152440000Y-95250000D03*
X154940000Y-95250000D03*
G04 #@! TD*
G04 #@! TO.C,C12*
X131572000Y-99568000D03*
X131572000Y-97068000D03*
G04 #@! TD*
G04 #@! TO.C,C13*
X134874000Y-99568000D03*
X134874000Y-97068000D03*
G04 #@! TD*
G04 #@! TO.C,C14*
X138176000Y-97028000D03*
X138176000Y-99528000D03*
G04 #@! TD*
G04 #@! TO.C,C15*
X139827000Y-104013000D03*
X137327000Y-104013000D03*
G04 #@! TD*
G04 #@! TO.C,C16*
X133604000Y-117689000D03*
X133604000Y-115189000D03*
G04 #@! TD*
G04 #@! TO.C,C17*
X127000000Y-117689000D03*
X127000000Y-115189000D03*
G04 #@! TD*
G04 #@! TO.C,C18*
X123571000Y-115189000D03*
X123571000Y-117689000D03*
G04 #@! TD*
G04 #@! TO.C,C19*
X130302000Y-115189000D03*
X130302000Y-117689000D03*
G04 #@! TD*
G04 #@! TO.C,C20*
X153670000Y-104180000D03*
X153670000Y-106680000D03*
G04 #@! TD*
G04 #@! TO.C,C21*
X160147000Y-104180000D03*
X160147000Y-106680000D03*
G04 #@! TD*
D12*
G04 #@! TO.C,R1*
X127000000Y-86360000D03*
D13*
X127000000Y-96520000D03*
G04 #@! TD*
G04 #@! TO.C,R2*
X130048000Y-113030000D03*
D12*
X130048000Y-102870000D03*
G04 #@! TD*
G04 #@! TO.C,R3*
X148844000Y-106553000D03*
D13*
X148844000Y-116713000D03*
G04 #@! TD*
G04 #@! TO.C,R4*
X129667000Y-84582000D03*
D12*
X139827000Y-84582000D03*
G04 #@! TD*
D13*
G04 #@! TO.C,R5*
X133096000Y-113030000D03*
D12*
X133096000Y-102870000D03*
G04 #@! TD*
G04 #@! TO.C,R6*
X127000000Y-102870000D03*
D13*
X127000000Y-113030000D03*
G04 #@! TD*
G04 #@! TO.C,R8*
X145796000Y-116713000D03*
D12*
X145796000Y-106553000D03*
G04 #@! TD*
D13*
G04 #@! TO.C,R9*
X133350000Y-87630000D03*
D12*
X143510000Y-87630000D03*
G04 #@! TD*
G04 #@! TO.C,R10*
X123952000Y-96520000D03*
D13*
X123952000Y-86360000D03*
G04 #@! TD*
G04 #@! TO.C,R11*
X162052000Y-110109000D03*
D12*
X151892000Y-110109000D03*
G04 #@! TD*
D11*
G04 #@! TO.C,TP1*
X144780000Y-83820000D03*
D10*
X147320000Y-83820000D03*
G04 #@! TD*
D15*
G04 #@! TO.C,Y1*
X154505000Y-114427000D03*
X159385000Y-114427000D03*
G04 #@! TD*
M02*
