M48
; DRILL file {KiCad (5.1.6)-1} date 12/31/20 21:45:01
; FORMAT={-:-/ absolute / metric / decimal}
; #@! TF.CreationDate,2020-12-31T21:45:01+08:00
; #@! TF.GenerationSoftware,Kicad,Pcbnew,(5.1.6)-1
FMAT,2
METRIC
T1C0.400
T2C0.800
T3C1.000
%
G90
G05
T1
X130.307Y-92.964
X131.257Y-90.964
X139.7Y-99.314
X139.7Y-100.33
X139.742Y-97.282
X140.462Y-88.392
X140.97Y-91.44
X141.478Y-88.392
X142.24Y-93.472
X143.256Y-102.108
X143.51Y-90.11
X144.145Y-108.077
X144.78Y-92.71
X144.78Y-97.536
X144.907Y-94.742
X145.8Y-102.866
X146.177Y-94.488
X147.32Y-94.734
X148.844Y-98.425
X149.606Y-96.52
X154.559Y-99.187
X157.734Y-89.916
X160.02Y-89.535
X170.053Y-90.043
T2
X152.4Y-92.71
X154.9Y-92.71
X152.44Y-95.25
X154.94Y-95.25
X133.096Y-102.87
X133.096Y-113.03
X127.0Y-86.36
X127.0Y-96.52
X166.116Y-98.846
X166.116Y-101.346
X138.303Y-106.299
X138.303Y-108.799
X138.176Y-97.028
X138.176Y-99.528
X130.048Y-102.87
X130.048Y-113.03
X145.796Y-106.553
X145.796Y-116.713
X131.572Y-97.068
X131.572Y-99.568
X127.0Y-115.189
X127.0Y-117.689
X140.462Y-109.728
X142.962Y-109.728
X148.844Y-106.553
X148.844Y-116.713
X123.952Y-86.36
X123.952Y-96.52
X129.667Y-84.582
X139.827Y-84.582
X123.952Y-102.87
X123.952Y-113.03
X160.147Y-104.18
X160.147Y-106.68
X130.302Y-115.189
X130.302Y-117.689
X171.958Y-92.71
X171.958Y-95.21
X154.505Y-114.427
X159.385Y-114.427
X166.37Y-92.71
X166.37Y-95.21
X133.604Y-115.189
X133.604Y-117.689
X137.327Y-104.013
X139.827Y-104.013
X160.147Y-99.441
X160.147Y-101.941
X151.892Y-110.109
X162.052Y-110.109
X134.874Y-97.068
X134.874Y-99.568
X123.571Y-115.189
X123.571Y-117.689
X153.67Y-104.18
X153.67Y-106.68
X133.35Y-87.63
X143.51Y-87.63
X135.763Y-106.299
X135.763Y-108.799
X140.462Y-106.553
X142.962Y-106.553
X127.0Y-102.87
X127.0Y-113.03
X151.17Y-86.36
X153.67Y-86.36
T3
X118.11Y-85.09
X118.11Y-87.63
X118.11Y-90.17
X118.11Y-92.71
X118.11Y-95.25
X118.11Y-97.79
X118.11Y-100.33
X118.11Y-102.87
X118.11Y-105.41
X118.11Y-107.95
X118.11Y-110.49
X118.11Y-113.03
X118.11Y-115.57
X120.65Y-85.09
X120.65Y-87.63
X120.65Y-90.17
X120.65Y-92.71
X120.65Y-95.25
X120.65Y-97.79
X120.65Y-100.33
X120.65Y-102.87
X120.65Y-105.41
X120.65Y-107.95
X120.65Y-110.49
X120.65Y-113.03
X120.65Y-115.57
X144.78Y-83.82
X147.32Y-83.82
T0
M30
