M48
;DRILL file {KiCad 4.0.5+dfsg1-4} date Fri Dec 21 19:33:55 2018
;FORMAT={-:-/ absolute / inch / decimal}
FMAT,2
INCH,TZ
T1C0.016
T2C0.031
T3C0.032
T4C0.039
T5C0.040
%
G90
G05
M72
T1
X5.Y-3.95
X5.95Y-3.85
X5.95Y-4.05
X6.25Y-3.85
X7.1Y-4.
X7.25Y-3.95
X7.25Y-4.35
X7.3Y-4.2
X7.35Y-4.35
X7.36Y-4.
X7.38Y-4.22
X7.39Y-4.37
X7.44Y-4.24
X7.46Y-4.
X7.48Y-4.21
X7.52Y-4.17
T2
X4.85Y-5.15
X5.Y-5.15
X5.65Y-3.75
X5.65Y-3.8484
X5.9016Y-4.2
X6.Y-4.2
X6.2016Y-4.2
X6.3Y-4.2
X6.55Y-3.75
X6.55Y-3.8484
X7.1Y-4.1
X7.15Y-3.85
X7.15Y-4.45
X7.25Y-3.85
X7.3Y-4.45
X7.4Y-4.45
X7.4Y-5.3
X7.5Y-4.45
X7.55Y-3.85
X7.7Y-4.
X7.7Y-4.1
X7.7Y-4.2
X7.7Y-4.35
T3
X4.85Y-5.2484
X5.Y-5.2484
X7.0016Y-4.1
X7.15Y-3.7516
X7.15Y-4.5484
X7.25Y-3.7516
X7.3Y-4.5484
X7.3016Y-5.3
X7.4Y-4.5484
X7.5Y-4.5484
X7.55Y-3.7516
X7.7984Y-4.
X7.7984Y-4.1
X7.7984Y-4.2
X7.7984Y-4.35
T4
X4.85Y-4.05
X4.85Y-4.45
X4.85Y-4.65
X4.85Y-5.05
X5.Y-4.65
X5.Y-5.05
X5.15Y-4.05
X5.15Y-4.45
X5.6Y-4.4
X5.6Y-4.8
X6.5Y-4.1
X6.5Y-4.25
X6.5Y-4.4
X6.5Y-4.8
X6.9Y-4.1
X6.9Y-4.25
X7.5Y-4.9
X7.5Y-5.3
X7.65Y-4.5
X8.05Y-4.5
T5
X4.5Y-3.95
X4.5Y-4.05
X4.5Y-4.15
X4.5Y-4.25
X4.5Y-4.35
X4.5Y-4.45
X4.5Y-4.55
X4.5Y-4.65
X4.5Y-4.75
X4.5Y-4.85
X4.5Y-4.95
X4.5Y-5.05
X4.5Y-5.15
X4.6Y-3.95
X4.6Y-4.05
X4.6Y-4.15
X4.6Y-4.25
X4.6Y-4.35
X4.6Y-4.45
X4.6Y-4.55
X4.6Y-4.65
X4.6Y-4.75
X4.6Y-4.85
X4.6Y-4.95
X4.6Y-5.05
X4.6Y-5.15
T0
M30
