G04 #@! TF.FileFunction,Legend,Top*
%FSLAX46Y46*%
G04 Gerber Fmt 4.6, Leading zero omitted, Abs format (unit mm)*
G04 Created by KiCad (PCBNEW 4.0.5+dfsg1-4) date Fri Dec 21 19:33:44 2018*
%MOMM*%
%LPD*%
G01*
G04 APERTURE LIST*
%ADD10C,0.100000*%
%ADD11C,0.300000*%
%ADD12C,0.150000*%
%ADD13C,0.120000*%
G04 APERTURE END LIST*
D10*
D11*
X198231429Y-128872143D02*
X198445715Y-128943571D01*
X198802858Y-128943571D01*
X198945715Y-128872143D01*
X199017144Y-128800714D01*
X199088572Y-128657857D01*
X199088572Y-128515000D01*
X199017144Y-128372143D01*
X198945715Y-128300714D01*
X198802858Y-128229286D01*
X198517144Y-128157857D01*
X198374286Y-128086429D01*
X198302858Y-128015000D01*
X198231429Y-127872143D01*
X198231429Y-127729286D01*
X198302858Y-127586429D01*
X198374286Y-127515000D01*
X198517144Y-127443571D01*
X198874286Y-127443571D01*
X199088572Y-127515000D01*
X199731429Y-128157857D02*
X200231429Y-128157857D01*
X200445715Y-128943571D02*
X199731429Y-128943571D01*
X199731429Y-127443571D01*
X200445715Y-127443571D01*
X201088572Y-128943571D02*
X201088572Y-127443571D01*
X201660000Y-127443571D01*
X201802858Y-127515000D01*
X201874286Y-127586429D01*
X201945715Y-127729286D01*
X201945715Y-127943571D01*
X201874286Y-128086429D01*
X201802858Y-128157857D01*
X201660000Y-128229286D01*
X201088572Y-128229286D01*
X202374286Y-127443571D02*
X203231429Y-127443571D01*
X202802858Y-128943571D02*
X202802858Y-127443571D01*
X198088572Y-130136429D02*
X198160001Y-130065000D01*
X198302858Y-129993571D01*
X198660001Y-129993571D01*
X198802858Y-130065000D01*
X198874287Y-130136429D01*
X198945715Y-130279286D01*
X198945715Y-130422143D01*
X198874287Y-130636429D01*
X198017144Y-131493571D01*
X198945715Y-131493571D01*
X199874286Y-129993571D02*
X200017143Y-129993571D01*
X200160000Y-130065000D01*
X200231429Y-130136429D01*
X200302858Y-130279286D01*
X200374286Y-130565000D01*
X200374286Y-130922143D01*
X200302858Y-131207857D01*
X200231429Y-131350714D01*
X200160000Y-131422143D01*
X200017143Y-131493571D01*
X199874286Y-131493571D01*
X199731429Y-131422143D01*
X199660000Y-131350714D01*
X199588572Y-131207857D01*
X199517143Y-130922143D01*
X199517143Y-130565000D01*
X199588572Y-130279286D01*
X199660000Y-130136429D01*
X199731429Y-130065000D01*
X199874286Y-129993571D01*
X201802857Y-131493571D02*
X200945714Y-131493571D01*
X201374286Y-131493571D02*
X201374286Y-129993571D01*
X201231429Y-130207857D01*
X201088571Y-130350714D01*
X200945714Y-130422143D01*
X202660000Y-130636429D02*
X202517142Y-130565000D01*
X202445714Y-130493571D01*
X202374285Y-130350714D01*
X202374285Y-130279286D01*
X202445714Y-130136429D01*
X202517142Y-130065000D01*
X202660000Y-129993571D01*
X202945714Y-129993571D01*
X203088571Y-130065000D01*
X203160000Y-130136429D01*
X203231428Y-130279286D01*
X203231428Y-130350714D01*
X203160000Y-130493571D01*
X203088571Y-130565000D01*
X202945714Y-130636429D01*
X202660000Y-130636429D01*
X202517142Y-130707857D01*
X202445714Y-130779286D01*
X202374285Y-130922143D01*
X202374285Y-131207857D01*
X202445714Y-131350714D01*
X202517142Y-131422143D01*
X202660000Y-131493571D01*
X202945714Y-131493571D01*
X203088571Y-131422143D01*
X203160000Y-131350714D01*
X203231428Y-131207857D01*
X203231428Y-130922143D01*
X203160000Y-130779286D01*
X203088571Y-130707857D01*
X202945714Y-130636429D01*
X197318572Y-135298571D02*
X196818572Y-134584286D01*
X196461429Y-135298571D02*
X196461429Y-133798571D01*
X197032857Y-133798571D01*
X197175715Y-133870000D01*
X197247143Y-133941429D01*
X197318572Y-134084286D01*
X197318572Y-134298571D01*
X197247143Y-134441429D01*
X197175715Y-134512857D01*
X197032857Y-134584286D01*
X196461429Y-134584286D01*
X197961429Y-134512857D02*
X198461429Y-134512857D01*
X198675715Y-135298571D02*
X197961429Y-135298571D01*
X197961429Y-133798571D01*
X198675715Y-133798571D01*
X199104286Y-133798571D02*
X199604286Y-135298571D01*
X200104286Y-133798571D01*
X201675714Y-134870000D02*
X202390000Y-134870000D01*
X201532857Y-135298571D02*
X202032857Y-133798571D01*
X202532857Y-135298571D01*
X141031430Y-126168571D02*
X141531430Y-127668571D01*
X142031430Y-126168571D01*
X142460001Y-127597143D02*
X142674287Y-127668571D01*
X143031430Y-127668571D01*
X143174287Y-127597143D01*
X143245716Y-127525714D01*
X143317144Y-127382857D01*
X143317144Y-127240000D01*
X143245716Y-127097143D01*
X143174287Y-127025714D01*
X143031430Y-126954286D01*
X142745716Y-126882857D01*
X142602858Y-126811429D01*
X142531430Y-126740000D01*
X142460001Y-126597143D01*
X142460001Y-126454286D01*
X142531430Y-126311429D01*
X142602858Y-126240000D01*
X142745716Y-126168571D01*
X143102858Y-126168571D01*
X143317144Y-126240000D01*
X144745715Y-127668571D02*
X143888572Y-127668571D01*
X144317144Y-127668571D02*
X144317144Y-126168571D01*
X144174287Y-126382857D01*
X144031429Y-126525714D01*
X143888572Y-126597143D01*
X145674286Y-126168571D02*
X145817143Y-126168571D01*
X145960000Y-126240000D01*
X146031429Y-126311429D01*
X146102858Y-126454286D01*
X146174286Y-126740000D01*
X146174286Y-127097143D01*
X146102858Y-127382857D01*
X146031429Y-127525714D01*
X145960000Y-127597143D01*
X145817143Y-127668571D01*
X145674286Y-127668571D01*
X145531429Y-127597143D01*
X145460000Y-127525714D01*
X145388572Y-127382857D01*
X145317143Y-127097143D01*
X145317143Y-126740000D01*
X145388572Y-126454286D01*
X145460000Y-126311429D01*
X145531429Y-126240000D01*
X145674286Y-126168571D01*
X147531429Y-126168571D02*
X146817143Y-126168571D01*
X146745714Y-126882857D01*
X146817143Y-126811429D01*
X146960000Y-126740000D01*
X147317143Y-126740000D01*
X147460000Y-126811429D01*
X147531429Y-126882857D01*
X147602857Y-127025714D01*
X147602857Y-127382857D01*
X147531429Y-127525714D01*
X147460000Y-127597143D01*
X147317143Y-127668571D01*
X146960000Y-127668571D01*
X146817143Y-127597143D01*
X146745714Y-127525714D01*
X148102857Y-126168571D02*
X149031428Y-126168571D01*
X148531428Y-126740000D01*
X148745714Y-126740000D01*
X148888571Y-126811429D01*
X148960000Y-126882857D01*
X149031428Y-127025714D01*
X149031428Y-127382857D01*
X148960000Y-127525714D01*
X148888571Y-127597143D01*
X148745714Y-127668571D01*
X148317142Y-127668571D01*
X148174285Y-127597143D01*
X148102857Y-127525714D01*
X150674285Y-126168571D02*
X151031428Y-127668571D01*
X151317142Y-126597143D01*
X151602856Y-127668571D01*
X151959999Y-126168571D01*
X153174285Y-127668571D02*
X153174285Y-126882857D01*
X153102856Y-126740000D01*
X152959999Y-126668571D01*
X152674285Y-126668571D01*
X152531428Y-126740000D01*
X153174285Y-127597143D02*
X153031428Y-127668571D01*
X152674285Y-127668571D01*
X152531428Y-127597143D01*
X152459999Y-127454286D01*
X152459999Y-127311429D01*
X152531428Y-127168571D01*
X152674285Y-127097143D01*
X153031428Y-127097143D01*
X153174285Y-127025714D01*
X153745714Y-126668571D02*
X154102857Y-127668571D01*
X154459999Y-126668571D01*
X155602856Y-127597143D02*
X155459999Y-127668571D01*
X155174285Y-127668571D01*
X155031428Y-127597143D01*
X154959999Y-127454286D01*
X154959999Y-126882857D01*
X155031428Y-126740000D01*
X155174285Y-126668571D01*
X155459999Y-126668571D01*
X155602856Y-126740000D01*
X155674285Y-126882857D01*
X155674285Y-127025714D01*
X154959999Y-127168571D01*
X156817142Y-126882857D02*
X157031428Y-126954286D01*
X157102856Y-127025714D01*
X157174285Y-127168571D01*
X157174285Y-127382857D01*
X157102856Y-127525714D01*
X157031428Y-127597143D01*
X156888570Y-127668571D01*
X156317142Y-127668571D01*
X156317142Y-126168571D01*
X156817142Y-126168571D01*
X156959999Y-126240000D01*
X157031428Y-126311429D01*
X157102856Y-126454286D01*
X157102856Y-126597143D01*
X157031428Y-126740000D01*
X156959999Y-126811429D01*
X156817142Y-126882857D01*
X156317142Y-126882857D01*
X158031428Y-127668571D02*
X157888570Y-127597143D01*
X157817142Y-127454286D01*
X157817142Y-126168571D01*
X159245713Y-127668571D02*
X159245713Y-126882857D01*
X159174284Y-126740000D01*
X159031427Y-126668571D01*
X158745713Y-126668571D01*
X158602856Y-126740000D01*
X159245713Y-127597143D02*
X159102856Y-127668571D01*
X158745713Y-127668571D01*
X158602856Y-127597143D01*
X158531427Y-127454286D01*
X158531427Y-127311429D01*
X158602856Y-127168571D01*
X158745713Y-127097143D01*
X159102856Y-127097143D01*
X159245713Y-127025714D01*
X159888570Y-127597143D02*
X160031427Y-127668571D01*
X160317142Y-127668571D01*
X160459999Y-127597143D01*
X160531427Y-127454286D01*
X160531427Y-127382857D01*
X160459999Y-127240000D01*
X160317142Y-127168571D01*
X160102856Y-127168571D01*
X159959999Y-127097143D01*
X159888570Y-126954286D01*
X159888570Y-126882857D01*
X159959999Y-126740000D01*
X160102856Y-126668571D01*
X160317142Y-126668571D01*
X160459999Y-126740000D01*
X160959999Y-126668571D02*
X161531428Y-126668571D01*
X161174285Y-126168571D02*
X161174285Y-127454286D01*
X161245713Y-127597143D01*
X161388571Y-127668571D01*
X161531428Y-127668571D01*
X162602856Y-127597143D02*
X162459999Y-127668571D01*
X162174285Y-127668571D01*
X162031428Y-127597143D01*
X161959999Y-127454286D01*
X161959999Y-126882857D01*
X162031428Y-126740000D01*
X162174285Y-126668571D01*
X162459999Y-126668571D01*
X162602856Y-126740000D01*
X162674285Y-126882857D01*
X162674285Y-127025714D01*
X161959999Y-127168571D01*
X163317142Y-127668571D02*
X163317142Y-126668571D01*
X163317142Y-126954286D02*
X163388570Y-126811429D01*
X163459999Y-126740000D01*
X163602856Y-126668571D01*
X163745713Y-126668571D01*
X165888570Y-126882857D02*
X166102856Y-126954286D01*
X166174284Y-127025714D01*
X166245713Y-127168571D01*
X166245713Y-127382857D01*
X166174284Y-127525714D01*
X166102856Y-127597143D01*
X165959998Y-127668571D01*
X165388570Y-127668571D01*
X165388570Y-126168571D01*
X165888570Y-126168571D01*
X166031427Y-126240000D01*
X166102856Y-126311429D01*
X166174284Y-126454286D01*
X166174284Y-126597143D01*
X166102856Y-126740000D01*
X166031427Y-126811429D01*
X165888570Y-126882857D01*
X165388570Y-126882857D01*
X167102856Y-127668571D02*
X166959998Y-127597143D01*
X166888570Y-127525714D01*
X166817141Y-127382857D01*
X166817141Y-126954286D01*
X166888570Y-126811429D01*
X166959998Y-126740000D01*
X167102856Y-126668571D01*
X167317141Y-126668571D01*
X167459998Y-126740000D01*
X167531427Y-126811429D01*
X167602856Y-126954286D01*
X167602856Y-127382857D01*
X167531427Y-127525714D01*
X167459998Y-127597143D01*
X167317141Y-127668571D01*
X167102856Y-127668571D01*
X168888570Y-127668571D02*
X168888570Y-126882857D01*
X168817141Y-126740000D01*
X168674284Y-126668571D01*
X168388570Y-126668571D01*
X168245713Y-126740000D01*
X168888570Y-127597143D02*
X168745713Y-127668571D01*
X168388570Y-127668571D01*
X168245713Y-127597143D01*
X168174284Y-127454286D01*
X168174284Y-127311429D01*
X168245713Y-127168571D01*
X168388570Y-127097143D01*
X168745713Y-127097143D01*
X168888570Y-127025714D01*
X169602856Y-127668571D02*
X169602856Y-126668571D01*
X169602856Y-126954286D02*
X169674284Y-126811429D01*
X169745713Y-126740000D01*
X169888570Y-126668571D01*
X170031427Y-126668571D01*
X171174284Y-127668571D02*
X171174284Y-126168571D01*
X171174284Y-127597143D02*
X171031427Y-127668571D01*
X170745713Y-127668571D01*
X170602855Y-127597143D01*
X170531427Y-127525714D01*
X170459998Y-127382857D01*
X170459998Y-126954286D01*
X170531427Y-126811429D01*
X170602855Y-126740000D01*
X170745713Y-126668571D01*
X171031427Y-126668571D01*
X171174284Y-126740000D01*
X141460000Y-130218571D02*
X141460000Y-128718571D01*
X141817143Y-128718571D01*
X142031428Y-128790000D01*
X142174286Y-128932857D01*
X142245714Y-129075714D01*
X142317143Y-129361429D01*
X142317143Y-129575714D01*
X142245714Y-129861429D01*
X142174286Y-130004286D01*
X142031428Y-130147143D01*
X141817143Y-130218571D01*
X141460000Y-130218571D01*
X143531428Y-130147143D02*
X143388571Y-130218571D01*
X143102857Y-130218571D01*
X142960000Y-130147143D01*
X142888571Y-130004286D01*
X142888571Y-129432857D01*
X142960000Y-129290000D01*
X143102857Y-129218571D01*
X143388571Y-129218571D01*
X143531428Y-129290000D01*
X143602857Y-129432857D01*
X143602857Y-129575714D01*
X142888571Y-129718571D01*
X144174285Y-130147143D02*
X144317142Y-130218571D01*
X144602857Y-130218571D01*
X144745714Y-130147143D01*
X144817142Y-130004286D01*
X144817142Y-129932857D01*
X144745714Y-129790000D01*
X144602857Y-129718571D01*
X144388571Y-129718571D01*
X144245714Y-129647143D01*
X144174285Y-129504286D01*
X144174285Y-129432857D01*
X144245714Y-129290000D01*
X144388571Y-129218571D01*
X144602857Y-129218571D01*
X144745714Y-129290000D01*
X145460000Y-130218571D02*
X145460000Y-129218571D01*
X145460000Y-128718571D02*
X145388571Y-128790000D01*
X145460000Y-128861429D01*
X145531428Y-128790000D01*
X145460000Y-128718571D01*
X145460000Y-128861429D01*
X146817143Y-129218571D02*
X146817143Y-130432857D01*
X146745714Y-130575714D01*
X146674286Y-130647143D01*
X146531429Y-130718571D01*
X146317143Y-130718571D01*
X146174286Y-130647143D01*
X146817143Y-130147143D02*
X146674286Y-130218571D01*
X146388572Y-130218571D01*
X146245714Y-130147143D01*
X146174286Y-130075714D01*
X146102857Y-129932857D01*
X146102857Y-129504286D01*
X146174286Y-129361429D01*
X146245714Y-129290000D01*
X146388572Y-129218571D01*
X146674286Y-129218571D01*
X146817143Y-129290000D01*
X147531429Y-129218571D02*
X147531429Y-130218571D01*
X147531429Y-129361429D02*
X147602857Y-129290000D01*
X147745715Y-129218571D01*
X147960000Y-129218571D01*
X148102857Y-129290000D01*
X148174286Y-129432857D01*
X148174286Y-130218571D01*
X150031429Y-130218571D02*
X150031429Y-128718571D01*
X150031429Y-129290000D02*
X150174286Y-129218571D01*
X150460000Y-129218571D01*
X150602857Y-129290000D01*
X150674286Y-129361429D01*
X150745715Y-129504286D01*
X150745715Y-129932857D01*
X150674286Y-130075714D01*
X150602857Y-130147143D01*
X150460000Y-130218571D01*
X150174286Y-130218571D01*
X150031429Y-130147143D01*
X151245715Y-129218571D02*
X151602858Y-130218571D01*
X151960000Y-129218571D02*
X151602858Y-130218571D01*
X151460000Y-130575714D01*
X151388572Y-130647143D01*
X151245715Y-130718571D01*
X153674286Y-130218571D02*
X153674286Y-128718571D01*
X154245715Y-129218571D02*
X154602858Y-130218571D01*
X154960000Y-129218571D01*
X155745715Y-130218571D02*
X155602857Y-130147143D01*
X155531429Y-130075714D01*
X155460000Y-129932857D01*
X155460000Y-129504286D01*
X155531429Y-129361429D01*
X155602857Y-129290000D01*
X155745715Y-129218571D01*
X155960000Y-129218571D01*
X156102857Y-129290000D01*
X156174286Y-129361429D01*
X156245715Y-129504286D01*
X156245715Y-129932857D01*
X156174286Y-130075714D01*
X156102857Y-130147143D01*
X155960000Y-130218571D01*
X155745715Y-130218571D01*
X157888572Y-129218571D02*
X158245715Y-130218571D01*
X158602857Y-129218571D01*
X159817143Y-130218571D02*
X159817143Y-129432857D01*
X159745714Y-129290000D01*
X159602857Y-129218571D01*
X159317143Y-129218571D01*
X159174286Y-129290000D01*
X159817143Y-130147143D02*
X159674286Y-130218571D01*
X159317143Y-130218571D01*
X159174286Y-130147143D01*
X159102857Y-130004286D01*
X159102857Y-129861429D01*
X159174286Y-129718571D01*
X159317143Y-129647143D01*
X159674286Y-129647143D01*
X159817143Y-129575714D01*
X160531429Y-129218571D02*
X160531429Y-130218571D01*
X160531429Y-129361429D02*
X160602857Y-129290000D01*
X160745715Y-129218571D01*
X160960000Y-129218571D01*
X161102857Y-129290000D01*
X161174286Y-129432857D01*
X161174286Y-130218571D01*
X163031429Y-130218571D02*
X163031429Y-128718571D01*
X163602857Y-128718571D01*
X163745715Y-128790000D01*
X163817143Y-128861429D01*
X163888572Y-129004286D01*
X163888572Y-129218571D01*
X163817143Y-129361429D01*
X163745715Y-129432857D01*
X163602857Y-129504286D01*
X163031429Y-129504286D01*
X164745715Y-130218571D02*
X164602857Y-130147143D01*
X164531429Y-130075714D01*
X164460000Y-129932857D01*
X164460000Y-129504286D01*
X164531429Y-129361429D01*
X164602857Y-129290000D01*
X164745715Y-129218571D01*
X164960000Y-129218571D01*
X165102857Y-129290000D01*
X165174286Y-129361429D01*
X165245715Y-129504286D01*
X165245715Y-129932857D01*
X165174286Y-130075714D01*
X165102857Y-130147143D01*
X164960000Y-130218571D01*
X164745715Y-130218571D01*
X166102858Y-130218571D02*
X165960000Y-130147143D01*
X165888572Y-130075714D01*
X165817143Y-129932857D01*
X165817143Y-129504286D01*
X165888572Y-129361429D01*
X165960000Y-129290000D01*
X166102858Y-129218571D01*
X166317143Y-129218571D01*
X166460000Y-129290000D01*
X166531429Y-129361429D01*
X166602858Y-129504286D01*
X166602858Y-129932857D01*
X166531429Y-130075714D01*
X166460000Y-130147143D01*
X166317143Y-130218571D01*
X166102858Y-130218571D01*
X167245715Y-130218571D02*
X167245715Y-129218571D01*
X167245715Y-129504286D02*
X167317143Y-129361429D01*
X167388572Y-129290000D01*
X167531429Y-129218571D01*
X167674286Y-129218571D01*
X167960000Y-129218571D02*
X168531429Y-129218571D01*
X168174286Y-128718571D02*
X168174286Y-130004286D01*
X168245714Y-130147143D01*
X168388572Y-130218571D01*
X168531429Y-130218571D01*
X169602857Y-130147143D02*
X169460000Y-130218571D01*
X169174286Y-130218571D01*
X169031429Y-130147143D01*
X168960000Y-130004286D01*
X168960000Y-129432857D01*
X169031429Y-129290000D01*
X169174286Y-129218571D01*
X169460000Y-129218571D01*
X169602857Y-129290000D01*
X169674286Y-129432857D01*
X169674286Y-129575714D01*
X168960000Y-129718571D01*
X170317143Y-129218571D02*
X170317143Y-130218571D01*
X170317143Y-129361429D02*
X170388571Y-129290000D01*
X170531429Y-129218571D01*
X170745714Y-129218571D01*
X170888571Y-129290000D01*
X170960000Y-129432857D01*
X170960000Y-130218571D01*
X145567143Y-131768571D02*
X144424286Y-132197143D01*
X145567143Y-132625714D01*
X146281429Y-132768571D02*
X146281429Y-131768571D01*
X146281429Y-131268571D02*
X146210000Y-131340000D01*
X146281429Y-131411429D01*
X146352857Y-131340000D01*
X146281429Y-131268571D01*
X146281429Y-131411429D01*
X146852858Y-131768571D02*
X147210001Y-132768571D01*
X147567143Y-131768571D01*
X148352858Y-132768571D02*
X148210000Y-132697143D01*
X148138572Y-132625714D01*
X148067143Y-132482857D01*
X148067143Y-132054286D01*
X148138572Y-131911429D01*
X148210000Y-131840000D01*
X148352858Y-131768571D01*
X148567143Y-131768571D01*
X148710000Y-131840000D01*
X148781429Y-131911429D01*
X148852858Y-132054286D01*
X148852858Y-132482857D01*
X148781429Y-132625714D01*
X148710000Y-132697143D01*
X148567143Y-132768571D01*
X148352858Y-132768571D01*
X149495715Y-131768571D02*
X149495715Y-133268571D01*
X149495715Y-131840000D02*
X149638572Y-131768571D01*
X149924286Y-131768571D01*
X150067143Y-131840000D01*
X150138572Y-131911429D01*
X150210001Y-132054286D01*
X150210001Y-132482857D01*
X150138572Y-132625714D01*
X150067143Y-132697143D01*
X149924286Y-132768571D01*
X149638572Y-132768571D01*
X149495715Y-132697143D01*
X150710001Y-131768571D02*
X151067144Y-132768571D01*
X151424286Y-131768571D01*
X151995715Y-131768571D02*
X151995715Y-133268571D01*
X151995715Y-131840000D02*
X152138572Y-131768571D01*
X152424286Y-131768571D01*
X152567143Y-131840000D01*
X152638572Y-131911429D01*
X152710001Y-132054286D01*
X152710001Y-132482857D01*
X152638572Y-132625714D01*
X152567143Y-132697143D01*
X152424286Y-132768571D01*
X152138572Y-132768571D01*
X151995715Y-132697143D01*
X154281429Y-132054286D02*
X154210001Y-131982857D01*
X154067144Y-131911429D01*
X153924286Y-131911429D01*
X153781429Y-131982857D01*
X153710001Y-132054286D01*
X153638572Y-132197143D01*
X153638572Y-132340000D01*
X153710001Y-132482857D01*
X153781429Y-132554286D01*
X153924286Y-132625714D01*
X154067144Y-132625714D01*
X154210001Y-132554286D01*
X154281429Y-132482857D01*
X154281429Y-131911429D02*
X154281429Y-132482857D01*
X154352858Y-132554286D01*
X154424286Y-132554286D01*
X154567144Y-132482857D01*
X154638572Y-132340000D01*
X154638572Y-131982857D01*
X154495715Y-131768571D01*
X154281429Y-131625714D01*
X153995715Y-131554286D01*
X153710001Y-131625714D01*
X153495715Y-131768571D01*
X153352858Y-131982857D01*
X153281429Y-132268571D01*
X153352858Y-132554286D01*
X153495715Y-132768571D01*
X153710001Y-132911429D01*
X153995715Y-132982857D01*
X154281429Y-132911429D01*
X154495715Y-132768571D01*
X155924286Y-131768571D02*
X155924286Y-132982857D01*
X155852857Y-133125714D01*
X155781429Y-133197143D01*
X155638572Y-133268571D01*
X155424286Y-133268571D01*
X155281429Y-133197143D01*
X155924286Y-132697143D02*
X155781429Y-132768571D01*
X155495715Y-132768571D01*
X155352857Y-132697143D01*
X155281429Y-132625714D01*
X155210000Y-132482857D01*
X155210000Y-132054286D01*
X155281429Y-131911429D01*
X155352857Y-131840000D01*
X155495715Y-131768571D01*
X155781429Y-131768571D01*
X155924286Y-131840000D01*
X156638572Y-132768571D02*
X156638572Y-131768571D01*
X156638572Y-131911429D02*
X156710000Y-131840000D01*
X156852858Y-131768571D01*
X157067143Y-131768571D01*
X157210000Y-131840000D01*
X157281429Y-131982857D01*
X157281429Y-132768571D01*
X157281429Y-131982857D02*
X157352858Y-131840000D01*
X157495715Y-131768571D01*
X157710000Y-131768571D01*
X157852858Y-131840000D01*
X157924286Y-131982857D01*
X157924286Y-132768571D01*
X159281429Y-132768571D02*
X159281429Y-131982857D01*
X159210000Y-131840000D01*
X159067143Y-131768571D01*
X158781429Y-131768571D01*
X158638572Y-131840000D01*
X159281429Y-132697143D02*
X159138572Y-132768571D01*
X158781429Y-132768571D01*
X158638572Y-132697143D01*
X158567143Y-132554286D01*
X158567143Y-132411429D01*
X158638572Y-132268571D01*
X158781429Y-132197143D01*
X159138572Y-132197143D01*
X159281429Y-132125714D01*
X159995715Y-132768571D02*
X159995715Y-131768571D01*
X159995715Y-131268571D02*
X159924286Y-131340000D01*
X159995715Y-131411429D01*
X160067143Y-131340000D01*
X159995715Y-131268571D01*
X159995715Y-131411429D01*
X160924287Y-132768571D02*
X160781429Y-132697143D01*
X160710001Y-132554286D01*
X160710001Y-131268571D01*
X161495715Y-132625714D02*
X161567143Y-132697143D01*
X161495715Y-132768571D01*
X161424286Y-132697143D01*
X161495715Y-132625714D01*
X161495715Y-132768571D01*
X162852858Y-132697143D02*
X162710001Y-132768571D01*
X162424287Y-132768571D01*
X162281429Y-132697143D01*
X162210001Y-132625714D01*
X162138572Y-132482857D01*
X162138572Y-132054286D01*
X162210001Y-131911429D01*
X162281429Y-131840000D01*
X162424287Y-131768571D01*
X162710001Y-131768571D01*
X162852858Y-131840000D01*
X163710001Y-132768571D02*
X163567143Y-132697143D01*
X163495715Y-132625714D01*
X163424286Y-132482857D01*
X163424286Y-132054286D01*
X163495715Y-131911429D01*
X163567143Y-131840000D01*
X163710001Y-131768571D01*
X163924286Y-131768571D01*
X164067143Y-131840000D01*
X164138572Y-131911429D01*
X164210001Y-132054286D01*
X164210001Y-132482857D01*
X164138572Y-132625714D01*
X164067143Y-132697143D01*
X163924286Y-132768571D01*
X163710001Y-132768571D01*
X164852858Y-132768571D02*
X164852858Y-131768571D01*
X164852858Y-131911429D02*
X164924286Y-131840000D01*
X165067144Y-131768571D01*
X165281429Y-131768571D01*
X165424286Y-131840000D01*
X165495715Y-131982857D01*
X165495715Y-132768571D01*
X165495715Y-131982857D02*
X165567144Y-131840000D01*
X165710001Y-131768571D01*
X165924286Y-131768571D01*
X166067144Y-131840000D01*
X166138572Y-131982857D01*
X166138572Y-132768571D01*
X166852858Y-131768571D02*
X167995715Y-132197143D01*
X166852858Y-132625714D01*
D12*
X191839000Y-108273000D02*
X191839000Y-107823000D01*
X184589000Y-108273000D02*
X184589000Y-107748000D01*
X184589000Y-101023000D02*
X184589000Y-101548000D01*
X191839000Y-101023000D02*
X191839000Y-101548000D01*
X191839000Y-108273000D02*
X191314000Y-108273000D01*
X191839000Y-101023000D02*
X191314000Y-101023000D01*
X184589000Y-101023000D02*
X185114000Y-101023000D01*
X184589000Y-108273000D02*
X185114000Y-108273000D01*
X191839000Y-107823000D02*
X193214000Y-107823000D01*
X182860000Y-112780000D02*
X182860000Y-115780000D01*
X180360000Y-115780000D02*
X180360000Y-112780000D01*
X118110000Y-99060000D02*
X118110000Y-132080000D01*
X113030000Y-101600000D02*
X113030000Y-132080000D01*
X118110000Y-132080000D02*
X113030000Y-132080000D01*
X118110000Y-99060000D02*
X115570000Y-99060000D01*
X114300000Y-98780000D02*
X112750000Y-98780000D01*
X115570000Y-99060000D02*
X115570000Y-101600000D01*
X115570000Y-101600000D02*
X113030000Y-101600000D01*
X112750000Y-98780000D02*
X112750000Y-100330000D01*
X158695000Y-109179000D02*
X158695000Y-104181000D01*
X158555000Y-109171000D02*
X158555000Y-104189000D01*
X158415000Y-109155000D02*
X158415000Y-106775000D01*
X158415000Y-106585000D02*
X158415000Y-104205000D01*
X158275000Y-109131000D02*
X158275000Y-107170000D01*
X158275000Y-106190000D02*
X158275000Y-104229000D01*
X158135000Y-109098000D02*
X158135000Y-107337000D01*
X158135000Y-106023000D02*
X158135000Y-104262000D01*
X157995000Y-109057000D02*
X157995000Y-107444000D01*
X157995000Y-105916000D02*
X157995000Y-104303000D01*
X157855000Y-109007000D02*
X157855000Y-107515000D01*
X157855000Y-105845000D02*
X157855000Y-104353000D01*
X157715000Y-108946000D02*
X157715000Y-107559000D01*
X157715000Y-105801000D02*
X157715000Y-104414000D01*
X157575000Y-108876000D02*
X157575000Y-107578000D01*
X157575000Y-105782000D02*
X157575000Y-104484000D01*
X157435000Y-108794000D02*
X157435000Y-107576000D01*
X157435000Y-105784000D02*
X157435000Y-104566000D01*
X157295000Y-108699000D02*
X157295000Y-107551000D01*
X157295000Y-105809000D02*
X157295000Y-104661000D01*
X157155000Y-108588000D02*
X157155000Y-107503000D01*
X157155000Y-105857000D02*
X157155000Y-104772000D01*
X157015000Y-108460000D02*
X157015000Y-107425000D01*
X157015000Y-105935000D02*
X157015000Y-104900000D01*
X156875000Y-108311000D02*
X156875000Y-107308000D01*
X156875000Y-106052000D02*
X156875000Y-105049000D01*
X156735000Y-108132000D02*
X156735000Y-107120000D01*
X156735000Y-106240000D02*
X156735000Y-105228000D01*
X156595000Y-107913000D02*
X156595000Y-105447000D01*
X156455000Y-107624000D02*
X156455000Y-105736000D01*
X156315000Y-107152000D02*
X156315000Y-106208000D01*
X158420000Y-106680000D02*
G75*
G03X158420000Y-106680000I-900000J0D01*
G01*
X161307500Y-106680000D02*
G75*
G03X161307500Y-106680000I-2537500J0D01*
G01*
X151075000Y-109179000D02*
X151075000Y-104181000D01*
X150935000Y-109171000D02*
X150935000Y-104189000D01*
X150795000Y-109155000D02*
X150795000Y-106775000D01*
X150795000Y-106585000D02*
X150795000Y-104205000D01*
X150655000Y-109131000D02*
X150655000Y-107170000D01*
X150655000Y-106190000D02*
X150655000Y-104229000D01*
X150515000Y-109098000D02*
X150515000Y-107337000D01*
X150515000Y-106023000D02*
X150515000Y-104262000D01*
X150375000Y-109057000D02*
X150375000Y-107444000D01*
X150375000Y-105916000D02*
X150375000Y-104303000D01*
X150235000Y-109007000D02*
X150235000Y-107515000D01*
X150235000Y-105845000D02*
X150235000Y-104353000D01*
X150095000Y-108946000D02*
X150095000Y-107559000D01*
X150095000Y-105801000D02*
X150095000Y-104414000D01*
X149955000Y-108876000D02*
X149955000Y-107578000D01*
X149955000Y-105782000D02*
X149955000Y-104484000D01*
X149815000Y-108794000D02*
X149815000Y-107576000D01*
X149815000Y-105784000D02*
X149815000Y-104566000D01*
X149675000Y-108699000D02*
X149675000Y-107551000D01*
X149675000Y-105809000D02*
X149675000Y-104661000D01*
X149535000Y-108588000D02*
X149535000Y-107503000D01*
X149535000Y-105857000D02*
X149535000Y-104772000D01*
X149395000Y-108460000D02*
X149395000Y-107425000D01*
X149395000Y-105935000D02*
X149395000Y-104900000D01*
X149255000Y-108311000D02*
X149255000Y-107308000D01*
X149255000Y-106052000D02*
X149255000Y-105049000D01*
X149115000Y-108132000D02*
X149115000Y-107120000D01*
X149115000Y-106240000D02*
X149115000Y-105228000D01*
X148975000Y-107913000D02*
X148975000Y-105447000D01*
X148835000Y-107624000D02*
X148835000Y-105736000D01*
X148695000Y-107152000D02*
X148695000Y-106208000D01*
X150800000Y-106680000D02*
G75*
G03X150800000Y-106680000I-900000J0D01*
G01*
X153687500Y-106680000D02*
G75*
G03X153687500Y-106680000I-2537500J0D01*
G01*
X146009000Y-96575000D02*
X141011000Y-96575000D01*
X146001000Y-96715000D02*
X141019000Y-96715000D01*
X145985000Y-96855000D02*
X143605000Y-96855000D01*
X143415000Y-96855000D02*
X141035000Y-96855000D01*
X145961000Y-96995000D02*
X144000000Y-96995000D01*
X143020000Y-96995000D02*
X141059000Y-96995000D01*
X145928000Y-97135000D02*
X144167000Y-97135000D01*
X142853000Y-97135000D02*
X141092000Y-97135000D01*
X145887000Y-97275000D02*
X144274000Y-97275000D01*
X142746000Y-97275000D02*
X141133000Y-97275000D01*
X145837000Y-97415000D02*
X144345000Y-97415000D01*
X142675000Y-97415000D02*
X141183000Y-97415000D01*
X145776000Y-97555000D02*
X144389000Y-97555000D01*
X142631000Y-97555000D02*
X141244000Y-97555000D01*
X145706000Y-97695000D02*
X144408000Y-97695000D01*
X142612000Y-97695000D02*
X141314000Y-97695000D01*
X145624000Y-97835000D02*
X144406000Y-97835000D01*
X142614000Y-97835000D02*
X141396000Y-97835000D01*
X145529000Y-97975000D02*
X144381000Y-97975000D01*
X142639000Y-97975000D02*
X141491000Y-97975000D01*
X145418000Y-98115000D02*
X144333000Y-98115000D01*
X142687000Y-98115000D02*
X141602000Y-98115000D01*
X145290000Y-98255000D02*
X144255000Y-98255000D01*
X142765000Y-98255000D02*
X141730000Y-98255000D01*
X145141000Y-98395000D02*
X144138000Y-98395000D01*
X142882000Y-98395000D02*
X141879000Y-98395000D01*
X144962000Y-98535000D02*
X143950000Y-98535000D01*
X143070000Y-98535000D02*
X142058000Y-98535000D01*
X144743000Y-98675000D02*
X142277000Y-98675000D01*
X144454000Y-98815000D02*
X142566000Y-98815000D01*
X143982000Y-98955000D02*
X143038000Y-98955000D01*
X144410000Y-97750000D02*
G75*
G03X144410000Y-97750000I-900000J0D01*
G01*
X146047500Y-96500000D02*
G75*
G03X146047500Y-96500000I-2537500J0D01*
G01*
X168869000Y-96575000D02*
X163871000Y-96575000D01*
X168861000Y-96715000D02*
X163879000Y-96715000D01*
X168845000Y-96855000D02*
X166465000Y-96855000D01*
X166275000Y-96855000D02*
X163895000Y-96855000D01*
X168821000Y-96995000D02*
X166860000Y-96995000D01*
X165880000Y-96995000D02*
X163919000Y-96995000D01*
X168788000Y-97135000D02*
X167027000Y-97135000D01*
X165713000Y-97135000D02*
X163952000Y-97135000D01*
X168747000Y-97275000D02*
X167134000Y-97275000D01*
X165606000Y-97275000D02*
X163993000Y-97275000D01*
X168697000Y-97415000D02*
X167205000Y-97415000D01*
X165535000Y-97415000D02*
X164043000Y-97415000D01*
X168636000Y-97555000D02*
X167249000Y-97555000D01*
X165491000Y-97555000D02*
X164104000Y-97555000D01*
X168566000Y-97695000D02*
X167268000Y-97695000D01*
X165472000Y-97695000D02*
X164174000Y-97695000D01*
X168484000Y-97835000D02*
X167266000Y-97835000D01*
X165474000Y-97835000D02*
X164256000Y-97835000D01*
X168389000Y-97975000D02*
X167241000Y-97975000D01*
X165499000Y-97975000D02*
X164351000Y-97975000D01*
X168278000Y-98115000D02*
X167193000Y-98115000D01*
X165547000Y-98115000D02*
X164462000Y-98115000D01*
X168150000Y-98255000D02*
X167115000Y-98255000D01*
X165625000Y-98255000D02*
X164590000Y-98255000D01*
X168001000Y-98395000D02*
X166998000Y-98395000D01*
X165742000Y-98395000D02*
X164739000Y-98395000D01*
X167822000Y-98535000D02*
X166810000Y-98535000D01*
X165930000Y-98535000D02*
X164918000Y-98535000D01*
X167603000Y-98675000D02*
X165137000Y-98675000D01*
X167314000Y-98815000D02*
X165426000Y-98815000D01*
X166842000Y-98955000D02*
X165898000Y-98955000D01*
X167270000Y-97750000D02*
G75*
G03X167270000Y-97750000I-900000J0D01*
G01*
X168907500Y-96500000D02*
G75*
G03X168907500Y-96500000I-2537500J0D01*
G01*
X182900000Y-98040000D02*
X182900000Y-95040000D01*
X185400000Y-95040000D02*
X185400000Y-98040000D01*
X190520000Y-98040000D02*
X190520000Y-95040000D01*
X193020000Y-95040000D02*
X193020000Y-98040000D01*
X195330000Y-102890000D02*
X198330000Y-102890000D01*
X198330000Y-105390000D02*
X195330000Y-105390000D01*
X195330000Y-100350000D02*
X198330000Y-100350000D01*
X198330000Y-102850000D02*
X195330000Y-102850000D01*
X195330000Y-105430000D02*
X198330000Y-105430000D01*
X198330000Y-107930000D02*
X195330000Y-107930000D01*
X180360000Y-98040000D02*
X180360000Y-95040000D01*
X182860000Y-95040000D02*
X182860000Y-98040000D01*
X180590000Y-105390000D02*
X177590000Y-105390000D01*
X177590000Y-102890000D02*
X180590000Y-102890000D01*
X186670000Y-112780000D02*
X186670000Y-115780000D01*
X184170000Y-115780000D02*
X184170000Y-112780000D01*
X189210000Y-112780000D02*
X189210000Y-115780000D01*
X186710000Y-115780000D02*
X186710000Y-112780000D01*
X191750000Y-112780000D02*
X191750000Y-115780000D01*
X189250000Y-115780000D02*
X189250000Y-112780000D01*
X188210000Y-135870000D02*
X185210000Y-135870000D01*
X185210000Y-133370000D02*
X188210000Y-133370000D01*
X128250000Y-130560000D02*
X128250000Y-133560000D01*
X125750000Y-133560000D02*
X125750000Y-130560000D01*
X124440000Y-130560000D02*
X124440000Y-133560000D01*
X121940000Y-133560000D02*
X121940000Y-130560000D01*
X195330000Y-109240000D02*
X198330000Y-109240000D01*
X198330000Y-111740000D02*
X195330000Y-111740000D01*
D13*
X125420000Y-104900000D02*
X126350000Y-104900000D01*
X128580000Y-104900000D02*
X127650000Y-104900000D01*
X128580000Y-104900000D02*
X128580000Y-102740000D01*
X125420000Y-104900000D02*
X125420000Y-103440000D01*
D12*
X163830000Y-119380000D02*
X163830000Y-114300000D01*
X163830000Y-114300000D02*
X166370000Y-114300000D01*
X166370000Y-114300000D02*
X166370000Y-119380000D01*
X166370000Y-119380000D02*
X163830000Y-119380000D01*
X165100000Y-119380000D02*
X165100000Y-120650000D01*
X165100000Y-114300000D02*
X165100000Y-113030000D01*
X140970000Y-119380000D02*
X140970000Y-114300000D01*
X140970000Y-114300000D02*
X143510000Y-114300000D01*
X143510000Y-114300000D02*
X143510000Y-119380000D01*
X143510000Y-119380000D02*
X140970000Y-119380000D01*
X142240000Y-119380000D02*
X142240000Y-120650000D01*
X142240000Y-114300000D02*
X142240000Y-113030000D01*
X167640000Y-106680000D02*
X172720000Y-106680000D01*
X172720000Y-106680000D02*
X172720000Y-109220000D01*
X172720000Y-109220000D02*
X167640000Y-109220000D01*
X167640000Y-109220000D02*
X167640000Y-106680000D01*
X167640000Y-107950000D02*
X166370000Y-107950000D01*
X172720000Y-107950000D02*
X173990000Y-107950000D01*
X167640000Y-102870000D02*
X172720000Y-102870000D01*
X172720000Y-102870000D02*
X172720000Y-105410000D01*
X172720000Y-105410000D02*
X167640000Y-105410000D01*
X167640000Y-105410000D02*
X167640000Y-102870000D01*
X167640000Y-104140000D02*
X166370000Y-104140000D01*
X172720000Y-104140000D02*
X173990000Y-104140000D01*
X189230000Y-132080000D02*
X189230000Y-127000000D01*
X189230000Y-127000000D02*
X191770000Y-127000000D01*
X191770000Y-127000000D02*
X191770000Y-132080000D01*
X191770000Y-132080000D02*
X189230000Y-132080000D01*
X190500000Y-132080000D02*
X190500000Y-133350000D01*
X190500000Y-127000000D02*
X190500000Y-125730000D01*
X125730000Y-125730000D02*
X125730000Y-120650000D01*
X125730000Y-120650000D02*
X128270000Y-120650000D01*
X128270000Y-120650000D02*
X128270000Y-125730000D01*
X128270000Y-125730000D02*
X125730000Y-125730000D01*
X127000000Y-125730000D02*
X127000000Y-127000000D01*
X127000000Y-120650000D02*
X127000000Y-119380000D01*
X121920000Y-125730000D02*
X121920000Y-120650000D01*
X121920000Y-120650000D02*
X124460000Y-120650000D01*
X124460000Y-120650000D02*
X124460000Y-125730000D01*
X124460000Y-125730000D02*
X121920000Y-125730000D01*
X123190000Y-125730000D02*
X123190000Y-127000000D01*
X123190000Y-120650000D02*
X123190000Y-119380000D01*
X196850000Y-113030000D02*
X201930000Y-113030000D01*
X201930000Y-113030000D02*
X201930000Y-115570000D01*
X201930000Y-115570000D02*
X196850000Y-115570000D01*
X196850000Y-115570000D02*
X196850000Y-113030000D01*
X196850000Y-114300000D02*
X195580000Y-114300000D01*
X201930000Y-114300000D02*
X203200000Y-114300000D01*
X129540000Y-110490000D02*
X129540000Y-105410000D01*
X129540000Y-105410000D02*
X132080000Y-105410000D01*
X132080000Y-105410000D02*
X132080000Y-110490000D01*
X132080000Y-110490000D02*
X129540000Y-110490000D01*
X130810000Y-110490000D02*
X130810000Y-111760000D01*
X130810000Y-105410000D02*
X130810000Y-104140000D01*
X124460000Y-105410000D02*
X124460000Y-110490000D01*
X124460000Y-110490000D02*
X121920000Y-110490000D01*
X121920000Y-110490000D02*
X121920000Y-105410000D01*
X121920000Y-105410000D02*
X124460000Y-105410000D01*
X123190000Y-105410000D02*
X123190000Y-104140000D01*
X123190000Y-110490000D02*
X123190000Y-111760000D01*
D13*
X154540000Y-95880000D02*
X153280000Y-95880000D01*
X147720000Y-95880000D02*
X148980000Y-95880000D01*
X154540000Y-99640000D02*
X154540000Y-95880000D01*
X147720000Y-101890000D02*
X147720000Y-95880000D01*
X162160000Y-95880000D02*
X160900000Y-95880000D01*
X155340000Y-95880000D02*
X156600000Y-95880000D01*
X162160000Y-99640000D02*
X162160000Y-95880000D01*
X155340000Y-101890000D02*
X155340000Y-95880000D01*
X189810000Y-92600000D02*
X186110000Y-92600000D01*
X186110000Y-92600000D02*
X186110000Y-97900000D01*
D12*
X192278095Y-99782381D02*
X192278095Y-100591905D01*
X192325714Y-100687143D01*
X192373333Y-100734762D01*
X192468571Y-100782381D01*
X192659048Y-100782381D01*
X192754286Y-100734762D01*
X192801905Y-100687143D01*
X192849524Y-100591905D01*
X192849524Y-99782381D01*
X193230476Y-99782381D02*
X193849524Y-99782381D01*
X193516190Y-100163333D01*
X193659048Y-100163333D01*
X193754286Y-100210952D01*
X193801905Y-100258571D01*
X193849524Y-100353810D01*
X193849524Y-100591905D01*
X193801905Y-100687143D01*
X193754286Y-100734762D01*
X193659048Y-100782381D01*
X193373333Y-100782381D01*
X193278095Y-100734762D01*
X193230476Y-100687143D01*
X185245714Y-103592381D02*
X185579047Y-104592381D01*
X185912381Y-103592381D01*
X186198095Y-104544762D02*
X186340952Y-104592381D01*
X186579048Y-104592381D01*
X186674286Y-104544762D01*
X186721905Y-104497143D01*
X186769524Y-104401905D01*
X186769524Y-104306667D01*
X186721905Y-104211429D01*
X186674286Y-104163810D01*
X186579048Y-104116190D01*
X186388571Y-104068571D01*
X186293333Y-104020952D01*
X186245714Y-103973333D01*
X186198095Y-103878095D01*
X186198095Y-103782857D01*
X186245714Y-103687619D01*
X186293333Y-103640000D01*
X186388571Y-103592381D01*
X186626667Y-103592381D01*
X186769524Y-103640000D01*
X187721905Y-104592381D02*
X187150476Y-104592381D01*
X187436190Y-104592381D02*
X187436190Y-103592381D01*
X187340952Y-103735238D01*
X187245714Y-103830476D01*
X187150476Y-103878095D01*
X188340952Y-103592381D02*
X188436191Y-103592381D01*
X188531429Y-103640000D01*
X188579048Y-103687619D01*
X188626667Y-103782857D01*
X188674286Y-103973333D01*
X188674286Y-104211429D01*
X188626667Y-104401905D01*
X188579048Y-104497143D01*
X188531429Y-104544762D01*
X188436191Y-104592381D01*
X188340952Y-104592381D01*
X188245714Y-104544762D01*
X188198095Y-104497143D01*
X188150476Y-104401905D01*
X188102857Y-104211429D01*
X188102857Y-103973333D01*
X188150476Y-103782857D01*
X188198095Y-103687619D01*
X188245714Y-103640000D01*
X188340952Y-103592381D01*
X189579048Y-103592381D02*
X189102857Y-103592381D01*
X189055238Y-104068571D01*
X189102857Y-104020952D01*
X189198095Y-103973333D01*
X189436191Y-103973333D01*
X189531429Y-104020952D01*
X189579048Y-104068571D01*
X189626667Y-104163810D01*
X189626667Y-104401905D01*
X189579048Y-104497143D01*
X189531429Y-104544762D01*
X189436191Y-104592381D01*
X189198095Y-104592381D01*
X189102857Y-104544762D01*
X189055238Y-104497143D01*
X189960000Y-103592381D02*
X190579048Y-103592381D01*
X190245714Y-103973333D01*
X190388572Y-103973333D01*
X190483810Y-104020952D01*
X190531429Y-104068571D01*
X190579048Y-104163810D01*
X190579048Y-104401905D01*
X190531429Y-104497143D01*
X190483810Y-104544762D01*
X190388572Y-104592381D01*
X190102857Y-104592381D01*
X190007619Y-104544762D01*
X189960000Y-104497143D01*
X181967143Y-118752857D02*
X182014762Y-118800476D01*
X182062381Y-118943333D01*
X182062381Y-119038571D01*
X182014762Y-119181429D01*
X181919524Y-119276667D01*
X181824286Y-119324286D01*
X181633810Y-119371905D01*
X181490952Y-119371905D01*
X181300476Y-119324286D01*
X181205238Y-119276667D01*
X181110000Y-119181429D01*
X181062381Y-119038571D01*
X181062381Y-118943333D01*
X181110000Y-118800476D01*
X181157619Y-118752857D01*
X182062381Y-117800476D02*
X182062381Y-118371905D01*
X182062381Y-118086191D02*
X181062381Y-118086191D01*
X181205238Y-118181429D01*
X181300476Y-118276667D01*
X181348095Y-118371905D01*
X181062381Y-116895714D02*
X181062381Y-117371905D01*
X181538571Y-117419524D01*
X181490952Y-117371905D01*
X181443333Y-117276667D01*
X181443333Y-117038571D01*
X181490952Y-116943333D01*
X181538571Y-116895714D01*
X181633810Y-116848095D01*
X181871905Y-116848095D01*
X181967143Y-116895714D01*
X182014762Y-116943333D01*
X182062381Y-117038571D01*
X182062381Y-117276667D01*
X182014762Y-117371905D01*
X181967143Y-117419524D01*
X113085715Y-95587143D02*
X113038096Y-95634762D01*
X112895239Y-95682381D01*
X112800001Y-95682381D01*
X112657143Y-95634762D01*
X112561905Y-95539524D01*
X112514286Y-95444286D01*
X112466667Y-95253810D01*
X112466667Y-95110952D01*
X112514286Y-94920476D01*
X112561905Y-94825238D01*
X112657143Y-94730000D01*
X112800001Y-94682381D01*
X112895239Y-94682381D01*
X113038096Y-94730000D01*
X113085715Y-94777619D01*
X113704762Y-94682381D02*
X113895239Y-94682381D01*
X113990477Y-94730000D01*
X114085715Y-94825238D01*
X114133334Y-95015714D01*
X114133334Y-95349048D01*
X114085715Y-95539524D01*
X113990477Y-95634762D01*
X113895239Y-95682381D01*
X113704762Y-95682381D01*
X113609524Y-95634762D01*
X113514286Y-95539524D01*
X113466667Y-95349048D01*
X113466667Y-95015714D01*
X113514286Y-94825238D01*
X113609524Y-94730000D01*
X113704762Y-94682381D01*
X114561905Y-95682381D02*
X114561905Y-94682381D01*
X115133334Y-95682381D01*
X115133334Y-94682381D01*
X116133334Y-95682381D02*
X115561905Y-95682381D01*
X115847619Y-95682381D02*
X115847619Y-94682381D01*
X115752381Y-94825238D01*
X115657143Y-94920476D01*
X115561905Y-94968095D01*
X109419047Y-96682381D02*
X109657142Y-97682381D01*
X109847619Y-96968095D01*
X110038095Y-97682381D01*
X110276190Y-96682381D01*
X110609523Y-97396667D02*
X111085714Y-97396667D01*
X110514285Y-97682381D02*
X110847618Y-96682381D01*
X111180952Y-97682381D01*
X111371428Y-96682381D02*
X111704761Y-97682381D01*
X112038095Y-96682381D01*
X112371428Y-97158571D02*
X112704762Y-97158571D01*
X112847619Y-97682381D02*
X112371428Y-97682381D01*
X112371428Y-96682381D01*
X112847619Y-96682381D01*
X113609524Y-97158571D02*
X113752381Y-97206190D01*
X113800000Y-97253810D01*
X113847619Y-97349048D01*
X113847619Y-97491905D01*
X113800000Y-97587143D01*
X113752381Y-97634762D01*
X113657143Y-97682381D01*
X113276190Y-97682381D01*
X113276190Y-96682381D01*
X113609524Y-96682381D01*
X113704762Y-96730000D01*
X113752381Y-96777619D01*
X113800000Y-96872857D01*
X113800000Y-96968095D01*
X113752381Y-97063333D01*
X113704762Y-97110952D01*
X113609524Y-97158571D01*
X113276190Y-97158571D01*
X114752381Y-97682381D02*
X114276190Y-97682381D01*
X114276190Y-96682381D01*
X115038095Y-97396667D02*
X115514286Y-97396667D01*
X114942857Y-97682381D02*
X115276190Y-96682381D01*
X115609524Y-97682381D01*
X115895238Y-97634762D02*
X116038095Y-97682381D01*
X116276191Y-97682381D01*
X116371429Y-97634762D01*
X116419048Y-97587143D01*
X116466667Y-97491905D01*
X116466667Y-97396667D01*
X116419048Y-97301429D01*
X116371429Y-97253810D01*
X116276191Y-97206190D01*
X116085714Y-97158571D01*
X115990476Y-97110952D01*
X115942857Y-97063333D01*
X115895238Y-96968095D01*
X115895238Y-96872857D01*
X115942857Y-96777619D01*
X115990476Y-96730000D01*
X116085714Y-96682381D01*
X116323810Y-96682381D01*
X116466667Y-96730000D01*
X116752381Y-96682381D02*
X117323810Y-96682381D01*
X117038095Y-97682381D02*
X117038095Y-96682381D01*
X117657143Y-97158571D02*
X117990477Y-97158571D01*
X118133334Y-97682381D02*
X117657143Y-97682381D01*
X117657143Y-96682381D01*
X118133334Y-96682381D01*
X119133334Y-97682381D02*
X118800000Y-97206190D01*
X118561905Y-97682381D02*
X118561905Y-96682381D01*
X118942858Y-96682381D01*
X119038096Y-96730000D01*
X119085715Y-96777619D01*
X119133334Y-96872857D01*
X119133334Y-97015714D01*
X119085715Y-97110952D01*
X119038096Y-97158571D01*
X118942858Y-97206190D01*
X118561905Y-97206190D01*
X158603334Y-110837143D02*
X158555715Y-110884762D01*
X158412858Y-110932381D01*
X158317620Y-110932381D01*
X158174762Y-110884762D01*
X158079524Y-110789524D01*
X158031905Y-110694286D01*
X157984286Y-110503810D01*
X157984286Y-110360952D01*
X158031905Y-110170476D01*
X158079524Y-110075238D01*
X158174762Y-109980000D01*
X158317620Y-109932381D01*
X158412858Y-109932381D01*
X158555715Y-109980000D01*
X158603334Y-110027619D01*
X159555715Y-110932381D02*
X158984286Y-110932381D01*
X159270000Y-110932381D02*
X159270000Y-109932381D01*
X159174762Y-110075238D01*
X159079524Y-110170476D01*
X158984286Y-110218095D01*
X150983334Y-110837143D02*
X150935715Y-110884762D01*
X150792858Y-110932381D01*
X150697620Y-110932381D01*
X150554762Y-110884762D01*
X150459524Y-110789524D01*
X150411905Y-110694286D01*
X150364286Y-110503810D01*
X150364286Y-110360952D01*
X150411905Y-110170476D01*
X150459524Y-110075238D01*
X150554762Y-109980000D01*
X150697620Y-109932381D01*
X150792858Y-109932381D01*
X150935715Y-109980000D01*
X150983334Y-110027619D01*
X151364286Y-110027619D02*
X151411905Y-109980000D01*
X151507143Y-109932381D01*
X151745239Y-109932381D01*
X151840477Y-109980000D01*
X151888096Y-110027619D01*
X151935715Y-110122857D01*
X151935715Y-110218095D01*
X151888096Y-110360952D01*
X151316667Y-110932381D01*
X151935715Y-110932381D01*
X140057143Y-96686666D02*
X140104762Y-96734285D01*
X140152381Y-96877142D01*
X140152381Y-96972380D01*
X140104762Y-97115238D01*
X140009524Y-97210476D01*
X139914286Y-97258095D01*
X139723810Y-97305714D01*
X139580952Y-97305714D01*
X139390476Y-97258095D01*
X139295238Y-97210476D01*
X139200000Y-97115238D01*
X139152381Y-96972380D01*
X139152381Y-96877142D01*
X139200000Y-96734285D01*
X139247619Y-96686666D01*
X139152381Y-96353333D02*
X139152381Y-95734285D01*
X139533333Y-96067619D01*
X139533333Y-95924761D01*
X139580952Y-95829523D01*
X139628571Y-95781904D01*
X139723810Y-95734285D01*
X139961905Y-95734285D01*
X140057143Y-95781904D01*
X140104762Y-95829523D01*
X140152381Y-95924761D01*
X140152381Y-96210476D01*
X140104762Y-96305714D01*
X140057143Y-96353333D01*
X170537143Y-96686666D02*
X170584762Y-96734285D01*
X170632381Y-96877142D01*
X170632381Y-96972380D01*
X170584762Y-97115238D01*
X170489524Y-97210476D01*
X170394286Y-97258095D01*
X170203810Y-97305714D01*
X170060952Y-97305714D01*
X169870476Y-97258095D01*
X169775238Y-97210476D01*
X169680000Y-97115238D01*
X169632381Y-96972380D01*
X169632381Y-96877142D01*
X169680000Y-96734285D01*
X169727619Y-96686666D01*
X169965714Y-95829523D02*
X170632381Y-95829523D01*
X169584762Y-96067619D02*
X170299048Y-96305714D01*
X170299048Y-95686666D01*
X184507143Y-93384666D02*
X184554762Y-93432285D01*
X184602381Y-93575142D01*
X184602381Y-93670380D01*
X184554762Y-93813238D01*
X184459524Y-93908476D01*
X184364286Y-93956095D01*
X184173810Y-94003714D01*
X184030952Y-94003714D01*
X183840476Y-93956095D01*
X183745238Y-93908476D01*
X183650000Y-93813238D01*
X183602381Y-93670380D01*
X183602381Y-93575142D01*
X183650000Y-93432285D01*
X183697619Y-93384666D01*
X183602381Y-92479904D02*
X183602381Y-92956095D01*
X184078571Y-93003714D01*
X184030952Y-92956095D01*
X183983333Y-92860857D01*
X183983333Y-92622761D01*
X184030952Y-92527523D01*
X184078571Y-92479904D01*
X184173810Y-92432285D01*
X184411905Y-92432285D01*
X184507143Y-92479904D01*
X184554762Y-92527523D01*
X184602381Y-92622761D01*
X184602381Y-92860857D01*
X184554762Y-92956095D01*
X184507143Y-93003714D01*
X194667143Y-95416666D02*
X194714762Y-95464285D01*
X194762381Y-95607142D01*
X194762381Y-95702380D01*
X194714762Y-95845238D01*
X194619524Y-95940476D01*
X194524286Y-95988095D01*
X194333810Y-96035714D01*
X194190952Y-96035714D01*
X194000476Y-95988095D01*
X193905238Y-95940476D01*
X193810000Y-95845238D01*
X193762381Y-95702380D01*
X193762381Y-95607142D01*
X193810000Y-95464285D01*
X193857619Y-95416666D01*
X193762381Y-94559523D02*
X193762381Y-94750000D01*
X193810000Y-94845238D01*
X193857619Y-94892857D01*
X194000476Y-94988095D01*
X194190952Y-95035714D01*
X194571905Y-95035714D01*
X194667143Y-94988095D01*
X194714762Y-94940476D01*
X194762381Y-94845238D01*
X194762381Y-94654761D01*
X194714762Y-94559523D01*
X194667143Y-94511904D01*
X194571905Y-94464285D01*
X194333810Y-94464285D01*
X194238571Y-94511904D01*
X194190952Y-94559523D01*
X194143333Y-94654761D01*
X194143333Y-94845238D01*
X194190952Y-94940476D01*
X194238571Y-94988095D01*
X194333810Y-95035714D01*
X200493334Y-104497143D02*
X200445715Y-104544762D01*
X200302858Y-104592381D01*
X200207620Y-104592381D01*
X200064762Y-104544762D01*
X199969524Y-104449524D01*
X199921905Y-104354286D01*
X199874286Y-104163810D01*
X199874286Y-104020952D01*
X199921905Y-103830476D01*
X199969524Y-103735238D01*
X200064762Y-103640000D01*
X200207620Y-103592381D01*
X200302858Y-103592381D01*
X200445715Y-103640000D01*
X200493334Y-103687619D01*
X200826667Y-103592381D02*
X201493334Y-103592381D01*
X201064762Y-104592381D01*
X200493334Y-101957143D02*
X200445715Y-102004762D01*
X200302858Y-102052381D01*
X200207620Y-102052381D01*
X200064762Y-102004762D01*
X199969524Y-101909524D01*
X199921905Y-101814286D01*
X199874286Y-101623810D01*
X199874286Y-101480952D01*
X199921905Y-101290476D01*
X199969524Y-101195238D01*
X200064762Y-101100000D01*
X200207620Y-101052381D01*
X200302858Y-101052381D01*
X200445715Y-101100000D01*
X200493334Y-101147619D01*
X201064762Y-101480952D02*
X200969524Y-101433333D01*
X200921905Y-101385714D01*
X200874286Y-101290476D01*
X200874286Y-101242857D01*
X200921905Y-101147619D01*
X200969524Y-101100000D01*
X201064762Y-101052381D01*
X201255239Y-101052381D01*
X201350477Y-101100000D01*
X201398096Y-101147619D01*
X201445715Y-101242857D01*
X201445715Y-101290476D01*
X201398096Y-101385714D01*
X201350477Y-101433333D01*
X201255239Y-101480952D01*
X201064762Y-101480952D01*
X200969524Y-101528571D01*
X200921905Y-101576190D01*
X200874286Y-101671429D01*
X200874286Y-101861905D01*
X200921905Y-101957143D01*
X200969524Y-102004762D01*
X201064762Y-102052381D01*
X201255239Y-102052381D01*
X201350477Y-102004762D01*
X201398096Y-101957143D01*
X201445715Y-101861905D01*
X201445715Y-101671429D01*
X201398096Y-101576190D01*
X201350477Y-101528571D01*
X201255239Y-101480952D01*
X200493334Y-107291143D02*
X200445715Y-107338762D01*
X200302858Y-107386381D01*
X200207620Y-107386381D01*
X200064762Y-107338762D01*
X199969524Y-107243524D01*
X199921905Y-107148286D01*
X199874286Y-106957810D01*
X199874286Y-106814952D01*
X199921905Y-106624476D01*
X199969524Y-106529238D01*
X200064762Y-106434000D01*
X200207620Y-106386381D01*
X200302858Y-106386381D01*
X200445715Y-106434000D01*
X200493334Y-106481619D01*
X200969524Y-107386381D02*
X201160000Y-107386381D01*
X201255239Y-107338762D01*
X201302858Y-107291143D01*
X201398096Y-107148286D01*
X201445715Y-106957810D01*
X201445715Y-106576857D01*
X201398096Y-106481619D01*
X201350477Y-106434000D01*
X201255239Y-106386381D01*
X201064762Y-106386381D01*
X200969524Y-106434000D01*
X200921905Y-106481619D01*
X200874286Y-106576857D01*
X200874286Y-106814952D01*
X200921905Y-106910190D01*
X200969524Y-106957810D01*
X201064762Y-107005429D01*
X201255239Y-107005429D01*
X201350477Y-106957810D01*
X201398096Y-106910190D01*
X201445715Y-106814952D01*
X181967143Y-93352857D02*
X182014762Y-93400476D01*
X182062381Y-93543333D01*
X182062381Y-93638571D01*
X182014762Y-93781429D01*
X181919524Y-93876667D01*
X181824286Y-93924286D01*
X181633810Y-93971905D01*
X181490952Y-93971905D01*
X181300476Y-93924286D01*
X181205238Y-93876667D01*
X181110000Y-93781429D01*
X181062381Y-93638571D01*
X181062381Y-93543333D01*
X181110000Y-93400476D01*
X181157619Y-93352857D01*
X182062381Y-92400476D02*
X182062381Y-92971905D01*
X182062381Y-92686191D02*
X181062381Y-92686191D01*
X181205238Y-92781429D01*
X181300476Y-92876667D01*
X181348095Y-92971905D01*
X181062381Y-91781429D02*
X181062381Y-91686190D01*
X181110000Y-91590952D01*
X181157619Y-91543333D01*
X181252857Y-91495714D01*
X181443333Y-91448095D01*
X181681429Y-91448095D01*
X181871905Y-91495714D01*
X181967143Y-91543333D01*
X182014762Y-91590952D01*
X182062381Y-91686190D01*
X182062381Y-91781429D01*
X182014762Y-91876667D01*
X181967143Y-91924286D01*
X181871905Y-91971905D01*
X181681429Y-92019524D01*
X181443333Y-92019524D01*
X181252857Y-91971905D01*
X181157619Y-91924286D01*
X181110000Y-91876667D01*
X181062381Y-91781429D01*
X178173143Y-101957143D02*
X178125524Y-102004762D01*
X177982667Y-102052381D01*
X177887429Y-102052381D01*
X177744571Y-102004762D01*
X177649333Y-101909524D01*
X177601714Y-101814286D01*
X177554095Y-101623810D01*
X177554095Y-101480952D01*
X177601714Y-101290476D01*
X177649333Y-101195238D01*
X177744571Y-101100000D01*
X177887429Y-101052381D01*
X177982667Y-101052381D01*
X178125524Y-101100000D01*
X178173143Y-101147619D01*
X179125524Y-102052381D02*
X178554095Y-102052381D01*
X178839809Y-102052381D02*
X178839809Y-101052381D01*
X178744571Y-101195238D01*
X178649333Y-101290476D01*
X178554095Y-101338095D01*
X180077905Y-102052381D02*
X179506476Y-102052381D01*
X179792190Y-102052381D02*
X179792190Y-101052381D01*
X179696952Y-101195238D01*
X179601714Y-101290476D01*
X179506476Y-101338095D01*
X185777143Y-118752857D02*
X185824762Y-118800476D01*
X185872381Y-118943333D01*
X185872381Y-119038571D01*
X185824762Y-119181429D01*
X185729524Y-119276667D01*
X185634286Y-119324286D01*
X185443810Y-119371905D01*
X185300952Y-119371905D01*
X185110476Y-119324286D01*
X185015238Y-119276667D01*
X184920000Y-119181429D01*
X184872381Y-119038571D01*
X184872381Y-118943333D01*
X184920000Y-118800476D01*
X184967619Y-118752857D01*
X185872381Y-117800476D02*
X185872381Y-118371905D01*
X185872381Y-118086191D02*
X184872381Y-118086191D01*
X185015238Y-118181429D01*
X185110476Y-118276667D01*
X185158095Y-118371905D01*
X184967619Y-117419524D02*
X184920000Y-117371905D01*
X184872381Y-117276667D01*
X184872381Y-117038571D01*
X184920000Y-116943333D01*
X184967619Y-116895714D01*
X185062857Y-116848095D01*
X185158095Y-116848095D01*
X185300952Y-116895714D01*
X185872381Y-117467143D01*
X185872381Y-116848095D01*
X188571143Y-118752857D02*
X188618762Y-118800476D01*
X188666381Y-118943333D01*
X188666381Y-119038571D01*
X188618762Y-119181429D01*
X188523524Y-119276667D01*
X188428286Y-119324286D01*
X188237810Y-119371905D01*
X188094952Y-119371905D01*
X187904476Y-119324286D01*
X187809238Y-119276667D01*
X187714000Y-119181429D01*
X187666381Y-119038571D01*
X187666381Y-118943333D01*
X187714000Y-118800476D01*
X187761619Y-118752857D01*
X188666381Y-117800476D02*
X188666381Y-118371905D01*
X188666381Y-118086191D02*
X187666381Y-118086191D01*
X187809238Y-118181429D01*
X187904476Y-118276667D01*
X187952095Y-118371905D01*
X187666381Y-117467143D02*
X187666381Y-116848095D01*
X188047333Y-117181429D01*
X188047333Y-117038571D01*
X188094952Y-116943333D01*
X188142571Y-116895714D01*
X188237810Y-116848095D01*
X188475905Y-116848095D01*
X188571143Y-116895714D01*
X188618762Y-116943333D01*
X188666381Y-117038571D01*
X188666381Y-117324286D01*
X188618762Y-117419524D01*
X188571143Y-117467143D01*
X190857143Y-118752857D02*
X190904762Y-118800476D01*
X190952381Y-118943333D01*
X190952381Y-119038571D01*
X190904762Y-119181429D01*
X190809524Y-119276667D01*
X190714286Y-119324286D01*
X190523810Y-119371905D01*
X190380952Y-119371905D01*
X190190476Y-119324286D01*
X190095238Y-119276667D01*
X190000000Y-119181429D01*
X189952381Y-119038571D01*
X189952381Y-118943333D01*
X190000000Y-118800476D01*
X190047619Y-118752857D01*
X190952381Y-117800476D02*
X190952381Y-118371905D01*
X190952381Y-118086191D02*
X189952381Y-118086191D01*
X190095238Y-118181429D01*
X190190476Y-118276667D01*
X190238095Y-118371905D01*
X190285714Y-116943333D02*
X190952381Y-116943333D01*
X189904762Y-117181429D02*
X190619048Y-117419524D01*
X190619048Y-116800476D01*
X182237143Y-134977143D02*
X182189524Y-135024762D01*
X182046667Y-135072381D01*
X181951429Y-135072381D01*
X181808571Y-135024762D01*
X181713333Y-134929524D01*
X181665714Y-134834286D01*
X181618095Y-134643810D01*
X181618095Y-134500952D01*
X181665714Y-134310476D01*
X181713333Y-134215238D01*
X181808571Y-134120000D01*
X181951429Y-134072381D01*
X182046667Y-134072381D01*
X182189524Y-134120000D01*
X182237143Y-134167619D01*
X183189524Y-135072381D02*
X182618095Y-135072381D01*
X182903809Y-135072381D02*
X182903809Y-134072381D01*
X182808571Y-134215238D01*
X182713333Y-134310476D01*
X182618095Y-134358095D01*
X184046667Y-134072381D02*
X183856190Y-134072381D01*
X183760952Y-134120000D01*
X183713333Y-134167619D01*
X183618095Y-134310476D01*
X183570476Y-134500952D01*
X183570476Y-134881905D01*
X183618095Y-134977143D01*
X183665714Y-135024762D01*
X183760952Y-135072381D01*
X183951429Y-135072381D01*
X184046667Y-135024762D01*
X184094286Y-134977143D01*
X184141905Y-134881905D01*
X184141905Y-134643810D01*
X184094286Y-134548571D01*
X184046667Y-134500952D01*
X183951429Y-134453333D01*
X183760952Y-134453333D01*
X183665714Y-134500952D01*
X183618095Y-134548571D01*
X183570476Y-134643810D01*
X127357143Y-136532857D02*
X127404762Y-136580476D01*
X127452381Y-136723333D01*
X127452381Y-136818571D01*
X127404762Y-136961429D01*
X127309524Y-137056667D01*
X127214286Y-137104286D01*
X127023810Y-137151905D01*
X126880952Y-137151905D01*
X126690476Y-137104286D01*
X126595238Y-137056667D01*
X126500000Y-136961429D01*
X126452381Y-136818571D01*
X126452381Y-136723333D01*
X126500000Y-136580476D01*
X126547619Y-136532857D01*
X127452381Y-135580476D02*
X127452381Y-136151905D01*
X127452381Y-135866191D02*
X126452381Y-135866191D01*
X126595238Y-135961429D01*
X126690476Y-136056667D01*
X126738095Y-136151905D01*
X126452381Y-135247143D02*
X126452381Y-134580476D01*
X127452381Y-135009048D01*
X123547143Y-136532857D02*
X123594762Y-136580476D01*
X123642381Y-136723333D01*
X123642381Y-136818571D01*
X123594762Y-136961429D01*
X123499524Y-137056667D01*
X123404286Y-137104286D01*
X123213810Y-137151905D01*
X123070952Y-137151905D01*
X122880476Y-137104286D01*
X122785238Y-137056667D01*
X122690000Y-136961429D01*
X122642381Y-136818571D01*
X122642381Y-136723333D01*
X122690000Y-136580476D01*
X122737619Y-136532857D01*
X123642381Y-135580476D02*
X123642381Y-136151905D01*
X123642381Y-135866191D02*
X122642381Y-135866191D01*
X122785238Y-135961429D01*
X122880476Y-136056667D01*
X122928095Y-136151905D01*
X123070952Y-135009048D02*
X123023333Y-135104286D01*
X122975714Y-135151905D01*
X122880476Y-135199524D01*
X122832857Y-135199524D01*
X122737619Y-135151905D01*
X122690000Y-135104286D01*
X122642381Y-135009048D01*
X122642381Y-134818571D01*
X122690000Y-134723333D01*
X122737619Y-134675714D01*
X122832857Y-134628095D01*
X122880476Y-134628095D01*
X122975714Y-134675714D01*
X123023333Y-134723333D01*
X123070952Y-134818571D01*
X123070952Y-135009048D01*
X123118571Y-135104286D01*
X123166190Y-135151905D01*
X123261429Y-135199524D01*
X123451905Y-135199524D01*
X123547143Y-135151905D01*
X123594762Y-135104286D01*
X123642381Y-135009048D01*
X123642381Y-134818571D01*
X123594762Y-134723333D01*
X123547143Y-134675714D01*
X123451905Y-134628095D01*
X123261429Y-134628095D01*
X123166190Y-134675714D01*
X123118571Y-134723333D01*
X123070952Y-134818571D01*
X200017143Y-110847143D02*
X199969524Y-110894762D01*
X199826667Y-110942381D01*
X199731429Y-110942381D01*
X199588571Y-110894762D01*
X199493333Y-110799524D01*
X199445714Y-110704286D01*
X199398095Y-110513810D01*
X199398095Y-110370952D01*
X199445714Y-110180476D01*
X199493333Y-110085238D01*
X199588571Y-109990000D01*
X199731429Y-109942381D01*
X199826667Y-109942381D01*
X199969524Y-109990000D01*
X200017143Y-110037619D01*
X200969524Y-110942381D02*
X200398095Y-110942381D01*
X200683809Y-110942381D02*
X200683809Y-109942381D01*
X200588571Y-110085238D01*
X200493333Y-110180476D01*
X200398095Y-110228095D01*
X201445714Y-110942381D02*
X201636190Y-110942381D01*
X201731429Y-110894762D01*
X201779048Y-110847143D01*
X201874286Y-110704286D01*
X201921905Y-110513810D01*
X201921905Y-110132857D01*
X201874286Y-110037619D01*
X201826667Y-109990000D01*
X201731429Y-109942381D01*
X201540952Y-109942381D01*
X201445714Y-109990000D01*
X201398095Y-110037619D01*
X201350476Y-110132857D01*
X201350476Y-110370952D01*
X201398095Y-110466190D01*
X201445714Y-110513810D01*
X201540952Y-110561429D01*
X201731429Y-110561429D01*
X201826667Y-110513810D01*
X201874286Y-110466190D01*
X201921905Y-110370952D01*
X127547619Y-107791238D02*
X127500000Y-107886476D01*
X127404762Y-107981714D01*
X127261905Y-108124571D01*
X127214286Y-108219810D01*
X127214286Y-108315048D01*
X127452381Y-108267429D02*
X127404762Y-108362667D01*
X127309524Y-108457905D01*
X127119048Y-108505524D01*
X126785714Y-108505524D01*
X126595238Y-108457905D01*
X126500000Y-108362667D01*
X126452381Y-108267429D01*
X126452381Y-108076952D01*
X126500000Y-107981714D01*
X126595238Y-107886476D01*
X126785714Y-107838857D01*
X127119048Y-107838857D01*
X127309524Y-107886476D01*
X127404762Y-107981714D01*
X127452381Y-108076952D01*
X127452381Y-108267429D01*
X127452381Y-106886476D02*
X127452381Y-107457905D01*
X127452381Y-107172191D02*
X126452381Y-107172191D01*
X126595238Y-107267429D01*
X126690476Y-107362667D01*
X126738095Y-107457905D01*
X163012381Y-117006666D02*
X162536190Y-117340000D01*
X163012381Y-117578095D02*
X162012381Y-117578095D01*
X162012381Y-117197142D01*
X162060000Y-117101904D01*
X162107619Y-117054285D01*
X162202857Y-117006666D01*
X162345714Y-117006666D01*
X162440952Y-117054285D01*
X162488571Y-117101904D01*
X162536190Y-117197142D01*
X162536190Y-117578095D01*
X163012381Y-116054285D02*
X163012381Y-116625714D01*
X163012381Y-116340000D02*
X162012381Y-116340000D01*
X162155238Y-116435238D01*
X162250476Y-116530476D01*
X162298095Y-116625714D01*
X164552381Y-116887619D02*
X164552381Y-116792380D01*
X164600000Y-116697142D01*
X164647619Y-116649523D01*
X164742857Y-116601904D01*
X164933333Y-116554285D01*
X165171429Y-116554285D01*
X165361905Y-116601904D01*
X165457143Y-116649523D01*
X165504762Y-116697142D01*
X165552381Y-116792380D01*
X165552381Y-116887619D01*
X165504762Y-116982857D01*
X165457143Y-117030476D01*
X165361905Y-117078095D01*
X165171429Y-117125714D01*
X164933333Y-117125714D01*
X164742857Y-117078095D01*
X164647619Y-117030476D01*
X164600000Y-116982857D01*
X164552381Y-116887619D01*
X140152381Y-117006666D02*
X139676190Y-117340000D01*
X140152381Y-117578095D02*
X139152381Y-117578095D01*
X139152381Y-117197142D01*
X139200000Y-117101904D01*
X139247619Y-117054285D01*
X139342857Y-117006666D01*
X139485714Y-117006666D01*
X139580952Y-117054285D01*
X139628571Y-117101904D01*
X139676190Y-117197142D01*
X139676190Y-117578095D01*
X139247619Y-116625714D02*
X139200000Y-116578095D01*
X139152381Y-116482857D01*
X139152381Y-116244761D01*
X139200000Y-116149523D01*
X139247619Y-116101904D01*
X139342857Y-116054285D01*
X139438095Y-116054285D01*
X139580952Y-116101904D01*
X140152381Y-116673333D01*
X140152381Y-116054285D01*
X141692381Y-116887619D02*
X141692381Y-116792380D01*
X141740000Y-116697142D01*
X141787619Y-116649523D01*
X141882857Y-116601904D01*
X142073333Y-116554285D01*
X142311429Y-116554285D01*
X142501905Y-116601904D01*
X142597143Y-116649523D01*
X142644762Y-116697142D01*
X142692381Y-116792380D01*
X142692381Y-116887619D01*
X142644762Y-116982857D01*
X142597143Y-117030476D01*
X142501905Y-117078095D01*
X142311429Y-117125714D01*
X142073333Y-117125714D01*
X141882857Y-117078095D01*
X141787619Y-117030476D01*
X141740000Y-116982857D01*
X141692381Y-116887619D01*
X170013334Y-110942381D02*
X169680000Y-110466190D01*
X169441905Y-110942381D02*
X169441905Y-109942381D01*
X169822858Y-109942381D01*
X169918096Y-109990000D01*
X169965715Y-110037619D01*
X170013334Y-110132857D01*
X170013334Y-110275714D01*
X169965715Y-110370952D01*
X169918096Y-110418571D01*
X169822858Y-110466190D01*
X169441905Y-110466190D01*
X170346667Y-109942381D02*
X170965715Y-109942381D01*
X170632381Y-110323333D01*
X170775239Y-110323333D01*
X170870477Y-110370952D01*
X170918096Y-110418571D01*
X170965715Y-110513810D01*
X170965715Y-110751905D01*
X170918096Y-110847143D01*
X170870477Y-110894762D01*
X170775239Y-110942381D01*
X170489524Y-110942381D01*
X170394286Y-110894762D01*
X170346667Y-110847143D01*
X169013334Y-108402381D02*
X168441905Y-108402381D01*
X168727619Y-108402381D02*
X168727619Y-107402381D01*
X168632381Y-107545238D01*
X168537143Y-107640476D01*
X168441905Y-107688095D01*
X169632381Y-107402381D02*
X169727620Y-107402381D01*
X169822858Y-107450000D01*
X169870477Y-107497619D01*
X169918096Y-107592857D01*
X169965715Y-107783333D01*
X169965715Y-108021429D01*
X169918096Y-108211905D01*
X169870477Y-108307143D01*
X169822858Y-108354762D01*
X169727620Y-108402381D01*
X169632381Y-108402381D01*
X169537143Y-108354762D01*
X169489524Y-108307143D01*
X169441905Y-108211905D01*
X169394286Y-108021429D01*
X169394286Y-107783333D01*
X169441905Y-107592857D01*
X169489524Y-107497619D01*
X169537143Y-107450000D01*
X169632381Y-107402381D01*
X170584762Y-107402381D02*
X170680001Y-107402381D01*
X170775239Y-107450000D01*
X170822858Y-107497619D01*
X170870477Y-107592857D01*
X170918096Y-107783333D01*
X170918096Y-108021429D01*
X170870477Y-108211905D01*
X170822858Y-108307143D01*
X170775239Y-108354762D01*
X170680001Y-108402381D01*
X170584762Y-108402381D01*
X170489524Y-108354762D01*
X170441905Y-108307143D01*
X170394286Y-108211905D01*
X170346667Y-108021429D01*
X170346667Y-107783333D01*
X170394286Y-107592857D01*
X170441905Y-107497619D01*
X170489524Y-107450000D01*
X170584762Y-107402381D01*
X171346667Y-108402381D02*
X171346667Y-107402381D01*
X171918096Y-108402381D02*
X171489524Y-107830952D01*
X171918096Y-107402381D02*
X171346667Y-107973810D01*
X170013334Y-102052381D02*
X169680000Y-101576190D01*
X169441905Y-102052381D02*
X169441905Y-101052381D01*
X169822858Y-101052381D01*
X169918096Y-101100000D01*
X169965715Y-101147619D01*
X170013334Y-101242857D01*
X170013334Y-101385714D01*
X169965715Y-101480952D01*
X169918096Y-101528571D01*
X169822858Y-101576190D01*
X169441905Y-101576190D01*
X170870477Y-101385714D02*
X170870477Y-102052381D01*
X170632381Y-101004762D02*
X170394286Y-101719048D01*
X171013334Y-101719048D01*
X169394286Y-103925714D02*
X169394286Y-104592381D01*
X169156190Y-103544762D02*
X168918095Y-104259048D01*
X169537143Y-104259048D01*
X169918095Y-104592381D02*
X169918095Y-103592381D01*
X170489524Y-104592381D02*
X170060952Y-104020952D01*
X170489524Y-103592381D02*
X169918095Y-104163810D01*
X170822857Y-103592381D02*
X171489524Y-103592381D01*
X171060952Y-104592381D01*
X190952381Y-122086666D02*
X190476190Y-122420000D01*
X190952381Y-122658095D02*
X189952381Y-122658095D01*
X189952381Y-122277142D01*
X190000000Y-122181904D01*
X190047619Y-122134285D01*
X190142857Y-122086666D01*
X190285714Y-122086666D01*
X190380952Y-122134285D01*
X190428571Y-122181904D01*
X190476190Y-122277142D01*
X190476190Y-122658095D01*
X189952381Y-121181904D02*
X189952381Y-121658095D01*
X190428571Y-121705714D01*
X190380952Y-121658095D01*
X190333333Y-121562857D01*
X190333333Y-121324761D01*
X190380952Y-121229523D01*
X190428571Y-121181904D01*
X190523810Y-121134285D01*
X190761905Y-121134285D01*
X190857143Y-121181904D01*
X190904762Y-121229523D01*
X190952381Y-121324761D01*
X190952381Y-121562857D01*
X190904762Y-121658095D01*
X190857143Y-121705714D01*
X190952381Y-129730476D02*
X190952381Y-130301905D01*
X190952381Y-130016191D02*
X189952381Y-130016191D01*
X190095238Y-130111429D01*
X190190476Y-130206667D01*
X190238095Y-130301905D01*
X189952381Y-129111429D02*
X189952381Y-129016190D01*
X190000000Y-128920952D01*
X190047619Y-128873333D01*
X190142857Y-128825714D01*
X190333333Y-128778095D01*
X190571429Y-128778095D01*
X190761905Y-128825714D01*
X190857143Y-128873333D01*
X190904762Y-128920952D01*
X190952381Y-129016190D01*
X190952381Y-129111429D01*
X190904762Y-129206667D01*
X190857143Y-129254286D01*
X190761905Y-129301905D01*
X190571429Y-129349524D01*
X190333333Y-129349524D01*
X190142857Y-129301905D01*
X190047619Y-129254286D01*
X190000000Y-129206667D01*
X189952381Y-129111429D01*
X127452381Y-115736666D02*
X126976190Y-116070000D01*
X127452381Y-116308095D02*
X126452381Y-116308095D01*
X126452381Y-115927142D01*
X126500000Y-115831904D01*
X126547619Y-115784285D01*
X126642857Y-115736666D01*
X126785714Y-115736666D01*
X126880952Y-115784285D01*
X126928571Y-115831904D01*
X126976190Y-115927142D01*
X126976190Y-116308095D01*
X126452381Y-114879523D02*
X126452381Y-115070000D01*
X126500000Y-115165238D01*
X126547619Y-115212857D01*
X126690476Y-115308095D01*
X126880952Y-115355714D01*
X127261905Y-115355714D01*
X127357143Y-115308095D01*
X127404762Y-115260476D01*
X127452381Y-115165238D01*
X127452381Y-114974761D01*
X127404762Y-114879523D01*
X127357143Y-114831904D01*
X127261905Y-114784285D01*
X127023810Y-114784285D01*
X126928571Y-114831904D01*
X126880952Y-114879523D01*
X126833333Y-114974761D01*
X126833333Y-115165238D01*
X126880952Y-115260476D01*
X126928571Y-115308095D01*
X127023810Y-115355714D01*
X126547619Y-123951905D02*
X126500000Y-123904286D01*
X126452381Y-123809048D01*
X126452381Y-123570952D01*
X126500000Y-123475714D01*
X126547619Y-123428095D01*
X126642857Y-123380476D01*
X126738095Y-123380476D01*
X126880952Y-123428095D01*
X127452381Y-123999524D01*
X127452381Y-123380476D01*
X126452381Y-122761429D02*
X126452381Y-122666190D01*
X126500000Y-122570952D01*
X126547619Y-122523333D01*
X126642857Y-122475714D01*
X126833333Y-122428095D01*
X127071429Y-122428095D01*
X127261905Y-122475714D01*
X127357143Y-122523333D01*
X127404762Y-122570952D01*
X127452381Y-122666190D01*
X127452381Y-122761429D01*
X127404762Y-122856667D01*
X127357143Y-122904286D01*
X127261905Y-122951905D01*
X127071429Y-122999524D01*
X126833333Y-122999524D01*
X126642857Y-122951905D01*
X126547619Y-122904286D01*
X126500000Y-122856667D01*
X126452381Y-122761429D01*
X123642381Y-115736666D02*
X123166190Y-116070000D01*
X123642381Y-116308095D02*
X122642381Y-116308095D01*
X122642381Y-115927142D01*
X122690000Y-115831904D01*
X122737619Y-115784285D01*
X122832857Y-115736666D01*
X122975714Y-115736666D01*
X123070952Y-115784285D01*
X123118571Y-115831904D01*
X123166190Y-115927142D01*
X123166190Y-116308095D01*
X122642381Y-115403333D02*
X122642381Y-114736666D01*
X123642381Y-115165238D01*
X122737619Y-123951905D02*
X122690000Y-123904286D01*
X122642381Y-123809048D01*
X122642381Y-123570952D01*
X122690000Y-123475714D01*
X122737619Y-123428095D01*
X122832857Y-123380476D01*
X122928095Y-123380476D01*
X123070952Y-123428095D01*
X123642381Y-123999524D01*
X123642381Y-123380476D01*
X122642381Y-122761429D02*
X122642381Y-122666190D01*
X122690000Y-122570952D01*
X122737619Y-122523333D01*
X122832857Y-122475714D01*
X123023333Y-122428095D01*
X123261429Y-122428095D01*
X123451905Y-122475714D01*
X123547143Y-122523333D01*
X123594762Y-122570952D01*
X123642381Y-122666190D01*
X123642381Y-122761429D01*
X123594762Y-122856667D01*
X123547143Y-122904286D01*
X123451905Y-122951905D01*
X123261429Y-122999524D01*
X123023333Y-122999524D01*
X122832857Y-122951905D01*
X122737619Y-122904286D01*
X122690000Y-122856667D01*
X122642381Y-122761429D01*
X203795334Y-112212381D02*
X203462000Y-111736190D01*
X203223905Y-112212381D02*
X203223905Y-111212381D01*
X203604858Y-111212381D01*
X203700096Y-111260000D01*
X203747715Y-111307619D01*
X203795334Y-111402857D01*
X203795334Y-111545714D01*
X203747715Y-111640952D01*
X203700096Y-111688571D01*
X203604858Y-111736190D01*
X203223905Y-111736190D01*
X204366762Y-111640952D02*
X204271524Y-111593333D01*
X204223905Y-111545714D01*
X204176286Y-111450476D01*
X204176286Y-111402857D01*
X204223905Y-111307619D01*
X204271524Y-111260000D01*
X204366762Y-111212381D01*
X204557239Y-111212381D01*
X204652477Y-111260000D01*
X204700096Y-111307619D01*
X204747715Y-111402857D01*
X204747715Y-111450476D01*
X204700096Y-111545714D01*
X204652477Y-111593333D01*
X204557239Y-111640952D01*
X204366762Y-111640952D01*
X204271524Y-111688571D01*
X204223905Y-111736190D01*
X204176286Y-111831429D01*
X204176286Y-112021905D01*
X204223905Y-112117143D01*
X204271524Y-112164762D01*
X204366762Y-112212381D01*
X204557239Y-112212381D01*
X204652477Y-112164762D01*
X204700096Y-112117143D01*
X204747715Y-112021905D01*
X204747715Y-111831429D01*
X204700096Y-111736190D01*
X204652477Y-111688571D01*
X204557239Y-111640952D01*
X198223334Y-114752381D02*
X197651905Y-114752381D01*
X197937619Y-114752381D02*
X197937619Y-113752381D01*
X197842381Y-113895238D01*
X197747143Y-113990476D01*
X197651905Y-114038095D01*
X198842381Y-113752381D02*
X198937620Y-113752381D01*
X199032858Y-113800000D01*
X199080477Y-113847619D01*
X199128096Y-113942857D01*
X199175715Y-114133333D01*
X199175715Y-114371429D01*
X199128096Y-114561905D01*
X199080477Y-114657143D01*
X199032858Y-114704762D01*
X198937620Y-114752381D01*
X198842381Y-114752381D01*
X198747143Y-114704762D01*
X198699524Y-114657143D01*
X198651905Y-114561905D01*
X198604286Y-114371429D01*
X198604286Y-114133333D01*
X198651905Y-113942857D01*
X198699524Y-113847619D01*
X198747143Y-113800000D01*
X198842381Y-113752381D01*
X199794762Y-113752381D02*
X199890001Y-113752381D01*
X199985239Y-113800000D01*
X200032858Y-113847619D01*
X200080477Y-113942857D01*
X200128096Y-114133333D01*
X200128096Y-114371429D01*
X200080477Y-114561905D01*
X200032858Y-114657143D01*
X199985239Y-114704762D01*
X199890001Y-114752381D01*
X199794762Y-114752381D01*
X199699524Y-114704762D01*
X199651905Y-114657143D01*
X199604286Y-114561905D01*
X199556667Y-114371429D01*
X199556667Y-114133333D01*
X199604286Y-113942857D01*
X199651905Y-113847619D01*
X199699524Y-113800000D01*
X199794762Y-113752381D01*
X200556667Y-114752381D02*
X200556667Y-113752381D01*
X201128096Y-114752381D02*
X200699524Y-114180952D01*
X201128096Y-113752381D02*
X200556667Y-114323810D01*
X131516381Y-100242666D02*
X131040190Y-100576000D01*
X131516381Y-100814095D02*
X130516381Y-100814095D01*
X130516381Y-100433142D01*
X130564000Y-100337904D01*
X130611619Y-100290285D01*
X130706857Y-100242666D01*
X130849714Y-100242666D01*
X130944952Y-100290285D01*
X130992571Y-100337904D01*
X131040190Y-100433142D01*
X131040190Y-100814095D01*
X131516381Y-99766476D02*
X131516381Y-99576000D01*
X131468762Y-99480761D01*
X131421143Y-99433142D01*
X131278286Y-99337904D01*
X131087810Y-99290285D01*
X130706857Y-99290285D01*
X130611619Y-99337904D01*
X130564000Y-99385523D01*
X130516381Y-99480761D01*
X130516381Y-99671238D01*
X130564000Y-99766476D01*
X130611619Y-99814095D01*
X130706857Y-99861714D01*
X130944952Y-99861714D01*
X131040190Y-99814095D01*
X131087810Y-99766476D01*
X131135429Y-99671238D01*
X131135429Y-99480761D01*
X131087810Y-99385523D01*
X131040190Y-99337904D01*
X130944952Y-99290285D01*
X131262381Y-108640476D02*
X131262381Y-109211905D01*
X131262381Y-108926191D02*
X130262381Y-108926191D01*
X130405238Y-109021429D01*
X130500476Y-109116667D01*
X130548095Y-109211905D01*
X130262381Y-108021429D02*
X130262381Y-107926190D01*
X130310000Y-107830952D01*
X130357619Y-107783333D01*
X130452857Y-107735714D01*
X130643333Y-107688095D01*
X130881429Y-107688095D01*
X131071905Y-107735714D01*
X131167143Y-107783333D01*
X131214762Y-107830952D01*
X131262381Y-107926190D01*
X131262381Y-108021429D01*
X131214762Y-108116667D01*
X131167143Y-108164286D01*
X131071905Y-108211905D01*
X130881429Y-108259524D01*
X130643333Y-108259524D01*
X130452857Y-108211905D01*
X130357619Y-108164286D01*
X130310000Y-108116667D01*
X130262381Y-108021429D01*
X131262381Y-107259524D02*
X130262381Y-107259524D01*
X131262381Y-106688095D02*
X130690952Y-107116667D01*
X130262381Y-106688095D02*
X130833810Y-107259524D01*
X123388381Y-100210857D02*
X122912190Y-100544191D01*
X123388381Y-100782286D02*
X122388381Y-100782286D01*
X122388381Y-100401333D01*
X122436000Y-100306095D01*
X122483619Y-100258476D01*
X122578857Y-100210857D01*
X122721714Y-100210857D01*
X122816952Y-100258476D01*
X122864571Y-100306095D01*
X122912190Y-100401333D01*
X122912190Y-100782286D01*
X123388381Y-99258476D02*
X123388381Y-99829905D01*
X123388381Y-99544191D02*
X122388381Y-99544191D01*
X122531238Y-99639429D01*
X122626476Y-99734667D01*
X122674095Y-99829905D01*
X122388381Y-98639429D02*
X122388381Y-98544190D01*
X122436000Y-98448952D01*
X122483619Y-98401333D01*
X122578857Y-98353714D01*
X122769333Y-98306095D01*
X123007429Y-98306095D01*
X123197905Y-98353714D01*
X123293143Y-98401333D01*
X123340762Y-98448952D01*
X123388381Y-98544190D01*
X123388381Y-98639429D01*
X123340762Y-98734667D01*
X123293143Y-98782286D01*
X123197905Y-98829905D01*
X123007429Y-98877524D01*
X122769333Y-98877524D01*
X122578857Y-98829905D01*
X122483619Y-98782286D01*
X122436000Y-98734667D01*
X122388381Y-98639429D01*
X123642381Y-108640476D02*
X123642381Y-109211905D01*
X123642381Y-108926191D02*
X122642381Y-108926191D01*
X122785238Y-109021429D01*
X122880476Y-109116667D01*
X122928095Y-109211905D01*
X122642381Y-108021429D02*
X122642381Y-107926190D01*
X122690000Y-107830952D01*
X122737619Y-107783333D01*
X122832857Y-107735714D01*
X123023333Y-107688095D01*
X123261429Y-107688095D01*
X123451905Y-107735714D01*
X123547143Y-107783333D01*
X123594762Y-107830952D01*
X123642381Y-107926190D01*
X123642381Y-108021429D01*
X123594762Y-108116667D01*
X123547143Y-108164286D01*
X123451905Y-108211905D01*
X123261429Y-108259524D01*
X123023333Y-108259524D01*
X122832857Y-108211905D01*
X122737619Y-108164286D01*
X122690000Y-108116667D01*
X122642381Y-108021429D01*
X123642381Y-107259524D02*
X122642381Y-107259524D01*
X123642381Y-106688095D02*
X123070952Y-107116667D01*
X122642381Y-106688095D02*
X123213810Y-107259524D01*
X150368095Y-91654381D02*
X150368095Y-92463905D01*
X150415714Y-92559143D01*
X150463333Y-92606762D01*
X150558571Y-92654381D01*
X150749048Y-92654381D01*
X150844286Y-92606762D01*
X150891905Y-92559143D01*
X150939524Y-92463905D01*
X150939524Y-91654381D01*
X151939524Y-92654381D02*
X151368095Y-92654381D01*
X151653809Y-92654381D02*
X151653809Y-91654381D01*
X151558571Y-91797238D01*
X151463333Y-91892476D01*
X151368095Y-91940095D01*
X157988095Y-91654381D02*
X157988095Y-92463905D01*
X158035714Y-92559143D01*
X158083333Y-92606762D01*
X158178571Y-92654381D01*
X158369048Y-92654381D01*
X158464286Y-92606762D01*
X158511905Y-92559143D01*
X158559524Y-92463905D01*
X158559524Y-91654381D01*
X158988095Y-91749619D02*
X159035714Y-91702000D01*
X159130952Y-91654381D01*
X159369048Y-91654381D01*
X159464286Y-91702000D01*
X159511905Y-91749619D01*
X159559524Y-91844857D01*
X159559524Y-91940095D01*
X159511905Y-92082952D01*
X158940476Y-92654381D01*
X159559524Y-92654381D01*
X187150476Y-91146381D02*
X187817143Y-92146381D01*
X187817143Y-91146381D02*
X187150476Y-92146381D01*
X188721905Y-92146381D02*
X188150476Y-92146381D01*
X188436190Y-92146381D02*
X188436190Y-91146381D01*
X188340952Y-91289238D01*
X188245714Y-91384476D01*
X188150476Y-91432095D01*
M02*
