G04 #@! TF.GenerationSoftware,KiCad,Pcbnew,(5.1.6)-1*
G04 #@! TF.CreationDate,2020-12-31T21:45:04+08:00*
G04 #@! TF.ProjectId,vs1053-waveblaster-se,76733130-3533-42d7-9761-7665626c6173,C*
G04 #@! TF.SameCoordinates,Original*
G04 #@! TF.FileFunction,Legend,Top*
G04 #@! TF.FilePolarity,Positive*
%FSLAX46Y46*%
G04 Gerber Fmt 4.6, Leading zero omitted, Abs format (unit mm)*
G04 Created by KiCad (PCBNEW (5.1.6)-1) date 2020-12-31 21:45:04*
%MOMM*%
%LPD*%
G01*
G04 APERTURE LIST*
%ADD10C,0.150000*%
%ADD11C,0.187500*%
%ADD12C,0.125000*%
%ADD13C,0.300000*%
%ADD14C,0.200000*%
%ADD15C,0.120000*%
G04 APERTURE END LIST*
D10*
X122428000Y-101854000D02*
X122428000Y-97663000D01*
X130556000Y-101854000D02*
X122428000Y-101854000D01*
X130556000Y-97663000D02*
X130556000Y-101854000D01*
X122428000Y-97663000D02*
X130556000Y-97663000D01*
D11*
X138095714Y-120102380D02*
X138345714Y-121102380D01*
X138595714Y-120102380D01*
X138810000Y-121054761D02*
X138917142Y-121102380D01*
X139095714Y-121102380D01*
X139167142Y-121054761D01*
X139202857Y-121007142D01*
X139238571Y-120911904D01*
X139238571Y-120816666D01*
X139202857Y-120721428D01*
X139167142Y-120673809D01*
X139095714Y-120626190D01*
X138952857Y-120578571D01*
X138881428Y-120530952D01*
X138845714Y-120483333D01*
X138810000Y-120388095D01*
X138810000Y-120292857D01*
X138845714Y-120197619D01*
X138881428Y-120150000D01*
X138952857Y-120102380D01*
X139131428Y-120102380D01*
X139238571Y-120150000D01*
X139952857Y-121102380D02*
X139524285Y-121102380D01*
X139738571Y-121102380D02*
X139738571Y-120102380D01*
X139667142Y-120245238D01*
X139595714Y-120340476D01*
X139524285Y-120388095D01*
X140417142Y-120102380D02*
X140488571Y-120102380D01*
X140560000Y-120150000D01*
X140595714Y-120197619D01*
X140631428Y-120292857D01*
X140667142Y-120483333D01*
X140667142Y-120721428D01*
X140631428Y-120911904D01*
X140595714Y-121007142D01*
X140560000Y-121054761D01*
X140488571Y-121102380D01*
X140417142Y-121102380D01*
X140345714Y-121054761D01*
X140310000Y-121007142D01*
X140274285Y-120911904D01*
X140238571Y-120721428D01*
X140238571Y-120483333D01*
X140274285Y-120292857D01*
X140310000Y-120197619D01*
X140345714Y-120150000D01*
X140417142Y-120102380D01*
X141345714Y-120102380D02*
X140988571Y-120102380D01*
X140952857Y-120578571D01*
X140988571Y-120530952D01*
X141060000Y-120483333D01*
X141238571Y-120483333D01*
X141310000Y-120530952D01*
X141345714Y-120578571D01*
X141381428Y-120673809D01*
X141381428Y-120911904D01*
X141345714Y-121007142D01*
X141310000Y-121054761D01*
X141238571Y-121102380D01*
X141060000Y-121102380D01*
X140988571Y-121054761D01*
X140952857Y-121007142D01*
X141631428Y-120102380D02*
X142095714Y-120102380D01*
X141845714Y-120483333D01*
X141952857Y-120483333D01*
X142024285Y-120530952D01*
X142060000Y-120578571D01*
X142095714Y-120673809D01*
X142095714Y-120911904D01*
X142060000Y-121007142D01*
X142024285Y-121054761D01*
X141952857Y-121102380D01*
X141738571Y-121102380D01*
X141667142Y-121054761D01*
X141631428Y-121007142D01*
X142952857Y-120054761D02*
X142310000Y-121340476D01*
X143095714Y-120102380D02*
X143345714Y-121102380D01*
X143595714Y-120102380D01*
X143810000Y-121054761D02*
X143917142Y-121102380D01*
X144095714Y-121102380D01*
X144167142Y-121054761D01*
X144202857Y-121007142D01*
X144238571Y-120911904D01*
X144238571Y-120816666D01*
X144202857Y-120721428D01*
X144167142Y-120673809D01*
X144095714Y-120626190D01*
X143952857Y-120578571D01*
X143881428Y-120530952D01*
X143845714Y-120483333D01*
X143810000Y-120388095D01*
X143810000Y-120292857D01*
X143845714Y-120197619D01*
X143881428Y-120150000D01*
X143952857Y-120102380D01*
X144131428Y-120102380D01*
X144238571Y-120150000D01*
X144667142Y-120530952D02*
X144595714Y-120483333D01*
X144560000Y-120435714D01*
X144524285Y-120340476D01*
X144524285Y-120292857D01*
X144560000Y-120197619D01*
X144595714Y-120150000D01*
X144667142Y-120102380D01*
X144810000Y-120102380D01*
X144881428Y-120150000D01*
X144917142Y-120197619D01*
X144952857Y-120292857D01*
X144952857Y-120340476D01*
X144917142Y-120435714D01*
X144881428Y-120483333D01*
X144810000Y-120530952D01*
X144667142Y-120530952D01*
X144595714Y-120578571D01*
X144560000Y-120626190D01*
X144524285Y-120721428D01*
X144524285Y-120911904D01*
X144560000Y-121007142D01*
X144595714Y-121054761D01*
X144667142Y-121102380D01*
X144810000Y-121102380D01*
X144881428Y-121054761D01*
X144917142Y-121007142D01*
X144952857Y-120911904D01*
X144952857Y-120721428D01*
X144917142Y-120626190D01*
X144881428Y-120578571D01*
X144810000Y-120530952D01*
X145417142Y-120102380D02*
X145488571Y-120102380D01*
X145560000Y-120150000D01*
X145595714Y-120197619D01*
X145631428Y-120292857D01*
X145667142Y-120483333D01*
X145667142Y-120721428D01*
X145631428Y-120911904D01*
X145595714Y-121007142D01*
X145560000Y-121054761D01*
X145488571Y-121102380D01*
X145417142Y-121102380D01*
X145345714Y-121054761D01*
X145310000Y-121007142D01*
X145274285Y-120911904D01*
X145238571Y-120721428D01*
X145238571Y-120483333D01*
X145274285Y-120292857D01*
X145310000Y-120197619D01*
X145345714Y-120150000D01*
X145417142Y-120102380D01*
X146345714Y-120102380D02*
X145988571Y-120102380D01*
X145952857Y-120578571D01*
X145988571Y-120530952D01*
X146060000Y-120483333D01*
X146238571Y-120483333D01*
X146310000Y-120530952D01*
X146345714Y-120578571D01*
X146381428Y-120673809D01*
X146381428Y-120911904D01*
X146345714Y-121007142D01*
X146310000Y-121054761D01*
X146238571Y-121102380D01*
X146060000Y-121102380D01*
X145988571Y-121054761D01*
X145952857Y-121007142D01*
X146631428Y-120102380D02*
X147095714Y-120102380D01*
X146845714Y-120483333D01*
X146952857Y-120483333D01*
X147024285Y-120530952D01*
X147060000Y-120578571D01*
X147095714Y-120673809D01*
X147095714Y-120911904D01*
X147060000Y-121007142D01*
X147024285Y-121054761D01*
X146952857Y-121102380D01*
X146738571Y-121102380D01*
X146667142Y-121054761D01*
X146631428Y-121007142D01*
X147917142Y-120102380D02*
X148095714Y-121102380D01*
X148238571Y-120388095D01*
X148381428Y-121102380D01*
X148560000Y-120102380D01*
X148810000Y-120816666D02*
X149167142Y-120816666D01*
X148738571Y-121102380D02*
X148988571Y-120102380D01*
X149238571Y-121102380D01*
X149381428Y-120102380D02*
X149631428Y-121102380D01*
X149881428Y-120102380D01*
X150131428Y-120578571D02*
X150381428Y-120578571D01*
X150488571Y-121102380D02*
X150131428Y-121102380D01*
X150131428Y-120102380D01*
X150488571Y-120102380D01*
X151060000Y-120578571D02*
X151167142Y-120626190D01*
X151202857Y-120673809D01*
X151238571Y-120769047D01*
X151238571Y-120911904D01*
X151202857Y-121007142D01*
X151167142Y-121054761D01*
X151095714Y-121102380D01*
X150810000Y-121102380D01*
X150810000Y-120102380D01*
X151060000Y-120102380D01*
X151131428Y-120150000D01*
X151167142Y-120197619D01*
X151202857Y-120292857D01*
X151202857Y-120388095D01*
X151167142Y-120483333D01*
X151131428Y-120530952D01*
X151060000Y-120578571D01*
X150810000Y-120578571D01*
X151917142Y-121102380D02*
X151560000Y-121102380D01*
X151560000Y-120102380D01*
X152131428Y-120816666D02*
X152488571Y-120816666D01*
X152060000Y-121102380D02*
X152310000Y-120102380D01*
X152560000Y-121102380D01*
X152774285Y-121054761D02*
X152881428Y-121102380D01*
X153060000Y-121102380D01*
X153131428Y-121054761D01*
X153167142Y-121007142D01*
X153202857Y-120911904D01*
X153202857Y-120816666D01*
X153167142Y-120721428D01*
X153131428Y-120673809D01*
X153060000Y-120626190D01*
X152917142Y-120578571D01*
X152845714Y-120530952D01*
X152810000Y-120483333D01*
X152774285Y-120388095D01*
X152774285Y-120292857D01*
X152810000Y-120197619D01*
X152845714Y-120150000D01*
X152917142Y-120102380D01*
X153095714Y-120102380D01*
X153202857Y-120150000D01*
X153417142Y-120102380D02*
X153845714Y-120102380D01*
X153631428Y-121102380D02*
X153631428Y-120102380D01*
X154095714Y-120578571D02*
X154345714Y-120578571D01*
X154452857Y-121102380D02*
X154095714Y-121102380D01*
X154095714Y-120102380D01*
X154452857Y-120102380D01*
X155202857Y-121102380D02*
X154952857Y-120626190D01*
X154774285Y-121102380D02*
X154774285Y-120102380D01*
X155060000Y-120102380D01*
X155131428Y-120150000D01*
X155167142Y-120197619D01*
X155202857Y-120292857D01*
X155202857Y-120435714D01*
X155167142Y-120530952D01*
X155131428Y-120578571D01*
X155060000Y-120626190D01*
X154774285Y-120626190D01*
D12*
X155837142Y-117066190D02*
X155551428Y-117066190D01*
X155694285Y-117066190D02*
X155694285Y-116566190D01*
X155646666Y-116637619D01*
X155599047Y-116685238D01*
X155551428Y-116709047D01*
X156027619Y-116613809D02*
X156051428Y-116590000D01*
X156099047Y-116566190D01*
X156218095Y-116566190D01*
X156265714Y-116590000D01*
X156289523Y-116613809D01*
X156313333Y-116661428D01*
X156313333Y-116709047D01*
X156289523Y-116780476D01*
X156003809Y-117066190D01*
X156313333Y-117066190D01*
X156527619Y-117018571D02*
X156551428Y-117042380D01*
X156527619Y-117066190D01*
X156503809Y-117042380D01*
X156527619Y-117018571D01*
X156527619Y-117066190D01*
X156741904Y-116613809D02*
X156765714Y-116590000D01*
X156813333Y-116566190D01*
X156932380Y-116566190D01*
X156980000Y-116590000D01*
X157003809Y-116613809D01*
X157027619Y-116661428D01*
X157027619Y-116709047D01*
X157003809Y-116780476D01*
X156718095Y-117066190D01*
X157027619Y-117066190D01*
X157313333Y-116780476D02*
X157265714Y-116756666D01*
X157241904Y-116732857D01*
X157218095Y-116685238D01*
X157218095Y-116661428D01*
X157241904Y-116613809D01*
X157265714Y-116590000D01*
X157313333Y-116566190D01*
X157408571Y-116566190D01*
X157456190Y-116590000D01*
X157480000Y-116613809D01*
X157503809Y-116661428D01*
X157503809Y-116685238D01*
X157480000Y-116732857D01*
X157456190Y-116756666D01*
X157408571Y-116780476D01*
X157313333Y-116780476D01*
X157265714Y-116804285D01*
X157241904Y-116828095D01*
X157218095Y-116875714D01*
X157218095Y-116970952D01*
X157241904Y-117018571D01*
X157265714Y-117042380D01*
X157313333Y-117066190D01*
X157408571Y-117066190D01*
X157456190Y-117042380D01*
X157480000Y-117018571D01*
X157503809Y-116970952D01*
X157503809Y-116875714D01*
X157480000Y-116828095D01*
X157456190Y-116804285D01*
X157408571Y-116780476D01*
X157789523Y-116780476D02*
X157741904Y-116756666D01*
X157718095Y-116732857D01*
X157694285Y-116685238D01*
X157694285Y-116661428D01*
X157718095Y-116613809D01*
X157741904Y-116590000D01*
X157789523Y-116566190D01*
X157884761Y-116566190D01*
X157932380Y-116590000D01*
X157956190Y-116613809D01*
X157980000Y-116661428D01*
X157980000Y-116685238D01*
X157956190Y-116732857D01*
X157932380Y-116756666D01*
X157884761Y-116780476D01*
X157789523Y-116780476D01*
X157741904Y-116804285D01*
X157718095Y-116828095D01*
X157694285Y-116875714D01*
X157694285Y-116970952D01*
X157718095Y-117018571D01*
X157741904Y-117042380D01*
X157789523Y-117066190D01*
X157884761Y-117066190D01*
X157932380Y-117042380D01*
X157956190Y-117018571D01*
X157980000Y-116970952D01*
X157980000Y-116875714D01*
X157956190Y-116828095D01*
X157932380Y-116804285D01*
X157884761Y-116780476D01*
X158194285Y-117066190D02*
X158194285Y-116566190D01*
X158360952Y-116923333D01*
X158527619Y-116566190D01*
X158527619Y-117066190D01*
X158765714Y-117066190D02*
X158765714Y-116566190D01*
X158980000Y-117066190D02*
X158980000Y-116804285D01*
X158956190Y-116756666D01*
X158908571Y-116732857D01*
X158837142Y-116732857D01*
X158789523Y-116756666D01*
X158765714Y-116780476D01*
X159170476Y-116732857D02*
X159432380Y-116732857D01*
X159170476Y-117066190D01*
X159432380Y-117066190D01*
D10*
X154234761Y-81732380D02*
X154234761Y-80732380D01*
X154568095Y-81446666D01*
X154901428Y-80732380D01*
X154901428Y-81732380D01*
X155520476Y-81732380D02*
X155425238Y-81684761D01*
X155377619Y-81637142D01*
X155330000Y-81541904D01*
X155330000Y-81256190D01*
X155377619Y-81160952D01*
X155425238Y-81113333D01*
X155520476Y-81065714D01*
X155663333Y-81065714D01*
X155758571Y-81113333D01*
X155806190Y-81160952D01*
X155853809Y-81256190D01*
X155853809Y-81541904D01*
X155806190Y-81637142D01*
X155758571Y-81684761D01*
X155663333Y-81732380D01*
X155520476Y-81732380D01*
X156710952Y-81732380D02*
X156710952Y-80732380D01*
X156710952Y-81684761D02*
X156615714Y-81732380D01*
X156425238Y-81732380D01*
X156330000Y-81684761D01*
X156282380Y-81637142D01*
X156234761Y-81541904D01*
X156234761Y-81256190D01*
X156282380Y-81160952D01*
X156330000Y-81113333D01*
X156425238Y-81065714D01*
X156615714Y-81065714D01*
X156710952Y-81113333D01*
X157187142Y-81732380D02*
X157187142Y-81065714D01*
X157187142Y-80732380D02*
X157139523Y-80780000D01*
X157187142Y-80827619D01*
X157234761Y-80780000D01*
X157187142Y-80732380D01*
X157187142Y-80827619D01*
X157520476Y-81065714D02*
X157901428Y-81065714D01*
X157663333Y-81732380D02*
X157663333Y-80875238D01*
X157710952Y-80780000D01*
X157806190Y-80732380D01*
X157901428Y-80732380D01*
X158234761Y-81732380D02*
X158234761Y-81065714D01*
X158234761Y-80732380D02*
X158187142Y-80780000D01*
X158234761Y-80827619D01*
X158282380Y-80780000D01*
X158234761Y-80732380D01*
X158234761Y-80827619D01*
X159091904Y-81684761D02*
X158996666Y-81732380D01*
X158806190Y-81732380D01*
X158710952Y-81684761D01*
X158663333Y-81589523D01*
X158663333Y-81208571D01*
X158710952Y-81113333D01*
X158806190Y-81065714D01*
X158996666Y-81065714D01*
X159091904Y-81113333D01*
X159139523Y-81208571D01*
X159139523Y-81303809D01*
X158663333Y-81399047D01*
X159996666Y-81732380D02*
X159996666Y-80732380D01*
X159996666Y-81684761D02*
X159901428Y-81732380D01*
X159710952Y-81732380D01*
X159615714Y-81684761D01*
X159568095Y-81637142D01*
X159520476Y-81541904D01*
X159520476Y-81256190D01*
X159568095Y-81160952D01*
X159615714Y-81113333D01*
X159710952Y-81065714D01*
X159901428Y-81065714D01*
X159996666Y-81113333D01*
X161234761Y-81732380D02*
X161234761Y-80732380D01*
X161234761Y-81113333D02*
X161330000Y-81065714D01*
X161520476Y-81065714D01*
X161615714Y-81113333D01*
X161663333Y-81160952D01*
X161710952Y-81256190D01*
X161710952Y-81541904D01*
X161663333Y-81637142D01*
X161615714Y-81684761D01*
X161520476Y-81732380D01*
X161330000Y-81732380D01*
X161234761Y-81684761D01*
X162044285Y-81065714D02*
X162282380Y-81732380D01*
X162520476Y-81065714D02*
X162282380Y-81732380D01*
X162187142Y-81970476D01*
X162139523Y-82018095D01*
X162044285Y-82065714D01*
X163568095Y-80732380D02*
X163806190Y-81732380D01*
X163996666Y-81018095D01*
X164187142Y-81732380D01*
X164425238Y-80732380D01*
X164806190Y-81732380D02*
X164806190Y-81065714D01*
X164806190Y-80732380D02*
X164758571Y-80780000D01*
X164806190Y-80827619D01*
X164853809Y-80780000D01*
X164806190Y-80732380D01*
X164806190Y-80827619D01*
X165425238Y-81732380D02*
X165330000Y-81684761D01*
X165282380Y-81589523D01*
X165282380Y-80732380D01*
X165949047Y-81732380D02*
X165853809Y-81684761D01*
X165806190Y-81589523D01*
X165806190Y-80732380D01*
X166330000Y-81732380D02*
X166330000Y-81065714D01*
X166330000Y-80732380D02*
X166282380Y-80780000D01*
X166330000Y-80827619D01*
X166377619Y-80780000D01*
X166330000Y-80732380D01*
X166330000Y-80827619D01*
X167234761Y-81732380D02*
X167234761Y-81208571D01*
X167187142Y-81113333D01*
X167091904Y-81065714D01*
X166901428Y-81065714D01*
X166806190Y-81113333D01*
X167234761Y-81684761D02*
X167139523Y-81732380D01*
X166901428Y-81732380D01*
X166806190Y-81684761D01*
X166758571Y-81589523D01*
X166758571Y-81494285D01*
X166806190Y-81399047D01*
X166901428Y-81351428D01*
X167139523Y-81351428D01*
X167234761Y-81303809D01*
X167710952Y-81732380D02*
X167710952Y-81065714D01*
X167710952Y-81160952D02*
X167758571Y-81113333D01*
X167853809Y-81065714D01*
X167996666Y-81065714D01*
X168091904Y-81113333D01*
X168139523Y-81208571D01*
X168139523Y-81732380D01*
X168139523Y-81208571D02*
X168187142Y-81113333D01*
X168282380Y-81065714D01*
X168425238Y-81065714D01*
X168520476Y-81113333D01*
X168568095Y-81208571D01*
X168568095Y-81732380D01*
X169806190Y-81732380D02*
X169806190Y-80732380D01*
X170139523Y-81446666D01*
X170472857Y-80732380D01*
X170472857Y-81732380D01*
X172187142Y-81732380D02*
X171710952Y-81732380D01*
X171710952Y-80732380D01*
X172520476Y-81732380D02*
X172520476Y-81065714D01*
X172520476Y-80732380D02*
X172472857Y-80780000D01*
X172520476Y-80827619D01*
X172568095Y-80780000D01*
X172520476Y-80732380D01*
X172520476Y-80827619D01*
X173425238Y-81065714D02*
X173425238Y-81732380D01*
X172996666Y-81065714D02*
X172996666Y-81589523D01*
X173044285Y-81684761D01*
X173139523Y-81732380D01*
X173282380Y-81732380D01*
X173377619Y-81684761D01*
X173425238Y-81637142D01*
X117166666Y-81732380D02*
X117166666Y-80732380D01*
X117404761Y-80732380D01*
X117547619Y-80780000D01*
X117642857Y-80875238D01*
X117690476Y-80970476D01*
X117738095Y-81160952D01*
X117738095Y-81303809D01*
X117690476Y-81494285D01*
X117642857Y-81589523D01*
X117547619Y-81684761D01*
X117404761Y-81732380D01*
X117166666Y-81732380D01*
X118547619Y-81684761D02*
X118452380Y-81732380D01*
X118261904Y-81732380D01*
X118166666Y-81684761D01*
X118119047Y-81589523D01*
X118119047Y-81208571D01*
X118166666Y-81113333D01*
X118261904Y-81065714D01*
X118452380Y-81065714D01*
X118547619Y-81113333D01*
X118595238Y-81208571D01*
X118595238Y-81303809D01*
X118119047Y-81399047D01*
X118976190Y-81684761D02*
X119071428Y-81732380D01*
X119261904Y-81732380D01*
X119357142Y-81684761D01*
X119404761Y-81589523D01*
X119404761Y-81541904D01*
X119357142Y-81446666D01*
X119261904Y-81399047D01*
X119119047Y-81399047D01*
X119023809Y-81351428D01*
X118976190Y-81256190D01*
X118976190Y-81208571D01*
X119023809Y-81113333D01*
X119119047Y-81065714D01*
X119261904Y-81065714D01*
X119357142Y-81113333D01*
X119833333Y-81732380D02*
X119833333Y-81065714D01*
X119833333Y-80732380D02*
X119785714Y-80780000D01*
X119833333Y-80827619D01*
X119880952Y-80780000D01*
X119833333Y-80732380D01*
X119833333Y-80827619D01*
X120738095Y-81065714D02*
X120738095Y-81875238D01*
X120690476Y-81970476D01*
X120642857Y-82018095D01*
X120547619Y-82065714D01*
X120404761Y-82065714D01*
X120309523Y-82018095D01*
X120738095Y-81684761D02*
X120642857Y-81732380D01*
X120452380Y-81732380D01*
X120357142Y-81684761D01*
X120309523Y-81637142D01*
X120261904Y-81541904D01*
X120261904Y-81256190D01*
X120309523Y-81160952D01*
X120357142Y-81113333D01*
X120452380Y-81065714D01*
X120642857Y-81065714D01*
X120738095Y-81113333D01*
X121214285Y-81065714D02*
X121214285Y-81732380D01*
X121214285Y-81160952D02*
X121261904Y-81113333D01*
X121357142Y-81065714D01*
X121500000Y-81065714D01*
X121595238Y-81113333D01*
X121642857Y-81208571D01*
X121642857Y-81732380D01*
X122880952Y-81732380D02*
X122880952Y-80732380D01*
X122880952Y-81113333D02*
X122976190Y-81065714D01*
X123166666Y-81065714D01*
X123261904Y-81113333D01*
X123309523Y-81160952D01*
X123357142Y-81256190D01*
X123357142Y-81541904D01*
X123309523Y-81637142D01*
X123261904Y-81684761D01*
X123166666Y-81732380D01*
X122976190Y-81732380D01*
X122880952Y-81684761D01*
X123690476Y-81065714D02*
X123928571Y-81732380D01*
X124166666Y-81065714D02*
X123928571Y-81732380D01*
X123833333Y-81970476D01*
X123785714Y-82018095D01*
X123690476Y-82065714D01*
X125309523Y-81732380D02*
X125309523Y-80732380D01*
X125690476Y-81065714D02*
X125928571Y-81732380D01*
X126166666Y-81065714D01*
X126690476Y-81732380D02*
X126595238Y-81684761D01*
X126547619Y-81637142D01*
X126500000Y-81541904D01*
X126500000Y-81256190D01*
X126547619Y-81160952D01*
X126595238Y-81113333D01*
X126690476Y-81065714D01*
X126833333Y-81065714D01*
X126928571Y-81113333D01*
X126976190Y-81160952D01*
X127023809Y-81256190D01*
X127023809Y-81541904D01*
X126976190Y-81637142D01*
X126928571Y-81684761D01*
X126833333Y-81732380D01*
X126690476Y-81732380D01*
X128119047Y-81065714D02*
X128357142Y-81732380D01*
X128595238Y-81065714D01*
X129404761Y-81732380D02*
X129404761Y-81208571D01*
X129357142Y-81113333D01*
X129261904Y-81065714D01*
X129071428Y-81065714D01*
X128976190Y-81113333D01*
X129404761Y-81684761D02*
X129309523Y-81732380D01*
X129071428Y-81732380D01*
X128976190Y-81684761D01*
X128928571Y-81589523D01*
X128928571Y-81494285D01*
X128976190Y-81399047D01*
X129071428Y-81351428D01*
X129309523Y-81351428D01*
X129404761Y-81303809D01*
X129880952Y-81065714D02*
X129880952Y-81732380D01*
X129880952Y-81160952D02*
X129928571Y-81113333D01*
X130023809Y-81065714D01*
X130166666Y-81065714D01*
X130261904Y-81113333D01*
X130309523Y-81208571D01*
X130309523Y-81732380D01*
X131547619Y-81732380D02*
X131547619Y-80732380D01*
X131928571Y-80732380D01*
X132023809Y-80780000D01*
X132071428Y-80827619D01*
X132119047Y-80922857D01*
X132119047Y-81065714D01*
X132071428Y-81160952D01*
X132023809Y-81208571D01*
X131928571Y-81256190D01*
X131547619Y-81256190D01*
X132690476Y-81732380D02*
X132595238Y-81684761D01*
X132547619Y-81637142D01*
X132500000Y-81541904D01*
X132500000Y-81256190D01*
X132547619Y-81160952D01*
X132595238Y-81113333D01*
X132690476Y-81065714D01*
X132833333Y-81065714D01*
X132928571Y-81113333D01*
X132976190Y-81160952D01*
X133023809Y-81256190D01*
X133023809Y-81541904D01*
X132976190Y-81637142D01*
X132928571Y-81684761D01*
X132833333Y-81732380D01*
X132690476Y-81732380D01*
X133595238Y-81732380D02*
X133500000Y-81684761D01*
X133452380Y-81637142D01*
X133404761Y-81541904D01*
X133404761Y-81256190D01*
X133452380Y-81160952D01*
X133500000Y-81113333D01*
X133595238Y-81065714D01*
X133738095Y-81065714D01*
X133833333Y-81113333D01*
X133880952Y-81160952D01*
X133928571Y-81256190D01*
X133928571Y-81541904D01*
X133880952Y-81637142D01*
X133833333Y-81684761D01*
X133738095Y-81732380D01*
X133595238Y-81732380D01*
X134357142Y-81732380D02*
X134357142Y-81065714D01*
X134357142Y-81256190D02*
X134404761Y-81160952D01*
X134452380Y-81113333D01*
X134547619Y-81065714D01*
X134642857Y-81065714D01*
X134833333Y-81065714D02*
X135214285Y-81065714D01*
X134976190Y-80732380D02*
X134976190Y-81589523D01*
X135023809Y-81684761D01*
X135119047Y-81732380D01*
X135214285Y-81732380D01*
X135928571Y-81684761D02*
X135833333Y-81732380D01*
X135642857Y-81732380D01*
X135547619Y-81684761D01*
X135500000Y-81589523D01*
X135500000Y-81208571D01*
X135547619Y-81113333D01*
X135642857Y-81065714D01*
X135833333Y-81065714D01*
X135928571Y-81113333D01*
X135976190Y-81208571D01*
X135976190Y-81303809D01*
X135500000Y-81399047D01*
X136404761Y-81065714D02*
X136404761Y-81732380D01*
X136404761Y-81160952D02*
X136452380Y-81113333D01*
X136547619Y-81065714D01*
X136690476Y-81065714D01*
X136785714Y-81113333D01*
X136833333Y-81208571D01*
X136833333Y-81732380D01*
D13*
X168083571Y-118967142D02*
X169155000Y-118967142D01*
X169369285Y-119038571D01*
X169512142Y-119181428D01*
X169583571Y-119395714D01*
X169583571Y-119538571D01*
X168583571Y-117610000D02*
X169583571Y-117610000D01*
X168583571Y-118252857D02*
X169369285Y-118252857D01*
X169512142Y-118181428D01*
X169583571Y-118038571D01*
X169583571Y-117824285D01*
X169512142Y-117681428D01*
X169440714Y-117610000D01*
X169583571Y-116681428D02*
X169512142Y-116824285D01*
X169369285Y-116895714D01*
X168083571Y-116895714D01*
X170776428Y-120681428D02*
X170705000Y-120610000D01*
X170633571Y-120467142D01*
X170633571Y-120110000D01*
X170705000Y-119967142D01*
X170776428Y-119895714D01*
X170919285Y-119824285D01*
X171062142Y-119824285D01*
X171276428Y-119895714D01*
X172133571Y-120752857D01*
X172133571Y-119824285D01*
X170633571Y-118895714D02*
X170633571Y-118752857D01*
X170705000Y-118610000D01*
X170776428Y-118538571D01*
X170919285Y-118467142D01*
X171205000Y-118395714D01*
X171562142Y-118395714D01*
X171847857Y-118467142D01*
X171990714Y-118538571D01*
X172062142Y-118610000D01*
X172133571Y-118752857D01*
X172133571Y-118895714D01*
X172062142Y-119038571D01*
X171990714Y-119110000D01*
X171847857Y-119181428D01*
X171562142Y-119252857D01*
X171205000Y-119252857D01*
X170919285Y-119181428D01*
X170776428Y-119110000D01*
X170705000Y-119038571D01*
X170633571Y-118895714D01*
X170776428Y-117824285D02*
X170705000Y-117752857D01*
X170633571Y-117610000D01*
X170633571Y-117252857D01*
X170705000Y-117110000D01*
X170776428Y-117038571D01*
X170919285Y-116967142D01*
X171062142Y-116967142D01*
X171276428Y-117038571D01*
X172133571Y-117895714D01*
X172133571Y-116967142D01*
X170633571Y-116038571D02*
X170633571Y-115895714D01*
X170705000Y-115752857D01*
X170776428Y-115681428D01*
X170919285Y-115610000D01*
X171205000Y-115538571D01*
X171562142Y-115538571D01*
X171847857Y-115610000D01*
X171990714Y-115681428D01*
X172062142Y-115752857D01*
X172133571Y-115895714D01*
X172133571Y-116038571D01*
X172062142Y-116181428D01*
X171990714Y-116252857D01*
X171847857Y-116324285D01*
X171562142Y-116395714D01*
X171205000Y-116395714D01*
X170919285Y-116324285D01*
X170776428Y-116252857D01*
X170705000Y-116181428D01*
X170633571Y-116038571D01*
D14*
X161671428Y-121102380D02*
X161671428Y-120102380D01*
X162171428Y-120102380D02*
X163028571Y-120102380D01*
X162600000Y-121102380D02*
X162600000Y-120102380D01*
X163814285Y-120102380D02*
X163957142Y-120102380D01*
X164100000Y-120150000D01*
X164171428Y-120197619D01*
X164242857Y-120292857D01*
X164314285Y-120483333D01*
X164314285Y-120721428D01*
X164242857Y-120911904D01*
X164171428Y-121007142D01*
X164100000Y-121054761D01*
X163957142Y-121102380D01*
X163814285Y-121102380D01*
X163671428Y-121054761D01*
X163600000Y-121007142D01*
X163528571Y-120911904D01*
X163457142Y-120721428D01*
X163457142Y-120483333D01*
X163528571Y-120292857D01*
X163600000Y-120197619D01*
X163671428Y-120150000D01*
X163814285Y-120102380D01*
X165742857Y-121102380D02*
X164885714Y-121102380D01*
X165314285Y-121102380D02*
X165314285Y-120102380D01*
X165171428Y-120245238D01*
X165028571Y-120340476D01*
X164885714Y-120388095D01*
X166242857Y-120102380D02*
X167171428Y-120102380D01*
X166671428Y-120483333D01*
X166885714Y-120483333D01*
X167028571Y-120530952D01*
X167100000Y-120578571D01*
X167171428Y-120673809D01*
X167171428Y-120911904D01*
X167100000Y-121007142D01*
X167028571Y-121054761D01*
X166885714Y-121102380D01*
X166457142Y-121102380D01*
X166314285Y-121054761D01*
X166242857Y-121007142D01*
X167885714Y-121102380D02*
X168171428Y-121102380D01*
X168314285Y-121054761D01*
X168385714Y-121007142D01*
X168528571Y-120864285D01*
X168600000Y-120673809D01*
X168600000Y-120292857D01*
X168528571Y-120197619D01*
X168457142Y-120150000D01*
X168314285Y-120102380D01*
X168028571Y-120102380D01*
X167885714Y-120150000D01*
X167814285Y-120197619D01*
X167742857Y-120292857D01*
X167742857Y-120530952D01*
X167814285Y-120626190D01*
X167885714Y-120673809D01*
X168028571Y-120721428D01*
X168314285Y-120721428D01*
X168457142Y-120673809D01*
X168528571Y-120626190D01*
X168600000Y-120530952D01*
D13*
X174414571Y-120415571D02*
X173700285Y-120915571D01*
X174414571Y-121272714D02*
X172914571Y-121272714D01*
X172914571Y-120701285D01*
X172986000Y-120558428D01*
X173057428Y-120487000D01*
X173200285Y-120415571D01*
X173414571Y-120415571D01*
X173557428Y-120487000D01*
X173628857Y-120558428D01*
X173700285Y-120701285D01*
X173700285Y-121272714D01*
X173628857Y-119772714D02*
X173628857Y-119272714D01*
X174414571Y-119058428D02*
X174414571Y-119772714D01*
X172914571Y-119772714D01*
X172914571Y-119058428D01*
X172914571Y-118629857D02*
X174414571Y-118129857D01*
X172914571Y-117629857D01*
X174271714Y-115129857D02*
X174343142Y-115201285D01*
X174414571Y-115415571D01*
X174414571Y-115558428D01*
X174343142Y-115772714D01*
X174200285Y-115915571D01*
X174057428Y-115987000D01*
X173771714Y-116058428D01*
X173557428Y-116058428D01*
X173271714Y-115987000D01*
X173128857Y-115915571D01*
X172986000Y-115772714D01*
X172914571Y-115558428D01*
X172914571Y-115415571D01*
X172986000Y-115201285D01*
X173057428Y-115129857D01*
D15*
G04 #@! TO.C,U3*
X149660000Y-97170000D02*
X149660000Y-96720000D01*
X149660000Y-96720000D02*
X149210000Y-96720000D01*
X149660000Y-103490000D02*
X149660000Y-103940000D01*
X149660000Y-103940000D02*
X149210000Y-103940000D01*
X142440000Y-97170000D02*
X142440000Y-96720000D01*
X142440000Y-96720000D02*
X142890000Y-96720000D01*
X142440000Y-103490000D02*
X142440000Y-103940000D01*
X142440000Y-103940000D02*
X142890000Y-103940000D01*
X142890000Y-103940000D02*
X142890000Y-105230000D01*
G04 #@! TO.C,R7*
X123952000Y-103910000D02*
X123952000Y-104680000D01*
X123952000Y-111990000D02*
X123952000Y-111220000D01*
X122582000Y-104680000D02*
X122582000Y-111220000D01*
X125322000Y-104680000D02*
X122582000Y-104680000D01*
X125322000Y-111220000D02*
X125322000Y-104680000D01*
X122582000Y-111220000D02*
X125322000Y-111220000D01*
G04 #@! TO.C,C1*
X168095000Y-91405225D02*
X167595000Y-91405225D01*
X167845000Y-91155225D02*
X167845000Y-91655225D01*
X166654000Y-96561000D02*
X166086000Y-96561000D01*
X166888000Y-96521000D02*
X165852000Y-96521000D01*
X167047000Y-96481000D02*
X165693000Y-96481000D01*
X167175000Y-96441000D02*
X165565000Y-96441000D01*
X167285000Y-96401000D02*
X165455000Y-96401000D01*
X167381000Y-96361000D02*
X165359000Y-96361000D01*
X167468000Y-96321000D02*
X165272000Y-96321000D01*
X167548000Y-96281000D02*
X165192000Y-96281000D01*
X165330000Y-96241000D02*
X165119000Y-96241000D01*
X167621000Y-96241000D02*
X167410000Y-96241000D01*
X165330000Y-96201000D02*
X165051000Y-96201000D01*
X167689000Y-96201000D02*
X167410000Y-96201000D01*
X165330000Y-96161000D02*
X164987000Y-96161000D01*
X167753000Y-96161000D02*
X167410000Y-96161000D01*
X165330000Y-96121000D02*
X164927000Y-96121000D01*
X167813000Y-96121000D02*
X167410000Y-96121000D01*
X165330000Y-96081000D02*
X164870000Y-96081000D01*
X167870000Y-96081000D02*
X167410000Y-96081000D01*
X165330000Y-96041000D02*
X164816000Y-96041000D01*
X167924000Y-96041000D02*
X167410000Y-96041000D01*
X165330000Y-96001000D02*
X164765000Y-96001000D01*
X167975000Y-96001000D02*
X167410000Y-96001000D01*
X165330000Y-95961000D02*
X164717000Y-95961000D01*
X168023000Y-95961000D02*
X167410000Y-95961000D01*
X165330000Y-95921000D02*
X164671000Y-95921000D01*
X168069000Y-95921000D02*
X167410000Y-95921000D01*
X165330000Y-95881000D02*
X164627000Y-95881000D01*
X168113000Y-95881000D02*
X167410000Y-95881000D01*
X165330000Y-95841000D02*
X164585000Y-95841000D01*
X168155000Y-95841000D02*
X167410000Y-95841000D01*
X165330000Y-95801000D02*
X164544000Y-95801000D01*
X168196000Y-95801000D02*
X167410000Y-95801000D01*
X165330000Y-95761000D02*
X164506000Y-95761000D01*
X168234000Y-95761000D02*
X167410000Y-95761000D01*
X165330000Y-95721000D02*
X164469000Y-95721000D01*
X168271000Y-95721000D02*
X167410000Y-95721000D01*
X165330000Y-95681000D02*
X164433000Y-95681000D01*
X168307000Y-95681000D02*
X167410000Y-95681000D01*
X165330000Y-95641000D02*
X164399000Y-95641000D01*
X168341000Y-95641000D02*
X167410000Y-95641000D01*
X165330000Y-95601000D02*
X164366000Y-95601000D01*
X168374000Y-95601000D02*
X167410000Y-95601000D01*
X165330000Y-95561000D02*
X164335000Y-95561000D01*
X168405000Y-95561000D02*
X167410000Y-95561000D01*
X165330000Y-95521000D02*
X164305000Y-95521000D01*
X168435000Y-95521000D02*
X167410000Y-95521000D01*
X165330000Y-95481000D02*
X164275000Y-95481000D01*
X168465000Y-95481000D02*
X167410000Y-95481000D01*
X165330000Y-95441000D02*
X164248000Y-95441000D01*
X168492000Y-95441000D02*
X167410000Y-95441000D01*
X165330000Y-95401000D02*
X164221000Y-95401000D01*
X168519000Y-95401000D02*
X167410000Y-95401000D01*
X165330000Y-95361000D02*
X164195000Y-95361000D01*
X168545000Y-95361000D02*
X167410000Y-95361000D01*
X165330000Y-95321000D02*
X164170000Y-95321000D01*
X168570000Y-95321000D02*
X167410000Y-95321000D01*
X165330000Y-95281000D02*
X164146000Y-95281000D01*
X168594000Y-95281000D02*
X167410000Y-95281000D01*
X165330000Y-95241000D02*
X164123000Y-95241000D01*
X168617000Y-95241000D02*
X167410000Y-95241000D01*
X165330000Y-95201000D02*
X164102000Y-95201000D01*
X168638000Y-95201000D02*
X167410000Y-95201000D01*
X165330000Y-95161000D02*
X164080000Y-95161000D01*
X168660000Y-95161000D02*
X167410000Y-95161000D01*
X165330000Y-95121000D02*
X164060000Y-95121000D01*
X168680000Y-95121000D02*
X167410000Y-95121000D01*
X165330000Y-95081000D02*
X164041000Y-95081000D01*
X168699000Y-95081000D02*
X167410000Y-95081000D01*
X165330000Y-95041000D02*
X164022000Y-95041000D01*
X168718000Y-95041000D02*
X167410000Y-95041000D01*
X165330000Y-95001000D02*
X164005000Y-95001000D01*
X168735000Y-95001000D02*
X167410000Y-95001000D01*
X165330000Y-94961000D02*
X163988000Y-94961000D01*
X168752000Y-94961000D02*
X167410000Y-94961000D01*
X165330000Y-94921000D02*
X163972000Y-94921000D01*
X168768000Y-94921000D02*
X167410000Y-94921000D01*
X165330000Y-94881000D02*
X163956000Y-94881000D01*
X168784000Y-94881000D02*
X167410000Y-94881000D01*
X165330000Y-94841000D02*
X163942000Y-94841000D01*
X168798000Y-94841000D02*
X167410000Y-94841000D01*
X165330000Y-94801000D02*
X163928000Y-94801000D01*
X168812000Y-94801000D02*
X167410000Y-94801000D01*
X165330000Y-94761000D02*
X163915000Y-94761000D01*
X168825000Y-94761000D02*
X167410000Y-94761000D01*
X165330000Y-94721000D02*
X163902000Y-94721000D01*
X168838000Y-94721000D02*
X167410000Y-94721000D01*
X165330000Y-94681000D02*
X163890000Y-94681000D01*
X168850000Y-94681000D02*
X167410000Y-94681000D01*
X165330000Y-94640000D02*
X163879000Y-94640000D01*
X168861000Y-94640000D02*
X167410000Y-94640000D01*
X165330000Y-94600000D02*
X163869000Y-94600000D01*
X168871000Y-94600000D02*
X167410000Y-94600000D01*
X165330000Y-94560000D02*
X163859000Y-94560000D01*
X168881000Y-94560000D02*
X167410000Y-94560000D01*
X165330000Y-94520000D02*
X163850000Y-94520000D01*
X168890000Y-94520000D02*
X167410000Y-94520000D01*
X165330000Y-94480000D02*
X163842000Y-94480000D01*
X168898000Y-94480000D02*
X167410000Y-94480000D01*
X165330000Y-94440000D02*
X163834000Y-94440000D01*
X168906000Y-94440000D02*
X167410000Y-94440000D01*
X165330000Y-94400000D02*
X163827000Y-94400000D01*
X168913000Y-94400000D02*
X167410000Y-94400000D01*
X165330000Y-94360000D02*
X163820000Y-94360000D01*
X168920000Y-94360000D02*
X167410000Y-94360000D01*
X165330000Y-94320000D02*
X163814000Y-94320000D01*
X168926000Y-94320000D02*
X167410000Y-94320000D01*
X165330000Y-94280000D02*
X163809000Y-94280000D01*
X168931000Y-94280000D02*
X167410000Y-94280000D01*
X165330000Y-94240000D02*
X163805000Y-94240000D01*
X168935000Y-94240000D02*
X167410000Y-94240000D01*
X165330000Y-94200000D02*
X163801000Y-94200000D01*
X168939000Y-94200000D02*
X167410000Y-94200000D01*
X168943000Y-94160000D02*
X163797000Y-94160000D01*
X168946000Y-94120000D02*
X163794000Y-94120000D01*
X168948000Y-94080000D02*
X163792000Y-94080000D01*
X168949000Y-94040000D02*
X163791000Y-94040000D01*
X168950000Y-94000000D02*
X163790000Y-94000000D01*
X168950000Y-93960000D02*
X163790000Y-93960000D01*
X168990000Y-93960000D02*
G75*
G03*
X168990000Y-93960000I-2620000J0D01*
G01*
G04 #@! TO.C,C2*
X168736000Y-100096000D02*
G75*
G03*
X168736000Y-100096000I-2620000J0D01*
G01*
X168696000Y-100096000D02*
X163536000Y-100096000D01*
X168696000Y-100136000D02*
X163536000Y-100136000D01*
X168695000Y-100176000D02*
X163537000Y-100176000D01*
X168694000Y-100216000D02*
X163538000Y-100216000D01*
X168692000Y-100256000D02*
X163540000Y-100256000D01*
X168689000Y-100296000D02*
X163543000Y-100296000D01*
X168685000Y-100336000D02*
X167156000Y-100336000D01*
X165076000Y-100336000D02*
X163547000Y-100336000D01*
X168681000Y-100376000D02*
X167156000Y-100376000D01*
X165076000Y-100376000D02*
X163551000Y-100376000D01*
X168677000Y-100416000D02*
X167156000Y-100416000D01*
X165076000Y-100416000D02*
X163555000Y-100416000D01*
X168672000Y-100456000D02*
X167156000Y-100456000D01*
X165076000Y-100456000D02*
X163560000Y-100456000D01*
X168666000Y-100496000D02*
X167156000Y-100496000D01*
X165076000Y-100496000D02*
X163566000Y-100496000D01*
X168659000Y-100536000D02*
X167156000Y-100536000D01*
X165076000Y-100536000D02*
X163573000Y-100536000D01*
X168652000Y-100576000D02*
X167156000Y-100576000D01*
X165076000Y-100576000D02*
X163580000Y-100576000D01*
X168644000Y-100616000D02*
X167156000Y-100616000D01*
X165076000Y-100616000D02*
X163588000Y-100616000D01*
X168636000Y-100656000D02*
X167156000Y-100656000D01*
X165076000Y-100656000D02*
X163596000Y-100656000D01*
X168627000Y-100696000D02*
X167156000Y-100696000D01*
X165076000Y-100696000D02*
X163605000Y-100696000D01*
X168617000Y-100736000D02*
X167156000Y-100736000D01*
X165076000Y-100736000D02*
X163615000Y-100736000D01*
X168607000Y-100776000D02*
X167156000Y-100776000D01*
X165076000Y-100776000D02*
X163625000Y-100776000D01*
X168596000Y-100817000D02*
X167156000Y-100817000D01*
X165076000Y-100817000D02*
X163636000Y-100817000D01*
X168584000Y-100857000D02*
X167156000Y-100857000D01*
X165076000Y-100857000D02*
X163648000Y-100857000D01*
X168571000Y-100897000D02*
X167156000Y-100897000D01*
X165076000Y-100897000D02*
X163661000Y-100897000D01*
X168558000Y-100937000D02*
X167156000Y-100937000D01*
X165076000Y-100937000D02*
X163674000Y-100937000D01*
X168544000Y-100977000D02*
X167156000Y-100977000D01*
X165076000Y-100977000D02*
X163688000Y-100977000D01*
X168530000Y-101017000D02*
X167156000Y-101017000D01*
X165076000Y-101017000D02*
X163702000Y-101017000D01*
X168514000Y-101057000D02*
X167156000Y-101057000D01*
X165076000Y-101057000D02*
X163718000Y-101057000D01*
X168498000Y-101097000D02*
X167156000Y-101097000D01*
X165076000Y-101097000D02*
X163734000Y-101097000D01*
X168481000Y-101137000D02*
X167156000Y-101137000D01*
X165076000Y-101137000D02*
X163751000Y-101137000D01*
X168464000Y-101177000D02*
X167156000Y-101177000D01*
X165076000Y-101177000D02*
X163768000Y-101177000D01*
X168445000Y-101217000D02*
X167156000Y-101217000D01*
X165076000Y-101217000D02*
X163787000Y-101217000D01*
X168426000Y-101257000D02*
X167156000Y-101257000D01*
X165076000Y-101257000D02*
X163806000Y-101257000D01*
X168406000Y-101297000D02*
X167156000Y-101297000D01*
X165076000Y-101297000D02*
X163826000Y-101297000D01*
X168384000Y-101337000D02*
X167156000Y-101337000D01*
X165076000Y-101337000D02*
X163848000Y-101337000D01*
X168363000Y-101377000D02*
X167156000Y-101377000D01*
X165076000Y-101377000D02*
X163869000Y-101377000D01*
X168340000Y-101417000D02*
X167156000Y-101417000D01*
X165076000Y-101417000D02*
X163892000Y-101417000D01*
X168316000Y-101457000D02*
X167156000Y-101457000D01*
X165076000Y-101457000D02*
X163916000Y-101457000D01*
X168291000Y-101497000D02*
X167156000Y-101497000D01*
X165076000Y-101497000D02*
X163941000Y-101497000D01*
X168265000Y-101537000D02*
X167156000Y-101537000D01*
X165076000Y-101537000D02*
X163967000Y-101537000D01*
X168238000Y-101577000D02*
X167156000Y-101577000D01*
X165076000Y-101577000D02*
X163994000Y-101577000D01*
X168211000Y-101617000D02*
X167156000Y-101617000D01*
X165076000Y-101617000D02*
X164021000Y-101617000D01*
X168181000Y-101657000D02*
X167156000Y-101657000D01*
X165076000Y-101657000D02*
X164051000Y-101657000D01*
X168151000Y-101697000D02*
X167156000Y-101697000D01*
X165076000Y-101697000D02*
X164081000Y-101697000D01*
X168120000Y-101737000D02*
X167156000Y-101737000D01*
X165076000Y-101737000D02*
X164112000Y-101737000D01*
X168087000Y-101777000D02*
X167156000Y-101777000D01*
X165076000Y-101777000D02*
X164145000Y-101777000D01*
X168053000Y-101817000D02*
X167156000Y-101817000D01*
X165076000Y-101817000D02*
X164179000Y-101817000D01*
X168017000Y-101857000D02*
X167156000Y-101857000D01*
X165076000Y-101857000D02*
X164215000Y-101857000D01*
X167980000Y-101897000D02*
X167156000Y-101897000D01*
X165076000Y-101897000D02*
X164252000Y-101897000D01*
X167942000Y-101937000D02*
X167156000Y-101937000D01*
X165076000Y-101937000D02*
X164290000Y-101937000D01*
X167901000Y-101977000D02*
X167156000Y-101977000D01*
X165076000Y-101977000D02*
X164331000Y-101977000D01*
X167859000Y-102017000D02*
X167156000Y-102017000D01*
X165076000Y-102017000D02*
X164373000Y-102017000D01*
X167815000Y-102057000D02*
X167156000Y-102057000D01*
X165076000Y-102057000D02*
X164417000Y-102057000D01*
X167769000Y-102097000D02*
X167156000Y-102097000D01*
X165076000Y-102097000D02*
X164463000Y-102097000D01*
X167721000Y-102137000D02*
X167156000Y-102137000D01*
X165076000Y-102137000D02*
X164511000Y-102137000D01*
X167670000Y-102177000D02*
X167156000Y-102177000D01*
X165076000Y-102177000D02*
X164562000Y-102177000D01*
X167616000Y-102217000D02*
X167156000Y-102217000D01*
X165076000Y-102217000D02*
X164616000Y-102217000D01*
X167559000Y-102257000D02*
X167156000Y-102257000D01*
X165076000Y-102257000D02*
X164673000Y-102257000D01*
X167499000Y-102297000D02*
X167156000Y-102297000D01*
X165076000Y-102297000D02*
X164733000Y-102297000D01*
X167435000Y-102337000D02*
X167156000Y-102337000D01*
X165076000Y-102337000D02*
X164797000Y-102337000D01*
X167367000Y-102377000D02*
X167156000Y-102377000D01*
X165076000Y-102377000D02*
X164865000Y-102377000D01*
X167294000Y-102417000D02*
X164938000Y-102417000D01*
X167214000Y-102457000D02*
X165018000Y-102457000D01*
X167127000Y-102497000D02*
X165105000Y-102497000D01*
X167031000Y-102537000D02*
X165201000Y-102537000D01*
X166921000Y-102577000D02*
X165311000Y-102577000D01*
X166793000Y-102617000D02*
X165439000Y-102617000D01*
X166634000Y-102657000D02*
X165598000Y-102657000D01*
X166400000Y-102697000D02*
X165832000Y-102697000D01*
X167591000Y-97291225D02*
X167591000Y-97791225D01*
X167841000Y-97541225D02*
X167341000Y-97541225D01*
G04 #@! TO.C,C3*
X154974775Y-88085000D02*
X154974775Y-87585000D01*
X155224775Y-87835000D02*
X154724775Y-87835000D01*
X149819000Y-86644000D02*
X149819000Y-86076000D01*
X149859000Y-86878000D02*
X149859000Y-85842000D01*
X149899000Y-87037000D02*
X149899000Y-85683000D01*
X149939000Y-87165000D02*
X149939000Y-85555000D01*
X149979000Y-87275000D02*
X149979000Y-85445000D01*
X150019000Y-87371000D02*
X150019000Y-85349000D01*
X150059000Y-87458000D02*
X150059000Y-85262000D01*
X150099000Y-87538000D02*
X150099000Y-85182000D01*
X150139000Y-85320000D02*
X150139000Y-85109000D01*
X150139000Y-87611000D02*
X150139000Y-87400000D01*
X150179000Y-85320000D02*
X150179000Y-85041000D01*
X150179000Y-87679000D02*
X150179000Y-87400000D01*
X150219000Y-85320000D02*
X150219000Y-84977000D01*
X150219000Y-87743000D02*
X150219000Y-87400000D01*
X150259000Y-85320000D02*
X150259000Y-84917000D01*
X150259000Y-87803000D02*
X150259000Y-87400000D01*
X150299000Y-85320000D02*
X150299000Y-84860000D01*
X150299000Y-87860000D02*
X150299000Y-87400000D01*
X150339000Y-85320000D02*
X150339000Y-84806000D01*
X150339000Y-87914000D02*
X150339000Y-87400000D01*
X150379000Y-85320000D02*
X150379000Y-84755000D01*
X150379000Y-87965000D02*
X150379000Y-87400000D01*
X150419000Y-85320000D02*
X150419000Y-84707000D01*
X150419000Y-88013000D02*
X150419000Y-87400000D01*
X150459000Y-85320000D02*
X150459000Y-84661000D01*
X150459000Y-88059000D02*
X150459000Y-87400000D01*
X150499000Y-85320000D02*
X150499000Y-84617000D01*
X150499000Y-88103000D02*
X150499000Y-87400000D01*
X150539000Y-85320000D02*
X150539000Y-84575000D01*
X150539000Y-88145000D02*
X150539000Y-87400000D01*
X150579000Y-85320000D02*
X150579000Y-84534000D01*
X150579000Y-88186000D02*
X150579000Y-87400000D01*
X150619000Y-85320000D02*
X150619000Y-84496000D01*
X150619000Y-88224000D02*
X150619000Y-87400000D01*
X150659000Y-85320000D02*
X150659000Y-84459000D01*
X150659000Y-88261000D02*
X150659000Y-87400000D01*
X150699000Y-85320000D02*
X150699000Y-84423000D01*
X150699000Y-88297000D02*
X150699000Y-87400000D01*
X150739000Y-85320000D02*
X150739000Y-84389000D01*
X150739000Y-88331000D02*
X150739000Y-87400000D01*
X150779000Y-85320000D02*
X150779000Y-84356000D01*
X150779000Y-88364000D02*
X150779000Y-87400000D01*
X150819000Y-85320000D02*
X150819000Y-84325000D01*
X150819000Y-88395000D02*
X150819000Y-87400000D01*
X150859000Y-85320000D02*
X150859000Y-84295000D01*
X150859000Y-88425000D02*
X150859000Y-87400000D01*
X150899000Y-85320000D02*
X150899000Y-84265000D01*
X150899000Y-88455000D02*
X150899000Y-87400000D01*
X150939000Y-85320000D02*
X150939000Y-84238000D01*
X150939000Y-88482000D02*
X150939000Y-87400000D01*
X150979000Y-85320000D02*
X150979000Y-84211000D01*
X150979000Y-88509000D02*
X150979000Y-87400000D01*
X151019000Y-85320000D02*
X151019000Y-84185000D01*
X151019000Y-88535000D02*
X151019000Y-87400000D01*
X151059000Y-85320000D02*
X151059000Y-84160000D01*
X151059000Y-88560000D02*
X151059000Y-87400000D01*
X151099000Y-85320000D02*
X151099000Y-84136000D01*
X151099000Y-88584000D02*
X151099000Y-87400000D01*
X151139000Y-85320000D02*
X151139000Y-84113000D01*
X151139000Y-88607000D02*
X151139000Y-87400000D01*
X151179000Y-85320000D02*
X151179000Y-84092000D01*
X151179000Y-88628000D02*
X151179000Y-87400000D01*
X151219000Y-85320000D02*
X151219000Y-84070000D01*
X151219000Y-88650000D02*
X151219000Y-87400000D01*
X151259000Y-85320000D02*
X151259000Y-84050000D01*
X151259000Y-88670000D02*
X151259000Y-87400000D01*
X151299000Y-85320000D02*
X151299000Y-84031000D01*
X151299000Y-88689000D02*
X151299000Y-87400000D01*
X151339000Y-85320000D02*
X151339000Y-84012000D01*
X151339000Y-88708000D02*
X151339000Y-87400000D01*
X151379000Y-85320000D02*
X151379000Y-83995000D01*
X151379000Y-88725000D02*
X151379000Y-87400000D01*
X151419000Y-85320000D02*
X151419000Y-83978000D01*
X151419000Y-88742000D02*
X151419000Y-87400000D01*
X151459000Y-85320000D02*
X151459000Y-83962000D01*
X151459000Y-88758000D02*
X151459000Y-87400000D01*
X151499000Y-85320000D02*
X151499000Y-83946000D01*
X151499000Y-88774000D02*
X151499000Y-87400000D01*
X151539000Y-85320000D02*
X151539000Y-83932000D01*
X151539000Y-88788000D02*
X151539000Y-87400000D01*
X151579000Y-85320000D02*
X151579000Y-83918000D01*
X151579000Y-88802000D02*
X151579000Y-87400000D01*
X151619000Y-85320000D02*
X151619000Y-83905000D01*
X151619000Y-88815000D02*
X151619000Y-87400000D01*
X151659000Y-85320000D02*
X151659000Y-83892000D01*
X151659000Y-88828000D02*
X151659000Y-87400000D01*
X151699000Y-85320000D02*
X151699000Y-83880000D01*
X151699000Y-88840000D02*
X151699000Y-87400000D01*
X151740000Y-85320000D02*
X151740000Y-83869000D01*
X151740000Y-88851000D02*
X151740000Y-87400000D01*
X151780000Y-85320000D02*
X151780000Y-83859000D01*
X151780000Y-88861000D02*
X151780000Y-87400000D01*
X151820000Y-85320000D02*
X151820000Y-83849000D01*
X151820000Y-88871000D02*
X151820000Y-87400000D01*
X151860000Y-85320000D02*
X151860000Y-83840000D01*
X151860000Y-88880000D02*
X151860000Y-87400000D01*
X151900000Y-85320000D02*
X151900000Y-83832000D01*
X151900000Y-88888000D02*
X151900000Y-87400000D01*
X151940000Y-85320000D02*
X151940000Y-83824000D01*
X151940000Y-88896000D02*
X151940000Y-87400000D01*
X151980000Y-85320000D02*
X151980000Y-83817000D01*
X151980000Y-88903000D02*
X151980000Y-87400000D01*
X152020000Y-85320000D02*
X152020000Y-83810000D01*
X152020000Y-88910000D02*
X152020000Y-87400000D01*
X152060000Y-85320000D02*
X152060000Y-83804000D01*
X152060000Y-88916000D02*
X152060000Y-87400000D01*
X152100000Y-85320000D02*
X152100000Y-83799000D01*
X152100000Y-88921000D02*
X152100000Y-87400000D01*
X152140000Y-85320000D02*
X152140000Y-83795000D01*
X152140000Y-88925000D02*
X152140000Y-87400000D01*
X152180000Y-85320000D02*
X152180000Y-83791000D01*
X152180000Y-88929000D02*
X152180000Y-87400000D01*
X152220000Y-88933000D02*
X152220000Y-83787000D01*
X152260000Y-88936000D02*
X152260000Y-83784000D01*
X152300000Y-88938000D02*
X152300000Y-83782000D01*
X152340000Y-88939000D02*
X152340000Y-83781000D01*
X152380000Y-88940000D02*
X152380000Y-83780000D01*
X152420000Y-88940000D02*
X152420000Y-83780000D01*
X155040000Y-86360000D02*
G75*
G03*
X155040000Y-86360000I-2620000J0D01*
G01*
G04 #@! TO.C,C4*
X174578000Y-93960000D02*
G75*
G03*
X174578000Y-93960000I-2620000J0D01*
G01*
X174538000Y-93960000D02*
X169378000Y-93960000D01*
X174538000Y-94000000D02*
X169378000Y-94000000D01*
X174537000Y-94040000D02*
X169379000Y-94040000D01*
X174536000Y-94080000D02*
X169380000Y-94080000D01*
X174534000Y-94120000D02*
X169382000Y-94120000D01*
X174531000Y-94160000D02*
X169385000Y-94160000D01*
X174527000Y-94200000D02*
X172998000Y-94200000D01*
X170918000Y-94200000D02*
X169389000Y-94200000D01*
X174523000Y-94240000D02*
X172998000Y-94240000D01*
X170918000Y-94240000D02*
X169393000Y-94240000D01*
X174519000Y-94280000D02*
X172998000Y-94280000D01*
X170918000Y-94280000D02*
X169397000Y-94280000D01*
X174514000Y-94320000D02*
X172998000Y-94320000D01*
X170918000Y-94320000D02*
X169402000Y-94320000D01*
X174508000Y-94360000D02*
X172998000Y-94360000D01*
X170918000Y-94360000D02*
X169408000Y-94360000D01*
X174501000Y-94400000D02*
X172998000Y-94400000D01*
X170918000Y-94400000D02*
X169415000Y-94400000D01*
X174494000Y-94440000D02*
X172998000Y-94440000D01*
X170918000Y-94440000D02*
X169422000Y-94440000D01*
X174486000Y-94480000D02*
X172998000Y-94480000D01*
X170918000Y-94480000D02*
X169430000Y-94480000D01*
X174478000Y-94520000D02*
X172998000Y-94520000D01*
X170918000Y-94520000D02*
X169438000Y-94520000D01*
X174469000Y-94560000D02*
X172998000Y-94560000D01*
X170918000Y-94560000D02*
X169447000Y-94560000D01*
X174459000Y-94600000D02*
X172998000Y-94600000D01*
X170918000Y-94600000D02*
X169457000Y-94600000D01*
X174449000Y-94640000D02*
X172998000Y-94640000D01*
X170918000Y-94640000D02*
X169467000Y-94640000D01*
X174438000Y-94681000D02*
X172998000Y-94681000D01*
X170918000Y-94681000D02*
X169478000Y-94681000D01*
X174426000Y-94721000D02*
X172998000Y-94721000D01*
X170918000Y-94721000D02*
X169490000Y-94721000D01*
X174413000Y-94761000D02*
X172998000Y-94761000D01*
X170918000Y-94761000D02*
X169503000Y-94761000D01*
X174400000Y-94801000D02*
X172998000Y-94801000D01*
X170918000Y-94801000D02*
X169516000Y-94801000D01*
X174386000Y-94841000D02*
X172998000Y-94841000D01*
X170918000Y-94841000D02*
X169530000Y-94841000D01*
X174372000Y-94881000D02*
X172998000Y-94881000D01*
X170918000Y-94881000D02*
X169544000Y-94881000D01*
X174356000Y-94921000D02*
X172998000Y-94921000D01*
X170918000Y-94921000D02*
X169560000Y-94921000D01*
X174340000Y-94961000D02*
X172998000Y-94961000D01*
X170918000Y-94961000D02*
X169576000Y-94961000D01*
X174323000Y-95001000D02*
X172998000Y-95001000D01*
X170918000Y-95001000D02*
X169593000Y-95001000D01*
X174306000Y-95041000D02*
X172998000Y-95041000D01*
X170918000Y-95041000D02*
X169610000Y-95041000D01*
X174287000Y-95081000D02*
X172998000Y-95081000D01*
X170918000Y-95081000D02*
X169629000Y-95081000D01*
X174268000Y-95121000D02*
X172998000Y-95121000D01*
X170918000Y-95121000D02*
X169648000Y-95121000D01*
X174248000Y-95161000D02*
X172998000Y-95161000D01*
X170918000Y-95161000D02*
X169668000Y-95161000D01*
X174226000Y-95201000D02*
X172998000Y-95201000D01*
X170918000Y-95201000D02*
X169690000Y-95201000D01*
X174205000Y-95241000D02*
X172998000Y-95241000D01*
X170918000Y-95241000D02*
X169711000Y-95241000D01*
X174182000Y-95281000D02*
X172998000Y-95281000D01*
X170918000Y-95281000D02*
X169734000Y-95281000D01*
X174158000Y-95321000D02*
X172998000Y-95321000D01*
X170918000Y-95321000D02*
X169758000Y-95321000D01*
X174133000Y-95361000D02*
X172998000Y-95361000D01*
X170918000Y-95361000D02*
X169783000Y-95361000D01*
X174107000Y-95401000D02*
X172998000Y-95401000D01*
X170918000Y-95401000D02*
X169809000Y-95401000D01*
X174080000Y-95441000D02*
X172998000Y-95441000D01*
X170918000Y-95441000D02*
X169836000Y-95441000D01*
X174053000Y-95481000D02*
X172998000Y-95481000D01*
X170918000Y-95481000D02*
X169863000Y-95481000D01*
X174023000Y-95521000D02*
X172998000Y-95521000D01*
X170918000Y-95521000D02*
X169893000Y-95521000D01*
X173993000Y-95561000D02*
X172998000Y-95561000D01*
X170918000Y-95561000D02*
X169923000Y-95561000D01*
X173962000Y-95601000D02*
X172998000Y-95601000D01*
X170918000Y-95601000D02*
X169954000Y-95601000D01*
X173929000Y-95641000D02*
X172998000Y-95641000D01*
X170918000Y-95641000D02*
X169987000Y-95641000D01*
X173895000Y-95681000D02*
X172998000Y-95681000D01*
X170918000Y-95681000D02*
X170021000Y-95681000D01*
X173859000Y-95721000D02*
X172998000Y-95721000D01*
X170918000Y-95721000D02*
X170057000Y-95721000D01*
X173822000Y-95761000D02*
X172998000Y-95761000D01*
X170918000Y-95761000D02*
X170094000Y-95761000D01*
X173784000Y-95801000D02*
X172998000Y-95801000D01*
X170918000Y-95801000D02*
X170132000Y-95801000D01*
X173743000Y-95841000D02*
X172998000Y-95841000D01*
X170918000Y-95841000D02*
X170173000Y-95841000D01*
X173701000Y-95881000D02*
X172998000Y-95881000D01*
X170918000Y-95881000D02*
X170215000Y-95881000D01*
X173657000Y-95921000D02*
X172998000Y-95921000D01*
X170918000Y-95921000D02*
X170259000Y-95921000D01*
X173611000Y-95961000D02*
X172998000Y-95961000D01*
X170918000Y-95961000D02*
X170305000Y-95961000D01*
X173563000Y-96001000D02*
X172998000Y-96001000D01*
X170918000Y-96001000D02*
X170353000Y-96001000D01*
X173512000Y-96041000D02*
X172998000Y-96041000D01*
X170918000Y-96041000D02*
X170404000Y-96041000D01*
X173458000Y-96081000D02*
X172998000Y-96081000D01*
X170918000Y-96081000D02*
X170458000Y-96081000D01*
X173401000Y-96121000D02*
X172998000Y-96121000D01*
X170918000Y-96121000D02*
X170515000Y-96121000D01*
X173341000Y-96161000D02*
X172998000Y-96161000D01*
X170918000Y-96161000D02*
X170575000Y-96161000D01*
X173277000Y-96201000D02*
X172998000Y-96201000D01*
X170918000Y-96201000D02*
X170639000Y-96201000D01*
X173209000Y-96241000D02*
X172998000Y-96241000D01*
X170918000Y-96241000D02*
X170707000Y-96241000D01*
X173136000Y-96281000D02*
X170780000Y-96281000D01*
X173056000Y-96321000D02*
X170860000Y-96321000D01*
X172969000Y-96361000D02*
X170947000Y-96361000D01*
X172873000Y-96401000D02*
X171043000Y-96401000D01*
X172763000Y-96441000D02*
X171153000Y-96441000D01*
X172635000Y-96481000D02*
X171281000Y-96481000D01*
X172476000Y-96521000D02*
X171440000Y-96521000D01*
X172242000Y-96561000D02*
X171674000Y-96561000D01*
X173433000Y-91155225D02*
X173433000Y-91655225D01*
X173683000Y-91405225D02*
X173183000Y-91405225D01*
G04 #@! TO.C,C5*
X161067000Y-100062000D02*
X161067000Y-101320000D01*
X159227000Y-100062000D02*
X159227000Y-101320000D01*
G04 #@! TO.C,C6*
X141083000Y-110648000D02*
X142341000Y-110648000D01*
X141083000Y-108808000D02*
X142341000Y-108808000D01*
G04 #@! TO.C,C7*
X141083000Y-107473000D02*
X142341000Y-107473000D01*
X141083000Y-105633000D02*
X142341000Y-105633000D01*
G04 #@! TO.C,C8*
X137383000Y-106920000D02*
X137383000Y-108178000D01*
X139223000Y-106920000D02*
X139223000Y-108178000D01*
G04 #@! TO.C,C9*
X136683000Y-106920000D02*
X136683000Y-108178000D01*
X134843000Y-106920000D02*
X134843000Y-108178000D01*
G04 #@! TO.C,C10*
X153021000Y-91790000D02*
X154279000Y-91790000D01*
X153021000Y-93630000D02*
X154279000Y-93630000D01*
G04 #@! TO.C,C11*
X153061000Y-94330000D02*
X154319000Y-94330000D01*
X153061000Y-96170000D02*
X154319000Y-96170000D01*
G04 #@! TO.C,C12*
X130652000Y-97689000D02*
X130652000Y-98947000D01*
X132492000Y-97689000D02*
X132492000Y-98947000D01*
G04 #@! TO.C,C13*
X133954000Y-97689000D02*
X133954000Y-98947000D01*
X135794000Y-97689000D02*
X135794000Y-98947000D01*
G04 #@! TO.C,C14*
X139096000Y-97649000D02*
X139096000Y-98907000D01*
X137256000Y-97649000D02*
X137256000Y-98907000D01*
G04 #@! TO.C,C15*
X139206000Y-104933000D02*
X137948000Y-104933000D01*
X139206000Y-103093000D02*
X137948000Y-103093000D01*
G04 #@! TO.C,C16*
X132684000Y-115810000D02*
X132684000Y-117068000D01*
X134524000Y-115810000D02*
X134524000Y-117068000D01*
G04 #@! TO.C,C17*
X126080000Y-115810000D02*
X126080000Y-117068000D01*
X127920000Y-115810000D02*
X127920000Y-117068000D01*
G04 #@! TO.C,C18*
X124491000Y-115810000D02*
X124491000Y-117068000D01*
X122651000Y-115810000D02*
X122651000Y-117068000D01*
G04 #@! TO.C,C19*
X131222000Y-117068000D02*
X131222000Y-115810000D01*
X129382000Y-117068000D02*
X129382000Y-115810000D01*
G04 #@! TO.C,C20*
X154590000Y-104801000D02*
X154590000Y-106059000D01*
X152750000Y-104801000D02*
X152750000Y-106059000D01*
G04 #@! TO.C,C21*
X161067000Y-104801000D02*
X161067000Y-106059000D01*
X159227000Y-104801000D02*
X159227000Y-106059000D01*
G04 #@! TO.C,JP1*
X145560000Y-92410000D02*
X145560000Y-93010000D01*
X143460000Y-91710000D02*
X144860000Y-91710000D01*
X142760000Y-93010000D02*
X142760000Y-92410000D01*
X144860000Y-93710000D02*
X143460000Y-93710000D01*
X143460000Y-93710000D02*
G75*
G02*
X142760000Y-93010000I0J700000D01*
G01*
X142760000Y-92410000D02*
G75*
G02*
X143460000Y-91710000I700000J0D01*
G01*
X144860000Y-91710000D02*
G75*
G02*
X145560000Y-92410000I0J-700000D01*
G01*
X145560000Y-93010000D02*
G75*
G02*
X144860000Y-93710000I-700000J0D01*
G01*
G04 #@! TO.C,Q1*
X132837000Y-91204000D02*
X131907000Y-91204000D01*
X129677000Y-91204000D02*
X130607000Y-91204000D01*
X129677000Y-91204000D02*
X129677000Y-93364000D01*
X132837000Y-91204000D02*
X132837000Y-92664000D01*
G04 #@! TO.C,R1*
X127000000Y-87400000D02*
X127000000Y-88170000D01*
X127000000Y-95480000D02*
X127000000Y-94710000D01*
X125630000Y-88170000D02*
X125630000Y-94710000D01*
X128370000Y-88170000D02*
X125630000Y-88170000D01*
X128370000Y-94710000D02*
X128370000Y-88170000D01*
X125630000Y-94710000D02*
X128370000Y-94710000D01*
G04 #@! TO.C,R2*
X128678000Y-111220000D02*
X131418000Y-111220000D01*
X131418000Y-111220000D02*
X131418000Y-104680000D01*
X131418000Y-104680000D02*
X128678000Y-104680000D01*
X128678000Y-104680000D02*
X128678000Y-111220000D01*
X130048000Y-111990000D02*
X130048000Y-111220000D01*
X130048000Y-103910000D02*
X130048000Y-104680000D01*
G04 #@! TO.C,R3*
X148844000Y-107593000D02*
X148844000Y-108363000D01*
X148844000Y-115673000D02*
X148844000Y-114903000D01*
X147474000Y-108363000D02*
X147474000Y-114903000D01*
X150214000Y-108363000D02*
X147474000Y-108363000D01*
X150214000Y-114903000D02*
X150214000Y-108363000D01*
X147474000Y-114903000D02*
X150214000Y-114903000D01*
G04 #@! TO.C,R4*
X131477000Y-83212000D02*
X131477000Y-85952000D01*
X131477000Y-85952000D02*
X138017000Y-85952000D01*
X138017000Y-85952000D02*
X138017000Y-83212000D01*
X138017000Y-83212000D02*
X131477000Y-83212000D01*
X130707000Y-84582000D02*
X131477000Y-84582000D01*
X138787000Y-84582000D02*
X138017000Y-84582000D01*
G04 #@! TO.C,R5*
X131726000Y-111220000D02*
X134466000Y-111220000D01*
X134466000Y-111220000D02*
X134466000Y-104680000D01*
X134466000Y-104680000D02*
X131726000Y-104680000D01*
X131726000Y-104680000D02*
X131726000Y-111220000D01*
X133096000Y-111990000D02*
X133096000Y-111220000D01*
X133096000Y-103910000D02*
X133096000Y-104680000D01*
G04 #@! TO.C,R6*
X127000000Y-103910000D02*
X127000000Y-104680000D01*
X127000000Y-111990000D02*
X127000000Y-111220000D01*
X125630000Y-104680000D02*
X125630000Y-111220000D01*
X128370000Y-104680000D02*
X125630000Y-104680000D01*
X128370000Y-111220000D02*
X128370000Y-104680000D01*
X125630000Y-111220000D02*
X128370000Y-111220000D01*
G04 #@! TO.C,R8*
X144426000Y-114903000D02*
X147166000Y-114903000D01*
X147166000Y-114903000D02*
X147166000Y-108363000D01*
X147166000Y-108363000D02*
X144426000Y-108363000D01*
X144426000Y-108363000D02*
X144426000Y-114903000D01*
X145796000Y-115673000D02*
X145796000Y-114903000D01*
X145796000Y-107593000D02*
X145796000Y-108363000D01*
G04 #@! TO.C,R9*
X135160000Y-86260000D02*
X135160000Y-89000000D01*
X135160000Y-89000000D02*
X141700000Y-89000000D01*
X141700000Y-89000000D02*
X141700000Y-86260000D01*
X141700000Y-86260000D02*
X135160000Y-86260000D01*
X134390000Y-87630000D02*
X135160000Y-87630000D01*
X142470000Y-87630000D02*
X141700000Y-87630000D01*
G04 #@! TO.C,R10*
X123952000Y-95480000D02*
X123952000Y-94710000D01*
X123952000Y-87400000D02*
X123952000Y-88170000D01*
X125322000Y-94710000D02*
X125322000Y-88170000D01*
X122582000Y-94710000D02*
X125322000Y-94710000D01*
X122582000Y-88170000D02*
X122582000Y-94710000D01*
X125322000Y-88170000D02*
X122582000Y-88170000D01*
G04 #@! TO.C,R11*
X160242000Y-111479000D02*
X160242000Y-108739000D01*
X160242000Y-108739000D02*
X153702000Y-108739000D01*
X153702000Y-108739000D02*
X153702000Y-111479000D01*
X153702000Y-111479000D02*
X160242000Y-111479000D01*
X161012000Y-110109000D02*
X160242000Y-110109000D01*
X152932000Y-110109000D02*
X153702000Y-110109000D01*
G04 #@! TO.C,TP1*
X146050000Y-85150000D02*
X146050000Y-82490000D01*
X146050000Y-85150000D02*
X148650000Y-85150000D01*
X148650000Y-85150000D02*
X148650000Y-82490000D01*
X146050000Y-82490000D02*
X148650000Y-82490000D01*
X143450000Y-82490000D02*
X144780000Y-82490000D01*
X143450000Y-83820000D02*
X143450000Y-82490000D01*
G04 #@! TO.C,U1*
X156610000Y-90460000D02*
X156610000Y-84450000D01*
X163430000Y-88210000D02*
X163430000Y-84450000D01*
X156610000Y-84450000D02*
X157870000Y-84450000D01*
X163430000Y-84450000D02*
X162170000Y-84450000D01*
G04 #@! TO.C,U2*
X173463000Y-84450000D02*
X172203000Y-84450000D01*
X166643000Y-84450000D02*
X167903000Y-84450000D01*
X173463000Y-88210000D02*
X173463000Y-84450000D01*
X166643000Y-90460000D02*
X166643000Y-84450000D01*
G04 #@! TO.C,X1*
X158860000Y-102180000D02*
X158860000Y-98480000D01*
X158860000Y-98480000D02*
X153560000Y-98480000D01*
G04 #@! TO.C,Y1*
X153820000Y-111902000D02*
X160070000Y-111902000D01*
X153820000Y-116952000D02*
X160070000Y-116952000D01*
X153820000Y-116952000D02*
G75*
G02*
X153820000Y-111902000I0J2525000D01*
G01*
X160070000Y-116952000D02*
G75*
G03*
X160070000Y-111902000I0J2525000D01*
G01*
G04 #@! TO.C,U3*
D10*
X140676380Y-96900904D02*
X141485904Y-96900904D01*
X141581142Y-96853285D01*
X141628761Y-96805666D01*
X141676380Y-96710428D01*
X141676380Y-96519952D01*
X141628761Y-96424714D01*
X141581142Y-96377095D01*
X141485904Y-96329476D01*
X140676380Y-96329476D01*
X140676380Y-95948523D02*
X140676380Y-95329476D01*
X141057333Y-95662809D01*
X141057333Y-95519952D01*
X141104952Y-95424714D01*
X141152571Y-95377095D01*
X141247809Y-95329476D01*
X141485904Y-95329476D01*
X141581142Y-95377095D01*
X141628761Y-95424714D01*
X141676380Y-95519952D01*
X141676380Y-95805666D01*
X141628761Y-95900904D01*
X141581142Y-95948523D01*
G04 #@! TO.C,CON1*
X116404047Y-119975380D02*
X116642142Y-120975380D01*
X116832619Y-120261095D01*
X117023095Y-120975380D01*
X117261190Y-119975380D01*
X117594523Y-120689666D02*
X118070714Y-120689666D01*
X117499285Y-120975380D02*
X117832619Y-119975380D01*
X118165952Y-120975380D01*
X118356428Y-119975380D02*
X118689761Y-120975380D01*
X119023095Y-119975380D01*
X119356428Y-120451571D02*
X119689761Y-120451571D01*
X119832619Y-120975380D02*
X119356428Y-120975380D01*
X119356428Y-119975380D01*
X119832619Y-119975380D01*
X120594523Y-120451571D02*
X120737380Y-120499190D01*
X120785000Y-120546809D01*
X120832619Y-120642047D01*
X120832619Y-120784904D01*
X120785000Y-120880142D01*
X120737380Y-120927761D01*
X120642142Y-120975380D01*
X120261190Y-120975380D01*
X120261190Y-119975380D01*
X120594523Y-119975380D01*
X120689761Y-120023000D01*
X120737380Y-120070619D01*
X120785000Y-120165857D01*
X120785000Y-120261095D01*
X120737380Y-120356333D01*
X120689761Y-120403952D01*
X120594523Y-120451571D01*
X120261190Y-120451571D01*
X121737380Y-120975380D02*
X121261190Y-120975380D01*
X121261190Y-119975380D01*
X122023095Y-120689666D02*
X122499285Y-120689666D01*
X121927857Y-120975380D02*
X122261190Y-119975380D01*
X122594523Y-120975380D01*
X122880238Y-120927761D02*
X123023095Y-120975380D01*
X123261190Y-120975380D01*
X123356428Y-120927761D01*
X123404047Y-120880142D01*
X123451666Y-120784904D01*
X123451666Y-120689666D01*
X123404047Y-120594428D01*
X123356428Y-120546809D01*
X123261190Y-120499190D01*
X123070714Y-120451571D01*
X122975476Y-120403952D01*
X122927857Y-120356333D01*
X122880238Y-120261095D01*
X122880238Y-120165857D01*
X122927857Y-120070619D01*
X122975476Y-120023000D01*
X123070714Y-119975380D01*
X123308809Y-119975380D01*
X123451666Y-120023000D01*
X123737380Y-119975380D02*
X124308809Y-119975380D01*
X124023095Y-120975380D02*
X124023095Y-119975380D01*
X124642142Y-120451571D02*
X124975476Y-120451571D01*
X125118333Y-120975380D02*
X124642142Y-120975380D01*
X124642142Y-119975380D01*
X125118333Y-119975380D01*
X126118333Y-120975380D02*
X125785000Y-120499190D01*
X125546904Y-120975380D02*
X125546904Y-119975380D01*
X125927857Y-119975380D01*
X126023095Y-120023000D01*
X126070714Y-120070619D01*
X126118333Y-120165857D01*
X126118333Y-120308714D01*
X126070714Y-120403952D01*
X126023095Y-120451571D01*
X125927857Y-120499190D01*
X125546904Y-120499190D01*
G04 #@! TO.C,R7*
X137993380Y-113069666D02*
X137517190Y-113403000D01*
X137993380Y-113641095D02*
X136993380Y-113641095D01*
X136993380Y-113260142D01*
X137041000Y-113164904D01*
X137088619Y-113117285D01*
X137183857Y-113069666D01*
X137326714Y-113069666D01*
X137421952Y-113117285D01*
X137469571Y-113164904D01*
X137517190Y-113260142D01*
X137517190Y-113641095D01*
X136993380Y-112736333D02*
X136993380Y-112069666D01*
X137993380Y-112498238D01*
X123499619Y-108711904D02*
X123452000Y-108664285D01*
X123404380Y-108569047D01*
X123404380Y-108330952D01*
X123452000Y-108235714D01*
X123499619Y-108188095D01*
X123594857Y-108140476D01*
X123690095Y-108140476D01*
X123832952Y-108188095D01*
X124404380Y-108759523D01*
X124404380Y-108140476D01*
X123404380Y-107521428D02*
X123404380Y-107426190D01*
X123452000Y-107330952D01*
X123499619Y-107283333D01*
X123594857Y-107235714D01*
X123785333Y-107188095D01*
X124023428Y-107188095D01*
X124213904Y-107235714D01*
X124309142Y-107283333D01*
X124356761Y-107330952D01*
X124404380Y-107426190D01*
X124404380Y-107521428D01*
X124356761Y-107616666D01*
X124309142Y-107664285D01*
X124213904Y-107711904D01*
X124023428Y-107759523D01*
X123785333Y-107759523D01*
X123594857Y-107711904D01*
X123499619Y-107664285D01*
X123452000Y-107616666D01*
X123404380Y-107521428D01*
G04 #@! TO.C,C1*
X163552142Y-92368666D02*
X163599761Y-92416285D01*
X163647380Y-92559142D01*
X163647380Y-92654380D01*
X163599761Y-92797238D01*
X163504523Y-92892476D01*
X163409285Y-92940095D01*
X163218809Y-92987714D01*
X163075952Y-92987714D01*
X162885476Y-92940095D01*
X162790238Y-92892476D01*
X162695000Y-92797238D01*
X162647380Y-92654380D01*
X162647380Y-92559142D01*
X162695000Y-92416285D01*
X162742619Y-92368666D01*
X163647380Y-91416285D02*
X163647380Y-91987714D01*
X163647380Y-91702000D02*
X162647380Y-91702000D01*
X162790238Y-91797238D01*
X162885476Y-91892476D01*
X162933095Y-91987714D01*
X164169285Y-97002142D02*
X164169285Y-97430714D01*
X164169285Y-97216428D02*
X163419285Y-97216428D01*
X163526428Y-97287857D01*
X163597857Y-97359285D01*
X163633571Y-97430714D01*
X163419285Y-96537857D02*
X163419285Y-96466428D01*
X163455000Y-96395000D01*
X163490714Y-96359285D01*
X163562142Y-96323571D01*
X163705000Y-96287857D01*
X163883571Y-96287857D01*
X164026428Y-96323571D01*
X164097857Y-96359285D01*
X164133571Y-96395000D01*
X164169285Y-96466428D01*
X164169285Y-96537857D01*
X164133571Y-96609285D01*
X164097857Y-96645000D01*
X164026428Y-96680714D01*
X163883571Y-96716428D01*
X163705000Y-96716428D01*
X163562142Y-96680714D01*
X163490714Y-96645000D01*
X163455000Y-96609285D01*
X163419285Y-96537857D01*
X163669285Y-95645000D02*
X164169285Y-95645000D01*
X163669285Y-95966428D02*
X164062142Y-95966428D01*
X164133571Y-95930714D01*
X164169285Y-95859285D01*
X164169285Y-95752142D01*
X164133571Y-95680714D01*
X164097857Y-95645000D01*
G04 #@! TO.C,C2*
X167219333Y-104283142D02*
X167171714Y-104330761D01*
X167028857Y-104378380D01*
X166933619Y-104378380D01*
X166790761Y-104330761D01*
X166695523Y-104235523D01*
X166647904Y-104140285D01*
X166600285Y-103949809D01*
X166600285Y-103806952D01*
X166647904Y-103616476D01*
X166695523Y-103521238D01*
X166790761Y-103426000D01*
X166933619Y-103378380D01*
X167028857Y-103378380D01*
X167171714Y-103426000D01*
X167219333Y-103473619D01*
X167600285Y-103473619D02*
X167647904Y-103426000D01*
X167743142Y-103378380D01*
X167981238Y-103378380D01*
X168076476Y-103426000D01*
X168124095Y-103473619D01*
X168171714Y-103568857D01*
X168171714Y-103664095D01*
X168124095Y-103806952D01*
X167552666Y-104378380D01*
X168171714Y-104378380D01*
X164042285Y-103733142D02*
X164042285Y-104161714D01*
X164042285Y-103947428D02*
X163292285Y-103947428D01*
X163399428Y-104018857D01*
X163470857Y-104090285D01*
X163506571Y-104161714D01*
X163292285Y-103268857D02*
X163292285Y-103197428D01*
X163328000Y-103126000D01*
X163363714Y-103090285D01*
X163435142Y-103054571D01*
X163578000Y-103018857D01*
X163756571Y-103018857D01*
X163899428Y-103054571D01*
X163970857Y-103090285D01*
X164006571Y-103126000D01*
X164042285Y-103197428D01*
X164042285Y-103268857D01*
X164006571Y-103340285D01*
X163970857Y-103376000D01*
X163899428Y-103411714D01*
X163756571Y-103447428D01*
X163578000Y-103447428D01*
X163435142Y-103411714D01*
X163363714Y-103376000D01*
X163328000Y-103340285D01*
X163292285Y-103268857D01*
X163542285Y-102376000D02*
X164042285Y-102376000D01*
X163542285Y-102697428D02*
X163935142Y-102697428D01*
X164006571Y-102661714D01*
X164042285Y-102590285D01*
X164042285Y-102483142D01*
X164006571Y-102411714D01*
X163970857Y-102376000D01*
G04 #@! TO.C,C3*
X148423333Y-89257142D02*
X148375714Y-89304761D01*
X148232857Y-89352380D01*
X148137619Y-89352380D01*
X147994761Y-89304761D01*
X147899523Y-89209523D01*
X147851904Y-89114285D01*
X147804285Y-88923809D01*
X147804285Y-88780952D01*
X147851904Y-88590476D01*
X147899523Y-88495238D01*
X147994761Y-88400000D01*
X148137619Y-88352380D01*
X148232857Y-88352380D01*
X148375714Y-88400000D01*
X148423333Y-88447619D01*
X148756666Y-88352380D02*
X149375714Y-88352380D01*
X149042380Y-88733333D01*
X149185238Y-88733333D01*
X149280476Y-88780952D01*
X149328095Y-88828571D01*
X149375714Y-88923809D01*
X149375714Y-89161904D01*
X149328095Y-89257142D01*
X149280476Y-89304761D01*
X149185238Y-89352380D01*
X148899523Y-89352380D01*
X148804285Y-89304761D01*
X148756666Y-89257142D01*
X151937857Y-82949285D02*
X151509285Y-82949285D01*
X151723571Y-82949285D02*
X151723571Y-82199285D01*
X151652142Y-82306428D01*
X151580714Y-82377857D01*
X151509285Y-82413571D01*
X152402142Y-82199285D02*
X152473571Y-82199285D01*
X152545000Y-82235000D01*
X152580714Y-82270714D01*
X152616428Y-82342142D01*
X152652142Y-82485000D01*
X152652142Y-82663571D01*
X152616428Y-82806428D01*
X152580714Y-82877857D01*
X152545000Y-82913571D01*
X152473571Y-82949285D01*
X152402142Y-82949285D01*
X152330714Y-82913571D01*
X152295000Y-82877857D01*
X152259285Y-82806428D01*
X152223571Y-82663571D01*
X152223571Y-82485000D01*
X152259285Y-82342142D01*
X152295000Y-82270714D01*
X152330714Y-82235000D01*
X152402142Y-82199285D01*
X153295000Y-82449285D02*
X153295000Y-82949285D01*
X152973571Y-82449285D02*
X152973571Y-82842142D01*
X153009285Y-82913571D01*
X153080714Y-82949285D01*
X153187857Y-82949285D01*
X153259285Y-82913571D01*
X153295000Y-82877857D01*
G04 #@! TO.C,C4*
X171791333Y-98147142D02*
X171743714Y-98194761D01*
X171600857Y-98242380D01*
X171505619Y-98242380D01*
X171362761Y-98194761D01*
X171267523Y-98099523D01*
X171219904Y-98004285D01*
X171172285Y-97813809D01*
X171172285Y-97670952D01*
X171219904Y-97480476D01*
X171267523Y-97385238D01*
X171362761Y-97290000D01*
X171505619Y-97242380D01*
X171600857Y-97242380D01*
X171743714Y-97290000D01*
X171791333Y-97337619D01*
X172648476Y-97575714D02*
X172648476Y-98242380D01*
X172410380Y-97194761D02*
X172172285Y-97909047D01*
X172791333Y-97909047D01*
X171475857Y-90509285D02*
X171047285Y-90509285D01*
X171261571Y-90509285D02*
X171261571Y-89759285D01*
X171190142Y-89866428D01*
X171118714Y-89937857D01*
X171047285Y-89973571D01*
X171940142Y-89759285D02*
X172011571Y-89759285D01*
X172083000Y-89795000D01*
X172118714Y-89830714D01*
X172154428Y-89902142D01*
X172190142Y-90045000D01*
X172190142Y-90223571D01*
X172154428Y-90366428D01*
X172118714Y-90437857D01*
X172083000Y-90473571D01*
X172011571Y-90509285D01*
X171940142Y-90509285D01*
X171868714Y-90473571D01*
X171833000Y-90437857D01*
X171797285Y-90366428D01*
X171761571Y-90223571D01*
X171761571Y-90045000D01*
X171797285Y-89902142D01*
X171833000Y-89830714D01*
X171868714Y-89795000D01*
X171940142Y-89759285D01*
X172833000Y-90009285D02*
X172833000Y-90509285D01*
X172511571Y-90009285D02*
X172511571Y-90402142D01*
X172547285Y-90473571D01*
X172618714Y-90509285D01*
X172725857Y-90509285D01*
X172797285Y-90473571D01*
X172833000Y-90437857D01*
G04 #@! TO.C,C5*
X162155142Y-102401666D02*
X162202761Y-102449285D01*
X162250380Y-102592142D01*
X162250380Y-102687380D01*
X162202761Y-102830238D01*
X162107523Y-102925476D01*
X162012285Y-102973095D01*
X161821809Y-103020714D01*
X161678952Y-103020714D01*
X161488476Y-102973095D01*
X161393238Y-102925476D01*
X161298000Y-102830238D01*
X161250380Y-102687380D01*
X161250380Y-102592142D01*
X161298000Y-102449285D01*
X161345619Y-102401666D01*
X161250380Y-101496904D02*
X161250380Y-101973095D01*
X161726571Y-102020714D01*
X161678952Y-101973095D01*
X161631333Y-101877857D01*
X161631333Y-101639761D01*
X161678952Y-101544523D01*
X161726571Y-101496904D01*
X161821809Y-101449285D01*
X162059904Y-101449285D01*
X162155142Y-101496904D01*
X162202761Y-101544523D01*
X162250380Y-101639761D01*
X162250380Y-101877857D01*
X162202761Y-101973095D01*
X162155142Y-102020714D01*
X162010285Y-100788285D02*
X162010285Y-101216857D01*
X162010285Y-101002571D02*
X161260285Y-101002571D01*
X161367428Y-101074000D01*
X161438857Y-101145428D01*
X161474571Y-101216857D01*
X161260285Y-100324000D02*
X161260285Y-100252571D01*
X161296000Y-100181142D01*
X161331714Y-100145428D01*
X161403142Y-100109714D01*
X161546000Y-100074000D01*
X161724571Y-100074000D01*
X161867428Y-100109714D01*
X161938857Y-100145428D01*
X161974571Y-100181142D01*
X162010285Y-100252571D01*
X162010285Y-100324000D01*
X161974571Y-100395428D01*
X161938857Y-100431142D01*
X161867428Y-100466857D01*
X161724571Y-100502571D01*
X161546000Y-100502571D01*
X161403142Y-100466857D01*
X161331714Y-100431142D01*
X161296000Y-100395428D01*
X161260285Y-100324000D01*
X161260285Y-99609714D02*
X161260285Y-99538285D01*
X161296000Y-99466857D01*
X161331714Y-99431142D01*
X161403142Y-99395428D01*
X161546000Y-99359714D01*
X161724571Y-99359714D01*
X161867428Y-99395428D01*
X161938857Y-99431142D01*
X161974571Y-99466857D01*
X162010285Y-99538285D01*
X162010285Y-99609714D01*
X161974571Y-99681142D01*
X161938857Y-99716857D01*
X161867428Y-99752571D01*
X161724571Y-99788285D01*
X161546000Y-99788285D01*
X161403142Y-99752571D01*
X161331714Y-99716857D01*
X161296000Y-99681142D01*
X161260285Y-99609714D01*
X161510285Y-99038285D02*
X162010285Y-99038285D01*
X161581714Y-99038285D02*
X161546000Y-99002571D01*
X161510285Y-98931142D01*
X161510285Y-98824000D01*
X161546000Y-98752571D01*
X161617428Y-98716857D01*
X162010285Y-98716857D01*
G04 #@! TO.C,C6*
X142708333Y-111863142D02*
X142660714Y-111910761D01*
X142517857Y-111958380D01*
X142422619Y-111958380D01*
X142279761Y-111910761D01*
X142184523Y-111815523D01*
X142136904Y-111720285D01*
X142089285Y-111529809D01*
X142089285Y-111386952D01*
X142136904Y-111196476D01*
X142184523Y-111101238D01*
X142279761Y-111006000D01*
X142422619Y-110958380D01*
X142517857Y-110958380D01*
X142660714Y-111006000D01*
X142708333Y-111053619D01*
X143565476Y-110958380D02*
X143375000Y-110958380D01*
X143279761Y-111006000D01*
X143232142Y-111053619D01*
X143136904Y-111196476D01*
X143089285Y-111386952D01*
X143089285Y-111767904D01*
X143136904Y-111863142D01*
X143184523Y-111910761D01*
X143279761Y-111958380D01*
X143470238Y-111958380D01*
X143565476Y-111910761D01*
X143613095Y-111863142D01*
X143660714Y-111767904D01*
X143660714Y-111529809D01*
X143613095Y-111434571D01*
X143565476Y-111386952D01*
X143470238Y-111339333D01*
X143279761Y-111339333D01*
X143184523Y-111386952D01*
X143136904Y-111434571D01*
X143089285Y-111529809D01*
X139749714Y-111718285D02*
X139321142Y-111718285D01*
X139535428Y-111718285D02*
X139535428Y-110968285D01*
X139464000Y-111075428D01*
X139392571Y-111146857D01*
X139321142Y-111182571D01*
X140214000Y-110968285D02*
X140285428Y-110968285D01*
X140356857Y-111004000D01*
X140392571Y-111039714D01*
X140428285Y-111111142D01*
X140464000Y-111254000D01*
X140464000Y-111432571D01*
X140428285Y-111575428D01*
X140392571Y-111646857D01*
X140356857Y-111682571D01*
X140285428Y-111718285D01*
X140214000Y-111718285D01*
X140142571Y-111682571D01*
X140106857Y-111646857D01*
X140071142Y-111575428D01*
X140035428Y-111432571D01*
X140035428Y-111254000D01*
X140071142Y-111111142D01*
X140106857Y-111039714D01*
X140142571Y-111004000D01*
X140214000Y-110968285D01*
X140928285Y-110968285D02*
X140999714Y-110968285D01*
X141071142Y-111004000D01*
X141106857Y-111039714D01*
X141142571Y-111111142D01*
X141178285Y-111254000D01*
X141178285Y-111432571D01*
X141142571Y-111575428D01*
X141106857Y-111646857D01*
X141071142Y-111682571D01*
X140999714Y-111718285D01*
X140928285Y-111718285D01*
X140856857Y-111682571D01*
X140821142Y-111646857D01*
X140785428Y-111575428D01*
X140749714Y-111432571D01*
X140749714Y-111254000D01*
X140785428Y-111111142D01*
X140821142Y-111039714D01*
X140856857Y-111004000D01*
X140928285Y-110968285D01*
X141499714Y-111218285D02*
X141499714Y-111718285D01*
X141499714Y-111289714D02*
X141535428Y-111254000D01*
X141606857Y-111218285D01*
X141714000Y-111218285D01*
X141785428Y-111254000D01*
X141821142Y-111325428D01*
X141821142Y-111718285D01*
G04 #@! TO.C,C7*
X142835333Y-108561142D02*
X142787714Y-108608761D01*
X142644857Y-108656380D01*
X142549619Y-108656380D01*
X142406761Y-108608761D01*
X142311523Y-108513523D01*
X142263904Y-108418285D01*
X142216285Y-108227809D01*
X142216285Y-108084952D01*
X142263904Y-107894476D01*
X142311523Y-107799238D01*
X142406761Y-107704000D01*
X142549619Y-107656380D01*
X142644857Y-107656380D01*
X142787714Y-107704000D01*
X142835333Y-107751619D01*
X143168666Y-107656380D02*
X143835333Y-107656380D01*
X143406761Y-108656380D01*
X140003714Y-108543285D02*
X139575142Y-108543285D01*
X139789428Y-108543285D02*
X139789428Y-107793285D01*
X139718000Y-107900428D01*
X139646571Y-107971857D01*
X139575142Y-108007571D01*
X140468000Y-107793285D02*
X140539428Y-107793285D01*
X140610857Y-107829000D01*
X140646571Y-107864714D01*
X140682285Y-107936142D01*
X140718000Y-108079000D01*
X140718000Y-108257571D01*
X140682285Y-108400428D01*
X140646571Y-108471857D01*
X140610857Y-108507571D01*
X140539428Y-108543285D01*
X140468000Y-108543285D01*
X140396571Y-108507571D01*
X140360857Y-108471857D01*
X140325142Y-108400428D01*
X140289428Y-108257571D01*
X140289428Y-108079000D01*
X140325142Y-107936142D01*
X140360857Y-107864714D01*
X140396571Y-107829000D01*
X140468000Y-107793285D01*
X141182285Y-107793285D02*
X141253714Y-107793285D01*
X141325142Y-107829000D01*
X141360857Y-107864714D01*
X141396571Y-107936142D01*
X141432285Y-108079000D01*
X141432285Y-108257571D01*
X141396571Y-108400428D01*
X141360857Y-108471857D01*
X141325142Y-108507571D01*
X141253714Y-108543285D01*
X141182285Y-108543285D01*
X141110857Y-108507571D01*
X141075142Y-108471857D01*
X141039428Y-108400428D01*
X141003714Y-108257571D01*
X141003714Y-108079000D01*
X141039428Y-107936142D01*
X141075142Y-107864714D01*
X141110857Y-107829000D01*
X141182285Y-107793285D01*
X141753714Y-108043285D02*
X141753714Y-108543285D01*
X141753714Y-108114714D02*
X141789428Y-108079000D01*
X141860857Y-108043285D01*
X141968000Y-108043285D01*
X142039428Y-108079000D01*
X142075142Y-108150428D01*
X142075142Y-108543285D01*
G04 #@! TO.C,C8*
X138136333Y-111696142D02*
X138088714Y-111743761D01*
X137945857Y-111791380D01*
X137850619Y-111791380D01*
X137707761Y-111743761D01*
X137612523Y-111648523D01*
X137564904Y-111553285D01*
X137517285Y-111362809D01*
X137517285Y-111219952D01*
X137564904Y-111029476D01*
X137612523Y-110934238D01*
X137707761Y-110839000D01*
X137850619Y-110791380D01*
X137945857Y-110791380D01*
X138088714Y-110839000D01*
X138136333Y-110886619D01*
X138707761Y-111219952D02*
X138612523Y-111172333D01*
X138564904Y-111124714D01*
X138517285Y-111029476D01*
X138517285Y-110981857D01*
X138564904Y-110886619D01*
X138612523Y-110839000D01*
X138707761Y-110791380D01*
X138898238Y-110791380D01*
X138993476Y-110839000D01*
X139041095Y-110886619D01*
X139088714Y-110981857D01*
X139088714Y-111029476D01*
X139041095Y-111124714D01*
X138993476Y-111172333D01*
X138898238Y-111219952D01*
X138707761Y-111219952D01*
X138612523Y-111267571D01*
X138564904Y-111315190D01*
X138517285Y-111410428D01*
X138517285Y-111600904D01*
X138564904Y-111696142D01*
X138612523Y-111743761D01*
X138707761Y-111791380D01*
X138898238Y-111791380D01*
X138993476Y-111743761D01*
X139041095Y-111696142D01*
X139088714Y-111600904D01*
X139088714Y-111410428D01*
X139041095Y-111315190D01*
X138993476Y-111267571D01*
X138898238Y-111219952D01*
X137463714Y-110662285D02*
X137035142Y-110662285D01*
X137249428Y-110662285D02*
X137249428Y-109912285D01*
X137178000Y-110019428D01*
X137106571Y-110090857D01*
X137035142Y-110126571D01*
X137928000Y-109912285D02*
X137999428Y-109912285D01*
X138070857Y-109948000D01*
X138106571Y-109983714D01*
X138142285Y-110055142D01*
X138178000Y-110198000D01*
X138178000Y-110376571D01*
X138142285Y-110519428D01*
X138106571Y-110590857D01*
X138070857Y-110626571D01*
X137999428Y-110662285D01*
X137928000Y-110662285D01*
X137856571Y-110626571D01*
X137820857Y-110590857D01*
X137785142Y-110519428D01*
X137749428Y-110376571D01*
X137749428Y-110198000D01*
X137785142Y-110055142D01*
X137820857Y-109983714D01*
X137856571Y-109948000D01*
X137928000Y-109912285D01*
X138642285Y-109912285D02*
X138713714Y-109912285D01*
X138785142Y-109948000D01*
X138820857Y-109983714D01*
X138856571Y-110055142D01*
X138892285Y-110198000D01*
X138892285Y-110376571D01*
X138856571Y-110519428D01*
X138820857Y-110590857D01*
X138785142Y-110626571D01*
X138713714Y-110662285D01*
X138642285Y-110662285D01*
X138570857Y-110626571D01*
X138535142Y-110590857D01*
X138499428Y-110519428D01*
X138463714Y-110376571D01*
X138463714Y-110198000D01*
X138499428Y-110055142D01*
X138535142Y-109983714D01*
X138570857Y-109948000D01*
X138642285Y-109912285D01*
X139213714Y-110162285D02*
X139213714Y-110662285D01*
X139213714Y-110233714D02*
X139249428Y-110198000D01*
X139320857Y-110162285D01*
X139428000Y-110162285D01*
X139499428Y-110198000D01*
X139535142Y-110269428D01*
X139535142Y-110662285D01*
G04 #@! TO.C,C9*
X135596333Y-111736142D02*
X135548714Y-111783761D01*
X135405857Y-111831380D01*
X135310619Y-111831380D01*
X135167761Y-111783761D01*
X135072523Y-111688523D01*
X135024904Y-111593285D01*
X134977285Y-111402809D01*
X134977285Y-111259952D01*
X135024904Y-111069476D01*
X135072523Y-110974238D01*
X135167761Y-110879000D01*
X135310619Y-110831380D01*
X135405857Y-110831380D01*
X135548714Y-110879000D01*
X135596333Y-110926619D01*
X136072523Y-111831380D02*
X136263000Y-111831380D01*
X136358238Y-111783761D01*
X136405857Y-111736142D01*
X136501095Y-111593285D01*
X136548714Y-111402809D01*
X136548714Y-111021857D01*
X136501095Y-110926619D01*
X136453476Y-110879000D01*
X136358238Y-110831380D01*
X136167761Y-110831380D01*
X136072523Y-110879000D01*
X136024904Y-110926619D01*
X135977285Y-111021857D01*
X135977285Y-111259952D01*
X136024904Y-111355190D01*
X136072523Y-111402809D01*
X136167761Y-111450428D01*
X136358238Y-111450428D01*
X136453476Y-111402809D01*
X136501095Y-111355190D01*
X136548714Y-111259952D01*
X134923714Y-110702285D02*
X134495142Y-110702285D01*
X134709428Y-110702285D02*
X134709428Y-109952285D01*
X134638000Y-110059428D01*
X134566571Y-110130857D01*
X134495142Y-110166571D01*
X135388000Y-109952285D02*
X135459428Y-109952285D01*
X135530857Y-109988000D01*
X135566571Y-110023714D01*
X135602285Y-110095142D01*
X135638000Y-110238000D01*
X135638000Y-110416571D01*
X135602285Y-110559428D01*
X135566571Y-110630857D01*
X135530857Y-110666571D01*
X135459428Y-110702285D01*
X135388000Y-110702285D01*
X135316571Y-110666571D01*
X135280857Y-110630857D01*
X135245142Y-110559428D01*
X135209428Y-110416571D01*
X135209428Y-110238000D01*
X135245142Y-110095142D01*
X135280857Y-110023714D01*
X135316571Y-109988000D01*
X135388000Y-109952285D01*
X136102285Y-109952285D02*
X136173714Y-109952285D01*
X136245142Y-109988000D01*
X136280857Y-110023714D01*
X136316571Y-110095142D01*
X136352285Y-110238000D01*
X136352285Y-110416571D01*
X136316571Y-110559428D01*
X136280857Y-110630857D01*
X136245142Y-110666571D01*
X136173714Y-110702285D01*
X136102285Y-110702285D01*
X136030857Y-110666571D01*
X135995142Y-110630857D01*
X135959428Y-110559428D01*
X135923714Y-110416571D01*
X135923714Y-110238000D01*
X135959428Y-110095142D01*
X135995142Y-110023714D01*
X136030857Y-109988000D01*
X136102285Y-109952285D01*
X136673714Y-110202285D02*
X136673714Y-110702285D01*
X136673714Y-110273714D02*
X136709428Y-110238000D01*
X136780857Y-110202285D01*
X136888000Y-110202285D01*
X136959428Y-110238000D01*
X136995142Y-110309428D01*
X136995142Y-110702285D01*
G04 #@! TO.C,C10*
X149217142Y-93067142D02*
X149169523Y-93114761D01*
X149026666Y-93162380D01*
X148931428Y-93162380D01*
X148788571Y-93114761D01*
X148693333Y-93019523D01*
X148645714Y-92924285D01*
X148598095Y-92733809D01*
X148598095Y-92590952D01*
X148645714Y-92400476D01*
X148693333Y-92305238D01*
X148788571Y-92210000D01*
X148931428Y-92162380D01*
X149026666Y-92162380D01*
X149169523Y-92210000D01*
X149217142Y-92257619D01*
X150169523Y-93162380D02*
X149598095Y-93162380D01*
X149883809Y-93162380D02*
X149883809Y-92162380D01*
X149788571Y-92305238D01*
X149693333Y-92400476D01*
X149598095Y-92448095D01*
X150788571Y-92162380D02*
X150883809Y-92162380D01*
X150979047Y-92210000D01*
X151026666Y-92257619D01*
X151074285Y-92352857D01*
X151121904Y-92543333D01*
X151121904Y-92781428D01*
X151074285Y-92971904D01*
X151026666Y-93067142D01*
X150979047Y-93114761D01*
X150883809Y-93162380D01*
X150788571Y-93162380D01*
X150693333Y-93114761D01*
X150645714Y-93067142D01*
X150598095Y-92971904D01*
X150550476Y-92781428D01*
X150550476Y-92543333D01*
X150598095Y-92352857D01*
X150645714Y-92257619D01*
X150693333Y-92210000D01*
X150788571Y-92162380D01*
X156640714Y-93049285D02*
X156212142Y-93049285D01*
X156426428Y-93049285D02*
X156426428Y-92299285D01*
X156355000Y-92406428D01*
X156283571Y-92477857D01*
X156212142Y-92513571D01*
X157105000Y-92299285D02*
X157176428Y-92299285D01*
X157247857Y-92335000D01*
X157283571Y-92370714D01*
X157319285Y-92442142D01*
X157355000Y-92585000D01*
X157355000Y-92763571D01*
X157319285Y-92906428D01*
X157283571Y-92977857D01*
X157247857Y-93013571D01*
X157176428Y-93049285D01*
X157105000Y-93049285D01*
X157033571Y-93013571D01*
X156997857Y-92977857D01*
X156962142Y-92906428D01*
X156926428Y-92763571D01*
X156926428Y-92585000D01*
X156962142Y-92442142D01*
X156997857Y-92370714D01*
X157033571Y-92335000D01*
X157105000Y-92299285D01*
X157819285Y-92299285D02*
X157890714Y-92299285D01*
X157962142Y-92335000D01*
X157997857Y-92370714D01*
X158033571Y-92442142D01*
X158069285Y-92585000D01*
X158069285Y-92763571D01*
X158033571Y-92906428D01*
X157997857Y-92977857D01*
X157962142Y-93013571D01*
X157890714Y-93049285D01*
X157819285Y-93049285D01*
X157747857Y-93013571D01*
X157712142Y-92977857D01*
X157676428Y-92906428D01*
X157640714Y-92763571D01*
X157640714Y-92585000D01*
X157676428Y-92442142D01*
X157712142Y-92370714D01*
X157747857Y-92335000D01*
X157819285Y-92299285D01*
X158390714Y-92549285D02*
X158390714Y-93049285D01*
X158390714Y-92620714D02*
X158426428Y-92585000D01*
X158497857Y-92549285D01*
X158605000Y-92549285D01*
X158676428Y-92585000D01*
X158712142Y-92656428D01*
X158712142Y-93049285D01*
G04 #@! TO.C,C11*
X149217142Y-94337142D02*
X149169523Y-94384761D01*
X149026666Y-94432380D01*
X148931428Y-94432380D01*
X148788571Y-94384761D01*
X148693333Y-94289523D01*
X148645714Y-94194285D01*
X148598095Y-94003809D01*
X148598095Y-93860952D01*
X148645714Y-93670476D01*
X148693333Y-93575238D01*
X148788571Y-93480000D01*
X148931428Y-93432380D01*
X149026666Y-93432380D01*
X149169523Y-93480000D01*
X149217142Y-93527619D01*
X150169523Y-94432380D02*
X149598095Y-94432380D01*
X149883809Y-94432380D02*
X149883809Y-93432380D01*
X149788571Y-93575238D01*
X149693333Y-93670476D01*
X149598095Y-93718095D01*
X151121904Y-94432380D02*
X150550476Y-94432380D01*
X150836190Y-94432380D02*
X150836190Y-93432380D01*
X150740952Y-93575238D01*
X150645714Y-93670476D01*
X150550476Y-93718095D01*
X156640714Y-95589285D02*
X156212142Y-95589285D01*
X156426428Y-95589285D02*
X156426428Y-94839285D01*
X156355000Y-94946428D01*
X156283571Y-95017857D01*
X156212142Y-95053571D01*
X157105000Y-94839285D02*
X157176428Y-94839285D01*
X157247857Y-94875000D01*
X157283571Y-94910714D01*
X157319285Y-94982142D01*
X157355000Y-95125000D01*
X157355000Y-95303571D01*
X157319285Y-95446428D01*
X157283571Y-95517857D01*
X157247857Y-95553571D01*
X157176428Y-95589285D01*
X157105000Y-95589285D01*
X157033571Y-95553571D01*
X156997857Y-95517857D01*
X156962142Y-95446428D01*
X156926428Y-95303571D01*
X156926428Y-95125000D01*
X156962142Y-94982142D01*
X156997857Y-94910714D01*
X157033571Y-94875000D01*
X157105000Y-94839285D01*
X157819285Y-94839285D02*
X157890714Y-94839285D01*
X157962142Y-94875000D01*
X157997857Y-94910714D01*
X158033571Y-94982142D01*
X158069285Y-95125000D01*
X158069285Y-95303571D01*
X158033571Y-95446428D01*
X157997857Y-95517857D01*
X157962142Y-95553571D01*
X157890714Y-95589285D01*
X157819285Y-95589285D01*
X157747857Y-95553571D01*
X157712142Y-95517857D01*
X157676428Y-95446428D01*
X157640714Y-95303571D01*
X157640714Y-95125000D01*
X157676428Y-94982142D01*
X157712142Y-94910714D01*
X157747857Y-94875000D01*
X157819285Y-94839285D01*
X158390714Y-95089285D02*
X158390714Y-95589285D01*
X158390714Y-95160714D02*
X158426428Y-95125000D01*
X158497857Y-95089285D01*
X158605000Y-95089285D01*
X158676428Y-95125000D01*
X158712142Y-95196428D01*
X158712142Y-95589285D01*
G04 #@! TO.C,C12*
X133580142Y-98940857D02*
X133627761Y-98988476D01*
X133675380Y-99131333D01*
X133675380Y-99226571D01*
X133627761Y-99369428D01*
X133532523Y-99464666D01*
X133437285Y-99512285D01*
X133246809Y-99559904D01*
X133103952Y-99559904D01*
X132913476Y-99512285D01*
X132818238Y-99464666D01*
X132723000Y-99369428D01*
X132675380Y-99226571D01*
X132675380Y-99131333D01*
X132723000Y-98988476D01*
X132770619Y-98940857D01*
X133675380Y-97988476D02*
X133675380Y-98559904D01*
X133675380Y-98274190D02*
X132675380Y-98274190D01*
X132818238Y-98369428D01*
X132913476Y-98464666D01*
X132961095Y-98559904D01*
X132770619Y-97607523D02*
X132723000Y-97559904D01*
X132675380Y-97464666D01*
X132675380Y-97226571D01*
X132723000Y-97131333D01*
X132770619Y-97083714D01*
X132865857Y-97036095D01*
X132961095Y-97036095D01*
X133103952Y-97083714D01*
X133675380Y-97655142D01*
X133675380Y-97036095D01*
X131113714Y-101431285D02*
X130685142Y-101431285D01*
X130899428Y-101431285D02*
X130899428Y-100681285D01*
X130828000Y-100788428D01*
X130756571Y-100859857D01*
X130685142Y-100895571D01*
X131578000Y-100681285D02*
X131649428Y-100681285D01*
X131720857Y-100717000D01*
X131756571Y-100752714D01*
X131792285Y-100824142D01*
X131828000Y-100967000D01*
X131828000Y-101145571D01*
X131792285Y-101288428D01*
X131756571Y-101359857D01*
X131720857Y-101395571D01*
X131649428Y-101431285D01*
X131578000Y-101431285D01*
X131506571Y-101395571D01*
X131470857Y-101359857D01*
X131435142Y-101288428D01*
X131399428Y-101145571D01*
X131399428Y-100967000D01*
X131435142Y-100824142D01*
X131470857Y-100752714D01*
X131506571Y-100717000D01*
X131578000Y-100681285D01*
X132292285Y-100681285D02*
X132363714Y-100681285D01*
X132435142Y-100717000D01*
X132470857Y-100752714D01*
X132506571Y-100824142D01*
X132542285Y-100967000D01*
X132542285Y-101145571D01*
X132506571Y-101288428D01*
X132470857Y-101359857D01*
X132435142Y-101395571D01*
X132363714Y-101431285D01*
X132292285Y-101431285D01*
X132220857Y-101395571D01*
X132185142Y-101359857D01*
X132149428Y-101288428D01*
X132113714Y-101145571D01*
X132113714Y-100967000D01*
X132149428Y-100824142D01*
X132185142Y-100752714D01*
X132220857Y-100717000D01*
X132292285Y-100681285D01*
X132863714Y-100931285D02*
X132863714Y-101431285D01*
X132863714Y-101002714D02*
X132899428Y-100967000D01*
X132970857Y-100931285D01*
X133078000Y-100931285D01*
X133149428Y-100967000D01*
X133185142Y-101038428D01*
X133185142Y-101431285D01*
G04 #@! TO.C,C13*
X136882142Y-98960857D02*
X136929761Y-99008476D01*
X136977380Y-99151333D01*
X136977380Y-99246571D01*
X136929761Y-99389428D01*
X136834523Y-99484666D01*
X136739285Y-99532285D01*
X136548809Y-99579904D01*
X136405952Y-99579904D01*
X136215476Y-99532285D01*
X136120238Y-99484666D01*
X136025000Y-99389428D01*
X135977380Y-99246571D01*
X135977380Y-99151333D01*
X136025000Y-99008476D01*
X136072619Y-98960857D01*
X136977380Y-98008476D02*
X136977380Y-98579904D01*
X136977380Y-98294190D02*
X135977380Y-98294190D01*
X136120238Y-98389428D01*
X136215476Y-98484666D01*
X136263095Y-98579904D01*
X135977380Y-97675142D02*
X135977380Y-97056095D01*
X136358333Y-97389428D01*
X136358333Y-97246571D01*
X136405952Y-97151333D01*
X136453571Y-97103714D01*
X136548809Y-97056095D01*
X136786904Y-97056095D01*
X136882142Y-97103714D01*
X136929761Y-97151333D01*
X136977380Y-97246571D01*
X136977380Y-97532285D01*
X136929761Y-97627523D01*
X136882142Y-97675142D01*
X134034714Y-101431285D02*
X133606142Y-101431285D01*
X133820428Y-101431285D02*
X133820428Y-100681285D01*
X133749000Y-100788428D01*
X133677571Y-100859857D01*
X133606142Y-100895571D01*
X134499000Y-100681285D02*
X134570428Y-100681285D01*
X134641857Y-100717000D01*
X134677571Y-100752714D01*
X134713285Y-100824142D01*
X134749000Y-100967000D01*
X134749000Y-101145571D01*
X134713285Y-101288428D01*
X134677571Y-101359857D01*
X134641857Y-101395571D01*
X134570428Y-101431285D01*
X134499000Y-101431285D01*
X134427571Y-101395571D01*
X134391857Y-101359857D01*
X134356142Y-101288428D01*
X134320428Y-101145571D01*
X134320428Y-100967000D01*
X134356142Y-100824142D01*
X134391857Y-100752714D01*
X134427571Y-100717000D01*
X134499000Y-100681285D01*
X135213285Y-100681285D02*
X135284714Y-100681285D01*
X135356142Y-100717000D01*
X135391857Y-100752714D01*
X135427571Y-100824142D01*
X135463285Y-100967000D01*
X135463285Y-101145571D01*
X135427571Y-101288428D01*
X135391857Y-101359857D01*
X135356142Y-101395571D01*
X135284714Y-101431285D01*
X135213285Y-101431285D01*
X135141857Y-101395571D01*
X135106142Y-101359857D01*
X135070428Y-101288428D01*
X135034714Y-101145571D01*
X135034714Y-100967000D01*
X135070428Y-100824142D01*
X135106142Y-100752714D01*
X135141857Y-100717000D01*
X135213285Y-100681285D01*
X135784714Y-100931285D02*
X135784714Y-101431285D01*
X135784714Y-101002714D02*
X135820428Y-100967000D01*
X135891857Y-100931285D01*
X135999000Y-100931285D01*
X136070428Y-100967000D01*
X136106142Y-101038428D01*
X136106142Y-101431285D01*
G04 #@! TO.C,C14*
X140311142Y-99027857D02*
X140358761Y-99075476D01*
X140406380Y-99218333D01*
X140406380Y-99313571D01*
X140358761Y-99456428D01*
X140263523Y-99551666D01*
X140168285Y-99599285D01*
X139977809Y-99646904D01*
X139834952Y-99646904D01*
X139644476Y-99599285D01*
X139549238Y-99551666D01*
X139454000Y-99456428D01*
X139406380Y-99313571D01*
X139406380Y-99218333D01*
X139454000Y-99075476D01*
X139501619Y-99027857D01*
X140406380Y-98075476D02*
X140406380Y-98646904D01*
X140406380Y-98361190D02*
X139406380Y-98361190D01*
X139549238Y-98456428D01*
X139644476Y-98551666D01*
X139692095Y-98646904D01*
X139739714Y-97218333D02*
X140406380Y-97218333D01*
X139358761Y-97456428D02*
X140073047Y-97694523D01*
X140073047Y-97075476D01*
X137336714Y-101431285D02*
X136908142Y-101431285D01*
X137122428Y-101431285D02*
X137122428Y-100681285D01*
X137051000Y-100788428D01*
X136979571Y-100859857D01*
X136908142Y-100895571D01*
X137801000Y-100681285D02*
X137872428Y-100681285D01*
X137943857Y-100717000D01*
X137979571Y-100752714D01*
X138015285Y-100824142D01*
X138051000Y-100967000D01*
X138051000Y-101145571D01*
X138015285Y-101288428D01*
X137979571Y-101359857D01*
X137943857Y-101395571D01*
X137872428Y-101431285D01*
X137801000Y-101431285D01*
X137729571Y-101395571D01*
X137693857Y-101359857D01*
X137658142Y-101288428D01*
X137622428Y-101145571D01*
X137622428Y-100967000D01*
X137658142Y-100824142D01*
X137693857Y-100752714D01*
X137729571Y-100717000D01*
X137801000Y-100681285D01*
X138515285Y-100681285D02*
X138586714Y-100681285D01*
X138658142Y-100717000D01*
X138693857Y-100752714D01*
X138729571Y-100824142D01*
X138765285Y-100967000D01*
X138765285Y-101145571D01*
X138729571Y-101288428D01*
X138693857Y-101359857D01*
X138658142Y-101395571D01*
X138586714Y-101431285D01*
X138515285Y-101431285D01*
X138443857Y-101395571D01*
X138408142Y-101359857D01*
X138372428Y-101288428D01*
X138336714Y-101145571D01*
X138336714Y-100967000D01*
X138372428Y-100824142D01*
X138408142Y-100752714D01*
X138443857Y-100717000D01*
X138515285Y-100681285D01*
X139086714Y-100931285D02*
X139086714Y-101431285D01*
X139086714Y-101002714D02*
X139122428Y-100967000D01*
X139193857Y-100931285D01*
X139301000Y-100931285D01*
X139372428Y-100967000D01*
X139408142Y-101038428D01*
X139408142Y-101431285D01*
G04 #@! TO.C,C15*
X137787142Y-102846142D02*
X137739523Y-102893761D01*
X137596666Y-102941380D01*
X137501428Y-102941380D01*
X137358571Y-102893761D01*
X137263333Y-102798523D01*
X137215714Y-102703285D01*
X137168095Y-102512809D01*
X137168095Y-102369952D01*
X137215714Y-102179476D01*
X137263333Y-102084238D01*
X137358571Y-101989000D01*
X137501428Y-101941380D01*
X137596666Y-101941380D01*
X137739523Y-101989000D01*
X137787142Y-102036619D01*
X138739523Y-102941380D02*
X138168095Y-102941380D01*
X138453809Y-102941380D02*
X138453809Y-101941380D01*
X138358571Y-102084238D01*
X138263333Y-102179476D01*
X138168095Y-102227095D01*
X139644285Y-101941380D02*
X139168095Y-101941380D01*
X139120476Y-102417571D01*
X139168095Y-102369952D01*
X139263333Y-102322333D01*
X139501428Y-102322333D01*
X139596666Y-102369952D01*
X139644285Y-102417571D01*
X139691904Y-102512809D01*
X139691904Y-102750904D01*
X139644285Y-102846142D01*
X139596666Y-102893761D01*
X139501428Y-102941380D01*
X139263333Y-102941380D01*
X139168095Y-102893761D01*
X139120476Y-102846142D01*
X136229285Y-104138000D02*
X136229285Y-104566571D01*
X136229285Y-104352285D02*
X135479285Y-104352285D01*
X135586428Y-104423714D01*
X135657857Y-104495142D01*
X135693571Y-104566571D01*
X135729285Y-103495142D02*
X136229285Y-103495142D01*
X135729285Y-103816571D02*
X136122142Y-103816571D01*
X136193571Y-103780857D01*
X136229285Y-103709428D01*
X136229285Y-103602285D01*
X136193571Y-103530857D01*
X136157857Y-103495142D01*
G04 #@! TO.C,C16*
X135739142Y-117228857D02*
X135786761Y-117276476D01*
X135834380Y-117419333D01*
X135834380Y-117514571D01*
X135786761Y-117657428D01*
X135691523Y-117752666D01*
X135596285Y-117800285D01*
X135405809Y-117847904D01*
X135262952Y-117847904D01*
X135072476Y-117800285D01*
X134977238Y-117752666D01*
X134882000Y-117657428D01*
X134834380Y-117514571D01*
X134834380Y-117419333D01*
X134882000Y-117276476D01*
X134929619Y-117228857D01*
X135834380Y-116276476D02*
X135834380Y-116847904D01*
X135834380Y-116562190D02*
X134834380Y-116562190D01*
X134977238Y-116657428D01*
X135072476Y-116752666D01*
X135120095Y-116847904D01*
X134834380Y-115419333D02*
X134834380Y-115609809D01*
X134882000Y-115705047D01*
X134929619Y-115752666D01*
X135072476Y-115847904D01*
X135262952Y-115895523D01*
X135643904Y-115895523D01*
X135739142Y-115847904D01*
X135786761Y-115800285D01*
X135834380Y-115705047D01*
X135834380Y-115514571D01*
X135786761Y-115419333D01*
X135739142Y-115371714D01*
X135643904Y-115324095D01*
X135405809Y-115324095D01*
X135310571Y-115371714D01*
X135262952Y-115419333D01*
X135215333Y-115514571D01*
X135215333Y-115705047D01*
X135262952Y-115800285D01*
X135310571Y-115847904D01*
X135405809Y-115895523D01*
X133050428Y-118965285D02*
X133050428Y-119465285D01*
X132871857Y-118679571D02*
X132693285Y-119215285D01*
X133157571Y-119215285D01*
X133371857Y-118715285D02*
X133871857Y-118715285D01*
X133550428Y-119465285D01*
X134157571Y-118965285D02*
X134157571Y-119465285D01*
X134157571Y-119036714D02*
X134193285Y-119001000D01*
X134264714Y-118965285D01*
X134371857Y-118965285D01*
X134443285Y-119001000D01*
X134479000Y-119072428D01*
X134479000Y-119465285D01*
G04 #@! TO.C,C17*
X129008142Y-117228857D02*
X129055761Y-117276476D01*
X129103380Y-117419333D01*
X129103380Y-117514571D01*
X129055761Y-117657428D01*
X128960523Y-117752666D01*
X128865285Y-117800285D01*
X128674809Y-117847904D01*
X128531952Y-117847904D01*
X128341476Y-117800285D01*
X128246238Y-117752666D01*
X128151000Y-117657428D01*
X128103380Y-117514571D01*
X128103380Y-117419333D01*
X128151000Y-117276476D01*
X128198619Y-117228857D01*
X129103380Y-116276476D02*
X129103380Y-116847904D01*
X129103380Y-116562190D02*
X128103380Y-116562190D01*
X128246238Y-116657428D01*
X128341476Y-116752666D01*
X128389095Y-116847904D01*
X128103380Y-115943142D02*
X128103380Y-115276476D01*
X129103380Y-115705047D01*
X126517857Y-119298285D02*
X126089285Y-119298285D01*
X126303571Y-119298285D02*
X126303571Y-118548285D01*
X126232142Y-118655428D01*
X126160714Y-118726857D01*
X126089285Y-118762571D01*
X126982142Y-118548285D02*
X127053571Y-118548285D01*
X127125000Y-118584000D01*
X127160714Y-118619714D01*
X127196428Y-118691142D01*
X127232142Y-118834000D01*
X127232142Y-119012571D01*
X127196428Y-119155428D01*
X127160714Y-119226857D01*
X127125000Y-119262571D01*
X127053571Y-119298285D01*
X126982142Y-119298285D01*
X126910714Y-119262571D01*
X126875000Y-119226857D01*
X126839285Y-119155428D01*
X126803571Y-119012571D01*
X126803571Y-118834000D01*
X126839285Y-118691142D01*
X126875000Y-118619714D01*
X126910714Y-118584000D01*
X126982142Y-118548285D01*
X127553571Y-118798285D02*
X127553571Y-119298285D01*
X127553571Y-118869714D02*
X127589285Y-118834000D01*
X127660714Y-118798285D01*
X127767857Y-118798285D01*
X127839285Y-118834000D01*
X127875000Y-118905428D01*
X127875000Y-119298285D01*
G04 #@! TO.C,C18*
X125706142Y-117101857D02*
X125753761Y-117149476D01*
X125801380Y-117292333D01*
X125801380Y-117387571D01*
X125753761Y-117530428D01*
X125658523Y-117625666D01*
X125563285Y-117673285D01*
X125372809Y-117720904D01*
X125229952Y-117720904D01*
X125039476Y-117673285D01*
X124944238Y-117625666D01*
X124849000Y-117530428D01*
X124801380Y-117387571D01*
X124801380Y-117292333D01*
X124849000Y-117149476D01*
X124896619Y-117101857D01*
X125801380Y-116149476D02*
X125801380Y-116720904D01*
X125801380Y-116435190D02*
X124801380Y-116435190D01*
X124944238Y-116530428D01*
X125039476Y-116625666D01*
X125087095Y-116720904D01*
X125229952Y-115578047D02*
X125182333Y-115673285D01*
X125134714Y-115720904D01*
X125039476Y-115768523D01*
X124991857Y-115768523D01*
X124896619Y-115720904D01*
X124849000Y-115673285D01*
X124801380Y-115578047D01*
X124801380Y-115387571D01*
X124849000Y-115292333D01*
X124896619Y-115244714D01*
X124991857Y-115197095D01*
X125039476Y-115197095D01*
X125134714Y-115244714D01*
X125182333Y-115292333D01*
X125229952Y-115387571D01*
X125229952Y-115578047D01*
X125277571Y-115673285D01*
X125325190Y-115720904D01*
X125420428Y-115768523D01*
X125610904Y-115768523D01*
X125706142Y-115720904D01*
X125753761Y-115673285D01*
X125801380Y-115578047D01*
X125801380Y-115387571D01*
X125753761Y-115292333D01*
X125706142Y-115244714D01*
X125610904Y-115197095D01*
X125420428Y-115197095D01*
X125325190Y-115244714D01*
X125277571Y-115292333D01*
X125229952Y-115387571D01*
X123088857Y-119298285D02*
X122660285Y-119298285D01*
X122874571Y-119298285D02*
X122874571Y-118548285D01*
X122803142Y-118655428D01*
X122731714Y-118726857D01*
X122660285Y-118762571D01*
X123553142Y-118548285D02*
X123624571Y-118548285D01*
X123696000Y-118584000D01*
X123731714Y-118619714D01*
X123767428Y-118691142D01*
X123803142Y-118834000D01*
X123803142Y-119012571D01*
X123767428Y-119155428D01*
X123731714Y-119226857D01*
X123696000Y-119262571D01*
X123624571Y-119298285D01*
X123553142Y-119298285D01*
X123481714Y-119262571D01*
X123446000Y-119226857D01*
X123410285Y-119155428D01*
X123374571Y-119012571D01*
X123374571Y-118834000D01*
X123410285Y-118691142D01*
X123446000Y-118619714D01*
X123481714Y-118584000D01*
X123553142Y-118548285D01*
X124124571Y-118798285D02*
X124124571Y-119298285D01*
X124124571Y-118869714D02*
X124160285Y-118834000D01*
X124231714Y-118798285D01*
X124338857Y-118798285D01*
X124410285Y-118834000D01*
X124446000Y-118905428D01*
X124446000Y-119298285D01*
G04 #@! TO.C,C19*
X132310142Y-117315857D02*
X132357761Y-117363476D01*
X132405380Y-117506333D01*
X132405380Y-117601571D01*
X132357761Y-117744428D01*
X132262523Y-117839666D01*
X132167285Y-117887285D01*
X131976809Y-117934904D01*
X131833952Y-117934904D01*
X131643476Y-117887285D01*
X131548238Y-117839666D01*
X131453000Y-117744428D01*
X131405380Y-117601571D01*
X131405380Y-117506333D01*
X131453000Y-117363476D01*
X131500619Y-117315857D01*
X132405380Y-116363476D02*
X132405380Y-116934904D01*
X132405380Y-116649190D02*
X131405380Y-116649190D01*
X131548238Y-116744428D01*
X131643476Y-116839666D01*
X131691095Y-116934904D01*
X132405380Y-115887285D02*
X132405380Y-115696809D01*
X132357761Y-115601571D01*
X132310142Y-115553952D01*
X132167285Y-115458714D01*
X131976809Y-115411095D01*
X131595857Y-115411095D01*
X131500619Y-115458714D01*
X131453000Y-115506333D01*
X131405380Y-115601571D01*
X131405380Y-115792047D01*
X131453000Y-115887285D01*
X131500619Y-115934904D01*
X131595857Y-115982523D01*
X131833952Y-115982523D01*
X131929190Y-115934904D01*
X131976809Y-115887285D01*
X132024428Y-115792047D01*
X132024428Y-115601571D01*
X131976809Y-115506333D01*
X131929190Y-115458714D01*
X131833952Y-115411095D01*
X129462714Y-119338285D02*
X129034142Y-119338285D01*
X129248428Y-119338285D02*
X129248428Y-118588285D01*
X129177000Y-118695428D01*
X129105571Y-118766857D01*
X129034142Y-118802571D01*
X129927000Y-118588285D02*
X129998428Y-118588285D01*
X130069857Y-118624000D01*
X130105571Y-118659714D01*
X130141285Y-118731142D01*
X130177000Y-118874000D01*
X130177000Y-119052571D01*
X130141285Y-119195428D01*
X130105571Y-119266857D01*
X130069857Y-119302571D01*
X129998428Y-119338285D01*
X129927000Y-119338285D01*
X129855571Y-119302571D01*
X129819857Y-119266857D01*
X129784142Y-119195428D01*
X129748428Y-119052571D01*
X129748428Y-118874000D01*
X129784142Y-118731142D01*
X129819857Y-118659714D01*
X129855571Y-118624000D01*
X129927000Y-118588285D01*
X130641285Y-118588285D02*
X130712714Y-118588285D01*
X130784142Y-118624000D01*
X130819857Y-118659714D01*
X130855571Y-118731142D01*
X130891285Y-118874000D01*
X130891285Y-119052571D01*
X130855571Y-119195428D01*
X130819857Y-119266857D01*
X130784142Y-119302571D01*
X130712714Y-119338285D01*
X130641285Y-119338285D01*
X130569857Y-119302571D01*
X130534142Y-119266857D01*
X130498428Y-119195428D01*
X130462714Y-119052571D01*
X130462714Y-118874000D01*
X130498428Y-118731142D01*
X130534142Y-118659714D01*
X130569857Y-118624000D01*
X130641285Y-118588285D01*
X131212714Y-118838285D02*
X131212714Y-119338285D01*
X131212714Y-118909714D02*
X131248428Y-118874000D01*
X131319857Y-118838285D01*
X131427000Y-118838285D01*
X131498428Y-118874000D01*
X131534142Y-118945428D01*
X131534142Y-119338285D01*
G04 #@! TO.C,C20*
X156077142Y-106072857D02*
X156124761Y-106120476D01*
X156172380Y-106263333D01*
X156172380Y-106358571D01*
X156124761Y-106501428D01*
X156029523Y-106596666D01*
X155934285Y-106644285D01*
X155743809Y-106691904D01*
X155600952Y-106691904D01*
X155410476Y-106644285D01*
X155315238Y-106596666D01*
X155220000Y-106501428D01*
X155172380Y-106358571D01*
X155172380Y-106263333D01*
X155220000Y-106120476D01*
X155267619Y-106072857D01*
X155267619Y-105691904D02*
X155220000Y-105644285D01*
X155172380Y-105549047D01*
X155172380Y-105310952D01*
X155220000Y-105215714D01*
X155267619Y-105168095D01*
X155362857Y-105120476D01*
X155458095Y-105120476D01*
X155600952Y-105168095D01*
X156172380Y-105739523D01*
X156172380Y-105120476D01*
X155172380Y-104501428D02*
X155172380Y-104406190D01*
X155220000Y-104310952D01*
X155267619Y-104263333D01*
X155362857Y-104215714D01*
X155553333Y-104168095D01*
X155791428Y-104168095D01*
X155981904Y-104215714D01*
X156077142Y-104263333D01*
X156124761Y-104310952D01*
X156172380Y-104406190D01*
X156172380Y-104501428D01*
X156124761Y-104596666D01*
X156077142Y-104644285D01*
X155981904Y-104691904D01*
X155791428Y-104739523D01*
X155553333Y-104739523D01*
X155362857Y-104691904D01*
X155267619Y-104644285D01*
X155220000Y-104596666D01*
X155172380Y-104501428D01*
X151209285Y-106697857D02*
X151209285Y-106233571D01*
X151495000Y-106483571D01*
X151495000Y-106376428D01*
X151530714Y-106305000D01*
X151566428Y-106269285D01*
X151637857Y-106233571D01*
X151816428Y-106233571D01*
X151887857Y-106269285D01*
X151923571Y-106305000D01*
X151959285Y-106376428D01*
X151959285Y-106590714D01*
X151923571Y-106662142D01*
X151887857Y-106697857D01*
X151209285Y-105983571D02*
X151209285Y-105519285D01*
X151495000Y-105769285D01*
X151495000Y-105662142D01*
X151530714Y-105590714D01*
X151566428Y-105555000D01*
X151637857Y-105519285D01*
X151816428Y-105519285D01*
X151887857Y-105555000D01*
X151923571Y-105590714D01*
X151959285Y-105662142D01*
X151959285Y-105876428D01*
X151923571Y-105947857D01*
X151887857Y-105983571D01*
X151459285Y-105197857D02*
X152209285Y-105197857D01*
X151495000Y-105197857D02*
X151459285Y-105126428D01*
X151459285Y-104983571D01*
X151495000Y-104912142D01*
X151530714Y-104876428D01*
X151602142Y-104840714D01*
X151816428Y-104840714D01*
X151887857Y-104876428D01*
X151923571Y-104912142D01*
X151959285Y-104983571D01*
X151959285Y-105126428D01*
X151923571Y-105197857D01*
X151566428Y-104269285D02*
X151566428Y-104519285D01*
X151959285Y-104519285D02*
X151209285Y-104519285D01*
X151209285Y-104162142D01*
G04 #@! TO.C,C21*
X162554142Y-106072857D02*
X162601761Y-106120476D01*
X162649380Y-106263333D01*
X162649380Y-106358571D01*
X162601761Y-106501428D01*
X162506523Y-106596666D01*
X162411285Y-106644285D01*
X162220809Y-106691904D01*
X162077952Y-106691904D01*
X161887476Y-106644285D01*
X161792238Y-106596666D01*
X161697000Y-106501428D01*
X161649380Y-106358571D01*
X161649380Y-106263333D01*
X161697000Y-106120476D01*
X161744619Y-106072857D01*
X161744619Y-105691904D02*
X161697000Y-105644285D01*
X161649380Y-105549047D01*
X161649380Y-105310952D01*
X161697000Y-105215714D01*
X161744619Y-105168095D01*
X161839857Y-105120476D01*
X161935095Y-105120476D01*
X162077952Y-105168095D01*
X162649380Y-105739523D01*
X162649380Y-105120476D01*
X162649380Y-104168095D02*
X162649380Y-104739523D01*
X162649380Y-104453809D02*
X161649380Y-104453809D01*
X161792238Y-104549047D01*
X161887476Y-104644285D01*
X161935095Y-104739523D01*
X157686285Y-106677857D02*
X157686285Y-106213571D01*
X157972000Y-106463571D01*
X157972000Y-106356428D01*
X158007714Y-106285000D01*
X158043428Y-106249285D01*
X158114857Y-106213571D01*
X158293428Y-106213571D01*
X158364857Y-106249285D01*
X158400571Y-106285000D01*
X158436285Y-106356428D01*
X158436285Y-106570714D01*
X158400571Y-106642142D01*
X158364857Y-106677857D01*
X157686285Y-105963571D02*
X157686285Y-105499285D01*
X157972000Y-105749285D01*
X157972000Y-105642142D01*
X158007714Y-105570714D01*
X158043428Y-105535000D01*
X158114857Y-105499285D01*
X158293428Y-105499285D01*
X158364857Y-105535000D01*
X158400571Y-105570714D01*
X158436285Y-105642142D01*
X158436285Y-105856428D01*
X158400571Y-105927857D01*
X158364857Y-105963571D01*
X157936285Y-105177857D02*
X158686285Y-105177857D01*
X157972000Y-105177857D02*
X157936285Y-105106428D01*
X157936285Y-104963571D01*
X157972000Y-104892142D01*
X158007714Y-104856428D01*
X158079142Y-104820714D01*
X158293428Y-104820714D01*
X158364857Y-104856428D01*
X158400571Y-104892142D01*
X158436285Y-104963571D01*
X158436285Y-105106428D01*
X158400571Y-105177857D01*
X158043428Y-104249285D02*
X158043428Y-104499285D01*
X158436285Y-104499285D02*
X157686285Y-104499285D01*
X157686285Y-104142142D01*
G04 #@! TO.C,JP1*
X143326666Y-93962380D02*
X143326666Y-94676666D01*
X143279047Y-94819523D01*
X143183809Y-94914761D01*
X143040952Y-94962380D01*
X142945714Y-94962380D01*
X143802857Y-94962380D02*
X143802857Y-93962380D01*
X144183809Y-93962380D01*
X144279047Y-94010000D01*
X144326666Y-94057619D01*
X144374285Y-94152857D01*
X144374285Y-94295714D01*
X144326666Y-94390952D01*
X144279047Y-94438571D01*
X144183809Y-94486190D01*
X143802857Y-94486190D01*
X145326666Y-94962380D02*
X144755238Y-94962380D01*
X145040952Y-94962380D02*
X145040952Y-93962380D01*
X144945714Y-94105238D01*
X144850476Y-94200476D01*
X144755238Y-94248095D01*
X139811904Y-91262380D02*
X139811904Y-90262380D01*
X140145238Y-90976666D01*
X140478571Y-90262380D01*
X140478571Y-91262380D01*
X140954761Y-91262380D02*
X140954761Y-90262380D01*
X141430952Y-91262380D02*
X141430952Y-90262380D01*
X141669047Y-90262380D01*
X141811904Y-90310000D01*
X141907142Y-90405238D01*
X141954761Y-90500476D01*
X142002380Y-90690952D01*
X142002380Y-90833809D01*
X141954761Y-91024285D01*
X141907142Y-91119523D01*
X141811904Y-91214761D01*
X141669047Y-91262380D01*
X141430952Y-91262380D01*
X142430952Y-91262380D02*
X142430952Y-90262380D01*
X142669047Y-91357619D02*
X143430952Y-91357619D01*
X143669047Y-90262380D02*
X143669047Y-91071904D01*
X143716666Y-91167142D01*
X143764285Y-91214761D01*
X143859523Y-91262380D01*
X144050000Y-91262380D01*
X144145238Y-91214761D01*
X144192857Y-91167142D01*
X144240476Y-91071904D01*
X144240476Y-90262380D01*
X144669047Y-90976666D02*
X145145238Y-90976666D01*
X144573809Y-91262380D02*
X144907142Y-90262380D01*
X145240476Y-91262380D01*
X146145238Y-91262380D02*
X145811904Y-90786190D01*
X145573809Y-91262380D02*
X145573809Y-90262380D01*
X145954761Y-90262380D01*
X146050000Y-90310000D01*
X146097619Y-90357619D01*
X146145238Y-90452857D01*
X146145238Y-90595714D01*
X146097619Y-90690952D01*
X146050000Y-90738571D01*
X145954761Y-90786190D01*
X145573809Y-90786190D01*
X146430952Y-90262380D02*
X147002380Y-90262380D01*
X146716666Y-91262380D02*
X146716666Y-90262380D01*
X147097619Y-91357619D02*
X147859523Y-91357619D01*
X148669047Y-91262380D02*
X148335714Y-90786190D01*
X148097619Y-91262380D02*
X148097619Y-90262380D01*
X148478571Y-90262380D01*
X148573809Y-90310000D01*
X148621428Y-90357619D01*
X148669047Y-90452857D01*
X148669047Y-90595714D01*
X148621428Y-90690952D01*
X148573809Y-90738571D01*
X148478571Y-90786190D01*
X148097619Y-90786190D01*
X149002380Y-90262380D02*
X149669047Y-91262380D01*
X149669047Y-90262380D02*
X149002380Y-91262380D01*
X149811904Y-91357619D02*
X150573809Y-91357619D01*
X150811904Y-90738571D02*
X151145238Y-90738571D01*
X151288095Y-91262380D02*
X150811904Y-91262380D01*
X150811904Y-90262380D01*
X151288095Y-90262380D01*
X151716666Y-91262380D02*
X151716666Y-90262380D01*
X152288095Y-91262380D01*
X152288095Y-90262380D01*
G04 #@! TO.C,Q1*
X133889761Y-92749619D02*
X133794523Y-92702000D01*
X133699285Y-92606761D01*
X133556428Y-92463904D01*
X133461190Y-92416285D01*
X133365952Y-92416285D01*
X133413571Y-92654380D02*
X133318333Y-92606761D01*
X133223095Y-92511523D01*
X133175476Y-92321047D01*
X133175476Y-91987714D01*
X133223095Y-91797238D01*
X133318333Y-91702000D01*
X133413571Y-91654380D01*
X133604047Y-91654380D01*
X133699285Y-91702000D01*
X133794523Y-91797238D01*
X133842142Y-91987714D01*
X133842142Y-92321047D01*
X133794523Y-92511523D01*
X133699285Y-92606761D01*
X133604047Y-92654380D01*
X133413571Y-92654380D01*
X134794523Y-92654380D02*
X134223095Y-92654380D01*
X134508809Y-92654380D02*
X134508809Y-91654380D01*
X134413571Y-91797238D01*
X134318333Y-91892476D01*
X134223095Y-91940095D01*
X129712857Y-94212428D02*
X129820000Y-94248142D01*
X129855714Y-94283857D01*
X129891428Y-94355285D01*
X129891428Y-94462428D01*
X129855714Y-94533857D01*
X129820000Y-94569571D01*
X129748571Y-94605285D01*
X129462857Y-94605285D01*
X129462857Y-93855285D01*
X129712857Y-93855285D01*
X129784285Y-93891000D01*
X129820000Y-93926714D01*
X129855714Y-93998142D01*
X129855714Y-94069571D01*
X129820000Y-94141000D01*
X129784285Y-94176714D01*
X129712857Y-94212428D01*
X129462857Y-94212428D01*
X130177142Y-94569571D02*
X130284285Y-94605285D01*
X130462857Y-94605285D01*
X130534285Y-94569571D01*
X130570000Y-94533857D01*
X130605714Y-94462428D01*
X130605714Y-94391000D01*
X130570000Y-94319571D01*
X130534285Y-94283857D01*
X130462857Y-94248142D01*
X130320000Y-94212428D01*
X130248571Y-94176714D01*
X130212857Y-94141000D01*
X130177142Y-94069571D01*
X130177142Y-93998142D01*
X130212857Y-93926714D01*
X130248571Y-93891000D01*
X130320000Y-93855285D01*
X130498571Y-93855285D01*
X130605714Y-93891000D01*
X130891428Y-94569571D02*
X130998571Y-94605285D01*
X131177142Y-94605285D01*
X131248571Y-94569571D01*
X131284285Y-94533857D01*
X131320000Y-94462428D01*
X131320000Y-94391000D01*
X131284285Y-94319571D01*
X131248571Y-94283857D01*
X131177142Y-94248142D01*
X131034285Y-94212428D01*
X130962857Y-94176714D01*
X130927142Y-94141000D01*
X130891428Y-94069571D01*
X130891428Y-93998142D01*
X130927142Y-93926714D01*
X130962857Y-93891000D01*
X131034285Y-93855285D01*
X131212857Y-93855285D01*
X131320000Y-93891000D01*
X132034285Y-94605285D02*
X131605714Y-94605285D01*
X131820000Y-94605285D02*
X131820000Y-93855285D01*
X131748571Y-93962428D01*
X131677142Y-94033857D01*
X131605714Y-94069571D01*
X132284285Y-93855285D02*
X132748571Y-93855285D01*
X132498571Y-94141000D01*
X132605714Y-94141000D01*
X132677142Y-94176714D01*
X132712857Y-94212428D01*
X132748571Y-94283857D01*
X132748571Y-94462428D01*
X132712857Y-94533857D01*
X132677142Y-94569571D01*
X132605714Y-94605285D01*
X132391428Y-94605285D01*
X132320000Y-94569571D01*
X132284285Y-94533857D01*
X133177142Y-94176714D02*
X133105714Y-94141000D01*
X133070000Y-94105285D01*
X133034285Y-94033857D01*
X133034285Y-93998142D01*
X133070000Y-93926714D01*
X133105714Y-93891000D01*
X133177142Y-93855285D01*
X133320000Y-93855285D01*
X133391428Y-93891000D01*
X133427142Y-93926714D01*
X133462857Y-93998142D01*
X133462857Y-94033857D01*
X133427142Y-94105285D01*
X133391428Y-94141000D01*
X133320000Y-94176714D01*
X133177142Y-94176714D01*
X133105714Y-94212428D01*
X133070000Y-94248142D01*
X133034285Y-94319571D01*
X133034285Y-94462428D01*
X133070000Y-94533857D01*
X133105714Y-94569571D01*
X133177142Y-94605285D01*
X133320000Y-94605285D01*
X133391428Y-94569571D01*
X133427142Y-94533857D01*
X133462857Y-94462428D01*
X133462857Y-94319571D01*
X133427142Y-94248142D01*
X133391428Y-94212428D01*
X133320000Y-94176714D01*
G04 #@! TO.C,R1*
X129373333Y-97353380D02*
X129040000Y-96877190D01*
X128801904Y-97353380D02*
X128801904Y-96353380D01*
X129182857Y-96353380D01*
X129278095Y-96401000D01*
X129325714Y-96448619D01*
X129373333Y-96543857D01*
X129373333Y-96686714D01*
X129325714Y-96781952D01*
X129278095Y-96829571D01*
X129182857Y-96877190D01*
X128801904Y-96877190D01*
X130325714Y-97353380D02*
X129754285Y-97353380D01*
X130040000Y-97353380D02*
X130040000Y-96353380D01*
X129944761Y-96496238D01*
X129849523Y-96591476D01*
X129754285Y-96639095D01*
X126452380Y-91487619D02*
X126452380Y-91392380D01*
X126500000Y-91297142D01*
X126547619Y-91249523D01*
X126642857Y-91201904D01*
X126833333Y-91154285D01*
X127071428Y-91154285D01*
X127261904Y-91201904D01*
X127357142Y-91249523D01*
X127404761Y-91297142D01*
X127452380Y-91392380D01*
X127452380Y-91487619D01*
X127404761Y-91582857D01*
X127357142Y-91630476D01*
X127261904Y-91678095D01*
X127071428Y-91725714D01*
X126833333Y-91725714D01*
X126642857Y-91678095D01*
X126547619Y-91630476D01*
X126500000Y-91582857D01*
X126452380Y-91487619D01*
G04 #@! TO.C,R2*
X136850380Y-113069666D02*
X136374190Y-113403000D01*
X136850380Y-113641095D02*
X135850380Y-113641095D01*
X135850380Y-113260142D01*
X135898000Y-113164904D01*
X135945619Y-113117285D01*
X136040857Y-113069666D01*
X136183714Y-113069666D01*
X136278952Y-113117285D01*
X136326571Y-113164904D01*
X136374190Y-113260142D01*
X136374190Y-113641095D01*
X135945619Y-112688714D02*
X135898000Y-112641095D01*
X135850380Y-112545857D01*
X135850380Y-112307761D01*
X135898000Y-112212523D01*
X135945619Y-112164904D01*
X136040857Y-112117285D01*
X136136095Y-112117285D01*
X136278952Y-112164904D01*
X136850380Y-112736333D01*
X136850380Y-112117285D01*
X129500380Y-107997619D02*
X129500380Y-107902380D01*
X129548000Y-107807142D01*
X129595619Y-107759523D01*
X129690857Y-107711904D01*
X129881333Y-107664285D01*
X130119428Y-107664285D01*
X130309904Y-107711904D01*
X130405142Y-107759523D01*
X130452761Y-107807142D01*
X130500380Y-107902380D01*
X130500380Y-107997619D01*
X130452761Y-108092857D01*
X130405142Y-108140476D01*
X130309904Y-108188095D01*
X130119428Y-108235714D01*
X129881333Y-108235714D01*
X129690857Y-108188095D01*
X129595619Y-108140476D01*
X129548000Y-108092857D01*
X129500380Y-107997619D01*
G04 #@! TO.C,R3*
X148550333Y-118816380D02*
X148217000Y-118340190D01*
X147978904Y-118816380D02*
X147978904Y-117816380D01*
X148359857Y-117816380D01*
X148455095Y-117864000D01*
X148502714Y-117911619D01*
X148550333Y-118006857D01*
X148550333Y-118149714D01*
X148502714Y-118244952D01*
X148455095Y-118292571D01*
X148359857Y-118340190D01*
X147978904Y-118340190D01*
X148883666Y-117816380D02*
X149502714Y-117816380D01*
X149169380Y-118197333D01*
X149312238Y-118197333D01*
X149407476Y-118244952D01*
X149455095Y-118292571D01*
X149502714Y-118387809D01*
X149502714Y-118625904D01*
X149455095Y-118721142D01*
X149407476Y-118768761D01*
X149312238Y-118816380D01*
X149026523Y-118816380D01*
X148931285Y-118768761D01*
X148883666Y-118721142D01*
X149296380Y-112799666D02*
X149296380Y-113371095D01*
X149296380Y-113085380D02*
X148296380Y-113085380D01*
X148439238Y-113180619D01*
X148534476Y-113275857D01*
X148582095Y-113371095D01*
X148296380Y-112180619D02*
X148296380Y-112085380D01*
X148344000Y-111990142D01*
X148391619Y-111942523D01*
X148486857Y-111894904D01*
X148677333Y-111847285D01*
X148915428Y-111847285D01*
X149105904Y-111894904D01*
X149201142Y-111942523D01*
X149248761Y-111990142D01*
X149296380Y-112085380D01*
X149296380Y-112180619D01*
X149248761Y-112275857D01*
X149201142Y-112323476D01*
X149105904Y-112371095D01*
X148915428Y-112418714D01*
X148677333Y-112418714D01*
X148486857Y-112371095D01*
X148391619Y-112323476D01*
X148344000Y-112275857D01*
X148296380Y-112180619D01*
X148296380Y-111228238D02*
X148296380Y-111133000D01*
X148344000Y-111037761D01*
X148391619Y-110990142D01*
X148486857Y-110942523D01*
X148677333Y-110894904D01*
X148915428Y-110894904D01*
X149105904Y-110942523D01*
X149201142Y-110990142D01*
X149248761Y-111037761D01*
X149296380Y-111133000D01*
X149296380Y-111228238D01*
X149248761Y-111323476D01*
X149201142Y-111371095D01*
X149105904Y-111418714D01*
X148915428Y-111466333D01*
X148677333Y-111466333D01*
X148486857Y-111418714D01*
X148391619Y-111371095D01*
X148344000Y-111323476D01*
X148296380Y-111228238D01*
X149296380Y-110466333D02*
X148296380Y-110466333D01*
X149296380Y-109894904D02*
X148724952Y-110323476D01*
X148296380Y-109894904D02*
X148867809Y-110466333D01*
G04 #@! TO.C,R4*
X130135333Y-87193380D02*
X129802000Y-86717190D01*
X129563904Y-87193380D02*
X129563904Y-86193380D01*
X129944857Y-86193380D01*
X130040095Y-86241000D01*
X130087714Y-86288619D01*
X130135333Y-86383857D01*
X130135333Y-86526714D01*
X130087714Y-86621952D01*
X130040095Y-86669571D01*
X129944857Y-86717190D01*
X129563904Y-86717190D01*
X130992476Y-86526714D02*
X130992476Y-87193380D01*
X130754380Y-86145761D02*
X130516285Y-86860047D01*
X131135333Y-86860047D01*
X133961285Y-84367714D02*
X133961285Y-85034380D01*
X133723190Y-83986761D02*
X133485095Y-84701047D01*
X134104142Y-84701047D01*
X134485095Y-85034380D02*
X134485095Y-84034380D01*
X135056523Y-85034380D02*
X134627952Y-84462952D01*
X135056523Y-84034380D02*
X134485095Y-84605809D01*
X135389857Y-84034380D02*
X136056523Y-84034380D01*
X135627952Y-85034380D01*
G04 #@! TO.C,R5*
X139009380Y-113069666D02*
X138533190Y-113403000D01*
X139009380Y-113641095D02*
X138009380Y-113641095D01*
X138009380Y-113260142D01*
X138057000Y-113164904D01*
X138104619Y-113117285D01*
X138199857Y-113069666D01*
X138342714Y-113069666D01*
X138437952Y-113117285D01*
X138485571Y-113164904D01*
X138533190Y-113260142D01*
X138533190Y-113641095D01*
X138009380Y-112164904D02*
X138009380Y-112641095D01*
X138485571Y-112688714D01*
X138437952Y-112641095D01*
X138390333Y-112545857D01*
X138390333Y-112307761D01*
X138437952Y-112212523D01*
X138485571Y-112164904D01*
X138580809Y-112117285D01*
X138818904Y-112117285D01*
X138914142Y-112164904D01*
X138961761Y-112212523D01*
X139009380Y-112307761D01*
X139009380Y-112545857D01*
X138961761Y-112641095D01*
X138914142Y-112688714D01*
X133548380Y-108140476D02*
X133548380Y-108711904D01*
X133548380Y-108426190D02*
X132548380Y-108426190D01*
X132691238Y-108521428D01*
X132786476Y-108616666D01*
X132834095Y-108711904D01*
X132548380Y-107521428D02*
X132548380Y-107426190D01*
X132596000Y-107330952D01*
X132643619Y-107283333D01*
X132738857Y-107235714D01*
X132929333Y-107188095D01*
X133167428Y-107188095D01*
X133357904Y-107235714D01*
X133453142Y-107283333D01*
X133500761Y-107330952D01*
X133548380Y-107426190D01*
X133548380Y-107521428D01*
X133500761Y-107616666D01*
X133453142Y-107664285D01*
X133357904Y-107711904D01*
X133167428Y-107759523D01*
X132929333Y-107759523D01*
X132738857Y-107711904D01*
X132643619Y-107664285D01*
X132596000Y-107616666D01*
X132548380Y-107521428D01*
G04 #@! TO.C,R6*
X135707380Y-113069666D02*
X135231190Y-113403000D01*
X135707380Y-113641095D02*
X134707380Y-113641095D01*
X134707380Y-113260142D01*
X134755000Y-113164904D01*
X134802619Y-113117285D01*
X134897857Y-113069666D01*
X135040714Y-113069666D01*
X135135952Y-113117285D01*
X135183571Y-113164904D01*
X135231190Y-113260142D01*
X135231190Y-113641095D01*
X134707380Y-112212523D02*
X134707380Y-112403000D01*
X134755000Y-112498238D01*
X134802619Y-112545857D01*
X134945476Y-112641095D01*
X135135952Y-112688714D01*
X135516904Y-112688714D01*
X135612142Y-112641095D01*
X135659761Y-112593476D01*
X135707380Y-112498238D01*
X135707380Y-112307761D01*
X135659761Y-112212523D01*
X135612142Y-112164904D01*
X135516904Y-112117285D01*
X135278809Y-112117285D01*
X135183571Y-112164904D01*
X135135952Y-112212523D01*
X135088333Y-112307761D01*
X135088333Y-112498238D01*
X135135952Y-112593476D01*
X135183571Y-112641095D01*
X135278809Y-112688714D01*
X126547619Y-108711904D02*
X126500000Y-108664285D01*
X126452380Y-108569047D01*
X126452380Y-108330952D01*
X126500000Y-108235714D01*
X126547619Y-108188095D01*
X126642857Y-108140476D01*
X126738095Y-108140476D01*
X126880952Y-108188095D01*
X127452380Y-108759523D01*
X127452380Y-108140476D01*
X126452380Y-107521428D02*
X126452380Y-107426190D01*
X126500000Y-107330952D01*
X126547619Y-107283333D01*
X126642857Y-107235714D01*
X126833333Y-107188095D01*
X127071428Y-107188095D01*
X127261904Y-107235714D01*
X127357142Y-107283333D01*
X127404761Y-107330952D01*
X127452380Y-107426190D01*
X127452380Y-107521428D01*
X127404761Y-107616666D01*
X127357142Y-107664285D01*
X127261904Y-107711904D01*
X127071428Y-107759523D01*
X126833333Y-107759523D01*
X126642857Y-107711904D01*
X126547619Y-107664285D01*
X126500000Y-107616666D01*
X126452380Y-107521428D01*
G04 #@! TO.C,R8*
X145629333Y-118816380D02*
X145296000Y-118340190D01*
X145057904Y-118816380D02*
X145057904Y-117816380D01*
X145438857Y-117816380D01*
X145534095Y-117864000D01*
X145581714Y-117911619D01*
X145629333Y-118006857D01*
X145629333Y-118149714D01*
X145581714Y-118244952D01*
X145534095Y-118292571D01*
X145438857Y-118340190D01*
X145057904Y-118340190D01*
X146200761Y-118244952D02*
X146105523Y-118197333D01*
X146057904Y-118149714D01*
X146010285Y-118054476D01*
X146010285Y-118006857D01*
X146057904Y-117911619D01*
X146105523Y-117864000D01*
X146200761Y-117816380D01*
X146391238Y-117816380D01*
X146486476Y-117864000D01*
X146534095Y-117911619D01*
X146581714Y-118006857D01*
X146581714Y-118054476D01*
X146534095Y-118149714D01*
X146486476Y-118197333D01*
X146391238Y-118244952D01*
X146200761Y-118244952D01*
X146105523Y-118292571D01*
X146057904Y-118340190D01*
X146010285Y-118435428D01*
X146010285Y-118625904D01*
X146057904Y-118721142D01*
X146105523Y-118768761D01*
X146200761Y-118816380D01*
X146391238Y-118816380D01*
X146486476Y-118768761D01*
X146534095Y-118721142D01*
X146581714Y-118625904D01*
X146581714Y-118435428D01*
X146534095Y-118340190D01*
X146486476Y-118292571D01*
X146391238Y-118244952D01*
X146248380Y-112799666D02*
X146248380Y-113371095D01*
X146248380Y-113085380D02*
X145248380Y-113085380D01*
X145391238Y-113180619D01*
X145486476Y-113275857D01*
X145534095Y-113371095D01*
X145248380Y-112180619D02*
X145248380Y-112085380D01*
X145296000Y-111990142D01*
X145343619Y-111942523D01*
X145438857Y-111894904D01*
X145629333Y-111847285D01*
X145867428Y-111847285D01*
X146057904Y-111894904D01*
X146153142Y-111942523D01*
X146200761Y-111990142D01*
X146248380Y-112085380D01*
X146248380Y-112180619D01*
X146200761Y-112275857D01*
X146153142Y-112323476D01*
X146057904Y-112371095D01*
X145867428Y-112418714D01*
X145629333Y-112418714D01*
X145438857Y-112371095D01*
X145343619Y-112323476D01*
X145296000Y-112275857D01*
X145248380Y-112180619D01*
X145248380Y-111228238D02*
X145248380Y-111133000D01*
X145296000Y-111037761D01*
X145343619Y-110990142D01*
X145438857Y-110942523D01*
X145629333Y-110894904D01*
X145867428Y-110894904D01*
X146057904Y-110942523D01*
X146153142Y-110990142D01*
X146200761Y-111037761D01*
X146248380Y-111133000D01*
X146248380Y-111228238D01*
X146200761Y-111323476D01*
X146153142Y-111371095D01*
X146057904Y-111418714D01*
X145867428Y-111466333D01*
X145629333Y-111466333D01*
X145438857Y-111418714D01*
X145343619Y-111371095D01*
X145296000Y-111323476D01*
X145248380Y-111228238D01*
X146248380Y-110466333D02*
X145248380Y-110466333D01*
X146248380Y-109894904D02*
X145676952Y-110323476D01*
X145248380Y-109894904D02*
X145819809Y-110466333D01*
G04 #@! TO.C,R9*
X138263333Y-90622380D02*
X137930000Y-90146190D01*
X137691904Y-90622380D02*
X137691904Y-89622380D01*
X138072857Y-89622380D01*
X138168095Y-89670000D01*
X138215714Y-89717619D01*
X138263333Y-89812857D01*
X138263333Y-89955714D01*
X138215714Y-90050952D01*
X138168095Y-90098571D01*
X138072857Y-90146190D01*
X137691904Y-90146190D01*
X138739523Y-90622380D02*
X138930000Y-90622380D01*
X139025238Y-90574761D01*
X139072857Y-90527142D01*
X139168095Y-90384285D01*
X139215714Y-90193809D01*
X139215714Y-89812857D01*
X139168095Y-89717619D01*
X139120476Y-89670000D01*
X139025238Y-89622380D01*
X138834761Y-89622380D01*
X138739523Y-89670000D01*
X138691904Y-89717619D01*
X138644285Y-89812857D01*
X138644285Y-90050952D01*
X138691904Y-90146190D01*
X138739523Y-90193809D01*
X138834761Y-90241428D01*
X139025238Y-90241428D01*
X139120476Y-90193809D01*
X139168095Y-90146190D01*
X139215714Y-90050952D01*
X137739523Y-88082380D02*
X137168095Y-88082380D01*
X137453809Y-88082380D02*
X137453809Y-87082380D01*
X137358571Y-87225238D01*
X137263333Y-87320476D01*
X137168095Y-87368095D01*
X138358571Y-87082380D02*
X138453809Y-87082380D01*
X138549047Y-87130000D01*
X138596666Y-87177619D01*
X138644285Y-87272857D01*
X138691904Y-87463333D01*
X138691904Y-87701428D01*
X138644285Y-87891904D01*
X138596666Y-87987142D01*
X138549047Y-88034761D01*
X138453809Y-88082380D01*
X138358571Y-88082380D01*
X138263333Y-88034761D01*
X138215714Y-87987142D01*
X138168095Y-87891904D01*
X138120476Y-87701428D01*
X138120476Y-87463333D01*
X138168095Y-87272857D01*
X138215714Y-87177619D01*
X138263333Y-87130000D01*
X138358571Y-87082380D01*
X139120476Y-88082380D02*
X139120476Y-87082380D01*
X139691904Y-88082380D02*
X139263333Y-87510952D01*
X139691904Y-87082380D02*
X139120476Y-87653809D01*
G04 #@! TO.C,R10*
X123309142Y-85161380D02*
X122975809Y-84685190D01*
X122737714Y-85161380D02*
X122737714Y-84161380D01*
X123118666Y-84161380D01*
X123213904Y-84209000D01*
X123261523Y-84256619D01*
X123309142Y-84351857D01*
X123309142Y-84494714D01*
X123261523Y-84589952D01*
X123213904Y-84637571D01*
X123118666Y-84685190D01*
X122737714Y-84685190D01*
X124261523Y-85161380D02*
X123690095Y-85161380D01*
X123975809Y-85161380D02*
X123975809Y-84161380D01*
X123880571Y-84304238D01*
X123785333Y-84399476D01*
X123690095Y-84447095D01*
X124880571Y-84161380D02*
X124975809Y-84161380D01*
X125071047Y-84209000D01*
X125118666Y-84256619D01*
X125166285Y-84351857D01*
X125213904Y-84542333D01*
X125213904Y-84780428D01*
X125166285Y-84970904D01*
X125118666Y-85066142D01*
X125071047Y-85113761D01*
X124975809Y-85161380D01*
X124880571Y-85161380D01*
X124785333Y-85113761D01*
X124737714Y-85066142D01*
X124690095Y-84970904D01*
X124642476Y-84780428D01*
X124642476Y-84542333D01*
X124690095Y-84351857D01*
X124737714Y-84256619D01*
X124785333Y-84209000D01*
X124880571Y-84161380D01*
X124404380Y-92130476D02*
X124404380Y-92701904D01*
X124404380Y-92416190D02*
X123404380Y-92416190D01*
X123547238Y-92511428D01*
X123642476Y-92606666D01*
X123690095Y-92701904D01*
X123404380Y-91511428D02*
X123404380Y-91416190D01*
X123452000Y-91320952D01*
X123499619Y-91273333D01*
X123594857Y-91225714D01*
X123785333Y-91178095D01*
X124023428Y-91178095D01*
X124213904Y-91225714D01*
X124309142Y-91273333D01*
X124356761Y-91320952D01*
X124404380Y-91416190D01*
X124404380Y-91511428D01*
X124356761Y-91606666D01*
X124309142Y-91654285D01*
X124213904Y-91701904D01*
X124023428Y-91749523D01*
X123785333Y-91749523D01*
X123594857Y-91701904D01*
X123499619Y-91654285D01*
X123452000Y-91606666D01*
X123404380Y-91511428D01*
X124404380Y-90749523D02*
X123404380Y-90749523D01*
X124404380Y-90178095D02*
X123832952Y-90606666D01*
X123404380Y-90178095D02*
X123975809Y-90749523D01*
G04 #@! TO.C,R11*
X156329142Y-108021380D02*
X155995809Y-107545190D01*
X155757714Y-108021380D02*
X155757714Y-107021380D01*
X156138666Y-107021380D01*
X156233904Y-107069000D01*
X156281523Y-107116619D01*
X156329142Y-107211857D01*
X156329142Y-107354714D01*
X156281523Y-107449952D01*
X156233904Y-107497571D01*
X156138666Y-107545190D01*
X155757714Y-107545190D01*
X157281523Y-108021380D02*
X156710095Y-108021380D01*
X156995809Y-108021380D02*
X156995809Y-107021380D01*
X156900571Y-107164238D01*
X156805333Y-107259476D01*
X156710095Y-107307095D01*
X158233904Y-108021380D02*
X157662476Y-108021380D01*
X157948190Y-108021380D02*
X157948190Y-107021380D01*
X157852952Y-107164238D01*
X157757714Y-107259476D01*
X157662476Y-107307095D01*
X156686285Y-110561380D02*
X156114857Y-110561380D01*
X156400571Y-110561380D02*
X156400571Y-109561380D01*
X156305333Y-109704238D01*
X156210095Y-109799476D01*
X156114857Y-109847095D01*
X157114857Y-110561380D02*
X157114857Y-109561380D01*
X157448190Y-110275666D01*
X157781523Y-109561380D01*
X157781523Y-110561380D01*
G04 #@! TO.C,TP1*
X144788095Y-85812380D02*
X145359523Y-85812380D01*
X145073809Y-86812380D02*
X145073809Y-85812380D01*
X145692857Y-86812380D02*
X145692857Y-85812380D01*
X146073809Y-85812380D01*
X146169047Y-85860000D01*
X146216666Y-85907619D01*
X146264285Y-86002857D01*
X146264285Y-86145714D01*
X146216666Y-86240952D01*
X146169047Y-86288571D01*
X146073809Y-86336190D01*
X145692857Y-86336190D01*
X147216666Y-86812380D02*
X146645238Y-86812380D01*
X146930952Y-86812380D02*
X146930952Y-85812380D01*
X146835714Y-85955238D01*
X146740476Y-86050476D01*
X146645238Y-86098095D01*
X142026190Y-81732380D02*
X142026190Y-80732380D01*
X142359523Y-81446666D01*
X142692857Y-80732380D01*
X142692857Y-81732380D01*
X143169047Y-81732380D02*
X143169047Y-80732380D01*
X143645238Y-81732380D02*
X143645238Y-80732380D01*
X143883333Y-80732380D01*
X144026190Y-80780000D01*
X144121428Y-80875238D01*
X144169047Y-80970476D01*
X144216666Y-81160952D01*
X144216666Y-81303809D01*
X144169047Y-81494285D01*
X144121428Y-81589523D01*
X144026190Y-81684761D01*
X143883333Y-81732380D01*
X143645238Y-81732380D01*
X144645238Y-81732380D02*
X144645238Y-80732380D01*
X144883333Y-81827619D02*
X145645238Y-81827619D01*
X145835714Y-81684761D02*
X145978571Y-81732380D01*
X146216666Y-81732380D01*
X146311904Y-81684761D01*
X146359523Y-81637142D01*
X146407142Y-81541904D01*
X146407142Y-81446666D01*
X146359523Y-81351428D01*
X146311904Y-81303809D01*
X146216666Y-81256190D01*
X146026190Y-81208571D01*
X145930952Y-81160952D01*
X145883333Y-81113333D01*
X145835714Y-81018095D01*
X145835714Y-80922857D01*
X145883333Y-80827619D01*
X145930952Y-80780000D01*
X146026190Y-80732380D01*
X146264285Y-80732380D01*
X146407142Y-80780000D01*
X146835714Y-81732380D02*
X146835714Y-80732380D01*
X147216666Y-80732380D01*
X147311904Y-80780000D01*
X147359523Y-80827619D01*
X147407142Y-80922857D01*
X147407142Y-81065714D01*
X147359523Y-81160952D01*
X147311904Y-81208571D01*
X147216666Y-81256190D01*
X146835714Y-81256190D01*
X147835714Y-81732380D02*
X147835714Y-80732380D01*
X148073809Y-81827619D02*
X148835714Y-81827619D01*
X149073809Y-81732380D02*
X149073809Y-80732380D01*
X149311904Y-80732380D01*
X149454761Y-80780000D01*
X149550000Y-80875238D01*
X149597619Y-80970476D01*
X149645238Y-81160952D01*
X149645238Y-81303809D01*
X149597619Y-81494285D01*
X149550000Y-81589523D01*
X149454761Y-81684761D01*
X149311904Y-81732380D01*
X149073809Y-81732380D01*
X150073809Y-81732380D02*
X150073809Y-80732380D01*
G04 #@! TO.C,U1*
X155154380Y-84581904D02*
X155963904Y-84581904D01*
X156059142Y-84534285D01*
X156106761Y-84486666D01*
X156154380Y-84391428D01*
X156154380Y-84200952D01*
X156106761Y-84105714D01*
X156059142Y-84058095D01*
X155963904Y-84010476D01*
X155154380Y-84010476D01*
X156154380Y-83010476D02*
X156154380Y-83581904D01*
X156154380Y-83296190D02*
X155154380Y-83296190D01*
X155297238Y-83391428D01*
X155392476Y-83486666D01*
X155440095Y-83581904D01*
D12*
X164550285Y-89536571D02*
X164550285Y-89893714D01*
X163800285Y-89893714D01*
X164550285Y-89286571D02*
X163800285Y-89286571D01*
X164336000Y-89036571D01*
X163800285Y-88786571D01*
X164550285Y-88786571D01*
X164550285Y-88036571D02*
X164550285Y-88465142D01*
X164550285Y-88250857D02*
X163800285Y-88250857D01*
X163907428Y-88322285D01*
X163978857Y-88393714D01*
X164014571Y-88465142D01*
X164550285Y-87322285D02*
X164550285Y-87750857D01*
X164550285Y-87536571D02*
X163800285Y-87536571D01*
X163907428Y-87608000D01*
X163978857Y-87679428D01*
X164014571Y-87750857D01*
X164550285Y-86608000D02*
X164550285Y-87036571D01*
X164550285Y-86822285D02*
X163800285Y-86822285D01*
X163907428Y-86893714D01*
X163978857Y-86965142D01*
X164014571Y-87036571D01*
X163800285Y-86358000D02*
X163800285Y-85858000D01*
X164550285Y-86179428D01*
X164264571Y-85572285D02*
X164264571Y-85000857D01*
X163800285Y-84715142D02*
X163800285Y-84250857D01*
X164086000Y-84500857D01*
X164086000Y-84393714D01*
X164121714Y-84322285D01*
X164157428Y-84286571D01*
X164228857Y-84250857D01*
X164407428Y-84250857D01*
X164478857Y-84286571D01*
X164514571Y-84322285D01*
X164550285Y-84393714D01*
X164550285Y-84608000D01*
X164514571Y-84679428D01*
X164478857Y-84715142D01*
X164478857Y-83929428D02*
X164514571Y-83893714D01*
X164550285Y-83929428D01*
X164514571Y-83965142D01*
X164478857Y-83929428D01*
X164550285Y-83929428D01*
X163800285Y-83643714D02*
X163800285Y-83179428D01*
X164086000Y-83429428D01*
X164086000Y-83322285D01*
X164121714Y-83250857D01*
X164157428Y-83215142D01*
X164228857Y-83179428D01*
X164407428Y-83179428D01*
X164478857Y-83215142D01*
X164514571Y-83250857D01*
X164550285Y-83322285D01*
X164550285Y-83536571D01*
X164514571Y-83608000D01*
X164478857Y-83643714D01*
X163800285Y-82965142D02*
X164550285Y-82715142D01*
X163800285Y-82465142D01*
G04 #@! TO.C,U2*
D10*
X165187380Y-84581904D02*
X165996904Y-84581904D01*
X166092142Y-84534285D01*
X166139761Y-84486666D01*
X166187380Y-84391428D01*
X166187380Y-84200952D01*
X166139761Y-84105714D01*
X166092142Y-84058095D01*
X165996904Y-84010476D01*
X165187380Y-84010476D01*
X165282619Y-83581904D02*
X165235000Y-83534285D01*
X165187380Y-83439047D01*
X165187380Y-83200952D01*
X165235000Y-83105714D01*
X165282619Y-83058095D01*
X165377857Y-83010476D01*
X165473095Y-83010476D01*
X165615952Y-83058095D01*
X166187380Y-83629523D01*
X166187380Y-83010476D01*
X174583285Y-89536571D02*
X174583285Y-89893714D01*
X173833285Y-89893714D01*
X174583285Y-89286571D02*
X173833285Y-89286571D01*
X174369000Y-89036571D01*
X173833285Y-88786571D01*
X174583285Y-88786571D01*
X174583285Y-88036571D02*
X174583285Y-88465142D01*
X174583285Y-88250857D02*
X173833285Y-88250857D01*
X173940428Y-88322285D01*
X174011857Y-88393714D01*
X174047571Y-88465142D01*
X174583285Y-87322285D02*
X174583285Y-87750857D01*
X174583285Y-87536571D02*
X173833285Y-87536571D01*
X173940428Y-87608000D01*
X174011857Y-87679428D01*
X174047571Y-87750857D01*
X174583285Y-86608000D02*
X174583285Y-87036571D01*
X174583285Y-86822285D02*
X173833285Y-86822285D01*
X173940428Y-86893714D01*
X174011857Y-86965142D01*
X174047571Y-87036571D01*
X173833285Y-86358000D02*
X173833285Y-85858000D01*
X174583285Y-86179428D01*
X174297571Y-85572285D02*
X174297571Y-85000857D01*
X174583285Y-84250857D02*
X174583285Y-84679428D01*
X174583285Y-84465142D02*
X173833285Y-84465142D01*
X173940428Y-84536571D01*
X174011857Y-84608000D01*
X174047571Y-84679428D01*
X174511857Y-83929428D02*
X174547571Y-83893714D01*
X174583285Y-83929428D01*
X174547571Y-83965142D01*
X174511857Y-83929428D01*
X174583285Y-83929428D01*
X174154714Y-83465142D02*
X174119000Y-83536571D01*
X174083285Y-83572285D01*
X174011857Y-83608000D01*
X173976142Y-83608000D01*
X173904714Y-83572285D01*
X173869000Y-83536571D01*
X173833285Y-83465142D01*
X173833285Y-83322285D01*
X173869000Y-83250857D01*
X173904714Y-83215142D01*
X173976142Y-83179428D01*
X174011857Y-83179428D01*
X174083285Y-83215142D01*
X174119000Y-83250857D01*
X174154714Y-83322285D01*
X174154714Y-83465142D01*
X174190428Y-83536571D01*
X174226142Y-83572285D01*
X174297571Y-83608000D01*
X174440428Y-83608000D01*
X174511857Y-83572285D01*
X174547571Y-83536571D01*
X174583285Y-83465142D01*
X174583285Y-83322285D01*
X174547571Y-83250857D01*
X174511857Y-83215142D01*
X174440428Y-83179428D01*
X174297571Y-83179428D01*
X174226142Y-83215142D01*
X174190428Y-83250857D01*
X174154714Y-83322285D01*
X173833285Y-82965142D02*
X174583285Y-82715142D01*
X173833285Y-82465142D01*
G04 #@! TO.C,X1*
X155400476Y-102582380D02*
X156067142Y-103582380D01*
X156067142Y-102582380D02*
X155400476Y-103582380D01*
X156971904Y-103582380D02*
X156400476Y-103582380D01*
X156686190Y-103582380D02*
X156686190Y-102582380D01*
X156590952Y-102725238D01*
X156495714Y-102820476D01*
X156400476Y-102868095D01*
X153233809Y-96982380D02*
X153424285Y-96982380D01*
X153519523Y-97030000D01*
X153614761Y-97125238D01*
X153662380Y-97315714D01*
X153662380Y-97649047D01*
X153614761Y-97839523D01*
X153519523Y-97934761D01*
X153424285Y-97982380D01*
X153233809Y-97982380D01*
X153138571Y-97934761D01*
X153043333Y-97839523D01*
X152995714Y-97649047D01*
X152995714Y-97315714D01*
X153043333Y-97125238D01*
X153138571Y-97030000D01*
X153233809Y-96982380D01*
X154043333Y-97934761D02*
X154186190Y-97982380D01*
X154424285Y-97982380D01*
X154519523Y-97934761D01*
X154567142Y-97887142D01*
X154614761Y-97791904D01*
X154614761Y-97696666D01*
X154567142Y-97601428D01*
X154519523Y-97553809D01*
X154424285Y-97506190D01*
X154233809Y-97458571D01*
X154138571Y-97410952D01*
X154090952Y-97363333D01*
X154043333Y-97268095D01*
X154043333Y-97172857D01*
X154090952Y-97077619D01*
X154138571Y-97030000D01*
X154233809Y-96982380D01*
X154471904Y-96982380D01*
X154614761Y-97030000D01*
X155614761Y-97887142D02*
X155567142Y-97934761D01*
X155424285Y-97982380D01*
X155329047Y-97982380D01*
X155186190Y-97934761D01*
X155090952Y-97839523D01*
X155043333Y-97744285D01*
X154995714Y-97553809D01*
X154995714Y-97410952D01*
X155043333Y-97220476D01*
X155090952Y-97125238D01*
X155186190Y-97030000D01*
X155329047Y-96982380D01*
X155424285Y-96982380D01*
X155567142Y-97030000D01*
X155614761Y-97077619D01*
X156519523Y-96982380D02*
X156043333Y-96982380D01*
X155995714Y-97458571D01*
X156043333Y-97410952D01*
X156138571Y-97363333D01*
X156376666Y-97363333D01*
X156471904Y-97410952D01*
X156519523Y-97458571D01*
X156567142Y-97553809D01*
X156567142Y-97791904D01*
X156519523Y-97887142D01*
X156471904Y-97934761D01*
X156376666Y-97982380D01*
X156138571Y-97982380D01*
X156043333Y-97934761D01*
X155995714Y-97887142D01*
X157186190Y-96982380D02*
X157281428Y-96982380D01*
X157376666Y-97030000D01*
X157424285Y-97077619D01*
X157471904Y-97172857D01*
X157519523Y-97363333D01*
X157519523Y-97601428D01*
X157471904Y-97791904D01*
X157424285Y-97887142D01*
X157376666Y-97934761D01*
X157281428Y-97982380D01*
X157186190Y-97982380D01*
X157090952Y-97934761D01*
X157043333Y-97887142D01*
X156995714Y-97791904D01*
X156948095Y-97601428D01*
X156948095Y-97363333D01*
X156995714Y-97172857D01*
X157043333Y-97077619D01*
X157090952Y-97030000D01*
X157186190Y-96982380D01*
X157852857Y-96982380D02*
X158471904Y-96982380D01*
X158138571Y-97363333D01*
X158281428Y-97363333D01*
X158376666Y-97410952D01*
X158424285Y-97458571D01*
X158471904Y-97553809D01*
X158471904Y-97791904D01*
X158424285Y-97887142D01*
X158376666Y-97934761D01*
X158281428Y-97982380D01*
X157995714Y-97982380D01*
X157900476Y-97934761D01*
X157852857Y-97887142D01*
X158852857Y-97077619D02*
X158900476Y-97030000D01*
X158995714Y-96982380D01*
X159233809Y-96982380D01*
X159329047Y-97030000D01*
X159376666Y-97077619D01*
X159424285Y-97172857D01*
X159424285Y-97268095D01*
X159376666Y-97410952D01*
X158805238Y-97982380D01*
X159424285Y-97982380D01*
G04 #@! TO.C,Y1*
X156568809Y-118213190D02*
X156568809Y-118689380D01*
X156235476Y-117689380D02*
X156568809Y-118213190D01*
X156902142Y-117689380D01*
X157759285Y-118689380D02*
X157187857Y-118689380D01*
X157473571Y-118689380D02*
X157473571Y-117689380D01*
X157378333Y-117832238D01*
X157283095Y-117927476D01*
X157187857Y-117975095D01*
G04 #@! TD*
M02*
