G04 #@! TF.FileFunction,Soldermask,Top*
%FSLAX46Y46*%
G04 Gerber Fmt 4.6, Leading zero omitted, Abs format (unit mm)*
G04 Created by KiCad (PCBNEW 4.0.5+dfsg1-4) date Fri Dec 21 19:33:44 2018*
%MOMM*%
%LPD*%
G01*
G04 APERTURE LIST*
%ADD10C,0.100000*%
%ADD11R,1.700000X0.650000*%
%ADD12R,0.650000X1.700000*%
%ADD13R,1.700000X1.700000*%
%ADD14C,1.700000*%
%ADD15R,2.127200X2.127200*%
%ADD16O,2.127200X2.127200*%
%ADD17R,1.200000X1.300000*%
%ADD18C,2.398980*%
%ADD19R,4.200000X2.400000*%
%ADD20R,1.900000X2.400000*%
%ADD21R,1.700000X2.000000*%
G04 APERTURE END LIST*
D10*
D11*
X192564000Y-107398000D03*
X192564000Y-106898000D03*
X192564000Y-106398000D03*
X192564000Y-105898000D03*
X192564000Y-105398000D03*
X192564000Y-104898000D03*
X192564000Y-104398000D03*
X192564000Y-103898000D03*
X192564000Y-103398000D03*
X192564000Y-102898000D03*
X192564000Y-102398000D03*
X192564000Y-101898000D03*
D12*
X190964000Y-100298000D03*
X190464000Y-100298000D03*
X189964000Y-100298000D03*
X189464000Y-100298000D03*
X188964000Y-100298000D03*
X188464000Y-100298000D03*
X187964000Y-100298000D03*
X187464000Y-100298000D03*
X186964000Y-100298000D03*
X186464000Y-100298000D03*
X185964000Y-100298000D03*
X185464000Y-100298000D03*
D11*
X183864000Y-101898000D03*
X183864000Y-102398000D03*
X183864000Y-102898000D03*
X183864000Y-103398000D03*
X183864000Y-103898000D03*
X183864000Y-104398000D03*
X183864000Y-104898000D03*
X183864000Y-105398000D03*
X183864000Y-105898000D03*
X183864000Y-106398000D03*
X183864000Y-106898000D03*
X183864000Y-107398000D03*
D12*
X185464000Y-108998000D03*
X185964000Y-108998000D03*
X186464000Y-108998000D03*
X186964000Y-108998000D03*
X187464000Y-108998000D03*
X187964000Y-108998000D03*
X188464000Y-108998000D03*
X188964000Y-108998000D03*
X189464000Y-108998000D03*
X189964000Y-108998000D03*
X190464000Y-108998000D03*
X190964000Y-108998000D03*
D13*
X181610000Y-113030000D03*
D14*
X181610000Y-115530000D03*
D15*
X114300000Y-100330000D03*
D16*
X116840000Y-100330000D03*
X114300000Y-102870000D03*
X116840000Y-102870000D03*
X114300000Y-105410000D03*
X116840000Y-105410000D03*
X114300000Y-107950000D03*
X116840000Y-107950000D03*
X114300000Y-110490000D03*
X116840000Y-110490000D03*
X114300000Y-113030000D03*
X116840000Y-113030000D03*
X114300000Y-115570000D03*
X116840000Y-115570000D03*
X114300000Y-118110000D03*
X116840000Y-118110000D03*
X114300000Y-120650000D03*
X116840000Y-120650000D03*
X114300000Y-123190000D03*
X116840000Y-123190000D03*
X114300000Y-125730000D03*
X116840000Y-125730000D03*
X114300000Y-128270000D03*
X116840000Y-128270000D03*
X114300000Y-130810000D03*
X116840000Y-130810000D03*
D13*
X160020000Y-106680000D03*
D14*
X157520000Y-106680000D03*
D13*
X152400000Y-106680000D03*
D14*
X149900000Y-106680000D03*
D13*
X143510000Y-95250000D03*
D14*
X143510000Y-97750000D03*
D13*
X166370000Y-95250000D03*
D14*
X166370000Y-97750000D03*
D13*
X184150000Y-97790000D03*
D14*
X184150000Y-95290000D03*
D13*
X191770000Y-97790000D03*
D14*
X191770000Y-95290000D03*
D13*
X195580000Y-104140000D03*
D14*
X198080000Y-104140000D03*
D13*
X195580000Y-101600000D03*
D14*
X198080000Y-101600000D03*
D13*
X195580000Y-106680000D03*
D14*
X198080000Y-106680000D03*
D13*
X181610000Y-97790000D03*
D14*
X181610000Y-95290000D03*
D13*
X180340000Y-104140000D03*
D14*
X177840000Y-104140000D03*
D13*
X185420000Y-113030000D03*
D14*
X185420000Y-115530000D03*
D13*
X187960000Y-113030000D03*
D14*
X187960000Y-115530000D03*
D13*
X190500000Y-113030000D03*
D14*
X190500000Y-115530000D03*
D13*
X187960000Y-134620000D03*
D14*
X185460000Y-134620000D03*
D13*
X127000000Y-130810000D03*
D14*
X127000000Y-133310000D03*
D13*
X123190000Y-130810000D03*
D14*
X123190000Y-133310000D03*
D13*
X195580000Y-110490000D03*
D14*
X198080000Y-110490000D03*
D17*
X127950000Y-103140000D03*
X126050000Y-103140000D03*
X127000000Y-105140000D03*
D18*
X165100000Y-121920000D03*
X165100000Y-111760000D03*
X142240000Y-121920000D03*
X142240000Y-111760000D03*
X165100000Y-107950000D03*
X175260000Y-107950000D03*
X165100000Y-104140000D03*
X175260000Y-104140000D03*
X190500000Y-134620000D03*
X190500000Y-124460000D03*
X127000000Y-128270000D03*
X127000000Y-118110000D03*
X123190000Y-128270000D03*
X123190000Y-118110000D03*
X194310000Y-114300000D03*
X204470000Y-114300000D03*
X130810000Y-113030000D03*
X130810000Y-102870000D03*
X123190000Y-102870000D03*
X123190000Y-113030000D03*
D19*
X151130000Y-94640000D03*
D20*
X151130000Y-100940000D03*
X153430000Y-100940000D03*
X148830000Y-100940000D03*
D19*
X158750000Y-94640000D03*
D20*
X158750000Y-100940000D03*
X161050000Y-100940000D03*
X156450000Y-100940000D03*
D21*
X186960000Y-93600000D03*
X186960000Y-96900000D03*
X188960000Y-96900000D03*
X188960000Y-93600000D03*
M02*
